version 1
nodes
  0 "ValveBiped.Bip01_Pelvis" -1
  1 "ValveBiped.Bip01_L_Thigh" 0
  2 "ValveBiped.Bip01_L_Calf" 1
  3 "ValveBiped.Bip01_L_Foot" 2
  4 "ValveBiped.Bip01_L_Toe0" 3
  5 "ValveBiped.Bip01_R_Thigh" 0
  6 "ValveBiped.Bip01_R_Calf" 5
  7 "ValveBiped.Bip01_R_Foot" 6
  8 "ValveBiped.Bip01_R_Toe0" 7
  9 "ValveBiped.Bip01_Spine" 0
  10 "ValveBiped.Bip01_Spine1" 9
  11 "ValveBiped.Bip01_Spine2" 10
  12 "ValveBiped.Bip01_Spine4" 11
  13 "ValveBiped.Bip01_Neck1" 12
  14 "ValveBiped.Bip01_Head1" 13
  15 "ValveBiped.Bip01_L_Clavicle" 12
  16 "ValveBiped.Bip01_L_UpperArm" 15
  17 "ValveBiped.Bip01_L_Forearm" 16
  18 "ValveBiped.Bip01_L_Hand" 17
  19 "ValveBiped.Bip01_L_Finger4" 18
  20 "ValveBiped.Bip01_L_Finger41" 19
  21 "ValveBiped.Bip01_L_Finger42" 20
  22 "ValveBiped.Bip01_L_Finger3" 18
  23 "ValveBiped.Bip01_L_Finger31" 22
  24 "ValveBiped.Bip01_L_Finger32" 23
  25 "ValveBiped.Bip01_L_Finger2" 18
  26 "ValveBiped.Bip01_L_Finger21" 25
  27 "ValveBiped.Bip01_L_Finger22" 26
  28 "ValveBiped.Bip01_L_Finger1" 18
  29 "ValveBiped.Bip01_L_Finger11" 28
  30 "ValveBiped.Bip01_L_Finger12" 29
  31 "ValveBiped.Bip01_L_Finger0" 18
  32 "ValveBiped.Bip01_L_Finger01" 31
  33 "ValveBiped.Bip01_L_Finger02" 32
  34 "ValveBiped.Bip01_R_Clavicle" 12
  35 "ValveBiped.Bip01_R_UpperArm" 34
  36 "ValveBiped.Bip01_R_Forearm" 35
  37 "ValveBiped.Bip01_R_Hand" 36
  38 "ValveBiped.Bip01_R_Finger4" 37
  39 "ValveBiped.Bip01_R_Finger41" 38
  40 "ValveBiped.Bip01_R_Finger42" 39
  41 "ValveBiped.Bip01_R_Finger3" 37
  42 "ValveBiped.Bip01_R_Finger31" 41
  43 "ValveBiped.Bip01_R_Finger32" 42
  44 "ValveBiped.Bip01_R_Finger2" 37
  45 "ValveBiped.Bip01_R_Finger21" 44
  46 "ValveBiped.Bip01_R_Finger22" 45
  47 "ValveBiped.Bip01_R_Finger1" 37
  48 "ValveBiped.Bip01_R_Finger11" 47
  49 "ValveBiped.Bip01_R_Finger12" 48
  50 "ValveBiped.Bip01_R_Finger0" 37
  51 "ValveBiped.Bip01_R_Finger01" 50
  52 "ValveBiped.Bip01_R_Finger02" 51
  53 "ValveBiped.attachment_bandage_armL" 17
  54 "ValveBiped.attachment_bandage_legL" 1
  55 "ValveBiped.attachment_bandage_legR" 5
  56 "ValveBiped.attachment_armL_T" 17
  57 "ValveBiped.attachment_armR_T" 36
  58 "ValveBiped.weapon_bone" 37
  59 "ValveBiped.weapon_bone_Clip" 58
  60 "ValveBiped.L_weapon_bone" 18
  61 "ValveBiped.forward" 14
  62 "ValveBiped.weapon_bone_extra" 58
  63 "ValveBiped.weapon_bone_Clip2" 18
  64 "ValveBiped.weapon_bone_Clip2_Bullets" 63
  65 "ValveBiped.weapon_bolt_l" 18
  66 "ValveBiped.weapon_bone_Clip_Bullets" 59
  67 "ValveBiped.weapon_bolt" 58
  68 "ValveBiped.weapon_bolt_opposite" 58
  69 "ValveBiped.weapon_charger" 58
end
skeleton
time 0
    0 -2.798828 10.679688 7.671875 0.193890 1.184807 0.511195
    1 3.455587 0.000000 0.000000 -2.368130 -1.171579 -0.736903
    2 16.572346 0.000000 0.000000 0.000000 0.000000 2.492116
    3 16.265829 0.000000 0.000000 -0.521911 0.117814 -0.925098
    4 5.046457 0.000000 0.000000 0.015179 -0.021492 -0.505390
    5 -3.455587 0.000000 0.000000 -1.980949 -0.476403 -1.215546
    6 16.572346 0.000000 0.000000 0.000000 0.000000 1.740152
    7 16.265831 0.000000 0.000000 0.356964 -0.022706 -1.132570
    8 5.046457 0.000000 0.000000 -0.101158 0.012224 -0.446078
    9 0.000000 3.703728 0.293189 1.584470 -0.377076 1.486184
    10 3.307846 0.000000 0.000000 -0.041303 -0.028185 0.130895
    11 3.297962 0.000000 0.000000 -0.116182 -0.065887 0.101465
    12 6.040985 0.000000 0.000000 -0.146255 0.078689 0.377900
    13 5.065758 0.000000 0.000000 -3.127521 0.007626 0.768501
    14 3.993755 0.000000 0.000000 0.032509 -0.066723 0.146769
    15 3.815876 1.385489 1.500000 0.612726 -1.434909 -2.190997
    16 4.327093 0.000004 0.000000 -2.330759 -0.050268 -1.390715
    17 11.105114 0.000000 0.000000 0.000000 0.000000 -2.002330
    18 9.862099 -0.000011 -0.000031 2.402967 0.004329 -0.001491
    19 2.641094 0.214619 -1.073586 0.157099 -0.066091 -0.780590
    20 1.361605 -0.000002 0.000000 -0.125842 -0.198682 -0.570130
    21 0.779602 0.000002 0.000000 -0.054450 -0.175357 -0.302876
    22 2.908712 0.221762 -0.431868 0.262466 0.035477 -0.741150
    23 1.597527 0.000001 0.000000 -0.097757 -0.175234 -0.512469
    24 0.912680 0.000001 0.000000 0.002385 0.009683 -0.242644
    25 3.265450 0.050007 0.415744 0.310072 0.076460 -0.508822
    26 1.860470 0.000000 0.000000 -0.118966 -0.076516 -1.001797
    27 1.061481 -0.000001 0.000000 0.001830 0.012006 -0.156488
    28 3.340382 -0.242393 1.285012 0.307724 0.073969 -0.530922
    29 1.550753 0.000001 0.000000 0.057264 0.071571 -0.675739
    30 0.904888 0.000001 0.000000 0.001236 0.038489 -0.401834
    31 1.219385 -1.063860 0.837143 2.003256 -0.611431 -0.473829
    32 1.496971 -0.000002 -0.000001 0.000013 -0.037568 -0.055870
    33 1.100086 0.000000 0.000000 0.000000 0.000000 -0.125082
    34 3.815876 1.385489 -1.500000 1.467859 1.423431 -0.206524
    35 4.327089 -0.000004 0.000000 1.195882 0.177508 -1.529182
    36 11.105106 0.000000 0.000004 0.000000 0.000000 -1.399861
    37 9.862080 -0.000007 0.000017 -1.151018 0.033929 0.337430
    38 2.641111 0.211586 1.074188 -0.347050 -0.194537 -0.262540
    39 1.361601 0.000000 0.000000 -0.022933 0.007613 -1.890993
    40 0.779604 0.000001 0.000000 0.054474 0.175340 -0.910365
    41 2.908730 0.220541 0.432493 -0.425521 -0.282909 -0.524085
    42 1.597527 0.000000 0.000000 0.115619 -0.003419 -1.600477
    43 0.912678 0.000000 0.000000 -0.002403 -0.009699 -0.901508
    44 3.265471 0.051184 -0.415600 -0.428025 -0.264703 -0.582589
    45 1.860470 0.000000 0.000000 0.004951 -0.001033 -1.772344
    46 1.061485 0.000000 0.000000 -0.001870 -0.011971 -0.834431
    47 3.340403 -0.238762 -1.285691 -0.324189 -0.116457 -0.125981
    48 1.550755 0.000000 0.000000 -0.051292 -0.063997 -0.676366
    49 0.904886 0.000001 0.000000 -0.001263 -0.038530 -0.033046
    50 1.219410 -1.061498 -0.840143 -1.924947 0.122283 -0.482900
    51 1.496971 0.000002 0.000000 -0.000004 -0.225005 -0.494029
    52 1.100088 0.000000 0.000000 -0.000040 0.040618 -0.404246
    53 0.000000 -0.000007 -0.000031 1.373047 0.113574 0.124314
    54 0.000000 0.000000 0.000000 -0.077030 -0.068757 -1.299215
    55 7.054213 0.000000 0.000000 0.000000 0.000000 0.000000
    56 0.000000 -0.000007 -0.000031 1.373047 0.113574 0.124314
    57 0.000000 -0.000007 -0.000031 1.373047 0.113574 0.124314
    58 2.271484 -1.195313 -0.759766 -1.494794 -0.290863 -1.668717
    59 0.000000 0.000000 10.000000 0.000000 0.000000 0.000000
    60 2.856899 -1.536201 -0.973800 -1.501147 -0.272558 -1.578261
    61 2.000000 -3.000000 0.000000 -1.570796 0.000000 -1.326450
    62 0.018896 0.665159 9.395880 0.000000 0.000000 0.000000
    63 3.028210 -0.923409 -2.009452 1.574082 -0.012974 1.587244
    64 0.116954 4.311606 0.061861 0.000010 0.000000 0.000000
    65 0.000000 -0.000002 0.000000 0.000000 0.000000 0.000000
    66 0.000000 1.000000 0.000010 0.000000 0.000000 0.000000
    67 -0.000001 0.000000 0.000000 0.000000 0.000000 0.000000
    68 -0.000001 0.000000 0.000000 0.000000 0.000000 0.000000
    69 -0.000001 0.000000 0.000000 0.000000 0.000000 0.000000
time 1
    0 -2.798828 9.583840 7.738281 0.189753 1.189469 0.507713
    1 3.455587 0.000000 0.000000 -2.625958 -1.107974 -0.496005
    2 16.572346 0.000000 0.000000 0.000000 0.000000 2.479624
    3 16.265829 0.000000 0.000000 -0.407920 0.073247 -0.859483
    4 5.046457 0.000000 0.000000 0.009897 -0.018724 -0.419269
    5 -3.455587 0.000000 0.000000 -1.900525 -0.532985 -1.249644
    6 16.572346 0.000000 0.000000 0.000000 0.000000 1.821996
    7 16.265831 0.000000 0.000000 0.281034 -0.026688 -1.170937
    8 5.046457 0.000000 0.000000 -0.100187 0.015003 -0.323261
    9 0.000000 3.703728 0.293189 1.584041 -0.377143 1.487796
    10 3.307846 0.000000 0.000000 -0.031677 -0.023971 0.130677
    11 3.297962 0.000000 0.000000 -0.117359 -0.060666 0.100846
    12 6.040985 0.000000 0.000000 -0.146255 0.078689 0.377900
    13 5.065758 0.000000 0.000000 -3.127521 0.007626 0.768501
    14 3.993755 0.000000 0.000000 0.032509 -0.066723 0.146769
    15 3.815876 1.385489 1.500000 -0.159937 -1.456066 -1.405860
    16 4.327093 0.000004 0.000000 -2.160815 0.133332 -1.313744
    17 11.105114 0.000000 0.000000 0.000000 0.000000 -2.104051
    18 9.862099 -0.000011 -0.000031 2.402967 0.004329 -0.001491
    19 2.641094 0.214619 -1.073586 0.157099 -0.066091 -0.780590
    20 1.361605 -0.000002 0.000000 -0.092955 -0.180118 -0.479921
    21 0.779602 0.000002 0.000000 -0.054450 -0.175357 -0.302876
    22 2.908712 0.221762 -0.431868 0.262466 0.035477 -0.741150
    23 1.597527 0.000001 0.000000 -0.068169 -0.153557 -0.419840
    24 0.912680 0.000001 0.000000 0.002385 0.009683 -0.242644
    25 3.265450 0.050007 0.415744 0.310072 0.076460 -0.508822
    26 1.860470 0.000000 0.000000 -0.088943 -0.083990 -0.815437
    27 1.061481 -0.000001 0.000000 0.001830 0.012006 -0.156488
    28 3.340382 -0.242393 1.285012 0.307724 0.073969 -0.530922
    29 1.550753 0.000001 0.000000 0.045456 0.067813 -0.590783
    30 0.904888 0.000001 0.000000 0.001236 0.038489 -0.401834
    31 1.219385 -1.063860 0.837143 2.003256 -0.611431 -0.473829
    32 1.496971 -0.000002 -0.000001 0.000037 -0.029358 -0.043690
    33 1.100086 0.000000 0.000000 0.000000 0.000000 -0.125082
    34 3.815876 1.385489 -1.500000 1.467859 1.423431 -0.206524
    35 4.327089 -0.000004 0.000000 1.209935 0.166006 -1.526396
    36 11.105106 0.000000 0.000004 0.000000 0.000000 -1.416169
    37 9.862080 -0.000007 0.000017 -1.151018 0.033929 0.337430
    38 2.641111 0.211586 1.074188 -0.347050 -0.194537 -0.262540
    39 1.361601 0.000000 0.000000 -0.024955 0.003428 -1.707761
    40 0.779604 0.000001 0.000000 0.054474 0.175340 -0.910365
    41 2.908730 0.220541 0.432493 -0.425521 -0.282909 -0.524085
    42 1.597527 0.000000 0.000000 0.111753 0.021038 -1.385395
    43 0.912678 0.000000 0.000000 -0.002403 -0.009699 -0.901508
    44 3.265471 0.051184 -0.415600 -0.428025 -0.264703 -0.582589
    45 1.860470 0.000000 0.000000 0.005135 0.000231 -1.518109
    46 1.061485 0.000000 0.000000 -0.001870 -0.011971 -0.834431
    47 3.340403 -0.238762 -1.285691 -0.324189 -0.116457 -0.125981
    48 1.550755 0.000000 0.000000 -0.040731 -0.060707 -0.591530
    49 0.904886 0.000001 0.000000 -0.001263 -0.038530 -0.033046
    50 1.219410 -1.061498 -0.840143 -1.924947 0.122283 -0.482900
    51 1.496971 0.000002 0.000000 0.000004 -0.180040 -0.386555
    52 1.100088 0.000000 0.000000 -0.000040 0.040618 -0.404246
    53 0.000000 -0.000007 -0.000031 1.373047 0.113574 0.124314
    54 0.000000 0.000000 0.000000 -0.077030 -0.068757 -1.299215
    55 7.054213 0.000000 0.000000 0.000000 0.000000 0.000000
    56 0.000000 -0.000007 -0.000031 1.373047 0.113574 0.124314
    57 0.000000 -0.000007 -0.000031 1.373047 0.113574 0.124314
    58 2.271484 -1.195313 -0.759766 -1.494794 -0.290863 -1.668717
    59 0.000000 0.000000 10.000000 0.000000 0.000000 0.000000
    60 2.856899 -1.536201 -0.973800 -1.501147 -0.272558 -1.578261
    61 2.000000 -3.000000 0.000000 -1.570796 0.000000 -1.326450
    62 0.018896 0.665159 9.395880 0.000000 0.000000 0.000000
    63 3.028210 -0.923409 -2.009452 1.574082 -0.012974 1.587244
    64 0.116954 4.311606 0.061861 0.000010 0.000000 0.000000
    65 0.000000 -0.000002 0.000000 0.000000 0.000000 0.000000
    66 0.000000 1.000000 0.000010 0.000000 0.000000 0.000000
    67 -0.000001 0.000000 0.000000 0.000000 0.000000 0.000000
    68 -0.000001 0.000000 0.000000 0.000000 0.000000 0.000000
    69 -0.000001 0.000000 0.000000 0.000000 0.000000 0.000000
time 2
    0 -2.798828 8.316205 7.945313 0.179235 1.201556 0.499008
    1 3.455587 0.000000 0.000000 -2.470204 -1.176278 -0.641135
    2 16.572346 0.000000 0.000000 0.000000 0.000000 2.356009
    3 16.265829 0.000000 0.000000 -0.488055 0.091863 -0.754714
    4 5.046457 0.000000 0.000000 0.009897 -0.018724 -0.419269
    5 -3.455587 0.000000 0.000000 -1.666507 -0.602380 -1.403065
    6 16.572346 0.000000 0.000000 0.000000 0.000000 1.909687
    7 16.265831 0.000000 0.000000 0.085671 -0.049142 -1.210633
    8 5.046457 0.000000 0.000000 -0.100187 0.015003 -0.323261
    9 0.000000 3.703728 0.293189 1.582647 -0.377254 1.492220
    10 3.307846 0.000000 0.000000 -0.006999 -0.013125 0.130321
    11 3.297962 0.000000 0.000000 -0.120383 -0.046414 0.099116
    12 6.040985 0.000000 0.000000 -0.146255 0.078689 0.377900
    13 5.065758 0.000000 0.000000 -3.127521 0.007626 0.768501
    14 3.993755 0.000000 0.000000 0.032509 -0.066723 0.146769
    15 3.815876 1.385489 1.500000 -1.100987 -1.302374 -0.435035
    16 4.327093 0.000004 0.000000 -2.132080 0.211405 -1.494817
    17 11.105114 0.000000 0.000000 0.000000 0.000000 -2.101664
    18 9.862099 -0.000011 -0.000031 2.402967 0.004329 -0.001491
    19 2.641094 0.214619 -1.073586 0.157099 -0.066091 -0.780590
    20 1.361605 -0.000002 0.000000 -0.092955 -0.180118 -0.479921
    21 0.779602 0.000002 0.000000 -0.054450 -0.175357 -0.302876
    22 2.908712 0.221762 -0.431868 0.262466 0.035477 -0.741150
    23 1.597527 0.000001 0.000000 -0.068169 -0.153557 -0.419840
    24 0.912680 0.000001 0.000000 0.002385 0.009683 -0.242644
    25 3.265450 0.050007 0.415744 0.310072 0.076460 -0.508822
    26 1.860470 0.000000 0.000000 -0.088943 -0.083990 -0.815437
    27 1.061481 -0.000001 0.000000 0.001830 0.012006 -0.156488
    28 3.340382 -0.242393 1.285012 0.307724 0.073969 -0.530922
    29 1.550753 0.000001 0.000000 0.045456 0.067813 -0.590783
    30 0.904888 0.000001 0.000000 0.001236 0.038489 -0.401834
    31 1.219385 -1.063860 0.837143 2.003256 -0.611431 -0.473829
    32 1.496971 -0.000002 -0.000001 0.000037 -0.029358 -0.043690
    33 1.100086 0.000000 0.000000 0.000000 0.000000 -0.125082
    34 3.815876 1.385489 -1.500000 1.467859 1.423431 -0.206524
    35 4.327089 -0.000004 0.000000 1.246325 0.136001 -1.520601
    36 11.105106 0.000000 0.000004 0.000000 0.000000 -1.459417
    37 9.862080 -0.000007 0.000017 -1.151018 0.033929 0.337430
    38 2.641111 0.211586 1.074188 -0.347050 -0.194537 -0.262540
    39 1.361601 0.000000 0.000000 -0.024955 0.003428 -1.707761
    40 0.779604 0.000001 0.000000 0.054474 0.175340 -0.910365
    41 2.908730 0.220541 0.432493 -0.425521 -0.282909 -0.524085
    42 1.597527 0.000000 0.000000 0.111753 0.021038 -1.385395
    43 0.912678 0.000000 0.000000 -0.002403 -0.009699 -0.901508
    44 3.265471 0.051184 -0.415600 -0.428025 -0.264703 -0.582589
    45 1.860470 0.000000 0.000000 0.005135 0.000231 -1.518109
    46 1.061485 0.000000 0.000000 -0.001870 -0.011971 -0.834431
    47 3.340403 -0.238762 -1.285691 -0.324189 -0.116457 -0.125981
    48 1.550755 0.000000 0.000000 -0.040731 -0.060707 -0.591530
    49 0.904886 0.000001 0.000000 -0.001263 -0.038530 -0.033046
    50 1.219410 -1.061498 -0.840143 -1.924947 0.122283 -0.482900
    51 1.496971 0.000002 0.000000 0.000004 -0.180040 -0.386555
    52 1.100088 0.000000 0.000000 -0.000040 0.040618 -0.404246
    53 0.000000 -0.000007 -0.000031 1.373047 0.113574 0.124314
    54 0.000000 0.000000 0.000000 -0.077030 -0.068757 -1.299215
    55 7.054213 0.000000 0.000000 0.000000 0.000000 0.000000
    56 0.000000 -0.000007 -0.000031 1.373047 0.113574 0.124314
    57 0.000000 -0.000007 -0.000031 1.373047 0.113574 0.124314
    58 2.271484 -1.195313 -0.759766 -1.494794 -0.290863 -1.668717
    59 0.000000 0.000000 10.000000 0.000000 0.000000 0.000000
    60 2.856899 -1.536201 -0.973800 -1.501147 -0.272558 -1.578261
    61 2.000000 -3.000000 0.000000 -1.570796 0.000000 -1.326450
    62 0.018896 0.665159 9.395880 0.000000 0.000000 0.000000
    63 3.028210 -0.923409 -2.009452 1.574082 -0.012974 1.587244
    64 0.116954 4.311606 0.061861 0.000010 0.000000 0.000000
    65 0.000000 -0.000002 0.000000 0.000000 0.000000 0.000000
    66 0.000000 1.000000 0.000010 0.000000 0.000000 0.000000
    67 -0.000001 0.000000 0.000000 0.000000 0.000000 0.000000
    68 -0.000001 0.000000 0.000000 0.000000 0.000000 0.000000
    69 -0.000001 0.000000 0.000000 0.000000 0.000000 0.000000
time 3
    0 -2.798828 7.017407 8.281250 0.164244 1.217884 0.486702
    1 3.455587 0.000000 0.000000 -2.129210 -1.193257 -0.964588
    2 16.572346 0.000000 0.000000 0.000000 0.000000 2.157232
    3 16.265829 0.000000 0.000000 -0.577623 0.120442 -0.633257
    4 5.046457 0.000000 0.000000 0.009897 -0.018724 -0.419269
    5 -3.455587 0.000000 0.000000 -1.352670 -0.616875 -1.627278
    6 16.572346 0.000000 0.000000 0.000000 0.000000 1.992371
    7 16.265831 0.000000 0.000000 -0.158883 -0.073281 -1.250072
    8 5.046457 0.000000 0.000000 -0.100187 0.015003 -0.323261
    9 0.000000 3.703728 0.293189 1.580834 -0.377263 1.498243
    10 3.307846 0.000000 0.000000 0.026763 0.001808 0.129788
    11 3.297962 0.000000 0.000000 -0.124914 -0.025567 0.096527
    12 6.040985 0.000000 0.000000 -0.146255 0.078689 0.377900
    13 5.065758 0.000000 0.000000 -3.127521 0.007626 0.768501
    14 3.993755 0.000000 0.000000 0.032509 -0.066723 0.146769
    15 3.815876 1.385489 1.500000 -1.287021 -1.066754 -0.213751
    16 4.327093 0.000004 0.000000 -2.082586 0.276346 -1.659281
    17 11.105114 0.000000 0.000000 0.000000 0.000000 -2.046916
    18 9.862099 -0.000011 -0.000031 2.402967 0.004329 -0.001491
    19 2.641094 0.214619 -1.073586 0.157099 -0.066091 -0.780590
    20 1.361605 -0.000002 0.000000 -0.092955 -0.180118 -0.479921
    21 0.779602 0.000002 0.000000 -0.054450 -0.175357 -0.302876
    22 2.908712 0.221762 -0.431868 0.262466 0.035477 -0.741150
    23 1.597527 0.000001 0.000000 -0.068169 -0.153557 -0.419840
    24 0.912680 0.000001 0.000000 0.002385 0.009683 -0.242644
    25 3.265450 0.050007 0.415744 0.310072 0.076460 -0.508822
    26 1.860470 0.000000 0.000000 -0.088943 -0.083990 -0.815437
    27 1.061481 -0.000001 0.000000 0.001830 0.012006 -0.156488
    28 3.340382 -0.242393 1.285012 0.307724 0.073969 -0.530922
    29 1.550753 0.000001 0.000000 0.045456 0.067813 -0.590783
    30 0.904888 0.000001 0.000000 0.001236 0.038489 -0.401834
    31 1.219385 -1.063860 0.837143 2.003256 -0.611431 -0.473829
    32 1.496971 -0.000002 -0.000001 0.000037 -0.029358 -0.043690
    33 1.100086 0.000000 0.000000 0.000000 0.000000 -0.125082
    34 3.815876 1.385489 -1.500000 1.467859 1.423431 -0.206524
    35 4.327089 -0.000004 0.000000 1.296956 0.094443 -1.516375
    36 11.105106 0.000000 0.000004 0.000000 0.000000 -1.521199
    37 9.862080 -0.000007 0.000017 -1.151018 0.033929 0.337430
    38 2.641111 0.211586 1.074188 -0.347050 -0.194537 -0.262540
    39 1.361601 0.000000 0.000000 -0.024955 0.003428 -1.707761
    40 0.779604 0.000001 0.000000 0.054474 0.175340 -0.910365
    41 2.908730 0.220541 0.432493 -0.425521 -0.282909 -0.524085
    42 1.597527 0.000000 0.000000 0.111753 0.021038 -1.385395
    43 0.912678 0.000000 0.000000 -0.002403 -0.009699 -0.901508
    44 3.265471 0.051184 -0.415600 -0.428025 -0.264703 -0.582589
    45 1.860470 0.000000 0.000000 0.005135 0.000231 -1.518109
    46 1.061485 0.000000 0.000000 -0.001870 -0.011971 -0.834431
    47 3.340403 -0.238762 -1.285691 -0.324189 -0.116457 -0.125981
    48 1.550755 0.000000 0.000000 -0.040731 -0.060707 -0.591530
    49 0.904886 0.000001 0.000000 -0.001263 -0.038530 -0.033046
    50 1.219410 -1.061498 -0.840143 -1.924947 0.122283 -0.482900
    51 1.496971 0.000002 0.000000 0.000004 -0.180040 -0.386555
    52 1.100088 0.000000 0.000000 -0.000040 0.040618 -0.404246
    53 0.000000 -0.000007 -0.000031 1.373047 0.113574 0.124314
    54 0.000000 0.000000 0.000000 -0.077030 -0.068757 -1.299215
    55 7.054213 0.000000 0.000000 0.000000 0.000000 0.000000
    56 0.000000 -0.000007 -0.000031 1.373047 0.113574 0.124314
    57 0.000000 -0.000007 -0.000031 1.373047 0.113574 0.124314
    58 2.271484 -1.195313 -0.759766 -1.494794 -0.290863 -1.668717
    59 0.000000 0.000000 10.000000 0.000000 0.000000 0.000000
    60 2.856899 -1.536201 -0.973800 -1.501147 -0.272558 -1.578261
    61 2.000000 -3.000000 0.000000 -1.570796 0.000000 -1.326450
    62 0.018896 0.665159 9.395880 0.000000 0.000000 0.000000
    63 3.028210 -0.923409 -2.009452 1.574082 -0.012974 1.587244
    64 0.116954 4.311606 0.061861 0.000010 0.000000 0.000000
    65 0.000000 -0.000002 0.000000 0.000000 0.000000 0.000000
    66 0.000000 1.000000 0.000010 0.000000 0.000000 0.000000
    67 -0.000001 0.000000 0.000000 0.000000 0.000000 0.000000
    68 -0.000001 0.000000 0.000000 0.000000 0.000000 0.000000
    69 -0.000001 0.000000 0.000000 0.000000 0.000000 0.000000
time 4
    0 -2.798828 5.718697 8.765625 0.147167 1.235698 0.472766
    1 3.455587 0.000000 0.000000 -1.794689 -1.133180 -1.269218
    2 16.572346 0.000000 0.000000 0.000000 0.000000 1.926454
    3 16.265829 0.000000 0.000000 -0.657621 0.153460 -0.512937
    4 5.046457 0.000000 0.000000 0.009897 -0.018724 -0.419269
    5 -3.455587 0.000000 0.000000 -1.081375 -0.565427 -1.811873
    6 16.572346 0.000000 0.000000 0.000000 0.000000 2.067877
    7 16.265831 0.000000 0.000000 -0.376463 -0.084153 -1.298413
    8 5.046457 0.000000 0.000000 -0.100187 0.015003 -0.323261
    9 0.000000 3.703728 0.293189 1.578840 -0.377267 1.504740
    10 3.307846 0.000000 0.000000 0.063580 0.018473 0.129286
    11 3.297962 0.000000 0.000000 -0.130420 -0.000138 0.093300
    12 6.040985 0.000000 0.000000 -0.146255 0.078689 0.377900
    13 5.065758 0.000000 0.000000 -3.127521 0.007626 0.768501
    14 3.993755 0.000000 0.000000 0.032509 -0.066723 0.146769
    15 3.815876 1.385489 1.500000 -1.300490 -0.894542 -0.176641
    16 4.327093 0.000004 0.000000 -2.001151 0.309458 -1.706148
    17 11.105114 0.000000 0.000000 0.000000 0.000000 -1.983204
    18 9.862099 -0.000011 -0.000031 2.402967 0.004329 -0.001491
    19 2.641094 0.214619 -1.073586 0.157099 -0.066091 -0.780590
    20 1.361605 -0.000002 0.000000 -0.092955 -0.180118 -0.479921
    21 0.779602 0.000002 0.000000 -0.054450 -0.175357 -0.302876
    22 2.908712 0.221762 -0.431868 0.262466 0.035477 -0.741150
    23 1.597527 0.000001 0.000000 -0.068169 -0.153557 -0.419840
    24 0.912680 0.000001 0.000000 0.002385 0.009683 -0.242644
    25 3.265450 0.050007 0.415744 0.310072 0.076460 -0.508822
    26 1.860470 0.000000 0.000000 -0.088943 -0.083990 -0.815437
    27 1.061481 -0.000001 0.000000 0.001830 0.012006 -0.156488
    28 3.340382 -0.242393 1.285012 0.307724 0.073969 -0.530922
    29 1.550753 0.000001 0.000000 0.045456 0.067813 -0.590783
    30 0.904888 0.000001 0.000000 0.001236 0.038489 -0.401834
    31 1.219385 -1.063860 0.837143 2.003256 -0.611431 -0.473829
    32 1.496971 -0.000002 -0.000001 0.000037 -0.029358 -0.043690
    33 1.100086 0.000000 0.000000 0.000000 0.000000 -0.125082
    34 3.815876 1.385489 -1.500000 1.467859 1.423431 -0.206524
    35 4.327089 -0.000004 0.000000 1.354026 0.048047 -1.516915
    36 11.105106 0.000000 0.000004 0.000000 0.000000 -1.593286
    37 9.862080 -0.000007 0.000017 -1.151018 0.033929 0.337430
    38 2.641111 0.211586 1.074188 -0.347050 -0.194537 -0.262540
    39 1.361601 0.000000 0.000000 -0.024955 0.003428 -1.707761
    40 0.779604 0.000001 0.000000 0.054474 0.175340 -0.910365
    41 2.908730 0.220541 0.432493 -0.425521 -0.282909 -0.524085
    42 1.597527 0.000000 0.000000 0.111753 0.021038 -1.385395
    43 0.912678 0.000000 0.000000 -0.002403 -0.009699 -0.901508
    44 3.265471 0.051184 -0.415600 -0.428025 -0.264703 -0.582589
    45 1.860470 0.000000 0.000000 0.005135 0.000231 -1.518109
    46 1.061485 0.000000 0.000000 -0.001870 -0.011971 -0.834431
    47 3.340403 -0.238762 -1.285691 -0.324189 -0.116457 -0.125981
    48 1.550755 0.000000 0.000000 -0.040731 -0.060707 -0.591530
    49 0.904886 0.000001 0.000000 -0.001263 -0.038530 -0.033046
    50 1.219410 -1.061498 -0.840143 -1.924947 0.122283 -0.482900
    51 1.496971 0.000002 0.000000 0.000004 -0.180040 -0.386555
    52 1.100088 0.000000 0.000000 -0.000040 0.040618 -0.404246
    53 0.000000 -0.000007 -0.000031 1.373047 0.113574 0.124314
    54 0.000000 0.000000 0.000000 -0.077030 -0.068757 -1.299215
    55 7.054213 0.000000 0.000000 0.000000 0.000000 0.000000
    56 0.000000 -0.000007 -0.000031 1.373047 0.113574 0.124314
    57 0.000000 -0.000007 -0.000031 1.373047 0.113574 0.124314
    58 2.271484 -1.195313 -0.759766 -1.494794 -0.290863 -1.668717
    59 0.000000 0.000000 10.000000 0.000000 0.000000 0.000000
    60 2.856899 -1.536201 -0.973800 -1.501147 -0.272558 -1.578261
    61 2.000000 -3.000000 0.000000 -1.570796 0.000000 -1.326450
    62 0.018896 0.665159 9.395880 0.000000 0.000000 0.000000
    63 3.028210 -0.923409 -2.009452 1.574082 -0.012974 1.587244
    64 0.116954 4.311606 0.061861 0.000010 0.000000 0.000000
    65 0.000000 -0.000002 0.000000 0.000000 0.000000 0.000000
    66 0.000000 1.000000 0.000010 0.000000 0.000000 0.000000
    67 -0.000001 0.000000 0.000000 0.000000 0.000000 0.000000
    68 -0.000001 0.000000 0.000000 0.000000 0.000000 0.000000
    69 -0.000001 0.000000 0.000000 0.000000 0.000000 0.000000
time 5
    0 -2.798828 4.396636 9.718750 0.131970 1.251916 0.460628
    1 3.455587 0.000000 0.000000 -1.635330 -1.033723 -1.384821
    2 16.572346 0.000000 0.000000 0.000000 0.000000 1.714602
    3 16.265829 0.000000 0.000000 -0.694927 0.190646 -0.412046
    4 5.046457 0.000000 0.000000 0.009897 -0.018724 -0.419269
    5 -3.455587 0.000000 0.000000 -0.905290 -0.485506 -1.882471
    6 16.572346 0.000000 0.000000 0.000000 0.000000 2.127136
    7 16.265831 0.000000 0.000000 -0.529212 -0.062257 -1.374449
    8 5.046457 0.000000 0.000000 -0.100187 0.015003 -0.323261
    9 0.000000 3.703728 0.293189 1.577174 -0.377374 1.510616
    10 3.307846 0.000000 0.000000 0.097336 0.034334 0.128913
    11 3.297962 0.000000 0.000000 -0.136465 0.027344 0.089544
    12 6.040985 0.000000 0.000000 -0.146255 0.078689 0.377900
    13 5.065758 0.000000 0.000000 -3.127521 0.007626 0.768501
    14 3.993755 0.000000 0.000000 0.032509 -0.066723 0.146769
    15 3.815876 1.385489 1.500000 -1.215210 -0.828746 -0.250782
    16 4.327093 0.000004 0.000000 -1.878367 0.297335 -1.596460
    17 11.105114 0.000000 0.000000 0.000000 0.000000 -1.905665
    18 9.862099 -0.000011 -0.000031 2.402967 0.004329 -0.001491
    19 2.641094 0.214619 -1.073586 0.157099 -0.066091 -0.780590
    20 1.361605 -0.000002 0.000000 -0.092955 -0.180118 -0.479921
    21 0.779602 0.000002 0.000000 -0.054450 -0.175357 -0.302876
    22 2.908712 0.221762 -0.431868 0.262466 0.035477 -0.741150
    23 1.597527 0.000001 0.000000 -0.068169 -0.153557 -0.419840
    24 0.912680 0.000001 0.000000 0.002385 0.009683 -0.242644
    25 3.265450 0.050007 0.415744 0.310072 0.076460 -0.508822
    26 1.860470 0.000000 0.000000 -0.088943 -0.083990 -0.815437
    27 1.061481 -0.000001 0.000000 0.001830 0.012006 -0.156488
    28 3.340382 -0.242393 1.285012 0.307724 0.073969 -0.530922
    29 1.550753 0.000001 0.000000 0.045456 0.067813 -0.590783
    30 0.904888 0.000001 0.000000 0.001236 0.038489 -0.401834
    31 1.219385 -1.063860 0.837143 2.003256 -0.611431 -0.473829
    32 1.496971 -0.000002 -0.000001 0.000037 -0.029358 -0.043690
    33 1.100086 0.000000 0.000000 0.000000 0.000000 -0.125082
    34 3.815876 1.385489 -1.500000 1.467859 1.423431 -0.206524
    35 4.327089 -0.000004 0.000000 1.409802 0.003763 -1.523683
    36 11.105106 0.000000 0.000004 0.000000 0.000000 -1.668118
    37 9.862080 -0.000007 0.000017 -1.151018 0.033929 0.337430
    38 2.641111 0.211586 1.074188 -0.347050 -0.194537 -0.262540
    39 1.361601 0.000000 0.000000 -0.024955 0.003428 -1.707761
    40 0.779604 0.000001 0.000000 0.054474 0.175340 -0.910365
    41 2.908730 0.220541 0.432493 -0.425521 -0.282909 -0.524085
    42 1.597527 0.000000 0.000000 0.111753 0.021038 -1.385395
    43 0.912678 0.000000 0.000000 -0.002403 -0.009699 -0.901508
    44 3.265471 0.051184 -0.415600 -0.428025 -0.264703 -0.582589
    45 1.860470 0.000000 0.000000 0.005135 0.000231 -1.518109
    46 1.061485 0.000000 0.000000 -0.001870 -0.011971 -0.834431
    47 3.340403 -0.238762 -1.285691 -0.324189 -0.116457 -0.125981
    48 1.550755 0.000000 0.000000 -0.040731 -0.060707 -0.591530
    49 0.904886 0.000001 0.000000 -0.001263 -0.038530 -0.033046
    50 1.219410 -1.061498 -0.840143 -1.924947 0.122283 -0.482900
    51 1.496971 0.000002 0.000000 0.000004 -0.180040 -0.386555
    52 1.100088 0.000000 0.000000 -0.000040 0.040618 -0.404246
    53 0.000000 -0.000007 -0.000031 1.373047 0.113574 0.124314
    54 0.000000 0.000000 0.000000 -0.077030 -0.068757 -1.299215
    55 7.054213 0.000000 0.000000 0.000000 0.000000 0.000000
    56 0.000000 -0.000007 -0.000031 1.373047 0.113574 0.124314
    57 0.000000 -0.000007 -0.000031 1.373047 0.113574 0.124314
    58 2.271484 -1.195313 -0.759766 -1.494794 -0.290863 -1.668717
    59 0.000000 0.000000 10.000000 0.000000 0.000000 0.000000
    60 2.856899 -1.536201 -0.973800 -1.501147 -0.272558 -1.578261
    61 2.000000 -3.000000 0.000000 -1.570796 0.000000 -1.326450
    62 0.018896 0.665159 9.395880 0.000000 0.000000 0.000000
    63 3.028210 -0.923409 -2.009452 1.574082 -0.012974 1.587244
    64 0.116954 4.311606 0.061861 0.000010 0.000000 0.000000
    65 0.000000 -0.000002 0.000000 0.000000 0.000000 0.000000
    66 0.000000 1.000000 0.000010 0.000000 0.000000 0.000000
    67 -0.000001 0.000000 0.000000 0.000000 0.000000 0.000000
    68 -0.000001 0.000000 0.000000 0.000000 0.000000 0.000000
    69 -0.000001 0.000000 0.000000 0.000000 0.000000 0.000000
time 6
    0 -2.798828 3.035601 10.921875 0.122827 1.263698 0.454105
    1 3.455587 0.000000 0.000000 -1.480342 -0.885222 -1.514318
    2 16.572346 0.000000 0.000000 0.000000 0.000000 1.524539
    3 16.265829 0.000000 0.000000 -0.774175 0.203700 -0.383641
    4 5.046457 0.000000 0.000000 0.009897 -0.018724 -0.419269
    5 -3.455587 0.000000 0.000000 -0.804524 -0.417227 -1.864130
    6 16.572346 0.000000 0.000000 0.000000 0.000000 2.172189
    7 16.265831 0.000000 0.000000 -0.620905 -0.017575 -1.474412
    8 5.046457 0.000000 0.000000 -0.100187 0.015003 -0.323261
    9 0.000000 3.703728 0.293189 1.575838 -0.377423 1.514980
    10 3.307846 0.000000 0.000000 0.121977 0.046826 0.128642
    11 3.297962 0.000000 0.000000 -0.142465 0.054981 0.085714
    12 6.040985 0.000000 0.000000 -0.146255 0.078689 0.377900
    13 5.065758 0.000000 0.000000 -3.127521 0.007626 0.768501
    14 3.993755 0.000000 0.000000 0.032509 -0.066723 0.146769
    15 3.815876 1.385489 1.500000 -1.061558 -0.813823 -0.400891
    16 4.327093 0.000004 0.000000 -1.741989 0.227678 -1.410648
    17 11.105114 0.000000 0.000000 0.000000 0.000000 -1.804235
    18 9.862099 -0.000011 -0.000031 2.402967 0.004329 -0.001491
    19 2.641094 0.214619 -1.073586 0.157099 -0.066091 -0.780590
    20 1.361605 -0.000002 0.000000 -0.092955 -0.180118 -0.479921
    21 0.779602 0.000002 0.000000 -0.054450 -0.175357 -0.302876
    22 2.908712 0.221762 -0.431868 0.262466 0.035477 -0.741150
    23 1.597527 0.000001 0.000000 -0.068169 -0.153557 -0.419840
    24 0.912680 0.000001 0.000000 0.002385 0.009683 -0.242644
    25 3.265450 0.050007 0.415744 0.310072 0.076460 -0.508822
    26 1.860470 0.000000 0.000000 -0.088943 -0.083990 -0.815437
    27 1.061481 -0.000001 0.000000 0.001830 0.012006 -0.156488
    28 3.340382 -0.242393 1.285012 0.307724 0.073969 -0.530922
    29 1.550753 0.000001 0.000000 0.045456 0.067813 -0.590783
    30 0.904888 0.000001 0.000000 0.001236 0.038489 -0.401834
    31 1.219385 -1.063860 0.837143 2.003256 -0.611431 -0.473829
    32 1.496971 -0.000002 -0.000001 0.000037 -0.029358 -0.043690
    33 1.100086 0.000000 0.000000 0.000000 0.000000 -0.125082
    34 3.815876 1.385489 -1.500000 1.467859 1.423431 -0.206524
    35 4.327089 -0.000004 0.000000 1.455953 -0.033888 -1.534335
    36 11.105106 0.000000 0.000004 0.000000 0.000000 -1.739926
    37 9.862080 -0.000007 0.000017 -1.151018 0.033929 0.337430
    38 2.641111 0.211586 1.074188 -0.347050 -0.194537 -0.262540
    39 1.361601 0.000000 0.000000 -0.024955 0.003428 -1.707761
    40 0.779604 0.000001 0.000000 0.054474 0.175340 -0.910365
    41 2.908730 0.220541 0.432493 -0.425521 -0.282909 -0.524085
    42 1.597527 0.000000 0.000000 0.111753 0.021038 -1.385395
    43 0.912678 0.000000 0.000000 -0.002403 -0.009699 -0.901508
    44 3.265471 0.051184 -0.415600 -0.428025 -0.264703 -0.582589
    45 1.860470 0.000000 0.000000 0.005135 0.000231 -1.518109
    46 1.061485 0.000000 0.000000 -0.001870 -0.011971 -0.834431
    47 3.340403 -0.238762 -1.285691 -0.324189 -0.116457 -0.125981
    48 1.550755 0.000000 0.000000 -0.040731 -0.060707 -0.591530
    49 0.904886 0.000001 0.000000 -0.001263 -0.038530 -0.033046
    50 1.219410 -1.061498 -0.840143 -1.924947 0.122283 -0.482900
    51 1.496971 0.000002 0.000000 0.000004 -0.180040 -0.386555
    52 1.100088 0.000000 0.000000 -0.000040 0.040618 -0.404246
    53 0.000000 -0.000007 -0.000031 1.373047 0.113574 0.124314
    54 0.000000 0.000000 0.000000 -0.077030 -0.068757 -1.299215
    55 7.054213 0.000000 0.000000 0.000000 0.000000 0.000000
    56 0.000000 -0.000007 -0.000031 1.373047 0.113574 0.124314
    57 0.000000 -0.000007 -0.000031 1.373047 0.113574 0.124314
    58 2.271484 -1.195313 -0.759766 -1.494794 -0.290863 -1.668717
    59 0.000000 0.000000 10.000000 0.000000 0.000000 0.000000
    60 2.856899 -1.536201 -0.973800 -1.501147 -0.272558 -1.578261
    61 2.000000 -3.000000 0.000000 -1.570796 0.000000 -1.326450
    62 0.018896 0.665159 9.395880 0.000000 0.000000 0.000000
    63 3.028210 -0.923409 -2.009452 1.574082 -0.012974 1.587244
    64 0.116954 4.311606 0.061861 0.000010 0.000000 0.000000
    65 0.000000 -0.000002 0.000000 0.000000 0.000000 0.000000
    66 0.000000 1.000000 0.000010 0.000000 0.000000 0.000000
    67 -0.000001 0.000000 0.000000 0.000000 0.000000 0.000000
    68 -0.000001 0.000000 0.000000 0.000000 0.000000 0.000000
    69 -0.000001 0.000000 0.000000 0.000000 0.000000 0.000000
time 7
    0 -2.798828 1.643402 11.523438 0.124506 1.267957 0.457085
    1 3.455587 0.000000 0.000000 -1.419161 -0.758267 -1.561781
    2 16.572346 0.000000 0.000000 0.000000 0.000000 1.348936
    3 16.265829 0.000000 0.000000 -0.824997 0.203660 -0.339839
    4 5.046457 0.000000 0.000000 0.009897 -0.018724 -0.419269
    5 -3.455587 0.000000 0.000000 -0.749476 -0.389262 -1.837546
    6 16.572346 0.000000 0.000000 0.000000 0.000000 2.230772
    7 16.265831 0.000000 0.000000 -0.669064 0.021581 -1.569877
    8 5.046457 0.000000 0.000000 -0.100187 0.015003 -0.323261
    9 0.000000 3.703728 0.293189 1.575203 -0.377398 1.516722
    10 3.307846 0.000000 0.000000 0.131342 0.053538 0.128398
    11 3.297962 0.000000 0.000000 -0.147993 0.080346 0.082001
    12 6.040985 0.000000 0.000000 -0.146255 0.078689 0.377900
    13 5.065758 0.000000 0.000000 -3.127521 0.007626 0.768501
    14 3.993755 0.000000 0.000000 0.032509 -0.066723 0.146769
    15 3.815876 1.385489 1.500000 -0.855014 -0.821765 -0.628600
    16 4.327093 0.000004 0.000000 -1.617826 0.123992 -1.188457
    17 11.105114 0.000000 0.000000 0.000000 0.000000 -1.754564
    18 9.862099 -0.000011 -0.000031 2.402967 0.004329 -0.001491
    19 2.641094 0.214619 -1.073586 0.157099 -0.066091 -0.780590
    20 1.361605 -0.000002 0.000000 -0.092955 -0.180118 -0.479921
    21 0.779602 0.000002 0.000000 -0.054450 -0.175357 -0.302876
    22 2.908712 0.221762 -0.431868 0.262466 0.035477 -0.741150
    23 1.597527 0.000001 0.000000 -0.068169 -0.153557 -0.419840
    24 0.912680 0.000001 0.000000 0.002385 0.009683 -0.242644
    25 3.265450 0.050007 0.415744 0.310072 0.076460 -0.508822
    26 1.860470 0.000000 0.000000 -0.088943 -0.083990 -0.815437
    27 1.061481 -0.000001 0.000000 0.001830 0.012006 -0.156488
    28 3.340382 -0.242393 1.285012 0.307724 0.073969 -0.530922
    29 1.550753 0.000001 0.000000 0.045456 0.067813 -0.590783
    30 0.904888 0.000001 0.000000 0.001236 0.038489 -0.401834
    31 1.219385 -1.063860 0.837143 2.003256 -0.611431 -0.473829
    32 1.496971 -0.000002 -0.000001 0.000037 -0.029358 -0.043690
    33 1.100086 0.000000 0.000000 0.000000 0.000000 -0.125082
    34 3.815876 1.385489 -1.500000 1.467859 1.423431 -0.206524
    35 4.327089 -0.000004 0.000000 1.483547 -0.062265 -1.543780
    36 11.105106 0.000000 0.000004 0.000000 0.000000 -1.803355
    37 9.862080 -0.000007 0.000017 -1.151018 0.033929 0.337430
    38 2.641111 0.211586 1.074188 -0.347050 -0.194537 -0.262540
    39 1.361601 0.000000 0.000000 -0.024955 0.003428 -1.707761
    40 0.779604 0.000001 0.000000 0.054474 0.175340 -0.910365
    41 2.908730 0.220541 0.432493 -0.425521 -0.282909 -0.524085
    42 1.597527 0.000000 0.000000 0.111753 0.021038 -1.385395
    43 0.912678 0.000000 0.000000 -0.002403 -0.009699 -0.901508
    44 3.265471 0.051184 -0.415600 -0.428025 -0.264703 -0.582589
    45 1.860470 0.000000 0.000000 0.005135 0.000231 -1.518109
    46 1.061485 0.000000 0.000000 -0.001870 -0.011971 -0.834431
    47 3.340403 -0.238762 -1.285691 -0.324189 -0.116457 -0.125981
    48 1.550755 0.000000 0.000000 -0.040731 -0.060707 -0.591530
    49 0.904886 0.000001 0.000000 -0.001263 -0.038530 -0.033046
    50 1.219410 -1.061498 -0.840143 -1.924947 0.122283 -0.482900
    51 1.496971 0.000002 0.000000 0.000004 -0.180040 -0.386555
    52 1.100088 0.000000 0.000000 -0.000040 0.040618 -0.404246
    53 0.000000 -0.000007 -0.000031 1.373047 0.113574 0.124314
    54 0.000000 0.000000 0.000000 -0.077030 -0.068757 -1.299215
    55 7.054213 0.000000 0.000000 0.000000 0.000000 0.000000
    56 0.000000 -0.000007 -0.000031 1.373047 0.113574 0.124314
    57 0.000000 -0.000007 -0.000031 1.373047 0.113574 0.124314
    58 2.271484 -1.195313 -0.759766 -1.494794 -0.290863 -1.668717
    59 0.000000 0.000000 10.000000 0.000000 0.000000 0.000000
    60 2.856899 -1.536201 -0.973800 -1.501147 -0.272558 -1.578261
    61 2.000000 -3.000000 0.000000 -1.570796 0.000000 -1.326450
    62 0.018896 0.665159 9.395880 0.000000 0.000000 0.000000
    63 3.028210 -0.923409 -2.009452 1.574082 -0.012974 1.587244
    64 0.116954 4.311606 0.061861 0.000010 0.000000 0.000000
    65 0.000000 -0.000002 0.000000 0.000000 0.000000 0.000000
    66 0.000000 1.000000 0.000010 0.000000 0.000000 0.000000
    67 -0.000001 0.000000 0.000000 0.000000 0.000000 0.000000
    68 -0.000001 0.000000 0.000000 0.000000 0.000000 0.000000
    69 -0.000001 0.000000 0.000000 0.000000 0.000000 0.000000
time 8
    0 -2.798828 0.141916 10.976563 0.170278 1.244923 0.500024
    1 3.455587 0.000000 0.000000 -1.572431 -0.802148 -1.478726
    2 16.572346 0.000000 0.000000 0.000000 0.000000 1.398507
    3 16.265829 0.000000 0.000000 -0.738330 0.174856 -0.337362
    4 5.046457 0.000000 0.000000 0.009897 -0.018724 -0.419269
    5 -3.455587 0.000000 0.000000 -0.737513 -0.428128 -1.861395
    6 16.572346 0.000000 0.000000 0.000000 0.000000 2.340472
    7 16.265831 0.000000 0.000000 -0.682387 0.046719 -1.650448
    8 5.046457 0.000000 0.000000 -0.100187 0.015003 -0.323261
    9 0.000000 3.703728 0.293189 1.575476 -0.377381 1.516153
    10 3.307846 0.000000 0.000000 0.112950 0.050704 0.128362
    11 3.297962 0.000000 0.000000 -0.152558 0.101290 0.078881
    12 6.040985 0.000000 0.000000 -0.146255 0.078689 0.377900
    13 5.065758 0.000000 0.000000 -3.127521 0.007626 0.768501
    14 3.993755 0.000000 0.000000 0.032509 -0.066723 0.146769
    15 3.815876 1.385489 1.500000 -0.595569 -0.830481 -0.922683
    16 4.327093 0.000004 0.000000 -1.536874 0.028827 -0.921137
    17 11.105114 0.000000 0.000000 0.000000 0.000000 -1.774241
    18 9.862099 -0.000011 -0.000031 2.402967 0.004329 -0.001491
    19 2.641094 0.214619 -1.073586 0.157099 -0.066091 -0.780590
    20 1.361605 -0.000002 0.000000 -0.092955 -0.180118 -0.479921
    21 0.779602 0.000002 0.000000 -0.054450 -0.175357 -0.302876
    22 2.908712 0.221762 -0.431868 0.262466 0.035477 -0.741150
    23 1.597527 0.000001 0.000000 -0.068169 -0.153557 -0.419840
    24 0.912680 0.000001 0.000000 0.002385 0.009683 -0.242644
    25 3.265450 0.050007 0.415744 0.310072 0.076460 -0.508822
    26 1.860470 0.000000 0.000000 -0.088943 -0.083990 -0.815437
    27 1.061481 -0.000001 0.000000 0.001830 0.012006 -0.156488
    28 3.340382 -0.242393 1.285012 0.307724 0.073969 -0.530922
    29 1.550753 0.000001 0.000000 0.045456 0.067813 -0.590783
    30 0.904888 0.000001 0.000000 0.001236 0.038489 -0.401834
    31 1.219385 -1.063860 0.837143 2.003256 -0.611431 -0.473829
    32 1.496971 -0.000002 -0.000001 0.000037 -0.029358 -0.043690
    33 1.100086 0.000000 0.000000 0.000000 0.000000 -0.125082
    34 3.815876 1.385489 -1.500000 1.467859 1.423431 -0.206524
    35 4.327089 -0.000004 0.000000 1.475977 -0.072289 -1.524335
    36 11.105106 0.000000 0.000004 0.000000 0.000000 -1.853921
    37 9.862080 -0.000007 0.000017 -1.151018 0.033929 0.337430
    38 2.641111 0.211586 1.074188 -0.347050 -0.194537 -0.262540
    39 1.361601 0.000000 0.000000 -0.024955 0.003428 -1.707761
    40 0.779604 0.000001 0.000000 0.054474 0.175340 -0.910365
    41 2.908730 0.220541 0.432493 -0.425521 -0.282909 -0.524085
    42 1.597527 0.000000 0.000000 0.111753 0.021038 -1.385395
    43 0.912678 0.000000 0.000000 -0.002403 -0.009699 -0.901508
    44 3.265471 0.051184 -0.415600 -0.428025 -0.264703 -0.582589
    45 1.860470 0.000000 0.000000 0.005135 0.000231 -1.518109
    46 1.061485 0.000000 0.000000 -0.001870 -0.011971 -0.834431
    47 3.340403 -0.238762 -1.285691 -0.324189 -0.116457 -0.125981
    48 1.550755 0.000000 0.000000 -0.040731 -0.060707 -0.591530
    49 0.904886 0.000001 0.000000 -0.001263 -0.038530 -0.033046
    50 1.219410 -1.061498 -0.840143 -1.924947 0.122283 -0.482900
    51 1.496971 0.000002 0.000000 0.000004 -0.180040 -0.386555
    52 1.100088 0.000000 0.000000 -0.000040 0.040618 -0.404246
    53 0.000000 -0.000007 -0.000031 1.373047 0.113574 0.124314
    54 0.000000 0.000000 0.000000 -0.077030 -0.068757 -1.299215
    55 7.054213 0.000000 0.000000 0.000000 0.000000 0.000000
    56 0.000000 -0.000007 -0.000031 1.373047 0.113574 0.124314
    57 0.000000 -0.000007 -0.000031 1.373047 0.113574 0.124314
    58 2.271484 -1.195313 -0.759766 -1.494794 -0.290863 -1.668717
    59 0.000000 0.000000 10.000000 0.000000 0.000000 0.000000
    60 2.856899 -1.536201 -0.973800 -1.501147 -0.272558 -1.578261
    61 2.000000 -3.000000 0.000000 -1.570796 0.000000 -1.326450
    62 0.018896 0.665159 9.395880 0.000000 0.000000 0.000000
    63 3.028210 -0.923409 -2.009452 1.574082 -0.012974 1.587244
    64 0.116954 4.311606 0.061861 0.000010 0.000000 0.000000
    65 0.000000 -0.000002 0.000000 0.000000 0.000000 0.000000
    66 0.000000 1.000000 0.000010 0.000000 0.000000 0.000000
    67 -0.000001 0.000000 0.000000 0.000000 0.000000 0.000000
    68 -0.000001 0.000000 0.000000 0.000000 0.000000 0.000000
    69 -0.000001 0.000000 0.000000 0.000000 0.000000 0.000000
time 9
    0 -2.798827 -1.484483 9.828125 0.233198 1.201793 0.558053
    1 3.455587 0.000000 0.000000 -1.863251 -0.846887 -1.319595
    2 16.572346 0.000000 0.000000 0.000000 0.000000 1.468818
    3 16.265829 0.000000 0.000000 -0.598401 0.103336 -0.331226
    4 5.046457 0.000000 0.000000 0.009897 -0.018724 -0.419269
    5 -3.455587 0.000000 0.000000 -0.752072 -0.516230 -1.903074
    6 16.572346 0.000000 0.000000 0.000000 0.000000 2.479989
    7 16.265831 0.000000 0.000000 -0.668490 0.076630 -1.722477
    8 5.046457 0.000000 0.000000 -0.100187 0.015003 -0.323261
    9 0.000000 3.703728 0.293189 1.575957 -0.377334 1.514342
    10 3.307846 0.000000 0.000000 0.069439 0.039596 0.128375
    11 3.297962 0.000000 0.000000 -0.155649 0.115480 0.076702
    12 6.040985 0.000000 0.000000 -0.146255 0.078689 0.377900
    13 5.065758 0.000000 0.000000 -3.127521 0.007626 0.768501
    14 3.993755 0.000000 0.000000 0.032509 -0.066723 0.146769
    15 3.815876 1.385489 1.500000 -0.339946 -0.809289 -1.195106
    16 4.327093 0.000004 0.000000 -1.525991 -0.029037 -0.631719
    17 11.105114 0.000000 0.000000 0.000000 0.000000 -1.802914
    18 9.862099 -0.000011 -0.000031 2.402967 0.004329 -0.001491
    19 2.641094 0.214619 -1.073586 0.157099 -0.066091 -0.780590
    20 1.361605 -0.000002 0.000000 -0.092955 -0.180118 -0.479921
    21 0.779602 0.000002 0.000000 -0.054450 -0.175357 -0.302876
    22 2.908712 0.221762 -0.431868 0.262466 0.035477 -0.741150
    23 1.597527 0.000001 0.000000 -0.068169 -0.153557 -0.419840
    24 0.912680 0.000001 0.000000 0.002385 0.009683 -0.242644
    25 3.265450 0.050007 0.415744 0.310072 0.076460 -0.508822
    26 1.860470 0.000000 0.000000 -0.088943 -0.083990 -0.815437
    27 1.061481 -0.000001 0.000000 0.001830 0.012006 -0.156488
    28 3.340382 -0.242393 1.285012 0.307724 0.073969 -0.530922
    29 1.550753 0.000001 0.000000 0.045456 0.067813 -0.590783
    30 0.904888 0.000001 0.000000 0.001236 0.038489 -0.401834
    31 1.219385 -1.063860 0.837143 2.003256 -0.611431 -0.473829
    32 1.496971 -0.000002 -0.000001 0.000037 -0.029358 -0.043690
    33 1.100086 0.000000 0.000000 0.000000 0.000000 -0.125082
    34 3.815876 1.385489 -1.500000 1.467859 1.423431 -0.206524
    35 4.327089 -0.000004 0.000000 1.436640 -0.066046 -1.480037
    36 11.105106 0.000000 0.000004 0.000000 0.000000 -1.887495
    37 9.862080 -0.000007 0.000017 -1.151018 0.033929 0.337430
    38 2.641111 0.211586 1.074188 -0.347050 -0.194537 -0.262540
    39 1.361601 0.000000 0.000000 -0.024955 0.003428 -1.707761
    40 0.779604 0.000001 0.000000 0.054474 0.175340 -0.910365
    41 2.908730 0.220541 0.432493 -0.425521 -0.282909 -0.524085
    42 1.597527 0.000000 0.000000 0.111753 0.021038 -1.385395
    43 0.912678 0.000000 0.000000 -0.002403 -0.009699 -0.901508
    44 3.265471 0.051184 -0.415600 -0.428025 -0.264703 -0.582589
    45 1.860470 0.000000 0.000000 0.005135 0.000231 -1.518109
    46 1.061485 0.000000 0.000000 -0.001870 -0.011971 -0.834431
    47 3.340403 -0.238762 -1.285691 -0.324189 -0.116457 -0.125981
    48 1.550755 0.000000 0.000000 -0.040731 -0.060707 -0.591530
    49 0.904886 0.000001 0.000000 -0.001263 -0.038530 -0.033046
    50 1.219410 -1.061498 -0.840143 -1.924947 0.122283 -0.482900
    51 1.496971 0.000002 0.000000 0.000004 -0.180040 -0.386555
    52 1.100088 0.000000 0.000000 -0.000040 0.040618 -0.404246
    53 0.000000 -0.000007 -0.000031 1.373047 0.113574 0.124314
    54 0.000000 0.000000 0.000000 -0.077030 -0.068757 -1.299215
    55 7.054213 0.000000 0.000000 0.000000 0.000000 0.000000
    56 0.000000 -0.000007 -0.000031 1.373047 0.113574 0.124314
    57 0.000000 -0.000007 -0.000031 1.373047 0.113574 0.124314
    58 2.271484 -1.195313 -0.759766 -1.494794 -0.290863 -1.668717
    59 0.000000 0.000000 10.000000 0.000000 0.000000 0.000000
    60 2.856899 -1.536201 -0.973800 -1.501147 -0.272558 -1.578261
    61 2.000000 -3.000000 0.000000 -1.570796 0.000000 -1.326450
    62 0.018896 0.665159 9.395880 0.000000 0.000000 0.000000
    63 3.028210 -0.923409 -2.009452 1.574082 -0.012974 1.587244
    64 0.116954 4.311606 0.061861 0.000010 0.000000 0.000000
    65 0.000000 -0.000002 0.000000 0.000000 0.000000 0.000000
    66 0.000000 1.000000 0.000010 0.000000 0.000000 0.000000
    67 -0.000001 0.000000 0.000000 0.000000 0.000000 0.000000
    68 -0.000001 0.000000 0.000000 0.000000 0.000000 0.000000
    69 -0.000001 0.000000 0.000000 0.000000 0.000000 0.000000
time 10
    0 -2.798827 -3.126420 8.921875 0.261193 1.178459 0.583811
    1 3.455587 0.000000 0.000000 -2.057457 -0.886869 -1.187916
    2 16.572346 0.000000 0.000000 0.000000 0.000000 1.555806
    3 16.265829 0.000000 0.000000 -0.518958 0.061723 -0.342371
    4 5.046457 0.000000 0.000000 0.009897 -0.018724 -0.419269
    5 -3.455587 0.000000 0.000000 -0.766215 -0.603324 -1.884695
    6 16.572346 0.000000 0.000000 0.000000 0.000000 2.603620
    7 16.265831 0.000000 0.000000 -0.633542 0.138724 -1.803055
    8 5.046457 0.000000 0.000000 -0.100187 0.015003 -0.323261
    9 0.000000 3.703728 0.293189 1.577039 -0.377383 1.510899
    10 3.307846 0.000000 0.000000 0.017551 0.025341 0.128693
    11 3.297962 0.000000 0.000000 -0.156741 0.120662 0.075813
    12 6.040985 0.000000 0.000000 -0.146255 0.078689 0.377900
    13 5.065758 0.000000 0.000000 -3.127521 0.007626 0.768501
    14 3.993755 0.000000 0.000000 0.032509 -0.066723 0.146769
    15 3.815876 1.385489 1.500000 -0.153587 -0.768622 -1.383703
    16 4.327093 0.000004 0.000000 -1.570711 -0.027427 -0.341509
    17 11.105114 0.000000 0.000000 0.000000 0.000000 -1.836052
    18 9.862099 -0.000011 -0.000031 2.402967 0.004329 -0.001491
    19 2.641094 0.214619 -1.073586 0.157099 -0.066091 -0.780590
    20 1.361605 -0.000002 0.000000 -0.092955 -0.180118 -0.479921
    21 0.779602 0.000002 0.000000 -0.054450 -0.175357 -0.302876
    22 2.908712 0.221762 -0.431868 0.262466 0.035477 -0.741150
    23 1.597527 0.000001 0.000000 -0.068169 -0.153557 -0.419840
    24 0.912680 0.000001 0.000000 0.002385 0.009683 -0.242644
    25 3.265450 0.050007 0.415744 0.310072 0.076460 -0.508822
    26 1.860470 0.000000 0.000000 -0.088943 -0.083990 -0.815437
    27 1.061481 -0.000001 0.000000 0.001830 0.012006 -0.156488
    28 3.340382 -0.242393 1.285012 0.307724 0.073969 -0.530922
    29 1.550753 0.000001 0.000000 0.045456 0.067813 -0.590783
    30 0.904888 0.000001 0.000000 0.001236 0.038489 -0.401834
    31 1.219385 -1.063860 0.837143 2.003256 -0.611431 -0.473829
    32 1.496971 -0.000002 -0.000001 0.000037 -0.029358 -0.043690
    33 1.100086 0.000000 0.000000 0.000000 0.000000 -0.125082
    34 3.815876 1.385489 -1.500000 1.467859 1.423431 -0.206524
    35 4.327089 -0.000004 0.000000 1.384003 -0.057632 -1.452094
    36 11.105106 0.000000 0.000004 0.000000 0.000000 -1.899622
    37 9.862080 -0.000007 0.000017 -1.151018 0.033929 0.337430
    38 2.641111 0.211586 1.074188 -0.347050 -0.194537 -0.262540
    39 1.361601 0.000000 0.000000 -0.024955 0.003428 -1.707761
    40 0.779604 0.000001 0.000000 0.054474 0.175340 -0.910365
    41 2.908730 0.220541 0.432493 -0.425521 -0.282909 -0.524085
    42 1.597527 0.000000 0.000000 0.111753 0.021038 -1.385395
    43 0.912678 0.000000 0.000000 -0.002403 -0.009699 -0.901508
    44 3.265471 0.051184 -0.415600 -0.428025 -0.264703 -0.582589
    45 1.860470 0.000000 0.000000 0.005135 0.000231 -1.518109
    46 1.061485 0.000000 0.000000 -0.001870 -0.011971 -0.834431
    47 3.340403 -0.238762 -1.285691 -0.324189 -0.116457 -0.125981
    48 1.550755 0.000000 0.000000 -0.040731 -0.060707 -0.591530
    49 0.904886 0.000001 0.000000 -0.001263 -0.038530 -0.033046
    50 1.219410 -1.061498 -0.840143 -1.924947 0.122283 -0.482900
    51 1.496971 0.000002 0.000000 0.000004 -0.180040 -0.386555
    52 1.100088 0.000000 0.000000 -0.000040 0.040618 -0.404246
    53 0.000000 -0.000007 -0.000031 1.373047 0.113574 0.124314
    54 0.000000 0.000000 0.000000 -0.077030 -0.068757 -1.299215
    55 7.054213 0.000000 0.000000 0.000000 0.000000 0.000000
    56 0.000000 -0.000007 -0.000031 1.373047 0.113574 0.124314
    57 0.000000 -0.000007 -0.000031 1.373047 0.113574 0.124314
    58 2.271484 -1.195313 -0.759766 -1.494794 -0.290863 -1.668717
    59 0.000000 0.000000 10.000000 0.000000 0.000000 0.000000
    60 2.856899 -1.536201 -0.973800 -1.501147 -0.272558 -1.578261
    61 2.000000 -3.000000 0.000000 -1.570796 0.000000 -1.326450
    62 0.018896 0.665159 9.395880 0.000000 0.000000 0.000000
    63 3.028210 -0.923409 -2.009452 1.574082 -0.012974 1.587244
    64 0.116954 4.311606 0.061861 0.000010 0.000000 0.000000
    65 0.000000 -0.000002 0.000000 0.000000 0.000000 0.000000
    66 0.000000 1.000000 0.000010 0.000000 0.000000 0.000000
    67 -0.000001 0.000000 0.000000 0.000000 0.000000 0.000000
    68 -0.000001 0.000000 0.000000 0.000000 0.000000 0.000000
    69 -0.000001 0.000000 0.000000 0.000000 0.000000 0.000000
time 11
    0 -2.798827 -4.713582 8.617188 0.259806 1.178505 0.582431
    1 3.455587 0.000000 0.000000 -2.141719 -0.940534 -1.085676
    2 16.572346 0.000000 0.000000 0.000000 0.000000 1.657017
    3 16.265829 0.000000 0.000000 -0.492403 0.066473 -0.364081
    4 5.046457 0.000000 0.000000 0.009897 -0.018724 -0.419269
    5 -3.455587 0.000000 0.000000 -0.796999 -0.669506 -1.785983
    6 16.572346 0.000000 0.000000 0.000000 0.000000 2.668974
    7 16.265831 0.000000 0.000000 -0.578156 0.229879 -1.867591
    8 5.046457 0.000000 0.000000 -0.100187 0.015003 -0.323261
    9 0.000000 3.703728 0.293189 1.578502 -0.377386 1.506188
    10 3.307846 0.000000 0.000000 -0.025718 0.012997 0.129166
    11 3.297962 0.000000 0.000000 -0.147512 0.116973 0.076955
    12 6.040985 0.000000 0.000000 -0.146255 0.078689 0.377900
    13 5.065758 0.000000 0.000000 -3.127521 0.007626 0.768501
    14 3.993755 0.000000 0.000000 0.032509 -0.066723 0.146769
    15 3.815876 1.385489 1.500000 -0.080657 -0.746316 -1.455102
    16 4.327093 0.000004 0.000000 -1.620107 0.045113 -0.133561
    17 11.105114 0.000000 0.000000 0.000000 0.000000 -1.845922
    18 9.862099 -0.000011 -0.000031 2.402967 0.004329 -0.001491
    19 2.641094 0.214619 -1.073586 0.157099 -0.066091 -0.780590
    20 1.361605 -0.000002 0.000000 -0.092955 -0.180118 -0.479921
    21 0.779602 0.000002 0.000000 -0.054450 -0.175357 -0.302876
    22 2.908712 0.221762 -0.431868 0.262466 0.035477 -0.741150
    23 1.597527 0.000001 0.000000 -0.068169 -0.153557 -0.419840
    24 0.912680 0.000001 0.000000 0.002385 0.009683 -0.242644
    25 3.265450 0.050007 0.415744 0.310072 0.076460 -0.508822
    26 1.860470 0.000000 0.000000 -0.088943 -0.083990 -0.815437
    27 1.061481 -0.000001 0.000000 0.001830 0.012006 -0.156488
    28 3.340382 -0.242393 1.285012 0.307724 0.073969 -0.530922
    29 1.550753 0.000001 0.000000 0.045456 0.067813 -0.590783
    30 0.904888 0.000001 0.000000 0.001236 0.038489 -0.401834
    31 1.219385 -1.063860 0.837143 2.003256 -0.611431 -0.473829
    32 1.496971 -0.000002 -0.000001 0.000037 -0.029358 -0.043690
    33 1.100086 0.000000 0.000000 0.000000 0.000000 -0.125082
    34 3.815876 1.385489 -1.500000 1.467859 1.423431 -0.206524
    35 4.327089 -0.000004 0.000000 1.342152 -0.051053 -1.447709
    36 11.105106 0.000000 0.000004 0.000000 0.000000 -1.889520
    37 9.862080 -0.000007 0.000017 -1.151018 0.033929 0.337430
    38 2.641111 0.211586 1.074188 -0.347050 -0.194537 -0.262540
    39 1.361601 0.000000 0.000000 -0.024955 0.003428 -1.707761
    40 0.779604 0.000001 0.000000 0.054474 0.175340 -0.910365
    41 2.908730 0.220541 0.432493 -0.425521 -0.282909 -0.524085
    42 1.597527 0.000000 0.000000 0.111753 0.021038 -1.385395
    43 0.912678 0.000000 0.000000 -0.002403 -0.009699 -0.901508
    44 3.265471 0.051184 -0.415600 -0.428025 -0.264703 -0.582589
    45 1.860470 0.000000 0.000000 0.005135 0.000231 -1.518109
    46 1.061485 0.000000 0.000000 -0.001870 -0.011971 -0.834431
    47 3.340403 -0.238762 -1.285691 -0.324189 -0.116457 -0.125981
    48 1.550755 0.000000 0.000000 -0.040731 -0.060707 -0.591530
    49 0.904886 0.000001 0.000000 -0.001263 -0.038530 -0.033046
    50 1.219410 -1.061498 -0.840143 -1.924947 0.122283 -0.482900
    51 1.496971 0.000002 0.000000 0.000004 -0.180040 -0.386555
    52 1.100088 0.000000 0.000000 -0.000040 0.040618 -0.404246
    53 0.000000 -0.000007 -0.000031 1.373047 0.113574 0.124314
    54 0.000000 0.000000 0.000000 -0.077030 -0.068757 -1.299215
    55 7.054213 0.000000 0.000000 0.000000 0.000000 0.000000
    56 0.000000 -0.000007 -0.000031 1.373047 0.113574 0.124314
    57 0.000000 -0.000007 -0.000031 1.373047 0.113574 0.124314
    58 2.271484 -1.195313 -0.759766 -1.494794 -0.290863 -1.668717
    59 0.000000 0.000000 10.000000 0.000000 0.000000 0.000000
    60 2.856899 -1.536201 -0.973800 -1.501147 -0.272558 -1.578261
    61 2.000000 -3.000000 0.000000 -1.570796 0.000000 -1.326450
    62 0.018896 0.665159 9.395880 0.000000 0.000000 0.000000
    63 3.028210 -0.923409 -2.009452 1.574082 -0.012974 1.587244
    64 0.116954 4.311606 0.061861 0.000010 0.000000 0.000000
    65 0.000000 -0.000002 0.000000 0.000000 0.000000 0.000000
    66 0.000000 1.000000 0.000010 0.000000 0.000000 0.000000
    67 -0.000001 0.000000 0.000000 0.000000 0.000000 0.000000
    68 -0.000001 0.000000 0.000000 0.000000 0.000000 0.000000
    69 -0.000001 0.000000 0.000000 0.000000 0.000000 0.000000
time 12
    0 -2.798827 -6.105344 8.562500 0.255065 1.179088 0.577313
    1 3.455587 0.000000 0.000000 -2.252187 -0.982162 -0.955179
    2 16.572346 0.000000 0.000000 0.000000 0.000000 1.767997
    3 16.265829 0.000000 0.000000 -0.456902 0.069945 -0.395968
    4 5.046457 0.000000 0.000000 0.009897 -0.018724 -0.419269
    5 -3.455587 0.000000 0.000000 -0.848717 -0.714531 -1.724311
    6 16.572346 0.000000 0.000000 0.000000 0.000000 2.676163
    7 16.265831 0.000000 0.000000 -0.520401 0.264388 -1.859007
    8 5.046457 0.000000 0.000000 -0.100187 0.015003 -0.323261
    9 0.000000 3.703728 0.293189 1.579878 -0.377304 1.501488
    10 3.307846 0.000000 0.000000 -0.043965 0.007780 0.129354
    11 3.297962 0.000000 0.000000 -0.124209 0.106893 0.079816
    12 6.040985 0.000000 0.000000 -0.146255 0.078689 0.377900
    13 5.065758 0.000000 0.000000 -3.127521 0.007626 0.768501
    14 3.993755 0.000000 0.000000 0.032509 -0.066723 0.146769
    15 3.815876 1.385489 1.500000 -0.160580 -0.790159 -1.384387
    16 4.327093 0.000004 0.000000 -1.621820 0.165767 -0.069628
    17 11.105114 0.000000 0.000000 0.000000 0.000000 -1.815432
    18 9.862099 -0.000011 -0.000031 2.402967 0.004329 -0.001491
    19 2.641094 0.214619 -1.073586 0.157099 -0.066091 -0.780590
    20 1.361605 -0.000002 0.000000 -0.092955 -0.180118 -0.479921
    21 0.779602 0.000002 0.000000 -0.054450 -0.175357 -0.302876
    22 2.908712 0.221762 -0.431868 0.262466 0.035477 -0.741150
    23 1.597527 0.000001 0.000000 -0.068169 -0.153557 -0.419840
    24 0.912680 0.000001 0.000000 0.002385 0.009683 -0.242644
    25 3.265450 0.050007 0.415744 0.310072 0.076460 -0.508822
    26 1.860470 0.000000 0.000000 -0.088943 -0.083990 -0.815437
    27 1.061481 -0.000001 0.000000 0.001830 0.012006 -0.156488
    28 3.340382 -0.242393 1.285012 0.307724 0.073969 -0.530922
    29 1.550753 0.000001 0.000000 0.045456 0.067813 -0.590783
    30 0.904888 0.000001 0.000000 0.001236 0.038489 -0.401834
    31 1.219385 -1.063860 0.837143 2.003256 -0.611431 -0.473829
    32 1.496971 -0.000002 -0.000001 0.000037 -0.029358 -0.043690
    33 1.100086 0.000000 0.000000 0.000000 0.000000 -0.125082
    34 3.815876 1.385489 -1.500000 1.467859 1.423431 -0.206524
    35 4.327089 -0.000004 0.000000 1.333572 -0.039273 -1.449139
    36 11.105106 0.000000 0.000004 0.000000 0.000000 -1.861466
    37 9.862080 -0.000007 0.000017 -1.151018 0.033929 0.337430
    38 2.641111 0.211586 1.074188 -0.347050 -0.194537 -0.262540
    39 1.361601 0.000000 0.000000 -0.024955 0.003428 -1.707761
    40 0.779604 0.000001 0.000000 0.054474 0.175340 -0.910365
    41 2.908730 0.220541 0.432493 -0.425521 -0.282909 -0.524085
    42 1.597527 0.000000 0.000000 0.111753 0.021038 -1.385395
    43 0.912678 0.000000 0.000000 -0.002403 -0.009699 -0.901508
    44 3.265471 0.051184 -0.415600 -0.428025 -0.264703 -0.582589
    45 1.860470 0.000000 0.000000 0.005135 0.000231 -1.518109
    46 1.061485 0.000000 0.000000 -0.001870 -0.011971 -0.834431
    47 3.340403 -0.238762 -1.285691 -0.324189 -0.116457 -0.125981
    48 1.550755 0.000000 0.000000 -0.040731 -0.060707 -0.591530
    49 0.904886 0.000001 0.000000 -0.001263 -0.038530 -0.033046
    50 1.219410 -1.061498 -0.840143 -1.924947 0.122283 -0.482900
    51 1.496971 0.000002 0.000000 0.000004 -0.180040 -0.386555
    52 1.100088 0.000000 0.000000 -0.000040 0.040618 -0.404246
    53 0.000000 -0.000007 -0.000031 1.373047 0.113574 0.124314
    54 0.000000 0.000000 0.000000 -0.077030 -0.068757 -1.299215
    55 7.054213 0.000000 0.000000 0.000000 0.000000 0.000000
    56 0.000000 -0.000007 -0.000031 1.373047 0.113574 0.124314
    57 0.000000 -0.000007 -0.000031 1.373047 0.113574 0.124314
    58 2.271484 -1.195313 -0.759766 -1.494794 -0.290863 -1.668717
    59 0.000000 0.000000 10.000000 0.000000 0.000000 0.000000
    60 2.856899 -1.536201 -0.973800 -1.501147 -0.272558 -1.578261
    61 2.000000 -3.000000 0.000000 -1.570796 0.000000 -1.326450
    62 0.018896 0.665159 9.395880 0.000000 0.000000 0.000000
    63 3.028210 -0.923409 -2.009452 1.574082 -0.012974 1.587244
    64 0.116954 4.311606 0.061861 0.000010 0.000000 0.000000
    65 0.000000 -0.000002 0.000000 0.000000 0.000000 0.000000
    66 0.000000 1.000000 0.000010 0.000000 0.000000 0.000000
    67 -0.000001 0.000000 0.000000 0.000000 0.000000 0.000000
    68 -0.000001 0.000000 0.000000 0.000000 0.000000 0.000000
    69 -0.000001 0.000000 0.000000 0.000000 0.000000 0.000000
time 13
    0 -2.798827 -6.895456 8.476563 0.246286 1.179971 0.567816
    1 3.455587 0.000000 0.000000 -2.339501 -1.005037 -0.854478
    2 16.572346 0.000000 0.000000 0.000000 0.000000 1.866842
    3 16.265829 0.000000 0.000000 -0.431805 0.068076 -0.440826
    4 5.046457 0.000000 0.000000 0.009897 -0.018724 -0.419269
    5 -3.455587 0.000000 0.000000 -0.910659 -0.733139 -1.760149
    6 16.572346 0.000000 0.000000 0.000000 0.000000 2.625258
    7 16.265831 0.000000 0.000000 -0.468381 0.191484 -1.763055
    8 5.046457 0.000000 0.000000 -0.100187 0.015003 -0.323261
    9 0.000000 3.703728 0.293189 1.581158 -0.377300 1.497254
    10 3.307846 0.000000 0.000000 -0.034314 0.016951 0.125592
    11 3.297962 0.000000 0.000000 -0.093467 0.092352 0.083863
    12 6.040985 0.000000 0.000000 -0.146255 0.078689 0.377900
    13 5.065758 0.000000 0.000000 -3.127521 0.007626 0.768501
    14 3.993755 0.000000 0.000000 0.032509 -0.066723 0.146769
    15 3.815876 1.385489 1.500000 -0.377596 -0.881439 -1.178729
    16 4.327093 0.000004 0.000000 -1.587751 0.261972 -0.174415
    17 11.105114 0.000000 0.000000 0.000000 0.000000 -1.853166
    18 9.862099 -0.000011 -0.000031 2.402967 0.004329 -0.001491
    19 2.641094 0.214619 -1.073586 0.157099 -0.066091 -0.780590
    20 1.361605 -0.000002 0.000000 -0.092955 -0.180118 -0.479921
    21 0.779602 0.000002 0.000000 -0.054450 -0.175357 -0.302876
    22 2.908712 0.221762 -0.431868 0.262466 0.035477 -0.741150
    23 1.597527 0.000001 0.000000 -0.068169 -0.153557 -0.419840
    24 0.912680 0.000001 0.000000 0.002385 0.009683 -0.242644
    25 3.265450 0.050007 0.415744 0.310072 0.076460 -0.508822
    26 1.860470 0.000000 0.000000 -0.088943 -0.083990 -0.815437
    27 1.061481 -0.000001 0.000000 0.001830 0.012006 -0.156488
    28 3.340382 -0.242393 1.285012 0.307724 0.073969 -0.530922
    29 1.550753 0.000001 0.000000 0.045456 0.067813 -0.590783
    30 0.904888 0.000001 0.000000 0.001236 0.038489 -0.401834
    31 1.219385 -1.063860 0.837143 2.003256 -0.611431 -0.473829
    32 1.496971 -0.000002 -0.000001 0.000037 -0.029358 -0.043690
    33 1.100086 0.000000 0.000000 0.000000 0.000000 -0.125082
    34 3.815876 1.385489 -1.500000 1.467859 1.423431 -0.206524
    35 4.327089 -0.000004 0.000000 1.358761 -0.025632 -1.448293
    36 11.105106 0.000000 0.000004 0.000000 0.000000 -1.818607
    37 9.862080 -0.000007 0.000017 -1.151018 0.033929 0.337430
    38 2.641111 0.211586 1.074188 -0.347050 -0.194537 -0.262540
    39 1.361601 0.000000 0.000000 -0.024955 0.003428 -1.707761
    40 0.779604 0.000001 0.000000 0.054474 0.175340 -0.910365
    41 2.908730 0.220541 0.432493 -0.425521 -0.282909 -0.524085
    42 1.597527 0.000000 0.000000 0.111753 0.021038 -1.385395
    43 0.912678 0.000000 0.000000 -0.002403 -0.009699 -0.901508
    44 3.265471 0.051184 -0.415600 -0.428025 -0.264703 -0.582589
    45 1.860470 0.000000 0.000000 0.005135 0.000231 -1.518109
    46 1.061485 0.000000 0.000000 -0.001870 -0.011971 -0.834431
    47 3.340403 -0.238762 -1.285691 -0.324189 -0.116457 -0.125981
    48 1.550755 0.000000 0.000000 -0.040731 -0.060707 -0.591530
    49 0.904886 0.000001 0.000000 -0.001263 -0.038530 -0.033046
    50 1.219410 -1.061498 -0.840143 -1.924947 0.122283 -0.482900
    51 1.496971 0.000002 0.000000 0.000004 -0.180040 -0.386555
    52 1.100088 0.000000 0.000000 -0.000040 0.040618 -0.404246
    53 0.000000 -0.000007 -0.000031 1.373047 0.113574 0.124314
    54 0.000000 0.000000 0.000000 -0.077030 -0.068757 -1.299215
    55 7.054213 0.000000 0.000000 0.000000 0.000000 0.000000
    56 0.000000 -0.000007 -0.000031 1.373047 0.113574 0.124314
    57 0.000000 -0.000007 -0.000031 1.373047 0.113574 0.124314
    58 2.271484 -1.195313 -0.759766 -1.494794 -0.290863 -1.668717
    59 0.000000 0.000000 10.000000 0.000000 0.000000 0.000000
    60 2.856899 -1.536201 -0.973800 -1.501147 -0.272558 -1.578261
    61 2.000000 -3.000000 0.000000 -1.570796 0.000000 -1.326450
    62 0.018896 0.665159 9.395880 0.000000 0.000000 0.000000
    63 3.028210 -0.923409 -2.009452 1.574082 -0.012974 1.587244
    64 0.116954 4.311606 0.061861 0.000010 0.000000 0.000000
    65 0.000000 -0.000002 0.000000 0.000000 0.000000 0.000000
    66 0.000000 1.000000 0.000010 0.000000 0.000000 0.000000
    67 -0.000001 0.000000 0.000000 0.000000 0.000000 0.000000
    68 -0.000001 0.000000 0.000000 0.000000 0.000000 0.000000
    69 -0.000001 0.000000 0.000000 0.000000 0.000000 0.000000
time 14
    0 -2.798827 -6.912043 8.273438 0.233056 1.181319 0.553473
    1 3.455587 0.000000 0.000000 -2.363893 -1.011696 -0.825715
    2 16.572346 0.000000 0.000000 0.000000 0.000000 1.937682
    3 16.265829 0.000000 0.000000 -0.427120 0.063967 -0.497939
    4 5.046457 0.000000 0.000000 0.009897 -0.018724 -0.419269
    5 -3.455587 0.000000 0.000000 -1.009545 -0.742279 -1.810727
    6 16.572346 0.000000 0.000000 0.000000 0.000000 2.506036
    7 16.265831 0.000000 0.000000 -0.403326 0.067621 -1.604040
    8 5.046457 0.000000 0.000000 -0.100187 0.015003 -0.323261
    9 0.000000 3.703728 0.293189 1.582213 -0.377245 1.493910
    10 3.307846 0.000000 0.000000 -0.013059 0.036830 0.117339
    11 3.297962 0.000000 0.000000 -0.062148 0.075041 0.088447
    12 6.040985 0.000000 0.000000 -0.146255 0.078689 0.377900
    13 5.065758 0.000000 0.000000 -3.127521 0.007626 0.768501
    14 3.993755 0.000000 0.000000 0.032509 -0.066723 0.146769
    15 3.815876 1.385489 1.500000 -0.689694 -0.956367 -0.860266
    16 4.327093 0.000004 0.000000 -1.588267 0.368362 -0.354272
    17 11.105114 0.000000 0.000000 0.000000 0.000000 -1.945527
    18 9.862099 -0.000011 -0.000031 2.402967 0.004329 -0.001491
    19 2.641094 0.214619 -1.073586 0.157099 -0.066091 -0.780590
    20 1.361605 -0.000002 0.000000 -0.092955 -0.180118 -0.479921
    21 0.779602 0.000002 0.000000 -0.054450 -0.175357 -0.302876
    22 2.908712 0.221762 -0.431868 0.262466 0.035477 -0.741150
    23 1.597527 0.000001 0.000000 -0.068169 -0.153557 -0.419840
    24 0.912680 0.000001 0.000000 0.002385 0.009683 -0.242644
    25 3.265450 0.050007 0.415744 0.310072 0.076460 -0.508822
    26 1.860470 0.000000 0.000000 -0.088943 -0.083990 -0.815437
    27 1.061481 -0.000001 0.000000 0.001830 0.012006 -0.156488
    28 3.340382 -0.242393 1.285012 0.307724 0.073969 -0.530922
    29 1.550753 0.000001 0.000000 0.045456 0.067813 -0.590783
    30 0.904888 0.000001 0.000000 0.001236 0.038489 -0.401834
    31 1.219385 -1.063860 0.837143 2.003256 -0.611431 -0.473829
    32 1.496971 -0.000002 -0.000001 0.000037 -0.029358 -0.043690
    33 1.100086 0.000000 0.000000 0.000000 0.000000 -0.125082
    34 3.815876 1.385489 -1.500000 1.467859 1.423431 -0.206524
    35 4.327089 -0.000004 0.000000 1.396020 -0.011874 -1.440134
    36 11.105106 0.000000 0.000004 0.000000 0.000000 -1.764198
    37 9.862080 -0.000007 0.000017 -1.151018 0.033929 0.337430
    38 2.641111 0.211586 1.074188 -0.347050 -0.194537 -0.262540
    39 1.361601 0.000000 0.000000 -0.024955 0.003428 -1.707761
    40 0.779604 0.000001 0.000000 0.054474 0.175340 -0.910365
    41 2.908730 0.220541 0.432493 -0.425521 -0.282909 -0.524085
    42 1.597527 0.000000 0.000000 0.111753 0.021038 -1.385395
    43 0.912678 0.000000 0.000000 -0.002403 -0.009699 -0.901508
    44 3.265471 0.051184 -0.415600 -0.428025 -0.264703 -0.582589
    45 1.860470 0.000000 0.000000 0.005135 0.000231 -1.518109
    46 1.061485 0.000000 0.000000 -0.001870 -0.011971 -0.834431
    47 3.340403 -0.238762 -1.285691 -0.324189 -0.116457 -0.125981
    48 1.550755 0.000000 0.000000 -0.040731 -0.060707 -0.591530
    49 0.904886 0.000001 0.000000 -0.001263 -0.038530 -0.033046
    50 1.219410 -1.061498 -0.840143 -1.924947 0.122283 -0.482900
    51 1.496971 0.000002 0.000000 0.000004 -0.180040 -0.386555
    52 1.100088 0.000000 0.000000 -0.000040 0.040618 -0.404246
    53 0.000000 -0.000007 -0.000031 1.373047 0.113574 0.124314
    54 0.000000 0.000000 0.000000 -0.077030 -0.068757 -1.299215
    55 7.054213 0.000000 0.000000 0.000000 0.000000 0.000000
    56 0.000000 -0.000007 -0.000031 1.373047 0.113574 0.124314
    57 0.000000 -0.000007 -0.000031 1.373047 0.113574 0.124314
    58 2.271484 -1.195313 -0.759766 -1.494794 -0.290863 -1.668717
    59 0.000000 0.000000 10.000000 0.000000 0.000000 0.000000
    60 2.856899 -1.536201 -0.973800 -1.501147 -0.272558 -1.578261
    61 2.000000 -3.000000 0.000000 -1.570796 0.000000 -1.326450
    62 0.018896 0.665159 9.395880 0.000000 0.000000 0.000000
    63 3.028210 -0.923409 -2.009452 1.574082 -0.012974 1.587244
    64 0.116954 4.311606 0.061861 0.000010 0.000000 0.000000
    65 0.000000 -0.000002 0.000000 0.000000 0.000000 0.000000
    66 0.000000 1.000000 0.000010 0.000000 0.000000 0.000000
    67 -0.000001 0.000000 0.000000 0.000000 0.000000 0.000000
    68 -0.000001 0.000000 0.000000 0.000000 0.000000 0.000000
    69 -0.000001 0.000000 0.000000 0.000000 0.000000 0.000000
time 15
    0 -2.798827 -6.998856 8.039063 0.217346 1.182820 0.536443
    1 3.455587 0.000000 0.000000 -2.386019 -1.026415 -0.796834
    2 16.572346 0.000000 0.000000 0.000000 0.000000 2.025312
    3 16.265829 0.000000 0.000000 -0.429253 0.060412 -0.567014
    4 5.046457 0.000000 0.000000 0.009897 -0.018724 -0.419269
    5 -3.455587 0.000000 0.000000 -1.161010 -0.746733 -1.763183
    6 16.572346 0.000000 0.000000 0.000000 0.000000 2.359932
    7 16.265831 0.000000 0.000000 -0.303792 -0.011340 -1.465201
    8 5.046457 0.000000 0.000000 -0.100187 0.015003 -0.323261
    9 0.000000 3.703728 0.293189 1.582863 -0.377151 1.491485
    10 3.307846 0.000000 0.000000 0.008232 0.055667 0.109183
    11 3.297962 0.000000 0.000000 -0.036887 0.056519 0.092795
    12 6.040985 0.000000 0.000000 -0.146255 0.078689 0.377900
    13 5.065758 0.000000 0.000000 -3.127521 0.007626 0.768501
    14 3.993755 0.000000 0.000000 0.032509 -0.066723 0.146769
    15 3.815876 1.385489 1.500000 -0.994177 -0.987761 -0.531297
    16 4.327093 0.000004 0.000000 -1.657824 0.433367 -0.587510
    17 11.105114 0.000000 0.000000 0.000000 0.000000 -2.056002
    18 9.862099 -0.000011 -0.000031 2.402967 0.004329 -0.001491
    19 2.641094 0.214619 -1.073586 0.157099 -0.066091 -0.780590
    20 1.361605 -0.000002 0.000000 -0.092955 -0.180118 -0.479921
    21 0.779602 0.000002 0.000000 -0.054450 -0.175357 -0.302876
    22 2.908712 0.221762 -0.431868 0.262466 0.035477 -0.741150
    23 1.597527 0.000001 0.000000 -0.068169 -0.153557 -0.419840
    24 0.912680 0.000001 0.000000 0.002385 0.009683 -0.242644
    25 3.265450 0.050007 0.415744 0.310072 0.076460 -0.508822
    26 1.860470 0.000000 0.000000 -0.088943 -0.083990 -0.815437
    27 1.061481 -0.000001 0.000000 0.001830 0.012006 -0.156488
    28 3.340382 -0.242393 1.285012 0.307724 0.073969 -0.530922
    29 1.550753 0.000001 0.000000 0.045456 0.067813 -0.590783
    30 0.904888 0.000001 0.000000 0.001236 0.038489 -0.401834
    31 1.219385 -1.063860 0.837143 2.003256 -0.611431 -0.473829
    32 1.496971 -0.000002 -0.000001 0.000037 -0.029358 -0.043690
    33 1.100086 0.000000 0.000000 0.000000 0.000000 -0.125082
    34 3.815876 1.385489 -1.500000 1.467859 1.423431 -0.206524
    35 4.327089 -0.000004 0.000000 1.425616 0.004437 -1.430375
    36 11.105106 0.000000 0.000004 0.000000 0.000000 -1.701549
    37 9.862080 -0.000007 0.000017 -1.151018 0.033929 0.337430
    38 2.641111 0.211586 1.074188 -0.347050 -0.194537 -0.262540
    39 1.361601 0.000000 0.000000 -0.024955 0.003428 -1.707761
    40 0.779604 0.000001 0.000000 0.054474 0.175340 -0.910365
    41 2.908730 0.220541 0.432493 -0.425521 -0.282909 -0.524085
    42 1.597527 0.000000 0.000000 0.111753 0.021038 -1.385395
    43 0.912678 0.000000 0.000000 -0.002403 -0.009699 -0.901508
    44 3.265471 0.051184 -0.415600 -0.428025 -0.264703 -0.582589
    45 1.860470 0.000000 0.000000 0.005135 0.000231 -1.518109
    46 1.061485 0.000000 0.000000 -0.001870 -0.011971 -0.834431
    47 3.340403 -0.238762 -1.285691 -0.324189 -0.116457 -0.125981
    48 1.550755 0.000000 0.000000 -0.040731 -0.060707 -0.591530
    49 0.904886 0.000001 0.000000 -0.001263 -0.038530 -0.033046
    50 1.219410 -1.061498 -0.840143 -1.924947 0.122283 -0.482900
    51 1.496971 0.000002 0.000000 0.000004 -0.180040 -0.386555
    52 1.100088 0.000000 0.000000 -0.000040 0.040618 -0.404246
    53 0.000000 -0.000007 -0.000031 1.373047 0.113574 0.124314
    54 0.000000 0.000000 0.000000 -0.077030 -0.068757 -1.299215
    55 7.054213 0.000000 0.000000 0.000000 0.000000 0.000000
    56 0.000000 -0.000007 -0.000031 1.373047 0.113574 0.124314
    57 0.000000 -0.000007 -0.000031 1.373047 0.113574 0.124314
    58 2.271484 -1.195313 -0.759766 -1.494794 -0.290863 -1.668717
    59 0.000000 0.000000 10.000000 0.000000 0.000000 0.000000
    60 2.856899 -1.536201 -0.973800 -1.501147 -0.272558 -1.578261
    61 2.000000 -3.000000 0.000000 -1.570796 0.000000 -1.326450
    62 0.018896 0.665159 9.395880 0.000000 0.000000 0.000000
    63 3.028210 -0.923409 -2.009452 1.574082 -0.012974 1.587244
    64 0.116954 4.311606 0.061861 0.000010 0.000000 0.000000
    65 0.000000 -0.000002 0.000000 0.000000 0.000000 0.000000
    66 0.000000 1.000000 0.000010 0.000000 0.000000 0.000000
    67 -0.000001 0.000000 0.000000 0.000000 0.000000 0.000000
    68 -0.000001 0.000000 0.000000 0.000000 0.000000 0.000000
    69 -0.000001 0.000000 0.000000 0.000000 0.000000 0.000000
time 16
    0 -2.798827 -7.366831 7.949219 0.217346 1.182820 0.536443
    1 3.455587 0.000000 0.000000 -2.436287 -1.038823 -0.739345
    2 16.572346 0.000000 0.000000 0.000000 0.000000 2.130394
    3 16.265829 0.000000 0.000000 -0.418802 0.060617 -0.641312
    4 5.046457 0.000000 0.000000 0.009897 -0.018724 -0.419269
    5 -3.455587 0.000000 0.000000 -1.351037 -0.728603 -1.642404
    6 16.572346 0.000000 0.000000 0.000000 0.000000 2.210729
    7 16.265831 0.000000 0.000000 -0.173058 -0.043339 -1.364503
    8 5.046457 0.000000 0.000000 -0.100187 0.015003 -0.323261
    9 0.000000 3.703728 0.293189 1.583506 -0.377145 1.489587
    10 3.307846 0.000000 0.000000 0.018147 0.061901 0.105551
    11 3.297962 0.000000 0.000000 -0.024506 0.038691 0.096015
    12 6.040985 0.000000 0.000000 -0.146255 0.078689 0.377900
    13 5.065758 0.000000 0.000000 -3.127521 0.007626 0.768501
    14 3.993755 0.000000 0.000000 0.032509 -0.066723 0.146769
    15 3.815876 1.385489 1.500000 -1.176291 -1.014859 -0.327766
    16 4.327093 0.000004 0.000000 -1.771342 0.404525 -0.841199
    17 11.105114 0.000000 0.000000 0.000000 0.000000 -2.147424
    18 9.862099 -0.000011 -0.000031 2.402967 0.004329 -0.001491
    19 2.641094 0.214619 -1.073586 0.157099 -0.066091 -0.780590
    20 1.361605 -0.000002 0.000000 -0.092955 -0.180118 -0.479921
    21 0.779602 0.000002 0.000000 -0.054450 -0.175357 -0.302876
    22 2.908712 0.221762 -0.431868 0.262466 0.035477 -0.741150
    23 1.597527 0.000001 0.000000 -0.068169 -0.153557 -0.419840
    24 0.912680 0.000001 0.000000 0.002385 0.009683 -0.242644
    25 3.265450 0.050007 0.415744 0.310072 0.076460 -0.508822
    26 1.860470 0.000000 0.000000 -0.088943 -0.083990 -0.815437
    27 1.061481 -0.000001 0.000000 0.001830 0.012006 -0.156488
    28 3.340382 -0.242393 1.285012 0.307724 0.073969 -0.530922
    29 1.550753 0.000001 0.000000 0.045456 0.067813 -0.590783
    30 0.904888 0.000001 0.000000 0.001236 0.038489 -0.401834
    31 1.219385 -1.063860 0.837143 2.003256 -0.611431 -0.473829
    32 1.496971 -0.000002 -0.000001 0.000037 -0.029358 -0.043690
    33 1.100086 0.000000 0.000000 0.000000 0.000000 -0.125082
    34 3.815876 1.385489 -1.500000 1.467859 1.423431 -0.206524
    35 4.327089 -0.000004 0.000000 1.433889 0.029278 -1.420659
    36 11.105106 0.000000 0.000004 0.000000 0.000000 -1.634171
    37 9.862080 -0.000007 0.000017 -1.151018 0.033929 0.337430
    38 2.641111 0.211586 1.074188 -0.347050 -0.194537 -0.262540
    39 1.361601 0.000000 0.000000 -0.024955 0.003428 -1.707761
    40 0.779604 0.000001 0.000000 0.054474 0.175340 -0.910365
    41 2.908730 0.220541 0.432493 -0.425521 -0.282909 -0.524085
    42 1.597527 0.000000 0.000000 0.111753 0.021038 -1.385395
    43 0.912678 0.000000 0.000000 -0.002403 -0.009699 -0.901508
    44 3.265471 0.051184 -0.415600 -0.428025 -0.264703 -0.582589
    45 1.860470 0.000000 0.000000 0.005135 0.000231 -1.518109
    46 1.061485 0.000000 0.000000 -0.001870 -0.011971 -0.834431
    47 3.340403 -0.238762 -1.285691 -0.324189 -0.116457 -0.125981
    48 1.550755 0.000000 0.000000 -0.040731 -0.060707 -0.591530
    49 0.904886 0.000001 0.000000 -0.001263 -0.038530 -0.033046
    50 1.219410 -1.061498 -0.840143 -1.924947 0.122283 -0.482900
    51 1.496971 0.000002 0.000000 0.000004 -0.180040 -0.386555
    52 1.100088 0.000000 0.000000 -0.000040 0.040618 -0.404246
    53 0.000000 -0.000007 -0.000031 1.373047 0.113574 0.124314
    54 0.000000 0.000000 0.000000 -0.077030 -0.068757 -1.299215
    55 7.054213 0.000000 0.000000 0.000000 0.000000 0.000000
    56 0.000000 -0.000007 -0.000031 1.373047 0.113574 0.124314
    57 0.000000 -0.000007 -0.000031 1.373047 0.113574 0.124314
    58 2.271484 -1.195313 -0.759766 -1.494794 -0.290863 -1.668717
    59 0.000000 0.000000 10.000000 0.000000 0.000000 0.000000
    60 2.856899 -1.536201 -0.973800 -1.501147 -0.272558 -1.578261
    61 2.000000 -3.000000 0.000000 -1.570796 0.000000 -1.326450
    62 0.018896 0.665159 9.395880 0.000000 0.000000 0.000000
    63 3.028210 -0.923409 -2.009452 1.574082 -0.012974 1.587244
    64 0.116954 4.311606 0.061861 0.000010 0.000000 0.000000
    65 0.000000 -0.000002 0.000000 0.000000 0.000000 0.000000
    66 0.000000 1.000000 0.000010 0.000000 0.000000 0.000000
    67 -0.000001 0.000000 0.000000 0.000000 0.000000 0.000000
    68 -0.000001 0.000000 0.000000 0.000000 0.000000 0.000000
    69 -0.000001 0.000000 0.000000 0.000000 0.000000 0.000000
time 17
    0 -2.798827 -7.797219 7.867188 0.217346 1.182820 0.536443
    1 3.455587 0.000000 0.000000 -2.487224 -1.049912 -0.680397
    2 16.572346 0.000000 0.000000 0.000000 0.000000 2.236727
    3 16.265829 0.000000 0.000000 -0.408740 0.061283 -0.717080
    4 5.046457 0.000000 0.000000 0.009897 -0.018724 -0.419269
    5 -3.455587 0.000000 0.000000 -1.550822 -0.682138 -1.503802
    6 16.572346 0.000000 0.000000 0.000000 0.000000 2.063354
    7 16.265831 0.000000 0.000000 -0.025600 -0.054900 -1.283124
    8 5.046457 0.000000 0.000000 -0.100187 0.015003 -0.323261
    9 0.000000 3.703728 0.293189 1.583881 -0.377163 1.488252
    10 3.307846 0.000000 0.000000 0.012133 0.049924 0.108298
    11 3.297962 0.000000 0.000000 -0.031669 0.016940 0.098026
    12 6.040985 0.000000 0.000000 -0.146255 0.078689 0.377900
    13 5.065758 0.000000 0.000000 -3.127521 0.007626 0.768501
    14 3.993755 0.000000 0.000000 0.032509 -0.066723 0.146769
    15 3.815876 1.385489 1.500000 -1.218619 -1.105342 -0.286406
    16 4.327093 0.000004 0.000000 -1.891112 0.310919 -1.061405
    17 11.105114 0.000000 0.000000 0.000000 0.000000 -2.190876
    18 9.862099 -0.000011 -0.000031 2.402967 0.004329 -0.001491
    19 2.641094 0.214619 -1.073586 0.157099 -0.066091 -0.780590
    20 1.361605 -0.000002 0.000000 -0.092955 -0.180118 -0.479921
    21 0.779602 0.000002 0.000000 -0.054450 -0.175357 -0.302876
    22 2.908712 0.221762 -0.431868 0.262466 0.035477 -0.741150
    23 1.597527 0.000001 0.000000 -0.068169 -0.153557 -0.419840
    24 0.912680 0.000001 0.000000 0.002385 0.009683 -0.242644
    25 3.265450 0.050007 0.415744 0.310072 0.076460 -0.508822
    26 1.860470 0.000000 0.000000 -0.088943 -0.083990 -0.815437
    27 1.061481 -0.000001 0.000000 0.001830 0.012006 -0.156488
    28 3.340382 -0.242393 1.285012 0.307724 0.073969 -0.530922
    29 1.550753 0.000001 0.000000 0.045456 0.067813 -0.590783
    30 0.904888 0.000001 0.000000 0.001236 0.038489 -0.401834
    31 1.219385 -1.063860 0.837143 2.003256 -0.611431 -0.473829
    32 1.496971 -0.000002 -0.000001 0.000037 -0.029358 -0.043690
    33 1.100086 0.000000 0.000000 0.000000 0.000000 -0.125082
    34 3.815876 1.385489 -1.500000 1.467859 1.423431 -0.206524
    35 4.327089 -0.000004 0.000000 1.402927 0.066132 -1.425706
    36 11.105106 0.000000 0.000004 0.000000 0.000000 -1.566254
    37 9.862080 -0.000007 0.000017 -1.151018 0.033929 0.337430
    38 2.641111 0.211586 1.074188 -0.347050 -0.194537 -0.262540
    39 1.361601 0.000000 0.000000 -0.024955 0.003428 -1.707761
    40 0.779604 0.000001 0.000000 0.054474 0.175340 -0.910365
    41 2.908730 0.220541 0.432493 -0.425521 -0.282909 -0.524085
    42 1.597527 0.000000 0.000000 0.111753 0.021038 -1.385395
    43 0.912678 0.000000 0.000000 -0.002403 -0.009699 -0.901508
    44 3.265471 0.051184 -0.415600 -0.428025 -0.264703 -0.582589
    45 1.860470 0.000000 0.000000 0.005135 0.000231 -1.518109
    46 1.061485 0.000000 0.000000 -0.001870 -0.011971 -0.834431
    47 3.340403 -0.238762 -1.285691 -0.324189 -0.116457 -0.125981
    48 1.550755 0.000000 0.000000 -0.040731 -0.060707 -0.591530
    49 0.904886 0.000001 0.000000 -0.001263 -0.038530 -0.033046
    50 1.219410 -1.061498 -0.840143 -1.924947 0.122283 -0.482900
    51 1.496971 0.000002 0.000000 0.000004 -0.180040 -0.386555
    52 1.100088 0.000000 0.000000 -0.000040 0.040618 -0.404246
    53 0.000000 -0.000007 -0.000031 1.373047 0.113574 0.124314
    54 0.000000 0.000000 0.000000 -0.077030 -0.068757 -1.299215
    55 7.054213 0.000000 0.000000 0.000000 0.000000 0.000000
    56 0.000000 -0.000007 -0.000031 1.373047 0.113574 0.124314
    57 0.000000 -0.000007 -0.000031 1.373047 0.113574 0.124314
    58 2.271484 -1.195313 -0.759766 -1.494794 -0.290863 -1.668717
    59 0.000000 0.000000 10.000000 0.000000 0.000000 0.000000
    60 2.856899 -1.536201 -0.973800 -1.501147 -0.272558 -1.578261
    61 2.000000 -3.000000 0.000000 -1.570796 0.000000 -1.326450
    62 0.018896 0.665159 9.395880 0.000000 0.000000 0.000000
    63 3.028210 -0.923409 -2.009452 1.574082 -0.012974 1.587244
    64 0.116954 4.311606 0.061861 0.000010 0.000000 0.000000
    65 0.000000 -0.000002 0.000000 0.000000 0.000000 0.000000
    66 0.000000 1.000000 0.000010 0.000000 0.000000 0.000000
    67 -0.000001 0.000000 0.000000 0.000000 0.000000 0.000000
    68 -0.000001 0.000000 0.000000 0.000000 0.000000 0.000000
    69 -0.000001 0.000000 0.000000 0.000000 0.000000 0.000000
time 18
    0 -2.798827 -8.243145 7.789063 0.217346 1.182820 0.536443
    1 3.455587 0.000000 0.000000 -2.532547 -1.057003 -0.627412
    2 16.572346 0.000000 0.000000 0.000000 0.000000 2.334656
    3 16.265829 0.000000 0.000000 -0.399055 0.062384 -0.789055
    4 5.046457 0.000000 0.000000 0.009897 -0.018724 -0.419269
    5 -3.455587 0.000000 0.000000 -1.729548 -0.613257 -1.383640
    6 16.572346 0.000000 0.000000 0.000000 0.000000 1.927400
    7 16.265831 0.000000 0.000000 0.120439 -0.053042 -1.217137
    8 5.046457 0.000000 0.000000 -0.100187 0.015003 -0.323261
    9 0.000000 3.703728 0.293189 1.584124 -0.377123 1.487270
    10 3.307846 0.000000 0.000000 -0.002497 0.027295 0.114680
    11 3.297962 0.000000 0.000000 -0.054021 -0.010280 0.099458
    12 6.040985 0.000000 0.000000 -0.146255 0.078689 0.377900
    13 5.065758 0.000000 0.000000 -3.127521 0.007626 0.768501
    14 3.993755 0.000000 0.000000 0.032509 -0.066723 0.146769
    15 3.815876 1.385489 1.500000 -1.148489 -1.254240 -0.375351
    16 4.327093 0.000004 0.000000 -2.005811 0.206912 -1.224230
    17 11.105114 0.000000 0.000000 0.000000 0.000000 -2.177941
    18 9.862099 -0.000011 -0.000031 2.402967 0.004329 -0.001491
    19 2.641094 0.214619 -1.073586 0.157099 -0.066091 -0.780590
    20 1.361605 -0.000002 0.000000 -0.092955 -0.180118 -0.479921
    21 0.779602 0.000002 0.000000 -0.054450 -0.175357 -0.302876
    22 2.908712 0.221762 -0.431868 0.262466 0.035477 -0.741150
    23 1.597527 0.000001 0.000000 -0.068169 -0.153557 -0.419840
    24 0.912680 0.000001 0.000000 0.002385 0.009683 -0.242644
    25 3.265450 0.050007 0.415744 0.310072 0.076460 -0.508822
    26 1.860470 0.000000 0.000000 -0.088943 -0.083990 -0.815437
    27 1.061481 -0.000001 0.000000 0.001830 0.012006 -0.156488
    28 3.340382 -0.242393 1.285012 0.307724 0.073969 -0.530922
    29 1.550753 0.000001 0.000000 0.045456 0.067813 -0.590783
    30 0.904888 0.000001 0.000000 0.001236 0.038489 -0.401834
    31 1.219385 -1.063860 0.837143 2.003256 -0.611431 -0.473829
    32 1.496971 -0.000002 -0.000001 0.000037 -0.029358 -0.043690
    33 1.100086 0.000000 0.000000 0.000000 0.000000 -0.125082
    34 3.815876 1.385489 -1.500000 1.467859 1.423431 -0.206524
    35 4.327089 -0.000004 0.000000 1.345560 0.107527 -1.447846
    36 11.105106 0.000000 0.000004 0.000000 0.000000 -1.503045
    37 9.862080 -0.000007 0.000017 -1.151018 0.033929 0.337430
    38 2.641111 0.211586 1.074188 -0.347050 -0.194537 -0.262540
    39 1.361601 0.000000 0.000000 -0.024955 0.003428 -1.707761
    40 0.779604 0.000001 0.000000 0.054474 0.175340 -0.910365
    41 2.908730 0.220541 0.432493 -0.425521 -0.282909 -0.524085
    42 1.597527 0.000000 0.000000 0.111753 0.021038 -1.385395
    43 0.912678 0.000000 0.000000 -0.002403 -0.009699 -0.901508
    44 3.265471 0.051184 -0.415600 -0.428025 -0.264703 -0.582589
    45 1.860470 0.000000 0.000000 0.005135 0.000231 -1.518109
    46 1.061485 0.000000 0.000000 -0.001870 -0.011971 -0.834431
    47 3.340403 -0.238762 -1.285691 -0.324189 -0.116457 -0.125981
    48 1.550755 0.000000 0.000000 -0.040731 -0.060707 -0.591530
    49 0.904886 0.000001 0.000000 -0.001263 -0.038530 -0.033046
    50 1.219410 -1.061498 -0.840143 -1.924947 0.122283 -0.482900
    51 1.496971 0.000002 0.000000 0.000004 -0.180040 -0.386555
    52 1.100088 0.000000 0.000000 -0.000040 0.040618 -0.404246
    53 0.000000 -0.000007 -0.000031 1.373047 0.113574 0.124314
    54 0.000000 0.000000 0.000000 -0.077030 -0.068757 -1.299215
    55 7.054213 0.000000 0.000000 0.000000 0.000000 0.000000
    56 0.000000 -0.000007 -0.000031 1.373047 0.113574 0.124314
    57 0.000000 -0.000007 -0.000031 1.373047 0.113574 0.124314
    58 2.271484 -1.195313 -0.759766 -1.494794 -0.290863 -1.668717
    59 0.000000 0.000000 10.000000 0.000000 0.000000 0.000000
    60 2.856899 -1.536201 -0.973800 -1.501147 -0.272558 -1.578261
    61 2.000000 -3.000000 0.000000 -1.570796 0.000000 -1.326450
    62 0.018896 0.665159 9.395880 0.000000 0.000000 0.000000
    63 3.028210 -0.923409 -2.009452 1.574082 -0.012974 1.587244
    64 0.116954 4.311606 0.061861 0.000010 0.000000 0.000000
    65 0.000000 -0.000002 0.000000 0.000000 0.000000 0.000000
    66 0.000000 1.000000 0.000010 0.000000 0.000000 0.000000
    67 -0.000001 0.000000 0.000000 0.000000 0.000000 0.000000
    68 -0.000001 0.000000 0.000000 0.000000 0.000000 0.000000
    69 -0.000001 0.000000 0.000000 0.000000 0.000000 0.000000
time 19
    0 -2.798827 -8.642109 7.726563 0.217346 1.182820 0.536443
    1 3.455587 0.000000 0.000000 -2.566923 -1.059627 -0.586657
    2 16.572346 0.000000 0.000000 0.000000 0.000000 2.415085
    3 16.265829 0.000000 0.000000 -0.389977 0.063712 -0.850808
    4 5.046457 0.000000 0.000000 0.009897 -0.018724 -0.419269
    5 -3.455587 0.000000 0.000000 -1.865534 -0.540354 -1.300962
    6 16.572346 0.000000 0.000000 0.000000 0.000000 1.814117
    7 16.265831 0.000000 0.000000 0.243930 -0.044716 -1.165461
    8 5.046457 0.000000 0.000000 -0.100187 0.015003 -0.323261
    9 0.000000 3.703728 0.293189 1.584311 -0.377096 1.486640
    10 3.307846 0.000000 0.000000 -0.020228 0.001583 0.122131
    11 3.297962 0.000000 0.000000 -0.082115 -0.037135 0.100510
    12 6.040985 0.000000 0.000000 -0.146255 0.078689 0.377900
    13 5.065758 0.000000 0.000000 -3.127521 0.007626 0.768501
    14 3.993755 0.000000 0.000000 0.032509 -0.066723 0.146769
    15 3.815876 1.385489 1.500000 -0.803898 -1.404765 -0.744997
    16 4.327093 0.000004 0.000000 -2.089230 0.145535 -1.255491
    17 11.105114 0.000000 0.000000 0.000000 0.000000 -2.136408
    18 9.862099 -0.000011 -0.000031 2.402967 0.004329 -0.001491
    19 2.641094 0.214619 -1.073586 0.157099 -0.066091 -0.780590
    20 1.361605 -0.000002 0.000000 -0.092955 -0.180118 -0.479921
    21 0.779602 0.000002 0.000000 -0.054450 -0.175357 -0.302876
    22 2.908712 0.221762 -0.431868 0.262466 0.035477 -0.741150
    23 1.597527 0.000001 0.000000 -0.068169 -0.153557 -0.419840
    24 0.912680 0.000001 0.000000 0.002385 0.009683 -0.242644
    25 3.265450 0.050007 0.415744 0.310072 0.076460 -0.508822
    26 1.860470 0.000000 0.000000 -0.088943 -0.083990 -0.815437
    27 1.061481 -0.000001 0.000000 0.001830 0.012006 -0.156488
    28 3.340382 -0.242393 1.285012 0.307724 0.073969 -0.530922
    29 1.550753 0.000001 0.000000 0.045456 0.067813 -0.590783
    30 0.904888 0.000001 0.000000 0.001236 0.038489 -0.401834
    31 1.219385 -1.063860 0.837143 2.003256 -0.611431 -0.473829
    32 1.496971 -0.000002 -0.000001 0.000037 -0.029358 -0.043690
    33 1.100086 0.000000 0.000000 0.000000 0.000000 -0.125082
    34 3.815876 1.385489 -1.500000 1.467859 1.423431 -0.206524
    35 4.327089 -0.000004 0.000000 1.280291 0.144398 -1.479634
    36 11.105106 0.000000 0.000004 0.000000 0.000000 -1.449940
    37 9.862080 -0.000007 0.000017 -1.151018 0.033929 0.337430
    38 2.641111 0.211586 1.074188 -0.347050 -0.194537 -0.262540
    39 1.361601 0.000000 0.000000 -0.024955 0.003428 -1.707761
    40 0.779604 0.000001 0.000000 0.054474 0.175340 -0.910365
    41 2.908730 0.220541 0.432493 -0.425521 -0.282909 -0.524085
    42 1.597527 0.000000 0.000000 0.111753 0.021038 -1.385395
    43 0.912678 0.000000 0.000000 -0.002403 -0.009699 -0.901508
    44 3.265471 0.051184 -0.415600 -0.428025 -0.264703 -0.582589
    45 1.860470 0.000000 0.000000 0.005135 0.000231 -1.518109
    46 1.061485 0.000000 0.000000 -0.001870 -0.011971 -0.834431
    47 3.340403 -0.238762 -1.285691 -0.324189 -0.116457 -0.125981
    48 1.550755 0.000000 0.000000 -0.040731 -0.060707 -0.591530
    49 0.904886 0.000001 0.000000 -0.001263 -0.038530 -0.033046
    50 1.219410 -1.061498 -0.840143 -1.924947 0.122283 -0.482900
    51 1.496971 0.000002 0.000000 0.000004 -0.180040 -0.386555
    52 1.100088 0.000000 0.000000 -0.000040 0.040618 -0.404246
    53 0.000000 -0.000007 -0.000031 1.373047 0.113574 0.124314
    54 0.000000 0.000000 0.000000 -0.077030 -0.068757 -1.299215
    55 7.054213 0.000000 0.000000 0.000000 0.000000 0.000000
    56 0.000000 -0.000007 -0.000031 1.373047 0.113574 0.124314
    57 0.000000 -0.000007 -0.000031 1.373047 0.113574 0.124314
    58 2.271484 -1.195313 -0.759766 -1.494794 -0.290863 -1.668717
    59 0.000000 0.000000 10.000000 0.000000 0.000000 0.000000
    60 2.856899 -1.536201 -0.973800 -1.501147 -0.272558 -1.578261
    61 2.000000 -3.000000 0.000000 -1.570796 0.000000 -1.326450
    62 0.018896 0.665159 9.395880 0.000000 0.000000 0.000000
    63 3.028210 -0.923409 -2.009452 1.574082 -0.012974 1.587244
    64 0.116954 4.311606 0.061861 0.000010 0.000000 0.000000
    65 0.000000 -0.000002 0.000000 0.000000 0.000000 0.000000
    66 0.000000 1.000000 0.000010 0.000000 0.000000 0.000000
    67 -0.000001 0.000000 0.000000 0.000000 0.000000 0.000000
    68 -0.000001 0.000000 0.000000 0.000000 0.000000 0.000000
    69 -0.000001 0.000000 0.000000 0.000000 0.000000 0.000000
time 20
    0 -2.798827 -8.923797 7.687500 0.217346 1.182820 0.536443
    1 3.455587 0.000000 0.000000 -2.588100 -1.059393 -0.561127
    2 16.572346 0.000000 0.000000 0.000000 0.000000 2.469757
    3 16.265829 0.000000 0.000000 -0.383098 0.064770 -0.894725
    4 5.046457 0.000000 0.000000 0.009897 -0.018724 -0.419269
    5 -3.455587 0.000000 0.000000 -1.949870 -0.484969 -1.256111
    6 16.572346 0.000000 0.000000 0.000000 0.000000 1.736535
    7 16.265831 0.000000 0.000000 0.326894 -0.036564 -1.130627
    8 5.046457 0.000000 0.000000 -0.100187 0.015003 -0.323261
    9 0.000000 3.703728 0.293189 1.584443 -0.377154 1.486287
    10 3.307846 0.000000 0.000000 -0.035071 -0.019377 0.128302
    11 3.297962 0.000000 0.000000 -0.106040 -0.057651 0.101172
    12 6.040985 0.000000 0.000000 -0.146255 0.078689 0.377900
    13 5.065758 0.000000 0.000000 -3.127521 0.007626 0.768501
    14 3.993755 0.000000 0.000000 0.032509 -0.066723 0.146769
    15 3.815876 1.385489 1.500000 0.178813 -1.457838 -1.748750
    16 4.327093 0.000004 0.000000 -2.144110 0.090304 -1.265266
    17 11.105114 0.000000 0.000000 0.000000 0.000000 -2.078009
    18 9.862099 -0.000011 -0.000031 2.402967 0.004329 -0.001491
    19 2.641094 0.214619 -1.073586 0.157099 -0.066091 -0.780590
    20 1.361605 -0.000002 0.000000 -0.092955 -0.180118 -0.479921
    21 0.779602 0.000002 0.000000 -0.054450 -0.175357 -0.302876
    22 2.908712 0.221762 -0.431868 0.262466 0.035477 -0.741150
    23 1.597527 0.000001 0.000000 -0.068169 -0.153557 -0.419840
    24 0.912680 0.000001 0.000000 0.002385 0.009683 -0.242644
    25 3.265450 0.050007 0.415744 0.310072 0.076460 -0.508822
    26 1.860470 0.000000 0.000000 -0.088943 -0.083990 -0.815437
    27 1.061481 -0.000001 0.000000 0.001830 0.012006 -0.156488
    28 3.340382 -0.242393 1.285012 0.307724 0.073969 -0.530922
    29 1.550753 0.000001 0.000000 0.045456 0.067813 -0.590783
    30 0.904888 0.000001 0.000000 0.001236 0.038489 -0.401834
    31 1.219385 -1.063860 0.837143 2.003256 -0.611431 -0.473829
    32 1.496971 -0.000002 -0.000001 0.000037 -0.029358 -0.043690
    33 1.100086 0.000000 0.000000 0.000000 0.000000 -0.125082
    34 3.815876 1.385489 -1.500000 1.467859 1.423431 -0.206524
    35 4.327089 -0.000004 0.000000 1.226316 0.169190 -1.508937
    36 11.105106 0.000000 0.000004 0.000000 0.000000 -1.413443
    37 9.862080 -0.000007 0.000017 -1.151018 0.033929 0.337430
    38 2.641111 0.211586 1.074188 -0.347050 -0.194537 -0.262540
    39 1.361601 0.000000 0.000000 -0.024955 0.003428 -1.707761
    40 0.779604 0.000001 0.000000 0.054474 0.175340 -0.910365
    41 2.908730 0.220541 0.432493 -0.425521 -0.282909 -0.524085
    42 1.597527 0.000000 0.000000 0.111753 0.021038 -1.385395
    43 0.912678 0.000000 0.000000 -0.002403 -0.009699 -0.901508
    44 3.265471 0.051184 -0.415600 -0.428025 -0.264703 -0.582589
    45 1.860470 0.000000 0.000000 0.005135 0.000231 -1.518109
    46 1.061485 0.000000 0.000000 -0.001870 -0.011971 -0.834431
    47 3.340403 -0.238762 -1.285691 -0.324189 -0.116457 -0.125981
    48 1.550755 0.000000 0.000000 -0.040731 -0.060707 -0.591530
    49 0.904886 0.000001 0.000000 -0.001263 -0.038530 -0.033046
    50 1.219410 -1.061498 -0.840143 -1.924947 0.122283 -0.482900
    51 1.496971 0.000002 0.000000 0.000004 -0.180040 -0.386555
    52 1.100088 0.000000 0.000000 -0.000040 0.040618 -0.404246
    53 0.000000 -0.000007 -0.000031 1.373047 0.113574 0.124314
    54 0.000000 0.000000 0.000000 -0.077030 -0.068757 -1.299215
    55 7.054213 0.000000 0.000000 0.000000 0.000000 0.000000
    56 0.000000 -0.000007 -0.000031 1.373047 0.113574 0.124314
    57 0.000000 -0.000007 -0.000031 1.373047 0.113574 0.124314
    58 2.271484 -1.195313 -0.759766 -1.494794 -0.290863 -1.668717
    59 0.000000 0.000000 10.000000 0.000000 0.000000 0.000000
    60 2.856899 -1.536201 -0.973800 -1.501147 -0.272558 -1.578261
    61 2.000000 -3.000000 0.000000 -1.570796 0.000000 -1.326450
    62 0.018896 0.665159 9.395880 0.000000 0.000000 0.000000
    63 3.028210 -0.923409 -2.009452 1.574082 -0.012974 1.587244
    64 0.116954 4.311606 0.061861 0.000010 0.000000 0.000000
    65 0.000000 -0.000002 0.000000 0.000000 0.000000 0.000000
    66 0.000000 1.000000 0.000010 0.000000 0.000000 0.000000
    67 -0.000001 0.000000 0.000000 0.000000 0.000000 0.000000
    68 -0.000001 0.000000 0.000000 0.000000 0.000000 0.000000
    69 -0.000001 0.000000 0.000000 0.000000 0.000000 0.000000
time 21
    0 -2.798827 -9.033524 7.671875 0.193890 1.184807 0.511195
    1 3.455587 0.000000 0.000000 -2.368130 -1.171579 -0.736903
    2 16.572346 0.000000 0.000000 0.000000 0.000000 2.492116
    3 16.265829 0.000000 0.000000 -0.521911 0.117814 -0.925098
    4 5.046457 0.000000 0.000000 0.015179 -0.021492 -0.505390
    5 -3.455587 0.000000 0.000000 -1.980949 -0.476403 -1.215546
    6 16.572346 0.000000 0.000000 0.000000 0.000000 1.740152
    7 16.265831 0.000000 0.000000 0.356964 -0.022706 -1.132570
    8 5.046457 0.000000 0.000000 -0.101158 0.012224 -0.446078
    9 0.000000 3.703728 0.293189 1.584470 -0.377076 1.486184
    10 3.307846 0.000000 0.000000 -0.041303 -0.028185 0.130895
    11 3.297962 0.000000 0.000000 -0.116182 -0.065887 0.101465
    12 6.040985 0.000000 0.000000 -0.146255 0.078689 0.377900
    13 5.065758 0.000000 0.000000 -3.127521 0.007626 0.768501
    14 3.993755 0.000000 0.000000 0.032509 -0.066723 0.146769
    15 3.815876 1.385489 1.500000 0.612726 -1.434909 -2.190997
    16 4.327093 0.000004 0.000000 -2.330759 -0.050268 -1.390715
    17 11.105114 0.000000 0.000000 0.000000 0.000000 -2.002330
    18 9.862099 -0.000011 -0.000031 2.402967 0.004329 -0.001491
    19 2.641094 0.214619 -1.073586 0.157099 -0.066091 -0.780590
    20 1.361605 -0.000002 0.000000 -0.125842 -0.198682 -0.570130
    21 0.779602 0.000002 0.000000 -0.054450 -0.175357 -0.302876
    22 2.908712 0.221762 -0.431868 0.262466 0.035477 -0.741150
    23 1.597527 0.000001 0.000000 -0.097757 -0.175234 -0.512469
    24 0.912680 0.000001 0.000000 0.002385 0.009683 -0.242644
    25 3.265450 0.050007 0.415744 0.310072 0.076460 -0.508822
    26 1.860470 0.000000 0.000000 -0.118966 -0.076516 -1.001797
    27 1.061481 -0.000001 0.000000 0.001830 0.012006 -0.156488
    28 3.340382 -0.242393 1.285012 0.307724 0.073969 -0.530922
    29 1.550753 0.000001 0.000000 0.057264 0.071571 -0.675739
    30 0.904888 0.000001 0.000000 0.001236 0.038489 -0.401834
    31 1.219385 -1.063860 0.837143 2.003256 -0.611431 -0.473829
    32 1.496971 -0.000002 -0.000001 0.000013 -0.037568 -0.055870
    33 1.100086 0.000000 0.000000 0.000000 0.000000 -0.125082
    34 3.815876 1.385489 -1.500000 1.467859 1.423431 -0.206524
    35 4.327089 -0.000004 0.000000 1.195882 0.177508 -1.529182
    36 11.105106 0.000000 0.000004 0.000000 0.000000 -1.399861
    37 9.862080 -0.000007 0.000017 -1.151018 0.033929 0.337430
    38 2.641111 0.211586 1.074188 -0.347050 -0.194537 -0.262540
    39 1.361601 0.000000 0.000000 -0.022933 0.007613 -1.890993
    40 0.779604 0.000001 0.000000 0.054474 0.175340 -0.910365
    41 2.908730 0.220541 0.432493 -0.425521 -0.282909 -0.524085
    42 1.597527 0.000000 0.000000 0.115619 -0.003419 -1.600477
    43 0.912678 0.000000 0.000000 -0.002403 -0.009699 -0.901508
    44 3.265471 0.051184 -0.415600 -0.428025 -0.264703 -0.582589
    45 1.860470 0.000000 0.000000 0.004951 -0.001033 -1.772344
    46 1.061485 0.000000 0.000000 -0.001870 -0.011971 -0.834431
    47 3.340403 -0.238762 -1.285691 -0.324189 -0.116457 -0.125981
    48 1.550755 0.000000 0.000000 -0.051292 -0.063997 -0.676366
    49 0.904886 0.000001 0.000000 -0.001263 -0.038530 -0.033046
    50 1.219410 -1.061498 -0.840143 -1.924947 0.122283 -0.482900
    51 1.496971 0.000002 0.000000 -0.000004 -0.225005 -0.494029
    52 1.100088 0.000000 0.000000 -0.000040 0.040618 -0.404246
    53 0.000000 -0.000007 -0.000031 1.373047 0.113574 0.124314
    54 0.000000 0.000000 0.000000 -0.077030 -0.068757 -1.299215
    55 7.054213 0.000000 0.000000 0.000000 0.000000 0.000000
    56 0.000000 -0.000007 -0.000031 1.373047 0.113574 0.124314
    57 0.000000 -0.000007 -0.000031 1.373047 0.113574 0.124314
    58 2.271484 -1.195313 -0.759766 -1.494794 -0.290863 -1.668717
    59 0.000000 0.000000 10.000000 0.000000 0.000000 0.000000
    60 2.856899 -1.536201 -0.973800 -1.501147 -0.272558 -1.578261
    61 2.000000 -3.000000 0.000000 -1.570796 0.000000 -1.326450
    62 0.018896 0.665159 9.395880 0.000000 0.000000 0.000000
    63 3.028210 -0.923409 -2.009452 1.574082 -0.012974 1.587244
    64 0.116954 4.311606 0.061861 0.000010 0.000000 0.000000
    65 0.000000 -0.000002 0.000000 0.000000 0.000000 0.000000
    66 0.000000 1.000000 0.000010 0.000000 0.000000 0.000000
    67 -0.000001 0.000000 0.000000 0.000000 0.000000 0.000000
    68 -0.000001 0.000000 0.000000 0.000000 0.000000 0.000000
    69 -0.000001 0.000000 0.000000 0.000000 0.000000 0.000000
end
