version 1
nodes
  0 "ValveBiped.Bip01_Pelvis" -1
  1 "ValveBiped.Bip01_Spine" 0
  2 "ValveBiped.Bip01_Spine1" 1
  3 "ValveBiped.Bip01_Spine2" 2
  4 "ValveBiped.Bip01_Spine4" 3
  5 "ValveBiped.Bip01_L_Clavicle" 4
  6 "ValveBiped.Bip01_L_UpperArm" 5
  7 "ValveBiped.Bip01_L_Forearm" 6
  8 "ValveBiped.Bip01_R_Clavicle" 4
  9 "ValveBiped.Bip01_R_UpperArm" 8
  10 "ValveBiped.Bip01_R_Forearm" 9
  11 "ValveBiped.Bip01_R_Hand" 10
  12 "ValveBiped.Bip01_R_Thigh" 0
  13 "ValveBiped.Bip01_Neck1" 4
  14 "ValveBiped.Bip01_Head1" 13
  15 "ValveBiped.Bip01_L_Hand" 7
  16 "ValveBiped.Bip01_L_Thigh" 0
  17 "ValveBiped.Bip01_L_Calf" 16
  18 "ValveBiped.Bip01_R_Calf" 12
  19 "ValveBiped.Bip01_L_Foot" 17
  20 "ValveBiped.Bip01_L_Finger3" 15
  21 "ValveBiped.Bip01_L_Finger31" 20
  22 "ValveBiped.Bip01_L_Finger2" 15
  23 "ValveBiped.Bip01_R_Finger0" 11
  24 "ValveBiped.Bip01_L_Finger4" 15
  25 "ValveBiped.Bip01_L_Finger41" 24
  26 "ValveBiped.Bip01_R_Finger1" 11
  27 "ValveBiped.Bip01_R_Finger2" 11
  28 "ValveBiped.Bip01_L_Finger0" 15
  29 "ValveBiped.Bip01_R_Finger3" 11
  30 "ValveBiped.Bip01_R_Finger31" 29
  31 "ValveBiped.Bip01_R_Foot" 18
  32 "ValveBiped.Bip01_R_Toe0" 31
  33 "ValveBiped.Bip01_L_Toe0" 19
  34 "ValveBiped.Bip01_L_Finger1" 15
  35 "ValveBiped.Bip01_R_Finger4" 11
  36 "ValveBiped.Bip01_R_Finger41" 35
  37 "ValveBiped.Bip01_R_Finger42" 36
  38 "ValveBiped.Bip01_L_Finger32" 21
  39 "ValveBiped.Bip01_L_Finger42" 25
  40 "ValveBiped.Bip01_R_Finger32" 30
  41 "ValveBiped.Bip01_R_Finger11" 26
  42 "ValveBiped.Bip01_R_Finger21" 27
  43 "ValveBiped.Bip01_R_Finger01" 23
  44 "ValveBiped.Bip01_L_Finger11" 34
  45 "ValveBiped.Bip01_L_Finger01" 28
  46 "ValveBiped.Bip01_L_Finger21" 22
  47 "ValveBiped.Bip01_R_Finger22" 42
  48 "ValveBiped.Bip01_R_Finger02" 43
  49 "ValveBiped.Bip01_R_Finger12" 41
  50 "ValveBiped.Bip01_L_Finger22" 46
  51 "ValveBiped.Bip01_L_Finger02" 45
  52 "ValveBiped.Bip01_L_Finger12" 44
  53 "ValveBiped.attachment_bandage_legL" 17
  54 "ValveBiped.attachment_bandage_armL" 7
  55 "ValveBiped.attachment_armL_T" 7
  56 "ValveBiped.attachment_armR_T" 10
  57 "ValveBiped.L_weapon_bone" 15
  58 "ValveBiped.weapon_bone" 11
  59 "ValveBiped.weapon_bone_Clip" 58
  60 "ValveBiped.weapon_bone_extra" 58
  61 "ValveBiped.forward" 14
  62 "ValveBiped.weapon_bone_Clip2" 15
  63 "ValveBiped.weapon_bone_Clip2_Bullets" 62
  64 "ValveBiped.weapon_bolt_l" 15
  65 "ValveBiped.weapon_bone_Clip_Bullets" 59
  66 "ValveBiped.weapon_bolt" 58
  67 "ValveBiped.weapon_bolt_opposite" 58
  68 "ValveBiped.weapon_charger" 58
end
skeleton
time 0
    0 -2.673828 10.195313 7.878906 0.193890 1.184807 0.511195
    1 0.000000 3.861988 -0.017122 1.584197 -0.306958 1.487103
    2 3.816021 0.000000 0.000000 -0.038313 -0.032089 0.103074
    3 3.531826 0.000000 0.000000 -0.117504 -0.063516 0.219674
    4 5.444355 0.000000 0.000000 -0.128875 0.104762 0.545973
    5 3.882442 1.393292 1.432500 0.582489 -1.505514 -2.184709
    6 5.259529 0.000000 0.000001 -2.260071 -0.021771 -1.355219
    7 10.416563 0.000000 0.000004 0.000000 0.000000 -2.063052
    8 3.882442 1.393294 -1.432500 1.811527 1.381858 0.107320
    9 5.259525 0.000004 0.000001 1.115721 0.288366 -1.234165
    10 10.416565 0.000000 0.000000 0.000000 0.000000 -1.673938
    11 9.955210 -0.000003 0.000015 -1.160441 -0.024413 0.383581
    12 -3.462504 0.000000 0.000000 -1.372375 -0.564925 -1.644988
    13 5.111973 -0.000001 0.000000 -3.126786 0.005953 0.691504
    14 4.261036 0.000000 0.000000 0.032501 -0.066760 0.259150
    15 9.955227 -0.000006 -0.000027 2.732556 -0.079117 -0.075107
    16 3.462504 0.000000 0.000000 -2.116647 -0.982091 -1.114019
    17 17.520250 0.000000 0.000000 0.000000 0.000000 1.606284
    18 17.520247 0.000000 0.000000 0.000000 0.000000 1.648449
    19 15.997702 0.000000 0.000000 -0.453824 0.179152 -1.041213
    20 3.157032 0.193977 -0.522126 0.121103 0.012041 -0.821261
    21 1.725855 -0.000004 0.000000 -0.097757 -0.175234 -0.512469
    22 3.410793 0.104385 0.391149 0.171708 0.049096 -0.587763
    23 1.020031 -1.225887 -0.942158 -1.802022 0.200170 -0.546418
    24 2.862398 0.005165 -1.410984 0.007878 -0.080695 -0.862968
    25 1.442411 -0.000004 0.000000 -0.125842 -0.198682 -0.570130
    26 3.518329 -0.146660 -1.355857 -0.188140 -0.087648 -0.204768
    27 3.410807 0.105797 -0.390768 -0.302761 -0.227478 -0.659650
    28 1.020010 -1.229275 0.937716 1.847521 -0.683203 -0.463005
    29 3.157049 0.192078 0.522824 -0.301746 -0.245900 -0.601601
    30 1.725857 0.000000 0.000000 0.115619 -0.003419 -1.600477
    31 15.997698 0.000000 -0.000001 0.630024 -0.183577 -1.031621
    32 5.676029 0.000000 0.000000 -0.112051 0.023861 -0.331149
    33 5.676031 0.000000 0.000000 0.020412 -0.027730 -0.427005
    34 3.518309 -0.151562 1.355319 0.169212 0.046758 -0.609994
    35 2.862411 0.000065 1.410994 -0.217008 -0.163702 -0.341356
    36 1.442413 0.000000 0.000000 -0.022933 0.007613 -1.890993
    37 0.772266 0.000000 0.000000 0.054474 0.175340 -0.910365
    38 0.922668 -0.000004 0.000000 0.002415 0.009757 -0.242679
    39 0.772266 -0.000002 0.000000 -0.054473 -0.175380 -0.302889
    40 0.922665 -0.000001 0.000000 -0.002403 -0.009699 -0.901508
    41 1.624466 0.000004 0.000000 -0.051327 -0.064037 -0.676424
    42 2.053873 0.000000 0.000000 0.004951 -0.001033 -1.772344
    43 1.753672 -0.000001 -0.000004 -0.000004 -0.225005 -0.494029
    44 1.624472 0.000000 0.000000 0.057264 0.071571 -0.675739
    45 1.753671 -0.000002 0.000004 0.000013 -0.037568 -0.055870
    46 2.053879 0.000000 0.000000 -0.118966 -0.076516 -1.001797
    47 1.100880 0.000000 0.000000 -0.001870 -0.011971 -0.834431
    48 1.168861 0.000001 -0.000004 -0.000040 0.040618 -0.404246
    49 0.949944 0.000002 0.000000 -0.001277 -0.038560 -0.033101
    50 1.100868 0.000000 0.000000 0.001897 0.012019 -0.156562
    51 1.168865 0.000000 0.000004 0.000000 0.000000 -0.125082
    52 0.949947 0.000004 0.000000 0.001236 0.038489 -0.401834
    53 7.023272 -6.880002 4.339547 2.620672 -1.456011 -1.105365
    54 3.813801 -3.870655 0.998562 1.570796 -1.069638 0.199892
    55 0.000002 -0.000008 -0.000031 1.373047 0.113574 0.124314
    56 -0.000002 -0.000007 -0.000031 1.373047 0.113574 0.124314
    57 3.349000 -1.371002 0.724999 1.977842 -0.088017 1.557794
    58 2.856895 -1.536201 -0.973799 -1.501147 -0.272558 -1.578261
    59 0.000000 -0.000001 9.999998 0.000000 0.000000 0.000000
    60 0.018894 0.665158 9.395884 0.000000 0.000000 0.000000
    61 2.000000 -3.000000 0.000000 -1.570796 0.000000 -1.326450
    62 3.028208 -0.923409 -2.009451 1.574082 -0.012974 1.587244
    63 0.116955 4.311605 0.061860 0.000010 -0.000001 0.000000
    64 -0.000002 0.000000 0.000000 0.000000 0.000000 0.000000
    65 0.000000 1.000000 0.000010 0.000000 0.000000 0.000000
    66 0.000000 0.000000 0.000000 0.000000 0.000000 0.000000
    67 0.000000 0.000000 0.000000 0.000000 0.000000 0.000000
    68 0.000000 0.000000 0.000000 0.000000 0.000000 0.000000
time 1
    0 -2.673828 9.152077 7.941406 0.189753 1.189469 0.507713
    1 0.000000 3.861988 -0.017122 1.583655 -0.306961 1.488780
    2 3.816021 0.000000 0.000000 -0.029224 -0.026939 0.102841
    3 3.531826 0.000000 0.000000 -0.118540 -0.058216 0.219034
    4 5.444355 0.000000 0.000000 -0.128875 0.104762 0.545973
    5 3.882442 1.393292 1.432500 -0.820370 -1.487023 -0.772260
    6 5.259529 0.000000 0.000001 -2.258153 0.046685 -1.421173
    7 10.416563 0.000000 0.000004 0.000000 0.000000 -2.118435
    8 3.882442 1.393294 -1.432500 1.811527 1.381858 0.107320
    9 5.259525 0.000004 0.000001 1.129948 0.271726 -1.239710
    10 10.416565 0.000000 0.000000 0.000000 0.000000 -1.687728
    11 9.955210 -0.000003 0.000015 -1.160441 -0.024413 0.383581
    12 -3.462504 0.000000 0.000000 -1.341370 -0.598207 -1.654753
    13 5.111973 -0.000001 0.000000 -3.126786 0.005953 0.691504
    14 4.261036 0.000000 0.000000 0.032501 -0.066760 0.259150
    15 9.955227 -0.000006 -0.000027 2.732556 -0.079117 -0.075107
    16 3.462504 0.000000 0.000000 -2.139501 -1.034701 -1.066291
    17 17.520250 0.000000 0.000000 0.000000 0.000000 1.675216
    18 17.520247 0.000000 0.000000 0.000000 0.000000 1.727355
    19 15.997702 0.000000 0.000000 -0.467195 0.183811 -1.054158
    20 3.157032 0.193977 -0.522126 0.121103 0.012041 -0.821261
    21 1.725855 -0.000004 0.000000 -0.097757 -0.175234 -0.512469
    22 3.410793 0.104385 0.391149 0.171708 0.049096 -0.587763
    23 1.020031 -1.225887 -0.942158 -1.802022 0.200170 -0.546418
    24 2.862398 0.005165 -1.410984 0.007878 -0.080695 -0.862968
    25 1.442411 -0.000004 0.000000 -0.125842 -0.198682 -0.570130
    26 3.518329 -0.146660 -1.355857 -0.188140 -0.087648 -0.204768
    27 3.410807 0.105797 -0.390768 -0.302761 -0.227478 -0.659650
    28 1.020010 -1.229275 0.937716 1.847521 -0.683203 -0.463005
    29 3.157049 0.192078 0.522824 -0.301746 -0.245900 -0.601601
    30 1.725857 0.000000 0.000000 0.115619 -0.003419 -1.600477
    31 15.997698 0.000000 -0.000001 0.612858 -0.171218 -1.072034
    32 5.676029 0.000000 0.000000 -0.112051 0.023861 -0.331149
    33 5.676031 0.000000 0.000000 0.020412 -0.027730 -0.427005
    34 3.518309 -0.151562 1.355319 0.169212 0.046758 -0.609994
    35 2.862411 0.000065 1.410994 -0.217008 -0.163702 -0.341356
    36 1.442413 0.000000 0.000000 -0.022933 0.007613 -1.890993
    37 0.772266 0.000000 0.000000 0.054474 0.175340 -0.910365
    38 0.922668 -0.000004 0.000000 0.002415 0.009757 -0.242679
    39 0.772266 -0.000002 0.000000 -0.054473 -0.175380 -0.302889
    40 0.922665 -0.000001 0.000000 -0.002403 -0.009699 -0.901508
    41 1.624466 0.000004 0.000000 -0.051327 -0.064037 -0.676424
    42 2.053873 0.000000 0.000000 0.004951 -0.001033 -1.772344
    43 1.753672 -0.000001 -0.000004 -0.000004 -0.225005 -0.494029
    44 1.624472 0.000000 0.000000 0.057264 0.071571 -0.675739
    45 1.753671 -0.000002 0.000004 0.000013 -0.037568 -0.055870
    46 2.053879 0.000000 0.000000 -0.118966 -0.076516 -1.001797
    47 1.100880 0.000000 0.000000 -0.001870 -0.011971 -0.834431
    48 1.168861 0.000001 -0.000004 -0.000040 0.040618 -0.404246
    49 0.949944 0.000002 0.000000 -0.001277 -0.038560 -0.033101
    50 1.100868 0.000000 0.000000 0.001897 0.012019 -0.156562
    51 1.168865 0.000000 0.000004 0.000000 0.000000 -0.125082
    52 0.949947 0.000004 0.000000 0.001236 0.038489 -0.401834
    53 7.023272 -6.880002 4.339547 2.620672 -1.456011 -1.105365
    54 3.813801 -3.870655 0.998562 1.570796 -1.069638 0.199892
    55 0.000002 -0.000008 -0.000031 1.373047 0.113574 0.124314
    56 -0.000002 -0.000007 -0.000031 1.373047 0.113574 0.124314
    57 3.349000 -1.371002 0.724999 1.977842 -0.088017 1.557794
    58 2.856895 -1.536201 -0.973799 -1.501147 -0.272558 -1.578261
    59 0.000000 -0.000001 9.999998 0.000000 0.000000 0.000000
    60 0.018894 0.665158 9.395884 0.000000 0.000000 0.000000
    61 2.000000 -3.000000 0.000000 -1.570796 0.000000 -1.326450
    62 3.028208 -0.923409 -2.009451 1.574082 -0.012974 1.587244
    63 0.116955 4.311605 0.061860 0.000010 -0.000001 0.000000
    64 -0.000002 0.000000 0.000000 0.000000 0.000000 0.000000
    65 0.000000 1.000000 0.000010 0.000000 0.000000 0.000000
    66 0.000000 0.000000 0.000000 0.000000 0.000000 0.000000
    67 0.000000 0.000000 0.000000 0.000000 0.000000 0.000000
    68 0.000000 0.000000 0.000000 0.000000 0.000000 0.000000
time 2
    0 -2.673828 7.936789 8.132813 0.179235 1.201556 0.499008
    1 0.000000 3.861988 -0.017122 1.582362 -0.306998 1.493101
    2 3.816021 0.000000 0.000000 -0.005634 -0.013801 0.102383
    3 3.531826 0.000000 0.000000 -0.121345 -0.043995 0.217360
    4 5.444355 0.000000 0.000000 -0.128875 0.104762 0.545973
    5 3.882442 1.393292 1.432500 -1.342972 -1.279232 -0.226058
    6 5.259529 0.000000 0.000001 -2.238031 0.129433 -1.611705
    7 10.416563 0.000000 0.000004 0.000000 0.000000 -2.116058
    8 3.882442 1.393294 -1.432500 1.811527 1.381858 0.107320
    9 5.259525 0.000004 0.000001 1.168431 0.228333 -1.257871
    10 10.416565 0.000000 0.000000 0.000000 0.000000 -1.723832
    11 9.955210 -0.000003 0.000015 -1.160441 -0.024413 0.383581
    12 -3.462504 0.000000 0.000000 -1.252161 -0.619687 -1.695851
    13 5.111973 -0.000001 0.000000 -3.126786 0.005953 0.691504
    14 4.261036 0.000000 0.000000 0.032501 -0.066760 0.259150
    15 9.955227 -0.000006 -0.000027 2.732556 -0.079117 -0.075107
    16 3.462504 0.000000 0.000000 -2.127297 -1.103048 -1.030171
    17 17.520250 0.000000 0.000000 0.000000 0.000000 1.750294
    18 17.520247 0.000000 0.000000 0.000000 0.000000 1.811705
    19 15.997702 0.000000 0.000000 -0.503134 0.193224 -1.068125
    20 3.157032 0.193977 -0.522126 0.121103 0.012041 -0.821261
    21 1.725855 -0.000004 0.000000 -0.097757 -0.175234 -0.512469
    22 3.410793 0.104385 0.391149 0.171708 0.049096 -0.587763
    23 1.020031 -1.225887 -0.942158 -1.802022 0.200170 -0.546418
    24 2.862398 0.005165 -1.410984 0.007878 -0.080695 -0.862968
    25 1.442411 -0.000004 0.000000 -0.125842 -0.198682 -0.570130
    26 3.518329 -0.146660 -1.355857 -0.188140 -0.087648 -0.204768
    27 3.410807 0.105797 -0.390768 -0.302761 -0.227478 -0.659650
    28 1.020010 -1.229275 0.937716 1.847521 -0.683203 -0.463005
    29 3.157049 0.192078 0.522824 -0.301746 -0.245900 -0.601601
    30 1.725857 0.000000 0.000000 0.115619 -0.003419 -1.600477
    31 15.997698 0.000000 -0.000001 0.555247 -0.156349 -1.114239
    32 5.676029 0.000000 0.000000 -0.112051 0.023861 -0.331149
    33 5.676031 0.000000 0.000000 0.020412 -0.027730 -0.427005
    34 3.518309 -0.151562 1.355319 0.169212 0.046758 -0.609994
    35 2.862411 0.000065 1.410994 -0.217008 -0.163702 -0.341356
    36 1.442413 0.000000 0.000000 -0.022933 0.007613 -1.890993
    37 0.772266 0.000000 0.000000 0.054474 0.175340 -0.910365
    38 0.922668 -0.000004 0.000000 0.002415 0.009757 -0.242679
    39 0.772266 -0.000002 0.000000 -0.054473 -0.175380 -0.302889
    40 0.922665 -0.000001 0.000000 -0.002403 -0.009699 -0.901508
    41 1.624466 0.000004 0.000000 -0.051327 -0.064037 -0.676424
    42 2.053873 0.000000 0.000000 0.004951 -0.001033 -1.772344
    43 1.753672 -0.000001 -0.000004 -0.000004 -0.225005 -0.494029
    44 1.624472 0.000000 0.000000 0.057264 0.071571 -0.675739
    45 1.753671 -0.000002 0.000004 0.000013 -0.037568 -0.055870
    46 2.053879 0.000000 0.000000 -0.118966 -0.076516 -1.001797
    47 1.100880 0.000000 0.000000 -0.001870 -0.011971 -0.834431
    48 1.168861 0.000001 -0.000004 -0.000040 0.040618 -0.404246
    49 0.949944 0.000002 0.000000 -0.001277 -0.038560 -0.033101
    50 1.100868 0.000000 0.000000 0.001897 0.012019 -0.156562
    51 1.168865 0.000000 0.000004 0.000000 0.000000 -0.125082
    52 0.949947 0.000004 0.000000 0.001236 0.038489 -0.401834
    53 7.023272 -6.880002 4.339547 2.620672 -1.456011 -1.105365
    54 3.813801 -3.870655 0.998562 1.570796 -1.069638 0.199892
    55 0.000002 -0.000008 -0.000031 1.373047 0.113574 0.124314
    56 -0.000002 -0.000007 -0.000031 1.373047 0.113574 0.124314
    57 3.349000 -1.371002 0.724999 1.977842 -0.088017 1.557794
    58 2.856895 -1.536201 -0.973799 -1.501147 -0.272558 -1.578261
    59 0.000000 -0.000001 9.999998 0.000000 0.000000 0.000000
    60 0.018894 0.665158 9.395884 0.000000 0.000000 0.000000
    61 2.000000 -3.000000 0.000000 -1.570796 0.000000 -1.326450
    62 3.028208 -0.923409 -2.009451 1.574082 -0.012974 1.587244
    63 0.116955 4.311605 0.061860 0.000010 -0.000001 0.000000
    64 -0.000002 0.000000 0.000000 0.000000 0.000000 0.000000
    65 0.000000 1.000000 0.000010 0.000000 0.000000 0.000000
    66 0.000000 0.000000 0.000000 0.000000 0.000000 0.000000
    67 0.000000 0.000000 0.000000 0.000000 0.000000 0.000000
    68 0.000000 0.000000 0.000000 0.000000 0.000000 0.000000
time 3
    0 -2.673828 6.697886 8.460938 0.164244 1.217884 0.486702
    1 0.000000 3.861988 -0.017122 1.580611 -0.307085 1.498941
    2 3.816021 0.000000 0.000000 0.026414 0.004357 0.101975
    3 3.531826 0.000000 0.000000 -0.125424 -0.023004 0.214729
    4 5.444355 0.000000 0.000000 -0.128875 0.104762 0.545973
    5 3.882442 1.393292 1.432500 -1.412240 -1.033538 -0.128862
    6 5.259529 0.000000 0.000001 -2.201702 0.202300 -1.785132
    7 10.416563 0.000000 0.000004 0.000000 0.000000 -2.062951
    8 3.882442 1.393294 -1.432500 1.811527 1.381858 0.107320
    9 5.259525 0.000004 0.000001 1.226146 0.168257 -1.292670
    10 10.416565 0.000000 0.000000 0.000000 0.000000 -1.774686
    11 9.955210 -0.000003 0.000015 -1.160441 -0.024413 0.383581
    12 -3.462504 0.000000 0.000000 -1.134422 -0.623099 -1.749689
    13 5.111973 -0.000001 0.000000 -3.126786 0.005953 0.691504
    14 4.261036 0.000000 0.000000 0.032501 -0.066760 0.259150
    15 9.955227 -0.000006 -0.000027 2.732556 -0.079117 -0.075107
    16 3.462504 0.000000 0.000000 -2.096373 -1.174748 -1.000390
    17 17.520250 0.000000 0.000000 0.000000 0.000000 1.821559
    18 17.520247 0.000000 0.000000 0.000000 0.000000 1.891117
    19 15.997702 0.000000 0.000000 -0.547796 0.211809 -1.079476
    20 3.157032 0.193977 -0.522126 0.121103 0.012041 -0.821261
    21 1.725855 -0.000004 0.000000 -0.097757 -0.175234 -0.512469
    22 3.410793 0.104385 0.391149 0.171708 0.049096 -0.587763
    23 1.020031 -1.225887 -0.942158 -1.802022 0.200170 -0.546418
    24 2.862398 0.005165 -1.410984 0.007878 -0.080695 -0.862968
    25 1.442411 -0.000004 0.000000 -0.125842 -0.198682 -0.570130
    26 3.518329 -0.146660 -1.355857 -0.188140 -0.087648 -0.204768
    27 3.410807 0.105797 -0.390768 -0.302761 -0.227478 -0.659650
    28 1.020010 -1.229275 0.937716 1.847521 -0.683203 -0.463005
    29 3.157049 0.192078 0.522824 -0.301746 -0.245900 -0.601601
    30 1.725857 0.000000 0.000000 0.115619 -0.003419 -1.600477
    31 15.997698 0.000000 -0.000001 0.478595 -0.136505 -1.158752
    32 5.676029 0.000000 0.000000 -0.112051 0.023861 -0.331149
    33 5.676031 0.000000 0.000000 0.020412 -0.027730 -0.427005
    34 3.518309 -0.151562 1.355319 0.169212 0.046758 -0.609994
    35 2.862411 0.000065 1.410994 -0.217008 -0.163702 -0.341356
    36 1.442413 0.000000 0.000000 -0.022933 0.007613 -1.890993
    37 0.772266 0.000000 0.000000 0.054474 0.175340 -0.910365
    38 0.922668 -0.000004 0.000000 0.002415 0.009757 -0.242679
    39 0.772266 -0.000002 0.000000 -0.054473 -0.175380 -0.302889
    40 0.922665 -0.000001 0.000000 -0.002403 -0.009699 -0.901508
    41 1.624466 0.000004 0.000000 -0.051327 -0.064037 -0.676424
    42 2.053873 0.000000 0.000000 0.004951 -0.001033 -1.772344
    43 1.753672 -0.000001 -0.000004 -0.000004 -0.225005 -0.494029
    44 1.624472 0.000000 0.000000 0.057264 0.071571 -0.675739
    45 1.753671 -0.000002 0.000004 0.000013 -0.037568 -0.055870
    46 2.053879 0.000000 0.000000 -0.118966 -0.076516 -1.001797
    47 1.100880 0.000000 0.000000 -0.001870 -0.011971 -0.834431
    48 1.168861 0.000001 -0.000004 -0.000040 0.040618 -0.404246
    49 0.949944 0.000002 0.000000 -0.001277 -0.038560 -0.033101
    50 1.100868 0.000000 0.000000 0.001897 0.012019 -0.156562
    51 1.168865 0.000000 0.000004 0.000000 0.000000 -0.125082
    52 0.949947 0.000004 0.000000 0.001236 0.038489 -0.401834
    53 7.023272 -6.880002 4.339547 2.620672 -1.456011 -1.105365
    54 3.813801 -3.870655 0.998562 1.570796 -1.069638 0.199892
    55 0.000002 -0.000008 -0.000031 1.373047 0.113574 0.124314
    56 -0.000002 -0.000007 -0.000031 1.373047 0.113574 0.124314
    57 3.349000 -1.371002 0.724999 1.977842 -0.088017 1.557794
    58 2.856895 -1.536201 -0.973799 -1.501147 -0.272558 -1.578261
    59 0.000000 -0.000001 9.999998 0.000000 0.000000 0.000000
    60 0.018894 0.665158 9.395884 0.000000 0.000000 0.000000
    61 2.000000 -3.000000 0.000000 -1.570796 0.000000 -1.326450
    62 3.028208 -0.923409 -2.009451 1.574082 -0.012974 1.587244
    63 0.116955 4.311605 0.061860 0.000010 -0.000001 0.000000
    64 -0.000002 0.000000 0.000000 0.000000 0.000000 0.000000
    65 0.000000 1.000000 0.000010 0.000000 0.000000 0.000000
    66 0.000000 0.000000 0.000000 0.000000 0.000000 0.000000
    67 0.000000 0.000000 0.000000 0.000000 0.000000 0.000000
    68 0.000000 0.000000 0.000000 0.000000 0.000000 0.000000
time 4
    0 -2.673828 5.458806 8.921875 0.147167 1.235698 0.472766
    1 0.000000 3.861988 -0.017122 1.578699 -0.307167 1.505244
    2 3.816021 0.000000 0.000000 0.061422 0.024550 0.101594
    3 3.531826 0.000000 0.000000 -0.130395 0.002458 0.211404
    4 5.444355 0.000000 0.000000 -0.128875 0.104762 0.545973
    5 3.882442 1.393292 1.432500 -1.396893 -0.860066 -0.126268
    6 5.259529 0.000000 0.000001 -2.136063 0.250795 -1.840283
    7 10.416563 0.000000 0.000004 0.000000 0.000000 -2.000997
    8 3.882442 1.393294 -1.432500 1.811527 1.381858 0.107320
    9 5.259525 0.000004 0.000001 1.298999 0.102506 -1.347840
    10 10.416565 0.000000 0.000000 0.000000 0.000000 -1.832681
    11 9.955210 -0.000003 0.000015 -1.160441 -0.024413 0.383581
    12 -3.462504 0.000000 0.000000 -1.017400 -0.611464 -1.794215
    13 5.111973 -0.000001 0.000000 -3.126786 0.005953 0.691504
    14 4.261036 0.000000 0.000000 0.032501 -0.066760 0.259150
    15 9.955227 -0.000006 -0.000027 2.732556 -0.079117 -0.075107
    16 3.462504 0.000000 0.000000 -2.074421 -1.242216 -0.957103
    17 17.520250 0.000000 0.000000 0.000000 0.000000 1.886855
    18 17.520247 0.000000 0.000000 0.000000 0.000000 1.963750
    19 15.997702 0.000000 0.000000 -0.588711 0.242242 -1.086838
    20 3.157032 0.193977 -0.522126 0.121103 0.012041 -0.821261
    21 1.725855 -0.000004 0.000000 -0.097757 -0.175234 -0.512469
    22 3.410793 0.104385 0.391149 0.171708 0.049096 -0.587763
    23 1.020031 -1.225887 -0.942158 -1.802022 0.200170 -0.546418
    24 2.862398 0.005165 -1.410984 0.007878 -0.080695 -0.862968
    25 1.442411 -0.000004 0.000000 -0.125842 -0.198682 -0.570130
    26 3.518329 -0.146660 -1.355857 -0.188140 -0.087648 -0.204768
    27 3.410807 0.105797 -0.390768 -0.302761 -0.227478 -0.659650
    28 1.020010 -1.229275 0.937716 1.847521 -0.683203 -0.463005
    29 3.157049 0.192078 0.522824 -0.301746 -0.245900 -0.601601
    30 1.725857 0.000000 0.000000 0.115619 -0.003419 -1.600477
    31 15.997698 0.000000 -0.000001 0.402355 -0.109366 -1.210223
    32 5.676029 0.000000 0.000000 -0.112051 0.023861 -0.331149
    33 5.676031 0.000000 0.000000 0.020412 -0.027730 -0.427005
    34 3.518309 -0.151562 1.355319 0.169212 0.046758 -0.609994
    35 2.862411 0.000065 1.410994 -0.217008 -0.163702 -0.341356
    36 1.442413 0.000000 0.000000 -0.022933 0.007613 -1.890993
    37 0.772266 0.000000 0.000000 0.054474 0.175340 -0.910365
    38 0.922668 -0.000004 0.000000 0.002415 0.009757 -0.242679
    39 0.772266 -0.000002 0.000000 -0.054473 -0.175380 -0.302889
    40 0.922665 -0.000001 0.000000 -0.002403 -0.009699 -0.901508
    41 1.624466 0.000004 0.000000 -0.051327 -0.064037 -0.676424
    42 2.053873 0.000000 0.000000 0.004951 -0.001033 -1.772344
    43 1.753672 -0.000001 -0.000004 -0.000004 -0.225005 -0.494029
    44 1.624472 0.000000 0.000000 0.057264 0.071571 -0.675739
    45 1.753671 -0.000002 0.000004 0.000013 -0.037568 -0.055870
    46 2.053879 0.000000 0.000000 -0.118966 -0.076516 -1.001797
    47 1.100880 0.000000 0.000000 -0.001870 -0.011971 -0.834431
    48 1.168861 0.000001 -0.000004 -0.000040 0.040618 -0.404246
    49 0.949944 0.000002 0.000000 -0.001277 -0.038560 -0.033101
    50 1.100868 0.000000 0.000000 0.001897 0.012019 -0.156562
    51 1.168865 0.000000 0.000004 0.000000 0.000000 -0.125082
    52 0.949947 0.000004 0.000000 0.001236 0.038489 -0.401834
    53 7.023272 -6.880002 4.339547 2.620672 -1.456011 -1.105365
    54 3.813801 -3.870655 0.998562 1.570796 -1.069638 0.199892
    55 0.000002 -0.000008 -0.000031 1.373047 0.113574 0.124314
    56 -0.000002 -0.000007 -0.000031 1.373047 0.113574 0.124314
    57 3.349000 -1.371002 0.724999 1.977842 -0.088017 1.557794
    58 2.856895 -1.536201 -0.973799 -1.501147 -0.272558 -1.578261
    59 0.000000 -0.000001 9.999998 0.000000 0.000000 0.000000
    60 0.018894 0.665158 9.395884 0.000000 0.000000 0.000000
    61 2.000000 -3.000000 0.000000 -1.570796 0.000000 -1.326450
    62 3.028208 -0.923409 -2.009451 1.574082 -0.012974 1.587244
    63 0.116955 4.311605 0.061860 0.000010 -0.000001 0.000000
    64 -0.000002 0.000000 0.000000 0.000000 0.000000 0.000000
    65 0.000000 1.000000 0.000010 0.000000 0.000000 0.000000
    66 0.000000 0.000000 0.000000 0.000000 0.000000 0.000000
    67 0.000000 0.000000 0.000000 0.000000 0.000000 0.000000
    68 0.000000 0.000000 0.000000 0.000000 0.000000 0.000000
time 5
    0 -2.673828 4.203923 9.835938 0.131970 1.251916 0.460628
    1 0.000000 3.861988 -0.017122 1.576914 -0.307210 1.511117
    2 3.816021 0.000000 0.000000 0.093545 0.043625 0.101404
    3 3.531826 0.000000 0.000000 -0.135860 0.030099 0.207665
    4 5.444355 0.000000 0.000000 -0.128875 0.104762 0.545973
    5 3.882442 1.393292 1.432500 -1.308645 -0.799190 -0.206630
    6 5.259529 0.000000 0.000001 -2.026023 0.263854 -1.736091
    7 10.416563 0.000000 0.000004 0.000000 0.000000 -1.925823
    8 3.882442 1.393294 -1.432500 1.811527 1.381858 0.107320
    9 5.259525 0.000004 0.000001 1.381127 0.042012 -1.422671
    10 10.416565 0.000000 0.000000 0.000000 0.000000 -1.891330
    11 9.955210 -0.000003 0.000015 -1.160441 -0.024413 0.383581
    12 -3.462504 0.000000 0.000000 -0.934027 -0.592110 -1.785835
    13 5.111973 -0.000001 0.000000 -3.126786 0.005953 0.691504
    14 4.261036 0.000000 0.000000 0.032501 -0.066760 0.259150
    15 9.955227 -0.000006 -0.000027 2.732556 -0.079117 -0.075107
    16 3.462504 0.000000 0.000000 -1.829022 -1.233083 -1.166614
    17 17.520250 0.000000 0.000000 0.000000 0.000000 1.853274
    18 17.520247 0.000000 0.000000 0.000000 0.000000 2.021748
    19 15.997702 0.000000 0.000000 -0.532487 0.207796 -1.075815
    20 3.157032 0.193977 -0.522126 0.121103 0.012041 -0.821261
    21 1.725855 -0.000004 0.000000 -0.097757 -0.175234 -0.512469
    22 3.410793 0.104385 0.391149 0.171708 0.049096 -0.587763
    23 1.020031 -1.225887 -0.942158 -1.802022 0.200170 -0.546418
    24 2.862398 0.005165 -1.410984 0.007878 -0.080695 -0.862968
    25 1.442411 -0.000004 0.000000 -0.125842 -0.198682 -0.570130
    26 3.518329 -0.146660 -1.355857 -0.188140 -0.087648 -0.204768
    27 3.410807 0.105797 -0.390768 -0.302761 -0.227478 -0.659650
    28 1.020010 -1.229275 0.937716 1.847521 -0.683203 -0.463005
    29 3.157049 0.192078 0.522824 -0.301746 -0.245900 -0.601601
    30 1.725857 0.000000 0.000000 0.115619 -0.003419 -1.600477
    31 15.997698 0.000000 -0.000001 0.349588 -0.058882 -1.279459
    32 5.676029 0.000000 0.000000 -0.112051 0.023861 -0.331149
    33 5.676031 0.000000 0.000000 0.020412 -0.027730 -0.427005
    34 3.518309 -0.151562 1.355319 0.169212 0.046758 -0.609994
    35 2.862411 0.000065 1.410994 -0.217008 -0.163702 -0.341356
    36 1.442413 0.000000 0.000000 -0.022933 0.007613 -1.890993
    37 0.772266 0.000000 0.000000 0.054474 0.175340 -0.910365
    38 0.922668 -0.000004 0.000000 0.002415 0.009757 -0.242679
    39 0.772266 -0.000002 0.000000 -0.054473 -0.175380 -0.302889
    40 0.922665 -0.000001 0.000000 -0.002403 -0.009699 -0.901508
    41 1.624466 0.000004 0.000000 -0.051327 -0.064037 -0.676424
    42 2.053873 0.000000 0.000000 0.004951 -0.001033 -1.772344
    43 1.753672 -0.000001 -0.000004 -0.000004 -0.225005 -0.494029
    44 1.624472 0.000000 0.000000 0.057264 0.071571 -0.675739
    45 1.753671 -0.000002 0.000004 0.000013 -0.037568 -0.055870
    46 2.053879 0.000000 0.000000 -0.118966 -0.076516 -1.001797
    47 1.100880 0.000000 0.000000 -0.001870 -0.011971 -0.834431
    48 1.168861 0.000001 -0.000004 -0.000040 0.040618 -0.404246
    49 0.949944 0.000002 0.000000 -0.001277 -0.038560 -0.033101
    50 1.100868 0.000000 0.000000 0.001897 0.012019 -0.156562
    51 1.168865 0.000000 0.000004 0.000000 0.000000 -0.125082
    52 0.949947 0.000004 0.000000 0.001236 0.038489 -0.401834
    53 7.023272 -6.880002 4.339547 2.620672 -1.456011 -1.105365
    54 3.813801 -3.870655 0.998562 1.570796 -1.069638 0.199892
    55 0.000002 -0.000008 -0.000031 1.373047 0.113574 0.124314
    56 -0.000002 -0.000007 -0.000031 1.373047 0.113574 0.124314
    57 3.349000 -1.371002 0.724999 1.977842 -0.088017 1.557794
    58 2.856895 -1.536201 -0.973799 -1.501147 -0.272558 -1.578261
    59 0.000000 -0.000001 9.999998 0.000000 0.000000 0.000000
    60 0.018894 0.665158 9.395884 0.000000 0.000000 0.000000
    61 2.000000 -3.000000 0.000000 -1.570796 0.000000 -1.326450
    62 3.028208 -0.923409 -2.009451 1.574082 -0.012974 1.587244
    63 0.116955 4.311605 0.061860 0.000010 -0.000001 0.000000
    64 -0.000002 0.000000 0.000000 0.000000 0.000000 0.000000
    65 0.000000 1.000000 0.000010 0.000000 0.000000 0.000000
    66 0.000000 0.000000 0.000000 0.000000 0.000000 0.000000
    67 0.000000 0.000000 0.000000 0.000000 0.000000 0.000000
    68 0.000000 0.000000 0.000000 0.000000 0.000000 0.000000
time 6
    0 -2.673828 2.901987 10.984375 0.122827 1.263698 0.454105
    1 0.000000 3.861988 -0.017122 1.575676 -0.307186 1.515381
    2 3.816021 0.000000 0.000000 0.116827 0.058500 0.101304
    3 3.531826 0.000000 0.000000 -0.141272 0.057882 0.203805
    4 5.444355 0.000000 0.000000 -0.128875 0.104762 0.545973
    5 3.882442 1.393292 1.432500 -1.159254 -0.794062 -0.354279
    6 5.259529 0.000000 0.000001 -1.892689 0.223650 -1.548531
    7 10.416563 0.000000 0.000004 0.000000 0.000000 -1.827453
    8 3.882442 1.393294 -1.432500 1.811527 1.381858 0.107320
    9 5.259525 0.000004 0.000001 1.462097 -0.004303 -1.507842
    10 10.416565 0.000000 0.000000 0.000000 0.000000 -1.944586
    11 9.955210 -0.000003 0.000015 -1.160441 -0.024413 0.383581
    12 -3.462504 0.000000 0.000000 -0.885673 -0.579470 -1.732862
    13 5.111973 -0.000001 0.000000 -3.126786 0.005953 0.691504
    14 4.261036 0.000000 0.000000 0.032501 -0.066760 0.259150
    15 9.955227 -0.000006 -0.000027 2.732556 -0.079117 -0.075107
    16 3.462504 0.000000 0.000000 -1.586930 -1.105400 -1.392635
    17 17.520250 0.000000 0.000000 0.000000 0.000000 1.707169
    18 17.520247 0.000000 0.000000 0.000000 0.000000 2.067877
    19 15.997702 0.000000 0.000000 -0.417470 0.127472 -1.049657
    20 3.157032 0.193977 -0.522126 0.121103 0.012041 -0.821261
    21 1.725855 -0.000004 0.000000 -0.097757 -0.175234 -0.512469
    22 3.410793 0.104385 0.391149 0.171708 0.049096 -0.587763
    23 1.020031 -1.225887 -0.942158 -1.802022 0.200170 -0.546418
    24 2.862398 0.005165 -1.410984 0.007878 -0.080695 -0.862968
    25 1.442411 -0.000004 0.000000 -0.125842 -0.198682 -0.570130
    26 3.518329 -0.146660 -1.355857 -0.188140 -0.087648 -0.204768
    27 3.410807 0.105797 -0.390768 -0.302761 -0.227478 -0.659650
    28 1.020010 -1.229275 0.937716 1.847521 -0.683203 -0.463005
    29 3.157049 0.192078 0.522824 -0.301746 -0.245900 -0.601601
    30 1.725857 0.000000 0.000000 0.115619 -0.003419 -1.600477
    31 15.997698 0.000000 -0.000001 0.321098 0.009736 -1.359845
    32 5.676029 0.000000 0.000000 -0.112051 0.023861 -0.331149
    33 5.676031 0.000000 0.000000 0.020412 -0.027730 -0.427005
    34 3.518309 -0.151562 1.355319 0.169212 0.046758 -0.609994
    35 2.862411 0.000065 1.410994 -0.217008 -0.163702 -0.341356
    36 1.442413 0.000000 0.000000 -0.022933 0.007613 -1.890993
    37 0.772266 0.000000 0.000000 0.054474 0.175340 -0.910365
    38 0.922668 -0.000004 0.000000 0.002415 0.009757 -0.242679
    39 0.772266 -0.000002 0.000000 -0.054473 -0.175380 -0.302889
    40 0.922665 -0.000001 0.000000 -0.002403 -0.009699 -0.901508
    41 1.624466 0.000004 0.000000 -0.051327 -0.064037 -0.676424
    42 2.053873 0.000000 0.000000 0.004951 -0.001033 -1.772344
    43 1.753672 -0.000001 -0.000004 -0.000004 -0.225005 -0.494029
    44 1.624472 0.000000 0.000000 0.057264 0.071571 -0.675739
    45 1.753671 -0.000002 0.000004 0.000013 -0.037568 -0.055870
    46 2.053879 0.000000 0.000000 -0.118966 -0.076516 -1.001797
    47 1.100880 0.000000 0.000000 -0.001870 -0.011971 -0.834431
    48 1.168861 0.000001 -0.000004 -0.000040 0.040618 -0.404246
    49 0.949944 0.000002 0.000000 -0.001277 -0.038560 -0.033101
    50 1.100868 0.000000 0.000000 0.001897 0.012019 -0.156562
    51 1.168865 0.000000 0.000004 0.000000 0.000000 -0.125082
    52 0.949947 0.000004 0.000000 0.001236 0.038489 -0.401834
    53 7.023272 -6.880002 4.339547 2.620672 -1.456011 -1.105365
    54 3.813801 -3.870655 0.998562 1.570796 -1.069638 0.199892
    55 0.000002 -0.000008 -0.000031 1.373047 0.113574 0.124314
    56 -0.000002 -0.000007 -0.000031 1.373047 0.113574 0.124314
    57 3.349000 -1.371002 0.724999 1.977842 -0.088017 1.557794
    58 2.856895 -1.536201 -0.973799 -1.501147 -0.272558 -1.578261
    59 0.000000 -0.000001 9.999998 0.000000 0.000000 0.000000
    60 0.018894 0.665158 9.395884 0.000000 0.000000 0.000000
    61 2.000000 -3.000000 0.000000 -1.570796 0.000000 -1.326450
    62 3.028208 -0.923409 -2.009451 1.574082 -0.012974 1.587244
    63 0.116955 4.311605 0.061860 0.000010 -0.000001 0.000000
    64 -0.000002 0.000000 0.000000 0.000000 0.000000 0.000000
    65 0.000000 1.000000 0.000010 0.000000 0.000000 0.000000
    66 0.000000 0.000000 0.000000 0.000000 0.000000 0.000000
    67 0.000000 0.000000 0.000000 0.000000 0.000000 0.000000
    68 0.000000 0.000000 0.000000 0.000000 0.000000 0.000000
time 7
    0 -2.673828 1.568624 11.562500 0.124506 1.267957 0.457085
    1 0.000000 3.861988 -0.017122 1.575111 -0.307159 1.517080
    2 3.816021 0.000000 0.000000 0.125542 0.066139 0.101212
    3 3.531826 0.000000 0.000000 -0.146343 0.083371 0.200176
    4 5.444355 0.000000 0.000000 -0.128875 0.104762 0.545973
    5 3.882442 1.393292 1.432500 -0.958196 -0.817609 -0.576949
    6 5.259529 0.000000 0.000001 -1.763475 0.149286 -1.319538
    7 10.416563 0.000000 0.000004 0.000000 0.000000 -1.779246
    8 3.882442 1.393294 -1.432500 1.811527 1.381858 0.107320
    9 5.259525 0.000004 0.000001 1.525328 -0.033482 -1.584269
    10 10.416565 0.000000 0.000000 0.000000 0.000000 -1.987842
    11 9.955210 -0.000003 0.000015 -1.160441 -0.024413 0.383581
    12 -3.462504 0.000000 0.000000 -0.846250 -0.585521 -1.701083
    13 5.111973 -0.000001 0.000000 -3.126786 0.005953 0.691504
    14 4.261036 0.000000 0.000000 0.032501 -0.066760 0.259150
    15 9.955227 -0.000006 -0.000027 2.732556 -0.079117 -0.075107
    16 3.462504 0.000000 0.000000 -1.498484 -0.993950 -1.476542
    17 17.520250 0.000000 0.000000 0.000000 0.000000 1.573755
    18 17.520247 0.000000 0.000000 0.000000 0.000000 2.126247
    19 15.997702 0.000000 0.000000 -0.362172 0.072288 -1.022277
    20 3.157032 0.193977 -0.522126 0.121103 0.012041 -0.821261
    21 1.725855 -0.000004 0.000000 -0.097757 -0.175234 -0.512469
    22 3.410793 0.104385 0.391149 0.171708 0.049096 -0.587763
    23 1.020031 -1.225887 -0.942158 -1.802022 0.200170 -0.546418
    24 2.862398 0.005165 -1.410984 0.007878 -0.080695 -0.862968
    25 1.442411 -0.000004 0.000000 -0.125842 -0.198682 -0.570130
    26 3.518329 -0.146660 -1.355857 -0.188140 -0.087648 -0.204768
    27 3.410807 0.105797 -0.390768 -0.302761 -0.227478 -0.659650
    28 1.020010 -1.229275 0.937716 1.847521 -0.683203 -0.463005
    29 3.157049 0.192078 0.522824 -0.301746 -0.245900 -0.601601
    30 1.725857 0.000000 0.000000 0.115619 -0.003419 -1.600477
    31 15.997698 0.000000 -0.000001 0.297669 0.065256 -1.432086
    32 5.676029 0.000000 0.000000 -0.112051 0.023861 -0.331149
    33 5.676031 0.000000 0.000000 0.020412 -0.027730 -0.427005
    34 3.518309 -0.151562 1.355319 0.169212 0.046758 -0.609994
    35 2.862411 0.000065 1.410994 -0.217008 -0.163702 -0.341356
    36 1.442413 0.000000 0.000000 -0.022933 0.007613 -1.890993
    37 0.772266 0.000000 0.000000 0.054474 0.175340 -0.910365
    38 0.922668 -0.000004 0.000000 0.002415 0.009757 -0.242679
    39 0.772266 -0.000002 0.000000 -0.054473 -0.175380 -0.302889
    40 0.922665 -0.000001 0.000000 -0.002403 -0.009699 -0.901508
    41 1.624466 0.000004 0.000000 -0.051327 -0.064037 -0.676424
    42 2.053873 0.000000 0.000000 0.004951 -0.001033 -1.772344
    43 1.753672 -0.000001 -0.000004 -0.000004 -0.225005 -0.494029
    44 1.624472 0.000000 0.000000 0.057264 0.071571 -0.675739
    45 1.753671 -0.000002 0.000004 0.000013 -0.037568 -0.055870
    46 2.053879 0.000000 0.000000 -0.118966 -0.076516 -1.001797
    47 1.100880 0.000000 0.000000 -0.001870 -0.011971 -0.834431
    48 1.168861 0.000001 -0.000004 -0.000040 0.040618 -0.404246
    49 0.949944 0.000002 0.000000 -0.001277 -0.038560 -0.033101
    50 1.100868 0.000000 0.000000 0.001897 0.012019 -0.156562
    51 1.168865 0.000000 0.000004 0.000000 0.000000 -0.125082
    52 0.949947 0.000004 0.000000 0.001236 0.038489 -0.401834
    53 7.023272 -6.880002 4.339547 2.620672 -1.456011 -1.105365
    54 3.813801 -3.870655 0.998562 1.570796 -1.069638 0.199892
    55 0.000002 -0.000008 -0.000031 1.373047 0.113574 0.124314
    56 -0.000002 -0.000007 -0.000031 1.373047 0.113574 0.124314
    57 3.349000 -1.371002 0.724999 1.977842 -0.088017 1.557794
    58 2.856895 -1.536201 -0.973799 -1.501147 -0.272558 -1.578261
    59 0.000000 -0.000001 9.999998 0.000000 0.000000 0.000000
    60 0.018894 0.665158 9.395884 0.000000 0.000000 0.000000
    61 2.000000 -3.000000 0.000000 -1.570796 0.000000 -1.326450
    62 3.028208 -0.923409 -2.009451 1.574082 -0.012974 1.587244
    63 0.116955 4.311605 0.061860 0.000010 -0.000001 0.000000
    64 -0.000002 0.000000 0.000000 0.000000 0.000000 0.000000
    65 0.000000 1.000000 0.000010 0.000000 0.000000 0.000000
    66 0.000000 0.000000 0.000000 0.000000 0.000000 0.000000
    67 0.000000 0.000000 0.000000 0.000000 0.000000 0.000000
    68 0.000000 0.000000 0.000000 0.000000 0.000000 0.000000
time 8
    0 -2.673828 0.133521 11.031250 0.170278 1.244923 0.500024
    1 0.000000 3.861988 -0.017122 1.575259 -0.307221 1.516556
    2 3.816021 0.000000 0.000000 0.107444 0.061493 0.100909
    3 3.531826 0.000000 0.000000 -0.150459 0.104357 0.197070
    4 5.444355 0.000000 0.000000 -0.128875 0.104762 0.545973
    5 3.882442 1.393292 1.432500 -0.698306 -0.846996 -0.870064
    6 5.259529 0.000000 0.000001 -1.672108 0.081484 -1.049658
    7 10.416563 0.000000 0.000004 0.000000 0.000000 -1.798397
    8 3.882442 1.393294 -1.432500 1.811527 1.381858 0.107320
    9 5.259525 0.000004 0.000001 1.548282 -0.041996 -1.605797
    10 10.416565 0.000000 0.000000 0.000000 0.000000 -2.016854
    11 9.955210 -0.000003 0.000015 -1.160441 -0.024413 0.383581
    12 -3.462504 0.000000 0.000000 -0.812941 -0.629947 -1.738165
    13 5.111973 -0.000001 0.000000 -3.126786 0.005953 0.691504
    14 4.261036 0.000000 0.000000 0.032501 -0.066760 0.259150
    15 9.955227 -0.000006 -0.000027 2.732556 -0.079117 -0.075107
    16 3.462504 0.000000 0.000000 -1.619357 -0.946414 -1.425086
    17 17.520250 0.000000 0.000000 0.000000 0.000000 1.507185
    18 17.520247 0.000000 0.000000 0.000000 0.000000 2.229234
    19 15.997702 0.000000 0.000000 -0.317171 0.066620 -1.002293
    20 3.157032 0.193977 -0.522126 0.121103 0.012041 -0.821261
    21 1.725855 -0.000004 0.000000 -0.097757 -0.175234 -0.512469
    22 3.410793 0.104385 0.391149 0.171708 0.049096 -0.587763
    23 1.020031 -1.225887 -0.942158 -1.802022 0.200170 -0.546418
    24 2.862398 0.005165 -1.410984 0.007878 -0.080695 -0.862968
    25 1.442411 -0.000004 0.000000 -0.125842 -0.198682 -0.570130
    26 3.518329 -0.146660 -1.355857 -0.188140 -0.087648 -0.204768
    27 3.410807 0.105797 -0.390768 -0.302761 -0.227478 -0.659650
    28 1.020010 -1.229275 0.937716 1.847521 -0.683203 -0.463005
    29 3.157049 0.192078 0.522824 -0.301746 -0.245900 -0.601601
    30 1.725857 0.000000 0.000000 0.115619 -0.003419 -1.600477
    31 15.997698 0.000000 -0.000001 0.271571 0.092934 -1.491199
    32 5.676029 0.000000 0.000000 -0.112051 0.023861 -0.331149
    33 5.676031 0.000000 0.000000 0.020412 -0.027730 -0.427005
    34 3.518309 -0.151562 1.355319 0.169212 0.046758 -0.609994
    35 2.862411 0.000065 1.410994 -0.217008 -0.163702 -0.341356
    36 1.442413 0.000000 0.000000 -0.022933 0.007613 -1.890993
    37 0.772266 0.000000 0.000000 0.054474 0.175340 -0.910365
    38 0.922668 -0.000004 0.000000 0.002415 0.009757 -0.242679
    39 0.772266 -0.000002 0.000000 -0.054473 -0.175380 -0.302889
    40 0.922665 -0.000001 0.000000 -0.002403 -0.009699 -0.901508
    41 1.624466 0.000004 0.000000 -0.051327 -0.064037 -0.676424
    42 2.053873 0.000000 0.000000 0.004951 -0.001033 -1.772344
    43 1.753672 -0.000001 -0.000004 -0.000004 -0.225005 -0.494029
    44 1.624472 0.000000 0.000000 0.057264 0.071571 -0.675739
    45 1.753671 -0.000002 0.000004 0.000013 -0.037568 -0.055870
    46 2.053879 0.000000 0.000000 -0.118966 -0.076516 -1.001797
    47 1.100880 0.000000 0.000000 -0.001870 -0.011971 -0.834431
    48 1.168861 0.000001 -0.000004 -0.000040 0.040618 -0.404246
    49 0.949944 0.000002 0.000000 -0.001277 -0.038560 -0.033101
    50 1.100868 0.000000 0.000000 0.001897 0.012019 -0.156562
    51 1.168865 0.000000 0.000004 0.000000 0.000000 -0.125082
    52 0.949947 0.000004 0.000000 0.001236 0.038489 -0.401834
    53 7.023272 -6.880002 4.339547 2.620672 -1.456011 -1.105365
    54 3.813801 -3.870655 0.998562 1.570796 -1.069638 0.199892
    55 0.000002 -0.000008 -0.000031 1.373047 0.113574 0.124314
    56 -0.000002 -0.000007 -0.000031 1.373047 0.113574 0.124314
    57 3.349000 -1.371002 0.724999 1.977842 -0.088017 1.557794
    58 2.856895 -1.536201 -0.973799 -1.501147 -0.272558 -1.578261
    59 0.000000 -0.000001 9.999998 0.000000 0.000000 0.000000
    60 0.018894 0.665158 9.395884 0.000000 0.000000 0.000000
    61 2.000000 -3.000000 0.000000 -1.570796 0.000000 -1.326450
    62 3.028208 -0.923409 -2.009451 1.574082 -0.012974 1.587244
    63 0.116955 4.311605 0.061860 0.000010 -0.000001 0.000000
    64 -0.000002 0.000000 0.000000 0.000000 0.000000 0.000000
    65 0.000000 1.000000 0.000010 0.000000 0.000000 0.000000
    66 0.000000 0.000000 0.000000 0.000000 0.000000 0.000000
    67 0.000000 0.000000 0.000000 0.000000 0.000000 0.000000
    68 0.000000 0.000000 0.000000 0.000000 0.000000 0.000000
time 9
    0 -2.673828 -1.418947 9.937500 0.233198 1.201793 0.558053
    1 0.000000 3.861988 -0.017122 1.575845 -0.307168 1.514757
    2 3.816021 0.000000 0.000000 0.065279 0.046183 0.100644
    3 3.531826 0.000000 0.000000 -0.153236 0.118573 0.194886
    4 5.444355 0.000000 0.000000 -0.128875 0.104762 0.545973
    5 3.882442 1.393292 1.432500 -0.430765 -0.843906 -1.152018
    6 5.259529 0.000000 0.000001 -1.646179 0.046136 -0.766535
    7 10.416563 0.000000 0.000004 0.000000 0.000000 -1.826144
    8 3.882442 1.393294 -1.432500 1.811527 1.381858 0.107320
    9 5.259525 0.000004 0.000001 1.524336 -0.033741 -1.561442
    10 10.416565 0.000000 0.000000 0.000000 0.000000 -2.027448
    11 9.955210 -0.000003 0.000015 -1.160441 -0.024413 0.383581
    12 -3.462504 0.000000 0.000000 -0.792871 -0.711677 -1.802613
    13 5.111973 -0.000001 0.000000 -3.126786 0.005953 0.691504
    14 4.261036 0.000000 0.000000 0.032501 -0.066760 0.259150
    15 9.955227 -0.000006 -0.000027 2.732556 -0.079117 -0.075107
    16 3.462504 0.000000 0.000000 -1.871729 -0.896701 -1.306863
    17 17.520250 0.000000 0.000000 0.000000 0.000000 1.455482
    18 17.520247 0.000000 0.000000 0.000000 0.000000 2.357223
    19 15.997702 0.000000 0.000000 -0.216593 0.080551 -0.980213
    20 3.157032 0.193977 -0.522126 0.121103 0.012041 -0.821261
    21 1.725855 -0.000004 0.000000 -0.097757 -0.175234 -0.512469
    22 3.410793 0.104385 0.391149 0.171708 0.049096 -0.587763
    23 1.020031 -1.225887 -0.942158 -1.802022 0.200170 -0.546418
    24 2.862398 0.005165 -1.410984 0.007878 -0.080695 -0.862968
    25 1.442411 -0.000004 0.000000 -0.125842 -0.198682 -0.570130
    26 3.518329 -0.146660 -1.355857 -0.188140 -0.087648 -0.204768
    27 3.410807 0.105797 -0.390768 -0.302761 -0.227478 -0.659650
    28 1.020010 -1.229275 0.937716 1.847521 -0.683203 -0.463005
    29 3.157049 0.192078 0.522824 -0.301746 -0.245900 -0.601601
    30 1.725857 0.000000 0.000000 0.115619 -0.003419 -1.600477
    31 15.997698 0.000000 -0.000001 0.259881 0.117407 -1.537677
    32 5.676029 0.000000 0.000000 -0.112051 0.023861 -0.331149
    33 5.676031 0.000000 0.000000 0.020412 -0.027730 -0.427005
    34 3.518309 -0.151562 1.355319 0.169212 0.046758 -0.609994
    35 2.862411 0.000065 1.410994 -0.217008 -0.163702 -0.341356
    36 1.442413 0.000000 0.000000 -0.022933 0.007613 -1.890993
    37 0.772266 0.000000 0.000000 0.054474 0.175340 -0.910365
    38 0.922668 -0.000004 0.000000 0.002415 0.009757 -0.242679
    39 0.772266 -0.000002 0.000000 -0.054473 -0.175380 -0.302889
    40 0.922665 -0.000001 0.000000 -0.002403 -0.009699 -0.901508
    41 1.624466 0.000004 0.000000 -0.051327 -0.064037 -0.676424
    42 2.053873 0.000000 0.000000 0.004951 -0.001033 -1.772344
    43 1.753672 -0.000001 -0.000004 -0.000004 -0.225005 -0.494029
    44 1.624472 0.000000 0.000000 0.057264 0.071571 -0.675739
    45 1.753671 -0.000002 0.000004 0.000013 -0.037568 -0.055870
    46 2.053879 0.000000 0.000000 -0.118966 -0.076516 -1.001797
    47 1.100880 0.000000 0.000000 -0.001870 -0.011971 -0.834431
    48 1.168861 0.000001 -0.000004 -0.000040 0.040618 -0.404246
    49 0.949944 0.000002 0.000000 -0.001277 -0.038560 -0.033101
    50 1.100868 0.000000 0.000000 0.001897 0.012019 -0.156562
    51 1.168865 0.000000 0.000004 0.000000 0.000000 -0.125082
    52 0.949947 0.000004 0.000000 0.001236 0.038489 -0.401834
    53 7.023272 -6.880002 4.339547 2.620672 -1.456011 -1.105365
    54 3.813801 -3.870655 0.998562 1.570796 -1.069638 0.199892
    55 0.000002 -0.000008 -0.000031 1.373047 0.113574 0.124314
    56 -0.000002 -0.000007 -0.000031 1.373047 0.113574 0.124314
    57 3.349000 -1.371002 0.724999 1.977842 -0.088017 1.557794
    58 2.856895 -1.536201 -0.973799 -1.501147 -0.272558 -1.578261
    59 0.000000 -0.000001 9.999998 0.000000 0.000000 0.000000
    60 0.018894 0.665158 9.395884 0.000000 0.000000 0.000000
    61 2.000000 -3.000000 0.000000 -1.570796 0.000000 -1.326450
    62 3.028208 -0.923409 -2.009451 1.574082 -0.012974 1.587244
    63 0.116955 4.311605 0.061860 0.000010 -0.000001 0.000000
    64 -0.000002 0.000000 0.000000 0.000000 0.000000 0.000000
    65 0.000000 1.000000 0.000010 0.000000 0.000000 0.000000
    66 0.000000 0.000000 0.000000 0.000000 0.000000 0.000000
    67 0.000000 0.000000 0.000000 0.000000 0.000000 0.000000
    68 0.000000 0.000000 0.000000 0.000000 0.000000 0.000000
time 10
    0 -2.673828 -2.987218 9.070313 0.261193 1.178459 0.583811
    1 0.000000 3.861988 -0.017122 1.576790 -0.307146 1.511466
    2 3.816021 0.000000 0.000000 0.015016 0.026903 0.100826
    3 3.531826 0.000000 0.000000 -0.154357 0.123849 0.194102
    4 5.444355 0.000000 0.000000 -0.128875 0.104762 0.545973
    5 3.882442 1.393292 1.432500 -0.229942 -0.814542 -1.353214
    6 5.259529 0.000000 0.000001 -1.674233 0.066276 -0.489508
    7 10.416563 0.000000 0.000004 0.000000 0.000000 -1.858343
    8 3.882442 1.393294 -1.432500 1.811527 1.381858 0.107320
    9 5.259525 0.000004 0.000001 1.467777 -0.018746 -1.500792
    10 10.416565 0.000000 0.000000 0.000000 0.000000 -2.020933
    11 9.955210 -0.000003 0.000015 -1.160441 -0.024413 0.383581
    12 -3.462504 0.000000 0.000000 -0.783468 -0.802845 -1.818052
    13 5.111973 -0.000001 0.000000 -3.126786 0.005953 0.691504
    14 4.261036 0.000000 0.000000 0.032501 -0.066760 0.259150
    15 9.955227 -0.000006 -0.000027 2.732556 -0.079117 -0.075107
    16 3.462504 0.000000 0.000000 -2.016203 -0.864007 -1.237681
    17 17.520250 0.000000 0.000000 0.000000 0.000000 1.437748
    18 17.520247 0.000000 0.000000 0.000000 0.000000 2.470580
    19 15.997702 0.000000 0.000000 -0.178727 0.104952 -0.969387
    20 3.157032 0.193977 -0.522126 0.121103 0.012041 -0.821261
    21 1.725855 -0.000004 0.000000 -0.097757 -0.175234 -0.512469
    22 3.410793 0.104385 0.391149 0.171708 0.049096 -0.587763
    23 1.020031 -1.225887 -0.942158 -1.802022 0.200170 -0.546418
    24 2.862398 0.005165 -1.410984 0.007878 -0.080695 -0.862968
    25 1.442411 -0.000004 0.000000 -0.125842 -0.198682 -0.570130
    26 3.518329 -0.146660 -1.355857 -0.188140 -0.087648 -0.204768
    27 3.410807 0.105797 -0.390768 -0.302761 -0.227478 -0.659650
    28 1.020010 -1.229275 0.937716 1.847521 -0.683203 -0.463005
    29 3.157049 0.192078 0.522824 -0.301746 -0.245900 -0.601601
    30 1.725857 0.000000 0.000000 0.115619 -0.003419 -1.600477
    31 15.997698 0.000000 -0.000001 0.281864 0.166570 -1.580212
    32 5.676029 0.000000 0.000000 -0.112051 0.023861 -0.331149
    33 5.676031 0.000000 0.000000 0.020412 -0.027730 -0.427005
    34 3.518309 -0.151562 1.355319 0.169212 0.046758 -0.609994
    35 2.862411 0.000065 1.410994 -0.217008 -0.163702 -0.341356
    36 1.442413 0.000000 0.000000 -0.022933 0.007613 -1.890993
    37 0.772266 0.000000 0.000000 0.054474 0.175340 -0.910365
    38 0.922668 -0.000004 0.000000 0.002415 0.009757 -0.242679
    39 0.772266 -0.000002 0.000000 -0.054473 -0.175380 -0.302889
    40 0.922665 -0.000001 0.000000 -0.002403 -0.009699 -0.901508
    41 1.624466 0.000004 0.000000 -0.051327 -0.064037 -0.676424
    42 2.053873 0.000000 0.000000 0.004951 -0.001033 -1.772344
    43 1.753672 -0.000001 -0.000004 -0.000004 -0.225005 -0.494029
    44 1.624472 0.000000 0.000000 0.057264 0.071571 -0.675739
    45 1.753671 -0.000002 0.000004 0.000013 -0.037568 -0.055870
    46 2.053879 0.000000 0.000000 -0.118966 -0.076516 -1.001797
    47 1.100880 0.000000 0.000000 -0.001870 -0.011971 -0.834431
    48 1.168861 0.000001 -0.000004 -0.000040 0.040618 -0.404246
    49 0.949944 0.000002 0.000000 -0.001277 -0.038560 -0.033101
    50 1.100868 0.000000 0.000000 0.001897 0.012019 -0.156562
    51 1.168865 0.000000 0.000004 0.000000 0.000000 -0.125082
    52 0.949947 0.000004 0.000000 0.001236 0.038489 -0.401834
    53 7.023272 -6.880002 4.339547 2.620672 -1.456011 -1.105365
    54 3.813801 -3.870655 0.998562 1.570796 -1.069638 0.199892
    55 0.000002 -0.000008 -0.000031 1.373047 0.113574 0.124314
    56 -0.000002 -0.000007 -0.000031 1.373047 0.113574 0.124314
    57 3.349000 -1.371002 0.724999 1.977842 -0.088017 1.557794
    58 2.856895 -1.536201 -0.973799 -1.501147 -0.272558 -1.578261
    59 0.000000 -0.000001 9.999998 0.000000 0.000000 0.000000
    60 0.018894 0.665158 9.395884 0.000000 0.000000 0.000000
    61 2.000000 -3.000000 0.000000 -1.570796 0.000000 -1.326450
    62 3.028208 -0.923409 -2.009451 1.574082 -0.012974 1.587244
    63 0.116955 4.311605 0.061860 0.000010 -0.000001 0.000000
    64 -0.000002 0.000000 0.000000 0.000000 0.000000 0.000000
    65 0.000000 1.000000 0.000010 0.000000 0.000000 0.000000
    66 0.000000 0.000000 0.000000 0.000000 0.000000 0.000000
    67 0.000000 0.000000 0.000000 0.000000 0.000000 0.000000
    68 0.000000 0.000000 0.000000 0.000000 0.000000 0.000000
time 11
    0 -2.673828 -4.500979 8.781250 0.259806 1.178505 0.582431
    1 0.000000 3.861988 -0.017122 1.578243 -0.307145 1.506835
    2 3.816021 0.000000 0.000000 -0.026873 0.010439 0.101260
    3 3.531826 0.000000 0.000000 -0.145165 0.119865 0.195220
    4 5.444355 0.000000 0.000000 -0.128875 0.104762 0.545973
    5 3.882442 1.393292 1.432500 -0.150578 -0.796059 -1.430089
    6 5.259529 0.000000 0.000001 -1.713121 0.151872 -0.295222
    7 10.416563 0.000000 0.000004 0.000000 0.000000 -1.867916
    8 3.882442 1.393294 -1.432500 1.811527 1.381858 0.107320
    9 5.259525 0.000004 0.000001 1.407593 0.000167 -1.448950
    10 10.416565 0.000000 0.000000 0.000000 0.000000 -2.001408
    11 9.955210 -0.000003 0.000015 -1.160441 -0.024413 0.383581
    12 -3.462504 0.000000 0.000000 -0.738181 -0.796612 -1.922391
    13 5.111973 -0.000001 0.000000 -3.126786 0.005953 0.691504
    14 4.261036 0.000000 0.000000 0.032501 -0.066760 0.259150
    15 9.955227 -0.000006 -0.000027 2.732556 -0.079117 -0.075107
    16 3.462504 0.000000 0.000000 -2.049924 -0.879234 -1.197735
    17 17.520250 0.000000 0.000000 0.000000 0.000000 1.471960
    18 17.520247 0.000000 0.000000 0.000000 0.000000 2.475880
    19 15.997702 0.000000 0.000000 -0.219026 0.133596 -0.978247
    20 3.157032 0.193977 -0.522126 0.121103 0.012041 -0.821261
    21 1.725855 -0.000004 0.000000 -0.097757 -0.175234 -0.512469
    22 3.410793 0.104385 0.391149 0.171708 0.049096 -0.587763
    23 1.020031 -1.225887 -0.942158 -1.802022 0.200170 -0.546418
    24 2.862398 0.005165 -1.410984 0.007878 -0.080695 -0.862968
    25 1.442411 -0.000004 0.000000 -0.125842 -0.198682 -0.570130
    26 3.518329 -0.146660 -1.355857 -0.188140 -0.087648 -0.204768
    27 3.410807 0.105797 -0.390768 -0.302761 -0.227478 -0.659650
    28 1.020010 -1.229275 0.937716 1.847521 -0.683203 -0.463005
    29 3.157049 0.192078 0.522824 -0.301746 -0.245900 -0.601601
    30 1.725857 0.000000 0.000000 0.115619 -0.003419 -1.600477
    31 15.997698 0.000000 -0.000001 0.256520 0.109320 -1.540254
    32 5.676029 0.000000 0.000000 -0.112051 0.023861 -0.331149
    33 5.676031 0.000000 0.000000 0.020412 -0.027730 -0.427005
    34 3.518309 -0.151562 1.355319 0.169212 0.046758 -0.609994
    35 2.862411 0.000065 1.410994 -0.217008 -0.163702 -0.341356
    36 1.442413 0.000000 0.000000 -0.022933 0.007613 -1.890993
    37 0.772266 0.000000 0.000000 0.054474 0.175340 -0.910365
    38 0.922668 -0.000004 0.000000 0.002415 0.009757 -0.242679
    39 0.772266 -0.000002 0.000000 -0.054473 -0.175380 -0.302889
    40 0.922665 -0.000001 0.000000 -0.002403 -0.009699 -0.901508
    41 1.624466 0.000004 0.000000 -0.051327 -0.064037 -0.676424
    42 2.053873 0.000000 0.000000 0.004951 -0.001033 -1.772344
    43 1.753672 -0.000001 -0.000004 -0.000004 -0.225005 -0.494029
    44 1.624472 0.000000 0.000000 0.057264 0.071571 -0.675739
    45 1.753671 -0.000002 0.000004 0.000013 -0.037568 -0.055870
    46 2.053879 0.000000 0.000000 -0.118966 -0.076516 -1.001797
    47 1.100880 0.000000 0.000000 -0.001870 -0.011971 -0.834431
    48 1.168861 0.000001 -0.000004 -0.000040 0.040618 -0.404246
    49 0.949944 0.000002 0.000000 -0.001277 -0.038560 -0.033101
    50 1.100868 0.000000 0.000000 0.001897 0.012019 -0.156562
    51 1.168865 0.000000 0.000004 0.000000 0.000000 -0.125082
    52 0.949947 0.000004 0.000000 0.001236 0.038489 -0.401834
    53 7.023272 -6.880002 4.339547 2.620672 -1.456011 -1.105365
    54 3.813801 -3.870655 0.998562 1.570796 -1.069638 0.199892
    55 0.000002 -0.000008 -0.000031 1.373047 0.113574 0.124314
    56 -0.000002 -0.000007 -0.000031 1.373047 0.113574 0.124314
    57 3.349000 -1.371002 0.724999 1.977842 -0.088017 1.557794
    58 2.856895 -1.536201 -0.973799 -1.501147 -0.272558 -1.578261
    59 0.000000 -0.000001 9.999998 0.000000 0.000000 0.000000
    60 0.018894 0.665158 9.395884 0.000000 0.000000 0.000000
    61 2.000000 -3.000000 0.000000 -1.570796 0.000000 -1.326450
    62 3.028208 -0.923409 -2.009451 1.574082 -0.012974 1.587244
    63 0.116955 4.311605 0.061860 0.000010 -0.000001 0.000000
    64 -0.000002 0.000000 0.000000 0.000000 0.000000 0.000000
    65 0.000000 1.000000 0.000010 0.000000 0.000000 0.000000
    66 0.000000 0.000000 0.000000 0.000000 0.000000 0.000000
    67 0.000000 0.000000 0.000000 0.000000 0.000000 0.000000
    68 0.000000 0.000000 0.000000 0.000000 0.000000 0.000000
time 12
    0 -2.673828 -5.827417 8.726563 0.255065 1.179088 0.577313
    1 0.000000 3.861988 -0.017122 1.579708 -0.307126 1.502040
    2 3.816021 0.000000 0.000000 -0.044520 0.003388 0.101599
    3 3.531826 0.000000 0.000000 -0.121966 0.109426 0.198083
    4 5.444355 0.000000 0.000000 -0.128875 0.104762 0.545973
    5 3.882442 1.393292 1.432500 -0.238703 -0.835960 -1.351360
    6 5.259529 0.000000 0.000001 -1.719482 0.284363 -0.237721
    7 10.416563 0.000000 0.000004 0.000000 0.000000 -1.838224
    8 3.882442 1.393294 -1.432500 1.811527 1.381858 0.107320
    9 5.259525 0.000004 0.000001 1.370921 0.027884 -1.392460
    10 10.416565 0.000000 0.000000 0.000000 0.000000 -1.969558
    11 9.955210 -0.000003 0.000015 -1.160441 -0.024413 0.383581
    12 -3.462504 0.000000 0.000000 -0.758767 -0.808478 -1.974781
    13 5.111973 -0.000001 0.000000 -3.126786 0.005953 0.691504
    14 4.261036 0.000000 0.000000 0.032501 -0.066760 0.259150
    15 9.955227 -0.000006 -0.000027 2.732556 -0.079117 -0.075107
    16 3.462504 0.000000 0.000000 -2.100349 -0.912281 -1.138752
    17 17.520250 0.000000 0.000000 0.000000 0.000000 1.532671
    18 17.520247 0.000000 0.000000 0.000000 0.000000 2.454834
    19 15.997702 0.000000 0.000000 -0.260604 0.161173 -0.993892
    20 3.157032 0.193977 -0.522126 0.121103 0.012041 -0.821261
    21 1.725855 -0.000004 0.000000 -0.097757 -0.175234 -0.512469
    22 3.410793 0.104385 0.391149 0.171708 0.049096 -0.587763
    23 1.020031 -1.225887 -0.942158 -1.802022 0.200170 -0.546418
    24 2.862398 0.005165 -1.410984 0.007878 -0.080695 -0.862968
    25 1.442411 -0.000004 0.000000 -0.125842 -0.198682 -0.570130
    26 3.518329 -0.146660 -1.355857 -0.188140 -0.087648 -0.204768
    27 3.410807 0.105797 -0.390768 -0.302761 -0.227478 -0.659650
    28 1.020010 -1.229275 0.937716 1.847521 -0.683203 -0.463005
    29 3.157049 0.192078 0.522824 -0.301746 -0.245900 -0.601601
    30 1.725857 0.000000 0.000000 0.115619 -0.003419 -1.600477
    31 15.997698 0.000000 -0.000001 0.277197 0.050757 -1.481766
    32 5.676029 0.000000 0.000000 -0.112051 0.023861 -0.331149
    33 5.676031 0.000000 0.000000 0.020412 -0.027730 -0.427005
    34 3.518309 -0.151562 1.355319 0.169212 0.046758 -0.609994
    35 2.862411 0.000065 1.410994 -0.217008 -0.163702 -0.341356
    36 1.442413 0.000000 0.000000 -0.022933 0.007613 -1.890993
    37 0.772266 0.000000 0.000000 0.054474 0.175340 -0.910365
    38 0.922668 -0.000004 0.000000 0.002415 0.009757 -0.242679
    39 0.772266 -0.000002 0.000000 -0.054473 -0.175380 -0.302889
    40 0.922665 -0.000001 0.000000 -0.002403 -0.009699 -0.901508
    41 1.624466 0.000004 0.000000 -0.051327 -0.064037 -0.676424
    42 2.053873 0.000000 0.000000 0.004951 -0.001033 -1.772344
    43 1.753672 -0.000001 -0.000004 -0.000004 -0.225005 -0.494029
    44 1.624472 0.000000 0.000000 0.057264 0.071571 -0.675739
    45 1.753671 -0.000002 0.000004 0.000013 -0.037568 -0.055870
    46 2.053879 0.000000 0.000000 -0.118966 -0.076516 -1.001797
    47 1.100880 0.000000 0.000000 -0.001870 -0.011971 -0.834431
    48 1.168861 0.000001 -0.000004 -0.000040 0.040618 -0.404246
    49 0.949944 0.000002 0.000000 -0.001277 -0.038560 -0.033101
    50 1.100868 0.000000 0.000000 0.001897 0.012019 -0.156562
    51 1.168865 0.000000 0.000004 0.000000 0.000000 -0.125082
    52 0.949947 0.000004 0.000000 0.001236 0.038489 -0.401834
    53 7.023272 -6.880002 4.339547 2.620672 -1.456011 -1.105365
    54 3.813801 -3.870655 0.998562 1.570796 -1.069638 0.199892
    55 0.000002 -0.000008 -0.000031 1.373047 0.113574 0.124314
    56 -0.000002 -0.000007 -0.000031 1.373047 0.113574 0.124314
    57 3.349000 -1.371002 0.724999 1.977842 -0.088017 1.557794
    58 2.856895 -1.536201 -0.973799 -1.501147 -0.272558 -1.578261
    59 0.000000 -0.000001 9.999998 0.000000 0.000000 0.000000
    60 0.018894 0.665158 9.395884 0.000000 0.000000 0.000000
    61 2.000000 -3.000000 0.000000 -1.570796 0.000000 -1.326450
    62 3.028208 -0.923409 -2.009451 1.574082 -0.012974 1.587244
    63 0.116955 4.311605 0.061860 0.000010 -0.000001 0.000000
    64 -0.000002 0.000000 0.000000 0.000000 0.000000 0.000000
    65 0.000000 1.000000 0.000010 0.000000 0.000000 0.000000
    66 0.000000 0.000000 0.000000 0.000000 0.000000 0.000000
    67 0.000000 0.000000 0.000000 0.000000 0.000000 0.000000
    68 0.000000 0.000000 0.000000 0.000000 0.000000 0.000000
time 13
    0 -2.673828 -6.583721 8.648438 0.246286 1.179971 0.567816
    1 0.000000 3.861988 -0.017122 1.580897 -0.307049 1.498049
    2 3.816021 0.000000 0.000000 -0.035815 0.013509 0.097795
    3 3.531826 0.000000 0.000000 -0.091583 0.094271 0.202203
    4 5.444355 0.000000 0.000000 -0.128875 0.104762 0.545973
    5 3.882442 1.393292 1.432500 -0.477626 -0.914779 -1.124344
    6 5.259529 0.000000 0.000001 -1.707038 0.387495 -0.341286
    7 10.416563 0.000000 0.000004 0.000000 0.000000 -1.874779
    8 3.882442 1.393294 -1.432500 1.811527 1.381858 0.107320
    9 5.259525 0.000004 0.000001 1.364027 0.053775 -1.331723
    10 10.416565 0.000000 0.000000 0.000000 0.000000 -1.927715
    11 9.955210 -0.000003 0.000015 -1.160441 -0.024413 0.383581
    12 -3.462504 0.000000 0.000000 -0.875363 -0.837573 -1.956167
    13 5.111973 -0.000001 0.000000 -3.126786 0.005953 0.691504
    14 4.261036 0.000000 0.000000 0.032501 -0.066760 0.259150
    15 9.955227 -0.000006 -0.000027 2.732556 -0.079117 -0.075107
    16 3.462504 0.000000 0.000000 -2.128886 -0.931438 -1.108356
    17 17.520250 0.000000 0.000000 0.000000 0.000000 1.564063
    18 17.520247 0.000000 0.000000 0.000000 0.000000 2.389904
    19 15.997702 0.000000 0.000000 -0.305022 0.177353 -1.004294
    20 3.157032 0.193977 -0.522126 0.121103 0.012041 -0.821261
    21 1.725855 -0.000004 0.000000 -0.097757 -0.175234 -0.512469
    22 3.410793 0.104385 0.391149 0.171708 0.049096 -0.587763
    23 1.020031 -1.225887 -0.942158 -1.802022 0.200170 -0.546418
    24 2.862398 0.005165 -1.410984 0.007878 -0.080695 -0.862968
    25 1.442411 -0.000004 0.000000 -0.125842 -0.198682 -0.570130
    26 3.518329 -0.146660 -1.355857 -0.188140 -0.087648 -0.204768
    27 3.410807 0.105797 -0.390768 -0.302761 -0.227478 -0.659650
    28 1.020010 -1.229275 0.937716 1.847521 -0.683203 -0.463005
    29 3.157049 0.192078 0.522824 -0.301746 -0.245900 -0.601601
    30 1.725857 0.000000 0.000000 0.115619 -0.003419 -1.600477
    31 15.997698 0.000000 -0.000001 0.358732 -0.021954 -1.401351
    32 5.676029 0.000000 0.000000 -0.112051 0.023861 -0.331149
    33 5.676031 0.000000 0.000000 0.020412 -0.027730 -0.427005
    34 3.518309 -0.151562 1.355319 0.169212 0.046758 -0.609994
    35 2.862411 0.000065 1.410994 -0.217008 -0.163702 -0.341356
    36 1.442413 0.000000 0.000000 -0.022933 0.007613 -1.890993
    37 0.772266 0.000000 0.000000 0.054474 0.175340 -0.910365
    38 0.922668 -0.000004 0.000000 0.002415 0.009757 -0.242679
    39 0.772266 -0.000002 0.000000 -0.054473 -0.175380 -0.302889
    40 0.922665 -0.000001 0.000000 -0.002403 -0.009699 -0.901508
    41 1.624466 0.000004 0.000000 -0.051327 -0.064037 -0.676424
    42 2.053873 0.000000 0.000000 0.004951 -0.001033 -1.772344
    43 1.753672 -0.000001 -0.000004 -0.000004 -0.225005 -0.494029
    44 1.624472 0.000000 0.000000 0.057264 0.071571 -0.675739
    45 1.753671 -0.000002 0.000004 0.000013 -0.037568 -0.055870
    46 2.053879 0.000000 0.000000 -0.118966 -0.076516 -1.001797
    47 1.100880 0.000000 0.000000 -0.001870 -0.011971 -0.834431
    48 1.168861 0.000001 -0.000004 -0.000040 0.040618 -0.404246
    49 0.949944 0.000002 0.000000 -0.001277 -0.038560 -0.033101
    50 1.100868 0.000000 0.000000 0.001897 0.012019 -0.156562
    51 1.168865 0.000000 0.000004 0.000000 0.000000 -0.125082
    52 0.949947 0.000004 0.000000 0.001236 0.038489 -0.401834
    53 7.023272 -6.880002 4.339547 2.620672 -1.456011 -1.105365
    54 3.813801 -3.870655 0.998562 1.570796 -1.069638 0.199892
    55 0.000002 -0.000008 -0.000031 1.373047 0.113574 0.124314
    56 -0.000002 -0.000007 -0.000031 1.373047 0.113574 0.124314
    57 3.349000 -1.371002 0.724999 1.977842 -0.088017 1.557794
    58 2.856895 -1.536201 -0.973799 -1.501147 -0.272558 -1.578261
    59 0.000000 -0.000001 9.999998 0.000000 0.000000 0.000000
    60 0.018894 0.665158 9.395884 0.000000 0.000000 0.000000
    61 2.000000 -3.000000 0.000000 -1.570796 0.000000 -1.326450
    62 3.028208 -0.923409 -2.009451 1.574082 -0.012974 1.587244
    63 0.116955 4.311605 0.061860 0.000010 -0.000001 0.000000
    64 -0.000002 0.000000 0.000000 0.000000 0.000000 0.000000
    65 0.000000 1.000000 0.000010 0.000000 0.000000 0.000000
    66 0.000000 0.000000 0.000000 0.000000 0.000000 0.000000
    67 0.000000 0.000000 0.000000 0.000000 0.000000 0.000000
    68 0.000000 0.000000 0.000000 0.000000 0.000000 0.000000
time 14
    0 -2.673827 -6.605826 8.453125 0.233056 1.181319 0.553473
    1 0.000000 3.861988 -0.017122 1.581895 -0.307068 1.494781
    2 3.816021 0.000000 0.000000 -0.016565 0.035396 0.089447
    3 3.531826 0.000000 0.000000 -0.060619 0.076291 0.206791
    4 5.444355 0.000000 0.000000 -0.128875 0.104762 0.545973
    5 3.882442 1.393292 1.432500 -0.811603 -0.967713 -0.784061
    6 5.259529 0.000000 0.000001 -1.739080 0.490707 -0.525748
    7 10.416563 0.000000 0.000004 0.000000 0.000000 -1.964476
    8 3.882442 1.393294 -1.432500 1.811527 1.381858 0.107320
    9 5.259525 0.000004 0.000001 1.370104 0.071182 -1.270371
    10 10.416565 0.000000 0.000000 0.000000 0.000000 -1.879915
    11 9.955210 -0.000003 0.000015 -1.160441 -0.024413 0.383581
    12 -3.462504 0.000000 0.000000 -1.000699 -0.821360 -1.918666
    13 5.111973 -0.000001 0.000000 -3.126786 0.005953 0.691504
    14 4.261036 0.000000 0.000000 0.032501 -0.066760 0.259150
    15 9.955227 -0.000006 -0.000027 2.732556 -0.079117 -0.075107
    16 3.462504 0.000000 0.000000 -2.112018 -0.932350 -1.128492
    17 17.520250 0.000000 0.000000 0.000000 0.000000 1.554836
    18 17.520247 0.000000 0.000000 0.000000 0.000000 2.268377
    19 15.997702 0.000000 0.000000 -0.355314 0.178304 -1.009344
    20 3.157032 0.193977 -0.522126 0.121103 0.012041 -0.821261
    21 1.725855 -0.000004 0.000000 -0.097757 -0.175234 -0.512469
    22 3.410793 0.104385 0.391149 0.171708 0.049096 -0.587763
    23 1.020031 -1.225887 -0.942158 -1.802022 0.200170 -0.546418
    24 2.862398 0.005165 -1.410984 0.007878 -0.080695 -0.862968
    25 1.442411 -0.000004 0.000000 -0.125842 -0.198682 -0.570130
    26 3.518329 -0.146660 -1.355857 -0.188140 -0.087648 -0.204768
    27 3.410807 0.105797 -0.390768 -0.302761 -0.227478 -0.659650
    28 1.020010 -1.229275 0.937716 1.847521 -0.683203 -0.463005
    29 3.157049 0.192078 0.522824 -0.301746 -0.245900 -0.601601
    30 1.725857 0.000000 0.000000 0.115619 -0.003419 -1.600477
    31 15.997698 0.000000 -0.000001 0.422502 -0.101726 -1.309498
    32 5.676029 0.000000 0.000000 -0.112051 0.023861 -0.331149
    33 5.676031 0.000000 0.000000 0.020412 -0.027730 -0.427005
    34 3.518309 -0.151562 1.355319 0.169212 0.046758 -0.609994
    35 2.862411 0.000065 1.410994 -0.217008 -0.163702 -0.341356
    36 1.442413 0.000000 0.000000 -0.022933 0.007613 -1.890993
    37 0.772266 0.000000 0.000000 0.054474 0.175340 -0.910365
    38 0.922668 -0.000004 0.000000 0.002415 0.009757 -0.242679
    39 0.772266 -0.000002 0.000000 -0.054473 -0.175380 -0.302889
    40 0.922665 -0.000001 0.000000 -0.002403 -0.009699 -0.901508
    41 1.624466 0.000004 0.000000 -0.051327 -0.064037 -0.676424
    42 2.053873 0.000000 0.000000 0.004951 -0.001033 -1.772344
    43 1.753672 -0.000001 -0.000004 -0.000004 -0.225005 -0.494029
    44 1.624472 0.000000 0.000000 0.057264 0.071571 -0.675739
    45 1.753671 -0.000002 0.000004 0.000013 -0.037568 -0.055870
    46 2.053879 0.000000 0.000000 -0.118966 -0.076516 -1.001797
    47 1.100880 0.000000 0.000000 -0.001870 -0.011971 -0.834431
    48 1.168861 0.000001 -0.000004 -0.000040 0.040618 -0.404246
    49 0.949944 0.000002 0.000000 -0.001277 -0.038560 -0.033101
    50 1.100868 0.000000 0.000000 0.001897 0.012019 -0.156562
    51 1.168865 0.000000 0.000004 0.000000 0.000000 -0.125082
    52 0.949947 0.000004 0.000000 0.001236 0.038489 -0.401834
    53 7.023272 -6.880002 4.339547 2.620672 -1.456011 -1.105365
    54 3.813801 -3.870655 0.998562 1.570796 -1.069638 0.199892
    55 0.000002 -0.000008 -0.000031 1.373047 0.113574 0.124314
    56 -0.000002 -0.000007 -0.000031 1.373047 0.113574 0.124314
    57 3.349000 -1.371002 0.724999 1.977842 -0.088017 1.557794
    58 2.856895 -1.536201 -0.973799 -1.501147 -0.272558 -1.578261
    59 0.000000 -0.000001 9.999998 0.000000 0.000000 0.000000
    60 0.018894 0.665158 9.395884 0.000000 0.000000 0.000000
    61 2.000000 -3.000000 0.000000 -1.570796 0.000000 -1.326450
    62 3.028208 -0.923409 -2.009451 1.574082 -0.012974 1.587244
    63 0.116955 4.311605 0.061860 0.000010 -0.000001 0.000000
    64 -0.000002 0.000000 0.000000 0.000000 0.000000 0.000000
    65 0.000000 1.000000 0.000010 0.000000 0.000000 0.000000
    66 0.000000 0.000000 0.000000 0.000000 0.000000 0.000000
    67 0.000000 0.000000 0.000000 0.000000 0.000000 0.000000
    68 0.000000 0.000000 0.000000 0.000000 0.000000 0.000000
time 15
    0 -2.673827 -6.690610 8.226563 0.217346 1.182820 0.536443
    1 0.000000 3.861988 -0.017122 1.582625 -0.307040 1.492310
    2 3.816021 0.000000 0.000000 0.002714 0.056228 0.081104
    3 3.531826 0.000000 0.000000 -0.035704 0.057274 0.211167
    4 5.444355 0.000000 0.000000 -0.128875 0.104762 0.545973
    5 3.882442 1.393292 1.432500 -1.119417 -0.975759 -0.450914
    6 5.259529 0.000000 0.000001 -1.839889 0.535019 -0.767123
    7 10.416563 0.000000 0.000004 0.000000 0.000000 -2.071693
    8 3.882442 1.393294 -1.432500 1.811527 1.381858 0.107320
    9 5.259525 0.000004 0.000001 1.372873 0.084768 -1.219874
    10 10.416565 0.000000 0.000000 0.000000 0.000000 -1.830831
    11 9.955210 -0.000003 0.000015 -1.160441 -0.024413 0.383581
    12 -3.462504 0.000000 0.000000 -1.110852 -0.783086 -1.855476
    13 5.111973 -0.000001 0.000000 -3.126786 0.005953 0.691504
    14 4.261036 0.000000 0.000000 0.032501 -0.066760 0.259150
    15 9.955227 -0.000006 -0.000027 2.732556 -0.079117 -0.075107
    16 3.462504 0.000000 0.000000 -2.099280 -0.941598 -1.139795
    17 17.520250 0.000000 0.000000 0.000000 0.000000 1.557745
    18 17.520247 0.000000 0.000000 0.000000 0.000000 2.137196
    19 15.997702 0.000000 0.000000 -0.395680 0.176102 -1.016790
    20 3.157032 0.193977 -0.522126 0.121103 0.012041 -0.821261
    21 1.725855 -0.000004 0.000000 -0.097757 -0.175234 -0.512469
    22 3.410793 0.104385 0.391149 0.171708 0.049096 -0.587763
    23 1.020031 -1.225887 -0.942158 -1.802022 0.200170 -0.546418
    24 2.862398 0.005165 -1.410984 0.007878 -0.080695 -0.862968
    25 1.442411 -0.000004 0.000000 -0.125842 -0.198682 -0.570130
    26 3.518329 -0.146660 -1.355857 -0.188140 -0.087648 -0.204768
    27 3.410807 0.105797 -0.390768 -0.302761 -0.227478 -0.659650
    28 1.020010 -1.229275 0.937716 1.847521 -0.683203 -0.463005
    29 3.157049 0.192078 0.522824 -0.301746 -0.245900 -0.601601
    30 1.725857 0.000000 0.000000 0.115619 -0.003419 -1.600477
    31 15.997698 0.000000 -0.000001 0.476801 -0.148215 -1.237828
    32 5.676029 0.000000 0.000000 -0.112051 0.023861 -0.331149
    33 5.676031 0.000000 0.000000 0.020412 -0.027730 -0.427005
    34 3.518309 -0.151562 1.355319 0.169212 0.046758 -0.609994
    35 2.862411 0.000065 1.410994 -0.217008 -0.163702 -0.341356
    36 1.442413 0.000000 0.000000 -0.022933 0.007613 -1.890993
    37 0.772266 0.000000 0.000000 0.054474 0.175340 -0.910365
    38 0.922668 -0.000004 0.000000 0.002415 0.009757 -0.242679
    39 0.772266 -0.000002 0.000000 -0.054473 -0.175380 -0.302889
    40 0.922665 -0.000001 0.000000 -0.002403 -0.009699 -0.901508
    41 1.624466 0.000004 0.000000 -0.051327 -0.064037 -0.676424
    42 2.053873 0.000000 0.000000 0.004951 -0.001033 -1.772344
    43 1.753672 -0.000001 -0.000004 -0.000004 -0.225005 -0.494029
    44 1.624472 0.000000 0.000000 0.057264 0.071571 -0.675739
    45 1.753671 -0.000002 0.000004 0.000013 -0.037568 -0.055870
    46 2.053879 0.000000 0.000000 -0.118966 -0.076516 -1.001797
    47 1.100880 0.000000 0.000000 -0.001870 -0.011971 -0.834431
    48 1.168861 0.000001 -0.000004 -0.000040 0.040618 -0.404246
    49 0.949944 0.000002 0.000000 -0.001277 -0.038560 -0.033101
    50 1.100868 0.000000 0.000000 0.001897 0.012019 -0.156562
    51 1.168865 0.000000 0.000004 0.000000 0.000000 -0.125082
    52 0.949947 0.000004 0.000000 0.001236 0.038489 -0.401834
    53 7.023272 -6.880002 4.339547 2.620672 -1.456011 -1.105365
    54 3.813801 -3.870655 0.998562 1.570796 -1.069638 0.199892
    55 0.000002 -0.000008 -0.000031 1.373047 0.113574 0.124314
    56 -0.000002 -0.000007 -0.000031 1.373047 0.113574 0.124314
    57 3.349000 -1.371002 0.724999 1.977842 -0.088017 1.557794
    58 2.856895 -1.536201 -0.973799 -1.501147 -0.272558 -1.578261
    59 0.000000 -0.000001 9.999998 0.000000 0.000000 0.000000
    60 0.018894 0.665158 9.395884 0.000000 0.000000 0.000000
    61 2.000000 -3.000000 0.000000 -1.570796 0.000000 -1.326450
    62 3.028208 -0.923409 -2.009451 1.574082 -0.012974 1.587244
    63 0.116955 4.311605 0.061860 0.000010 -0.000001 0.000000
    64 -0.000002 0.000000 0.000000 0.000000 0.000000 0.000000
    65 0.000000 1.000000 0.000010 0.000000 0.000000 0.000000
    66 0.000000 0.000000 0.000000 0.000000 0.000000 0.000000
    67 0.000000 0.000000 0.000000 0.000000 0.000000 0.000000
    68 0.000000 0.000000 0.000000 0.000000 0.000000 0.000000
time 16
    0 -2.673827 -6.869321 8.015625 0.203185 1.184045 0.521150
    1 0.000000 3.861988 -0.017122 1.583191 -0.307034 1.490457
    2 3.816021 0.000000 0.000000 0.011967 0.063391 0.077528
    3 3.531826 0.000000 0.000000 -0.023660 0.039190 0.214353
    4 5.444355 0.000000 0.000000 -0.128875 0.104762 0.545973
    5 3.882442 1.393292 1.432500 -1.298385 -0.989110 -0.248673
    6 5.259529 0.000000 0.000001 -1.965312 0.473156 -1.011696
    7 10.416563 0.000000 0.000004 0.000000 0.000000 -2.160561
    8 3.882442 1.393294 -1.432500 1.811527 1.381858 0.107320
    9 5.259525 0.000004 0.000001 1.357638 0.106462 -1.185482
    10 10.416565 0.000000 0.000000 0.000000 0.000000 -1.784796
    11 9.955210 -0.000003 0.000015 -1.160441 -0.024413 0.383581
    12 -3.462504 0.000000 0.000000 -1.198951 -0.732404 -1.792003
    13 5.111973 -0.000001 0.000000 -3.126786 0.005953 0.691504
    14 4.261036 0.000000 0.000000 0.032501 -0.066760 0.259150
    15 9.955227 -0.000006 -0.000027 2.732556 -0.079117 -0.075107
    16 3.462504 0.000000 0.000000 -2.097158 -0.956822 -1.137961
    17 17.520250 0.000000 0.000000 0.000000 0.000000 1.572535
    18 17.520247 0.000000 0.000000 0.000000 0.000000 2.005609
    19 15.997702 0.000000 0.000000 -0.420535 0.173441 -1.024636
    20 3.157032 0.193977 -0.522126 0.121103 0.012041 -0.821261
    21 1.725855 -0.000004 0.000000 -0.097757 -0.175234 -0.512469
    22 3.410793 0.104385 0.391149 0.171708 0.049096 -0.587763
    23 1.020031 -1.225887 -0.942158 -1.802022 0.200170 -0.546418
    24 2.862398 0.005165 -1.410984 0.007878 -0.080695 -0.862968
    25 1.442411 -0.000004 0.000000 -0.125842 -0.198682 -0.570130
    26 3.518329 -0.146660 -1.355857 -0.188140 -0.087648 -0.204768
    27 3.410807 0.105797 -0.390768 -0.302761 -0.227478 -0.659650
    28 1.020010 -1.229275 0.937716 1.847521 -0.683203 -0.463005
    29 3.157049 0.192078 0.522824 -0.301746 -0.245900 -0.601601
    30 1.725857 0.000000 0.000000 0.115619 -0.003419 -1.600477
    31 15.997698 0.000000 -0.000001 0.522386 -0.173578 -1.176834
    32 5.676029 0.000000 0.000000 -0.112051 0.023861 -0.331149
    33 5.676031 0.000000 0.000000 0.020412 -0.027730 -0.427005
    34 3.518309 -0.151562 1.355319 0.169212 0.046758 -0.609994
    35 2.862411 0.000065 1.410994 -0.217008 -0.163702 -0.341356
    36 1.442413 0.000000 0.000000 -0.022933 0.007613 -1.890993
    37 0.772266 0.000000 0.000000 0.054474 0.175340 -0.910365
    38 0.922668 -0.000004 0.000000 0.002415 0.009757 -0.242679
    39 0.772266 -0.000002 0.000000 -0.054473 -0.175380 -0.302889
    40 0.922665 -0.000001 0.000000 -0.002403 -0.009699 -0.901508
    41 1.624466 0.000004 0.000000 -0.051327 -0.064037 -0.676424
    42 2.053873 0.000000 0.000000 0.004951 -0.001033 -1.772344
    43 1.753672 -0.000001 -0.000004 -0.000004 -0.225005 -0.494029
    44 1.624472 0.000000 0.000000 0.057264 0.071571 -0.675739
    45 1.753671 -0.000002 0.000004 0.000013 -0.037568 -0.055870
    46 2.053879 0.000000 0.000000 -0.118966 -0.076516 -1.001797
    47 1.100880 0.000000 0.000000 -0.001870 -0.011971 -0.834431
    48 1.168861 0.000001 -0.000004 -0.000040 0.040618 -0.404246
    49 0.949944 0.000002 0.000000 -0.001277 -0.038560 -0.033101
    50 1.100868 0.000000 0.000000 0.001897 0.012019 -0.156562
    51 1.168865 0.000000 0.000004 0.000000 0.000000 -0.125082
    52 0.949947 0.000004 0.000000 0.001236 0.038489 -0.401834
    53 7.023272 -6.880002 4.339547 2.620672 -1.456011 -1.105365
    54 3.813801 -3.870655 0.998562 1.570796 -1.069638 0.199892
    55 0.000002 -0.000008 -0.000031 1.373047 0.113574 0.124314
    56 -0.000002 -0.000007 -0.000031 1.373047 0.113574 0.124314
    57 3.349000 -1.371002 0.724999 1.977842 -0.088017 1.557794
    58 2.856895 -1.536201 -0.973799 -1.501147 -0.272558 -1.578261
    59 0.000000 -0.000001 9.999998 0.000000 0.000000 0.000000
    60 0.018894 0.665158 9.395884 0.000000 0.000000 0.000000
    61 2.000000 -3.000000 0.000000 -1.570796 0.000000 -1.326450
    62 3.028208 -0.923409 -2.009451 1.574082 -0.012974 1.587244
    63 0.116955 4.311605 0.061860 0.000010 -0.000001 0.000000
    64 -0.000002 0.000000 0.000000 0.000000 0.000000 0.000000
    65 0.000000 1.000000 0.000010 0.000000 0.000000 0.000000
    66 0.000000 0.000000 0.000000 0.000000 0.000000 0.000000
    67 0.000000 0.000000 0.000000 0.000000 0.000000 0.000000
    68 0.000000 0.000000 0.000000 0.000000 0.000000 0.000000
time 17
    0 -2.673827 -6.993522 7.878906 0.193890 1.184807 0.511195
    1 0.000000 3.861988 -0.017122 1.583614 -0.306974 1.489124
    2 3.816021 0.000000 0.000000 0.007147 0.050951 0.080341
    3 3.531826 0.000000 0.000000 -0.031258 0.017637 0.216343
    4 5.444355 0.000000 0.000000 -0.128875 0.104762 0.545973
    5 3.882442 1.393292 1.432500 -1.357945 -1.076213 -0.186650
    6 5.259529 0.000000 0.000001 -2.072858 0.332434 -1.208208
    7 10.416563 0.000000 0.000004 0.000000 0.000000 -2.202800
    8 3.882442 1.393294 -1.432500 1.811527 1.381858 0.107320
    9 5.259525 0.000004 0.000001 1.314707 0.146163 -1.172441
    10 10.416565 0.000000 0.000000 0.000000 0.000000 -1.745116
    11 9.955210 -0.000003 0.000015 -1.160441 -0.024413 0.383581
    12 -3.462504 0.000000 0.000000 -1.266581 -0.671189 -1.737233
    13 5.111973 -0.000001 0.000000 -3.126786 0.005953 0.691504
    14 4.261036 0.000000 0.000000 0.032501 -0.066760 0.259150
    15 9.955227 -0.000006 -0.000027 2.732556 -0.079117 -0.075107
    16 3.462504 0.000000 0.000000 -2.098173 -0.969996 -1.133937
    17 17.520250 0.000000 0.000000 0.000000 0.000000 1.586514
    18 17.520247 0.000000 0.000000 0.000000 0.000000 1.869634
    19 15.997702 0.000000 0.000000 -0.436554 0.171354 -1.030929
    20 3.157032 0.193977 -0.522126 0.121103 0.012041 -0.821261
    21 1.725855 -0.000004 0.000000 -0.097757 -0.175234 -0.512469
    22 3.410793 0.104385 0.391149 0.171708 0.049096 -0.587763
    23 1.020031 -1.225887 -0.942158 -1.802022 0.200170 -0.546418
    24 2.862398 0.005165 -1.410984 0.007878 -0.080695 -0.862968
    25 1.442411 -0.000004 0.000000 -0.125842 -0.198682 -0.570130
    26 3.518329 -0.146660 -1.355857 -0.188140 -0.087648 -0.204768
    27 3.410807 0.105797 -0.390768 -0.302761 -0.227478 -0.659650
    28 1.020010 -1.229275 0.937716 1.847521 -0.683203 -0.463005
    29 3.157049 0.192078 0.522824 -0.301746 -0.245900 -0.601601
    30 1.725857 0.000000 0.000000 0.115619 -0.003419 -1.600477
    31 15.997698 0.000000 -0.000001 0.559031 -0.186600 -1.118020
    32 5.676029 0.000000 0.000000 -0.112051 0.023861 -0.331149
    33 5.676031 0.000000 0.000000 0.020412 -0.027730 -0.427005
    34 3.518309 -0.151562 1.355319 0.169212 0.046758 -0.609994
    35 2.862411 0.000065 1.410994 -0.217008 -0.163702 -0.341356
    36 1.442413 0.000000 0.000000 -0.022933 0.007613 -1.890993
    37 0.772266 0.000000 0.000000 0.054474 0.175340 -0.910365
    38 0.922668 -0.000004 0.000000 0.002415 0.009757 -0.242679
    39 0.772266 -0.000002 0.000000 -0.054473 -0.175380 -0.302889
    40 0.922665 -0.000001 0.000000 -0.002403 -0.009699 -0.901508
    41 1.624466 0.000004 0.000000 -0.051327 -0.064037 -0.676424
    42 2.053873 0.000000 0.000000 0.004951 -0.001033 -1.772344
    43 1.753672 -0.000001 -0.000004 -0.000004 -0.225005 -0.494029
    44 1.624472 0.000000 0.000000 0.057264 0.071571 -0.675739
    45 1.753671 -0.000002 0.000004 0.000013 -0.037568 -0.055870
    46 2.053879 0.000000 0.000000 -0.118966 -0.076516 -1.001797
    47 1.100880 0.000000 0.000000 -0.001870 -0.011971 -0.834431
    48 1.168861 0.000001 -0.000004 -0.000040 0.040618 -0.404246
    49 0.949944 0.000002 0.000000 -0.001277 -0.038560 -0.033101
    50 1.100868 0.000000 0.000000 0.001897 0.012019 -0.156562
    51 1.168865 0.000000 0.000004 0.000000 0.000000 -0.125082
    52 0.949947 0.000004 0.000000 0.001236 0.038489 -0.401834
    53 7.023272 -6.880002 4.339547 2.620672 -1.456011 -1.105365
    54 3.813801 -3.870655 0.998562 1.570796 -1.069638 0.199892
    55 0.000002 -0.000008 -0.000031 1.373047 0.113574 0.124314
    56 -0.000002 -0.000007 -0.000031 1.373047 0.113574 0.124314
    57 3.349000 -1.371002 0.724999 1.977842 -0.088017 1.557794
    58 2.856895 -1.536201 -0.973799 -1.501147 -0.272558 -1.578261
    59 0.000000 -0.000001 9.999998 0.000000 0.000000 0.000000
    60 0.018894 0.665158 9.395884 0.000000 0.000000 0.000000
    61 2.000000 -3.000000 0.000000 -1.570796 0.000000 -1.326450
    62 3.028208 -0.923409 -2.009451 1.574082 -0.012974 1.587244
    63 0.116955 4.311605 0.061860 0.000010 -0.000001 0.000000
    64 -0.000002 0.000000 0.000000 0.000000 0.000000 0.000000
    65 0.000000 1.000000 0.000010 0.000000 0.000000 0.000000
    66 0.000000 0.000000 0.000000 0.000000 0.000000 0.000000
    67 0.000000 0.000000 0.000000 0.000000 0.000000 0.000000
    68 0.000000 0.000000 0.000000 0.000000 0.000000 0.000000
time 18
    0 -2.673827 -7.016338 7.824219 0.190468 1.185029 0.507420
    1 0.000000 3.861988 -0.017122 1.583895 -0.307006 1.488162
    2 3.816021 0.000000 0.000000 -0.005226 0.026927 0.086723
    3 3.531826 0.000000 0.000000 -0.054244 -0.009184 0.217783
    4 5.444355 0.000000 0.000000 -0.128875 0.104762 0.545973
    5 3.882442 1.393292 1.432500 -1.352341 -1.228588 -0.206168
    6 5.259529 0.000000 0.000001 -2.158741 0.177756 -1.344957
    7 10.416563 0.000000 0.000004 0.000000 0.000000 -2.190196
    8 3.882442 1.393294 -1.432500 1.811527 1.381858 0.107320
    9 5.259525 0.000004 0.000001 1.253762 0.195569 -1.180460
    10 10.416565 0.000000 0.000000 0.000000 0.000000 -1.713575
    11 9.955210 -0.000003 0.000015 -1.160441 -0.024413 0.383581
    12 -3.462504 0.000000 0.000000 -1.317112 -0.606151 -1.692161
    13 5.111973 -0.000001 0.000000 -3.126786 0.005953 0.691504
    14 4.261036 0.000000 0.000000 0.032501 -0.066760 0.259150
    15 9.955227 -0.000006 -0.000027 2.732556 -0.079117 -0.075107
    16 3.462504 0.000000 0.000000 -2.101783 -0.977058 -1.129015
    17 17.520250 0.000000 0.000000 0.000000 0.000000 1.594976
    18 17.520247 0.000000 0.000000 0.000000 0.000000 1.735743
    19 15.997702 0.000000 0.000000 -0.445979 0.172009 -1.035015
    20 3.157032 0.193977 -0.522126 0.121103 0.012041 -0.821261
    21 1.725855 -0.000004 0.000000 -0.097757 -0.175234 -0.512469
    22 3.410793 0.104385 0.391149 0.171708 0.049096 -0.587763
    23 1.020031 -1.225887 -0.942158 -1.802022 0.200170 -0.546418
    24 2.862398 0.005165 -1.410984 0.007878 -0.080695 -0.862968
    25 1.442411 -0.000004 0.000000 -0.125842 -0.198682 -0.570130
    26 3.518329 -0.146660 -1.355857 -0.188140 -0.087648 -0.204768
    27 3.410807 0.105797 -0.390768 -0.302761 -0.227478 -0.659650
    28 1.020010 -1.229275 0.937716 1.847521 -0.683203 -0.463005
    29 3.157049 0.192078 0.522824 -0.301746 -0.245900 -0.601601
    30 1.725857 0.000000 0.000000 0.115619 -0.003419 -1.600477
    31 15.997698 0.000000 -0.000001 0.588439 -0.190631 -1.061824
    32 5.676029 0.000000 0.000000 -0.112051 0.023861 -0.331149
    33 5.676031 0.000000 0.000000 0.020412 -0.027730 -0.427005
    34 3.518309 -0.151562 1.355319 0.169212 0.046758 -0.609994
    35 2.862411 0.000065 1.410994 -0.217008 -0.163702 -0.341356
    36 1.442413 0.000000 0.000000 -0.022933 0.007613 -1.890993
    37 0.772266 0.000000 0.000000 0.054474 0.175340 -0.910365
    38 0.922668 -0.000004 0.000000 0.002415 0.009757 -0.242679
    39 0.772266 -0.000002 0.000000 -0.054473 -0.175380 -0.302889
    40 0.922665 -0.000001 0.000000 -0.002403 -0.009699 -0.901508
    41 1.624466 0.000004 0.000000 -0.051327 -0.064037 -0.676424
    42 2.053873 0.000000 0.000000 0.004951 -0.001033 -1.772344
    43 1.753672 -0.000001 -0.000004 -0.000004 -0.225005 -0.494029
    44 1.624472 0.000000 0.000000 0.057264 0.071571 -0.675739
    45 1.753671 -0.000002 0.000004 0.000013 -0.037568 -0.055870
    46 2.053879 0.000000 0.000000 -0.118966 -0.076516 -1.001797
    47 1.100880 0.000000 0.000000 -0.001870 -0.011971 -0.834431
    48 1.168861 0.000001 -0.000004 -0.000040 0.040618 -0.404246
    49 0.949944 0.000002 0.000000 -0.001277 -0.038560 -0.033101
    50 1.100868 0.000000 0.000000 0.001897 0.012019 -0.156562
    51 1.168865 0.000000 0.000004 0.000000 0.000000 -0.125082
    52 0.949947 0.000004 0.000000 0.001236 0.038489 -0.401834
    53 7.023272 -6.880002 4.339547 2.620672 -1.456011 -1.105365
    54 3.813801 -3.870655 0.998562 1.570796 -1.069638 0.199892
    55 0.000002 -0.000008 -0.000031 1.373047 0.113574 0.124314
    56 -0.000002 -0.000007 -0.000031 1.373047 0.113574 0.124314
    57 3.349000 -1.371002 0.724999 1.977842 -0.088017 1.557794
    58 2.856895 -1.536201 -0.973799 -1.501147 -0.272558 -1.578261
    59 0.000000 -0.000001 9.999998 0.000000 0.000000 0.000000
    60 0.018894 0.665158 9.395884 0.000000 0.000000 0.000000
    61 2.000000 -3.000000 0.000000 -1.570796 0.000000 -1.326450
    62 3.028208 -0.923409 -2.009451 1.574082 -0.012974 1.587244
    63 0.116955 4.311605 0.061860 0.000010 -0.000001 0.000000
    64 -0.000002 0.000000 0.000000 0.000000 0.000000 0.000000
    65 0.000000 1.000000 0.000010 0.000000 0.000000 0.000000
    66 0.000000 0.000000 0.000000 0.000000 0.000000 0.000000
    67 0.000000 0.000000 0.000000 0.000000 0.000000 0.000000
    68 0.000000 0.000000 0.000000 0.000000 0.000000 0.000000
time 19
    0 -2.673827 -7.015894 7.828125 0.190764 1.185072 0.507723
    1 0.000000 3.861988 -0.017122 1.584056 -0.306979 1.487546
    2 3.816021 0.000000 0.000000 -0.020239 -0.000342 0.094225
    3 3.531826 0.000000 0.000000 -0.082787 -0.035495 0.218796
    4 5.444355 0.000000 0.000000 -0.128875 0.104762 0.545973
    5 3.882442 1.393292 1.432500 -1.221425 -1.396844 -0.357149
    6 5.259529 0.000000 0.000001 -2.214194 0.062372 -1.393762
    7 10.416563 0.000000 0.000004 0.000000 0.000000 -2.140445
    8 3.882442 1.393294 -1.432500 1.811527 1.381858 0.107320
    9 5.259525 0.000004 0.000001 1.189402 0.242243 -1.201383
    10 10.416565 0.000000 0.000000 0.000000 0.000000 -1.691307
    11 9.955210 -0.000003 0.000015 -1.160441 -0.024413 0.383581
    12 -3.462504 0.000000 0.000000 -1.351169 -0.564146 -1.660512
    13 5.111973 -0.000001 0.000000 -3.126786 0.005953 0.691504
    14 4.261036 0.000000 0.000000 0.032501 -0.066760 0.259150
    15 9.955227 -0.000006 -0.000027 2.732556 -0.079117 -0.075107
    16 3.462504 0.000000 0.000000 -2.108031 -0.980680 -1.122399
    17 17.520250 0.000000 0.000000 0.000000 0.000000 1.601239
    18 17.520247 0.000000 0.000000 0.000000 0.000000 1.650917
    19 15.997702 0.000000 0.000000 -0.450808 0.174681 -1.037998
    20 3.157032 0.193977 -0.522126 0.121103 0.012041 -0.821261
    21 1.725855 -0.000004 0.000000 -0.097757 -0.175234 -0.512469
    22 3.410793 0.104385 0.391149 0.171708 0.049096 -0.587763
    23 1.020031 -1.225887 -0.942158 -1.802022 0.200170 -0.546418
    24 2.862398 0.005165 -1.410984 0.007878 -0.080695 -0.862968
    25 1.442411 -0.000004 0.000000 -0.125842 -0.198682 -0.570130
    26 3.518329 -0.146660 -1.355857 -0.188140 -0.087648 -0.204768
    27 3.410807 0.105797 -0.390768 -0.302761 -0.227478 -0.659650
    28 1.020010 -1.229275 0.937716 1.847521 -0.683203 -0.463005
    29 3.157049 0.192078 0.522824 -0.301746 -0.245900 -0.601601
    30 1.725857 0.000000 0.000000 0.115619 -0.003419 -1.600477
    31 15.997698 0.000000 -0.000001 0.611537 -0.187954 -1.028338
    32 5.676029 0.000000 0.000000 -0.112051 0.023861 -0.331149
    33 5.676031 0.000000 0.000000 0.020412 -0.027730 -0.427005
    34 3.518309 -0.151562 1.355319 0.169212 0.046758 -0.609994
    35 2.862411 0.000065 1.410994 -0.217008 -0.163702 -0.341356
    36 1.442413 0.000000 0.000000 -0.022933 0.007613 -1.890993
    37 0.772266 0.000000 0.000000 0.054474 0.175340 -0.910365
    38 0.922668 -0.000004 0.000000 0.002415 0.009757 -0.242679
    39 0.772266 -0.000002 0.000000 -0.054473 -0.175380 -0.302889
    40 0.922665 -0.000001 0.000000 -0.002403 -0.009699 -0.901508
    41 1.624466 0.000004 0.000000 -0.051327 -0.064037 -0.676424
    42 2.053873 0.000000 0.000000 0.004951 -0.001033 -1.772344
    43 1.753672 -0.000001 -0.000004 -0.000004 -0.225005 -0.494029
    44 1.624472 0.000000 0.000000 0.057264 0.071571 -0.675739
    45 1.753671 -0.000002 0.000004 0.000013 -0.037568 -0.055870
    46 2.053879 0.000000 0.000000 -0.118966 -0.076516 -1.001797
    47 1.100880 0.000000 0.000000 -0.001870 -0.011971 -0.834431
    48 1.168861 0.000001 -0.000004 -0.000040 0.040618 -0.404246
    49 0.949944 0.000002 0.000000 -0.001277 -0.038560 -0.033101
    50 1.100868 0.000000 0.000000 0.001897 0.012019 -0.156562
    51 1.168865 0.000000 0.000004 0.000000 0.000000 -0.125082
    52 0.949947 0.000004 0.000000 0.001236 0.038489 -0.401834
    53 7.023272 -6.880002 4.339547 2.620672 -1.456011 -1.105365
    54 3.813801 -3.870655 0.998562 1.570796 -1.069638 0.199892
    55 0.000002 -0.000008 -0.000031 1.373047 0.113574 0.124314
    56 -0.000002 -0.000007 -0.000031 1.373047 0.113574 0.124314
    57 3.349000 -1.371002 0.724999 1.977842 -0.088017 1.557794
    58 2.856895 -1.536201 -0.973799 -1.501147 -0.272558 -1.578261
    59 0.000000 -0.000001 9.999998 0.000000 0.000000 0.000000
    60 0.018894 0.665158 9.395884 0.000000 0.000000 0.000000
    61 2.000000 -3.000000 0.000000 -1.570796 0.000000 -1.326450
    62 3.028208 -0.923409 -2.009451 1.574082 -0.012974 1.587244
    63 0.116955 4.311605 0.061860 0.000010 -0.000001 0.000000
    64 -0.000002 0.000000 0.000000 0.000000 0.000000 0.000000
    65 0.000000 1.000000 0.000010 0.000000 0.000000 0.000000
    66 0.000000 0.000000 0.000000 0.000000 0.000000 0.000000
    67 0.000000 0.000000 0.000000 0.000000 0.000000 0.000000
    68 0.000000 0.000000 0.000000 0.000000 0.000000 0.000000
time 20
    0 -2.673827 -7.000003 7.859375 0.192759 1.184931 0.509928
    1 0.000000 3.861988 -0.017122 1.584176 -0.306965 1.487275
    2 3.816021 0.000000 0.000000 -0.032954 -0.022721 0.100488
    3 3.531826 0.000000 0.000000 -0.107202 -0.055508 0.219437
    4 5.444355 0.000000 0.000000 -0.128875 0.104762 0.545973
    5 3.882442 1.393292 1.432500 -0.392018 -1.511394 -1.203480
    6 5.259529 0.000000 0.000001 -2.247466 -0.001218 -1.375508
    7 10.416563 0.000000 0.000004 0.000000 0.000000 -2.086811
    8 3.882442 1.393294 -1.432500 1.811527 1.381858 0.107320
    9 5.259525 0.000004 0.000001 1.137336 0.275786 -1.223785
    10 10.416565 0.000000 0.000000 0.000000 0.000000 -1.678119
    11 9.955210 -0.000003 0.000015 -1.160441 -0.024413 0.383581
    12 -3.462504 0.000000 0.000000 -1.367140 -0.564997 -1.648899
    13 5.111973 -0.000001 0.000000 -3.126786 0.005953 0.691504
    14 4.261036 0.000000 0.000000 0.032501 -0.066760 0.259150
    15 9.955227 -0.000006 -0.000027 2.732556 -0.079117 -0.075107
    16 3.462504 0.000000 0.000000 -2.113973 -0.981938 -1.116567
    17 17.520250 0.000000 0.000000 0.000000 0.000000 1.604964
    18 17.520247 0.000000 0.000000 0.000000 0.000000 1.649390
    19 15.997702 0.000000 0.000000 -0.452988 0.177660 -1.040006
    20 3.157032 0.193977 -0.522126 0.121103 0.012041 -0.821261
    21 1.725855 -0.000004 0.000000 -0.097757 -0.175234 -0.512469
    22 3.410793 0.104385 0.391149 0.171708 0.049096 -0.587763
    23 1.020031 -1.225887 -0.942158 -1.802022 0.200170 -0.546418
    24 2.862398 0.005165 -1.410984 0.007878 -0.080695 -0.862968
    25 1.442411 -0.000004 0.000000 -0.125842 -0.198682 -0.570130
    26 3.518329 -0.146660 -1.355857 -0.188140 -0.087648 -0.204768
    27 3.410807 0.105797 -0.390768 -0.302761 -0.227478 -0.659650
    28 1.020010 -1.229275 0.937716 1.847521 -0.683203 -0.463005
    29 3.157049 0.192078 0.522824 -0.301746 -0.245900 -0.601601
    30 1.725857 0.000000 0.000000 0.115619 -0.003419 -1.600477
    31 15.997698 0.000000 -0.000001 0.625524 -0.184856 -1.030873
    32 5.676029 0.000000 0.000000 -0.112051 0.023861 -0.331149
    33 5.676031 0.000000 0.000000 0.020412 -0.027730 -0.427005
    34 3.518309 -0.151562 1.355319 0.169212 0.046758 -0.609994
    35 2.862411 0.000065 1.410994 -0.217008 -0.163702 -0.341356
    36 1.442413 0.000000 0.000000 -0.022933 0.007613 -1.890993
    37 0.772266 0.000000 0.000000 0.054474 0.175340 -0.910365
    38 0.922668 -0.000004 0.000000 0.002415 0.009757 -0.242679
    39 0.772266 -0.000002 0.000000 -0.054473 -0.175380 -0.302889
    40 0.922665 -0.000001 0.000000 -0.002403 -0.009699 -0.901508
    41 1.624466 0.000004 0.000000 -0.051327 -0.064037 -0.676424
    42 2.053873 0.000000 0.000000 0.004951 -0.001033 -1.772344
    43 1.753672 -0.000001 -0.000004 -0.000004 -0.225005 -0.494029
    44 1.624472 0.000000 0.000000 0.057264 0.071571 -0.675739
    45 1.753671 -0.000002 0.000004 0.000013 -0.037568 -0.055870
    46 2.053879 0.000000 0.000000 -0.118966 -0.076516 -1.001797
    47 1.100880 0.000000 0.000000 -0.001870 -0.011971 -0.834431
    48 1.168861 0.000001 -0.000004 -0.000040 0.040618 -0.404246
    49 0.949944 0.000002 0.000000 -0.001277 -0.038560 -0.033101
    50 1.100868 0.000000 0.000000 0.001897 0.012019 -0.156562
    51 1.168865 0.000000 0.000004 0.000000 0.000000 -0.125082
    52 0.949947 0.000004 0.000000 0.001236 0.038489 -0.401834
    53 7.023272 -6.880002 4.339547 2.620672 -1.456011 -1.105365
    54 3.813801 -3.870655 0.998562 1.570796 -1.069638 0.199892
    55 0.000002 -0.000008 -0.000031 1.373047 0.113574 0.124314
    56 -0.000002 -0.000007 -0.000031 1.373047 0.113574 0.124314
    57 3.349000 -1.371002 0.724999 1.977842 -0.088017 1.557794
    58 2.856895 -1.536201 -0.973799 -1.501147 -0.272558 -1.578261
    59 0.000000 -0.000001 9.999998 0.000000 0.000000 0.000000
    60 0.018894 0.665158 9.395884 0.000000 0.000000 0.000000
    61 2.000000 -3.000000 0.000000 -1.570796 0.000000 -1.326450
    62 3.028208 -0.923409 -2.009451 1.574082 -0.012974 1.587244
    63 0.116955 4.311605 0.061860 0.000010 -0.000001 0.000000
    64 -0.000002 0.000000 0.000000 0.000000 0.000000 0.000000
    65 0.000000 1.000000 0.000010 0.000000 0.000000 0.000000
    66 0.000000 0.000000 0.000000 0.000000 0.000000 0.000000
    67 0.000000 0.000000 0.000000 0.000000 0.000000 0.000000
    68 0.000000 0.000000 0.000000 0.000000 0.000000 0.000000
time 21
    0 -2.673827 -6.992102 7.878906 0.193890 1.184807 0.511195
    1 0.000000 3.861988 -0.017122 1.584197 -0.306958 1.487103
    2 3.816021 0.000000 0.000000 -0.038313 -0.032089 0.103074
    3 3.531826 0.000000 0.000000 -0.117504 -0.063516 0.219674
    4 5.444355 0.000000 0.000000 -0.128875 0.104762 0.545973
    5 3.882442 1.393292 1.432500 0.582489 -1.505514 -2.184709
    6 5.259529 0.000000 0.000001 -2.260071 -0.021771 -1.355219
    7 10.416563 0.000000 0.000004 0.000000 0.000000 -2.063052
    8 3.882442 1.393294 -1.432500 1.811527 1.381858 0.107320
    9 5.259525 0.000004 0.000001 1.115721 0.288366 -1.234165
    10 10.416565 0.000000 0.000000 0.000000 0.000000 -1.673938
    11 9.955210 -0.000003 0.000015 -1.160441 -0.024413 0.383581
    12 -3.462504 0.000000 0.000000 -1.372375 -0.564925 -1.644988
    13 5.111973 -0.000001 0.000000 -3.126786 0.005953 0.691504
    14 4.261036 0.000000 0.000000 0.032501 -0.066760 0.259150
    15 9.955227 -0.000006 -0.000027 2.732556 -0.079117 -0.075107
    16 3.462504 0.000000 0.000000 -2.116647 -0.982091 -1.114019
    17 17.520250 0.000000 0.000000 0.000000 0.000000 1.606284
    18 17.520247 0.000000 0.000000 0.000000 0.000000 1.648449
    19 15.997702 0.000000 0.000000 -0.453824 0.179152 -1.041213
    20 3.157032 0.193977 -0.522126 0.121103 0.012041 -0.821261
    21 1.725855 -0.000004 0.000000 -0.097757 -0.175234 -0.512469
    22 3.410793 0.104385 0.391149 0.171708 0.049096 -0.587763
    23 1.020031 -1.225887 -0.942158 -1.802022 0.200170 -0.546418
    24 2.862398 0.005165 -1.410984 0.007878 -0.080695 -0.862968
    25 1.442411 -0.000004 0.000000 -0.125842 -0.198682 -0.570130
    26 3.518329 -0.146660 -1.355857 -0.188140 -0.087648 -0.204768
    27 3.410807 0.105797 -0.390768 -0.302761 -0.227478 -0.659650
    28 1.020010 -1.229275 0.937716 1.847521 -0.683203 -0.463005
    29 3.157049 0.192078 0.522824 -0.301746 -0.245900 -0.601601
    30 1.725857 0.000000 0.000000 0.115619 -0.003419 -1.600477
    31 15.997698 0.000000 -0.000001 0.630024 -0.183577 -1.031621
    32 5.676029 0.000000 0.000000 -0.112051 0.023861 -0.331149
    33 5.676031 0.000000 0.000000 0.020412 -0.027730 -0.427005
    34 3.518309 -0.151562 1.355319 0.169212 0.046758 -0.609994
    35 2.862411 0.000065 1.410994 -0.217008 -0.163702 -0.341356
    36 1.442413 0.000000 0.000000 -0.022933 0.007613 -1.890993
    37 0.772266 0.000000 0.000000 0.054474 0.175340 -0.910365
    38 0.922668 -0.000004 0.000000 0.002415 0.009757 -0.242679
    39 0.772266 -0.000002 0.000000 -0.054473 -0.175380 -0.302889
    40 0.922665 -0.000001 0.000000 -0.002403 -0.009699 -0.901508
    41 1.624466 0.000004 0.000000 -0.051327 -0.064037 -0.676424
    42 2.053873 0.000000 0.000000 0.004951 -0.001033 -1.772344
    43 1.753672 -0.000001 -0.000004 -0.000004 -0.225005 -0.494029
    44 1.624472 0.000000 0.000000 0.057264 0.071571 -0.675739
    45 1.753671 -0.000002 0.000004 0.000013 -0.037568 -0.055870
    46 2.053879 0.000000 0.000000 -0.118966 -0.076516 -1.001797
    47 1.100880 0.000000 0.000000 -0.001870 -0.011971 -0.834431
    48 1.168861 0.000001 -0.000004 -0.000040 0.040618 -0.404246
    49 0.949944 0.000002 0.000000 -0.001277 -0.038560 -0.033101
    50 1.100868 0.000000 0.000000 0.001897 0.012019 -0.156562
    51 1.168865 0.000000 0.000004 0.000000 0.000000 -0.125082
    52 0.949947 0.000004 0.000000 0.001236 0.038489 -0.401834
    53 7.023272 -6.880002 4.339547 2.620672 -1.456011 -1.105365
    54 3.813801 -3.870655 0.998562 1.570796 -1.069638 0.199892
    55 0.000002 -0.000008 -0.000031 1.373047 0.113574 0.124314
    56 -0.000002 -0.000007 -0.000031 1.373047 0.113574 0.124314
    57 3.349000 -1.371002 0.724999 1.977842 -0.088017 1.557794
    58 2.856895 -1.536201 -0.973799 -1.501147 -0.272558 -1.578261
    59 0.000000 -0.000001 9.999998 0.000000 0.000000 0.000000
    60 0.018894 0.665158 9.395884 0.000000 0.000000 0.000000
    61 2.000000 -3.000000 0.000000 -1.570796 0.000000 -1.326450
    62 3.028208 -0.923409 -2.009451 1.574082 -0.012974 1.587244
    63 0.116955 4.311605 0.061860 0.000010 -0.000001 0.000000
    64 -0.000002 0.000000 0.000000 0.000000 0.000000 0.000000
    65 0.000000 1.000000 0.000010 0.000000 0.000000 0.000000
    66 0.000000 0.000000 0.000000 0.000000 0.000000 0.000000
    67 0.000000 0.000000 0.000000 0.000000 0.000000 0.000000
    68 0.000000 0.000000 0.000000 0.000000 0.000000 0.000000
end
