version 1
nodes
  0 "ValveBiped.ValveBiped" -1
  1 "ValveBiped.Bip01" 0
  2 "ValveBiped.Bip01_Spine" 1
  3 "ValveBiped.Bip01_Spine1" 2
  4 "ValveBiped.Bip01_Spine2" 3
  5 "ValveBiped.Bip01_Spine4" 4
  6 "ValveBiped.Bip01_L_Clavicle" 5
  7 "ValveBiped.Bip01_L_UpperArm" 6
  8 "ValveBiped.Bip01_L_Forearm" 7
  9 "ValveBiped.Bip01_L_Hand" 8
  10 "ValveBiped.Bip01_L_Finger4" 9
  11 "ValveBiped.Bip01_L_Finger41" 10
  12 "ValveBiped.Bip01_L_Finger42" 11
  13 "ValveBiped.Bip01_L_Finger3" 9
  14 "ValveBiped.Bip01_L_Finger31" 13
  15 "ValveBiped.Bip01_L_Finger32" 14
  16 "ValveBiped.Bip01_L_Finger2" 9
  17 "ValveBiped.Bip01_L_Finger21" 16
  18 "ValveBiped.Bip01_L_Finger22" 17
  19 "ValveBiped.Bip01_L_Finger1" 9
  20 "ValveBiped.Bip01_L_Finger11" 19
  21 "ValveBiped.Bip01_L_Finger12" 20
  22 "ValveBiped.Bip01_L_Finger0" 9
  23 "ValveBiped.Bip01_L_Finger01" 22
  24 "ValveBiped.Bip01_L_Finger02" 23
  25 "ValveBiped.Bip01_L_wrist_helper2" 9
  26 "ValveBiped.Bip01_L_thumbroot" 9
  27 "ValveBiped.Bip01_L_wrist_helper1" 9
  28 "ValveBiped.Bip01_L_Driven_ulna" 8
  29 "ValveBiped.Bip01_L_Forearm_driven" 8
  30 "ValveBiped.Bip01_R_Clavicle" 5
  31 "ValveBiped.Bip01_R_UpperArm" 30
  32 "ValveBiped.Bip01_R_Forearm" 31
  33 "ValveBiped.Bip01_R_Hand" 32
  34 "ValveBiped.Bip01_R_Finger4" 33
  35 "ValveBiped.Bip01_R_Finger41" 34
  36 "ValveBiped.Bip01_R_Finger42" 35
  37 "ValveBiped.Bip01_R_Finger3" 33
  38 "ValveBiped.Bip01_R_Finger31" 37
  39 "ValveBiped.Bip01_R_Finger32" 38
  40 "ValveBiped.Bip01_R_Finger2" 33
  41 "ValveBiped.Bip01_R_Finger21" 40
  42 "ValveBiped.Bip01_R_Finger22" 41
  43 "ValveBiped.Bip01_R_Finger1" 33
  44 "ValveBiped.Bip01_R_Finger11" 43
  45 "ValveBiped.Bip01_R_Finger12" 44
  46 "ValveBiped.Bip01_R_Finger0" 33
  47 "ValveBiped.Bip01_R_Finger01" 46
  48 "ValveBiped.Bip01_R_Finger02" 47
  49 "ValveBiped.Bip01_R_thumbroot" 33
  50 "ValveBiped.Bip01_R_wrist_helper1" 33
  51 "ValveBiped.Bip01_R_wrist_helper2" 33
  52 "ValveBiped.Bip01_R_Driven_ulna" 32
  53 "ValveBiped.Bip01_R_Forearm_driven" 32
  54 "ValveBiped.weapon_bone" 1
  55 "ValveBiped.Camera" 0
end
skeleton
time 0
    0 0.000000 0.000000 0.000000 1.570792 0.000003 -0.000003
    1 0.000000 38.317688 -0.516773 1.570796 0.004431 1.570796
    2 4.044006 -0.000010 -0.000001 0.000000 0.000000 -0.078770
    3 3.995838 0.000031 -0.000001 0.000000 0.000000 -0.171957
    4 3.698242 -0.000008 0.000000 0.000000 0.000000 -0.015834
    5 5.700886 0.000010 0.000000 0.000000 0.000000 0.495184
    6 4.065392 1.458934 1.500000 0.877506 -1.114834 -2.566261
    7 5.507359 0.000008 0.000002 -1.384891 -0.344365 -0.770834
    8 10.907394 0.000040 0.000004 0.000003 0.000001 -0.125698
    9 10.424316 -0.000063 -0.000034 1.373045 0.113579 0.124302
    10 2.997267 0.005424 -1.477490 0.204943 0.143350 -0.226725
    11 1.510389 0.000013 -0.000011 0.011399 0.016675 -0.599945
    12 0.808647 0.000001 -0.000002 -0.054474 -0.175378 -0.302887
    13 3.305792 0.203129 -0.546750 0.197883 0.103926 -0.292827
    14 1.807182 -0.000002 0.000003 -0.051968 -0.088372 -0.532551
    15 0.966145 -0.000001 0.000004 0.002416 0.009759 -0.242677
    16 3.571514 0.109322 0.409559 0.187277 0.067954 -0.258160
    17 2.150652 0.000023 -0.000022 -0.042083 -0.053962 -0.662635
    18 1.152744 -0.000007 0.000007 0.001898 0.012020 -0.156562
    19 3.684101 -0.158684 1.419160 0.180689 0.034236 -0.204087
    20 1.701017 -0.000004 0.000003 0.051328 0.064034 -0.676426
    21 0.994701 0.000001 -0.000001 0.001277 0.038569 -0.033093
    22 1.068085 -1.287201 0.981894 1.693866 -0.344555 -0.124097
    23 1.836304 0.000000 0.000019 -0.000004 -0.188139 -0.185274
    24 1.223948 -0.000012 -0.000013 0.000003 -0.040642 0.196324
    25 -0.776924 -0.827274 -0.331169 0.055851 -0.207285 1.659056
    26 0.084976 -0.692276 1.011114 -1.549320 0.370133 3.049643
    27 -0.709021 0.056320 -1.034466 -1.549319 0.370134 3.049643
    28 6.868282 -0.000037 0.000000 1.376991 0.104718 0.122169
    29 3.358410 -0.030857 0.000027 1.370404 0.104719 0.122170
    30 4.065392 1.458935 -1.500000 -0.952671 1.114834 -2.566274
    31 5.507354 0.000038 0.000030 1.443307 0.396166 -0.749680
    32 10.907406 0.000047 0.000000 0.000000 -0.000001 -0.125693
    33 10.424303 -0.000108 0.000019 -1.376663 -0.113583 0.124295
    34 2.997280 0.000082 1.477502 -0.201325 -0.143354 -0.226716
    35 1.510382 0.000008 0.000007 -0.011401 -0.016679 -0.599943
    36 0.808655 -0.000002 -0.000002 0.054471 0.175388 -0.302897
    37 3.305809 0.201157 0.547483 -0.194265 -0.103930 -0.292822
    38 1.807175 -0.000006 -0.000005 0.051968 0.088380 -0.532558
    39 0.966141 0.000005 0.000003 -0.002415 -0.009765 -0.242671
    40 3.571527 0.110809 -0.409157 -0.183661 -0.067961 -0.258148
    41 2.150663 0.000008 0.000009 0.042080 0.053983 -0.662657
    42 1.152748 0.000008 0.000010 -0.001896 -0.012025 -0.156556
    43 3.684132 -0.153545 -1.419721 -0.177070 -0.034235 -0.204085
    44 1.701008 0.000004 0.000002 -0.051327 -0.064040 -0.676422
    45 0.994698 -0.000001 -0.000001 -0.001277 -0.038549 -0.033111
    46 1.068111 -1.283646 -0.986545 -1.690053 0.344996 -0.122823
    47 1.836302 0.000002 0.000017 -0.000004 0.188101 -0.185293
    48 1.223942 0.000009 -0.000010 0.000003 0.040654 0.196345
    49 0.109880 -0.821461 -0.906648 -1.824297 0.360795 -0.305997
    50 -0.722099 0.182117 1.010612 -1.692968 0.345006 -0.122817
    51 -0.765165 -0.790058 0.433557 -3.088784 -0.344127 -1.462219
    52 6.694321 -0.000066 0.000004 -1.380766 -0.104979 0.122266
    53 3.201679 -0.000032 0.000004 -1.371890 -0.104722 0.122160
    54 8.329052 7.655493 -0.000002 0.000000 -1.570796 -1.566365
    55 0.000000 56.084797 0.000000 0.000000 0.000000 0.000000
end
