version 1
nodes
  0 "ValveBiped.ValveBiped" -1
  1 "ValveBiped.Bip01" 0
  2 "ValveBiped.Bip01_Spine" 1
  3 "ValveBiped.Bip01_Spine1" 2
  4 "ValveBiped.Bip01_Spine2" 3
  5 "ValveBiped.Bip01_Spine4" 4
  6 "ValveBiped.Bip01_L_Clavicle" 5
  7 "ValveBiped.Bip01_L_UpperArm" 6
  8 "ValveBiped.Bip01_L_Forearm" 7
  9 "ValveBiped.Bip01_L_Hand" 8
  10 "ValveBiped.Bip01_L_Finger4" 9
  11 "ValveBiped.Bip01_L_Finger41" 10
  12 "ValveBiped.Bip01_L_Finger42" 11
  13 "ValveBiped.Bip01_L_Finger3" 9
  14 "ValveBiped.Bip01_L_Finger31" 13
  15 "ValveBiped.Bip01_L_Finger32" 14
  16 "ValveBiped.Bip01_L_Finger2" 9
  17 "ValveBiped.Bip01_L_Finger21" 16
  18 "ValveBiped.Bip01_L_Finger22" 17
  19 "ValveBiped.Bip01_L_Finger1" 9
  20 "ValveBiped.Bip01_L_Finger11" 19
  21 "ValveBiped.Bip01_L_Finger12" 20
  22 "ValveBiped.Bip01_L_Finger0" 9
  23 "ValveBiped.Bip01_L_Finger01" 22
  24 "ValveBiped.Bip01_L_Finger02" 23
  25 "ValveBiped.Bip01_L_wrist_helper2" 9
  26 "ValveBiped.Bip01_L_thumbroot" 9
  27 "ValveBiped.Bip01_L_wrist_helper1" 9
  28 "ValveBiped.hlp_wrist01_L" 9
  29 "ValveBiped.hlp_thumb_fix_L" 9
  30 "ValveBiped.Bip01_L_Driven_ulna" 8
  31 "ValveBiped.Bip01_Braclet" 30
  32 "ValveBiped.Bip01_L_Forearm_driven" 8
  33 "ValveBiped.hlp_ulna02_L" 8
  34 "ValveBiped.hlp_ulna01_L" 8
  35 "ValveBiped.Bip01_R_Clavicle" 5
  36 "ValveBiped.Bip01_R_UpperArm" 35
  37 "ValveBiped.Bip01_R_Forearm" 36
  38 "ValveBiped.Bip01_R_Hand" 37
  39 "ValveBiped.Bip01_R_Finger4" 38
  40 "ValveBiped.Bip01_R_Finger41" 39
  41 "ValveBiped.Bip01_R_Finger42" 40
  42 "ValveBiped.Bip01_R_Finger3" 38
  43 "ValveBiped.Bip01_R_Finger31" 42
  44 "ValveBiped.Bip01_R_Finger32" 43
  45 "ValveBiped.Bip01_R_Finger2" 38
  46 "ValveBiped.Bip01_R_Finger21" 45
  47 "ValveBiped.Bip01_R_Finger22" 46
  48 "ValveBiped.Bip01_R_Finger1" 38
  49 "ValveBiped.Bip01_R_Finger11" 48
  50 "ValveBiped.Bip01_R_Finger12" 49
  51 "ValveBiped.Bip01_R_Finger0" 38
  52 "ValveBiped.Bip01_R_Finger01" 51
  53 "ValveBiped.Bip01_R_Finger02" 52
  54 "ValveBiped.Bip01_R_thumbroot" 38
  55 "ValveBiped.Bip01_R_wrist_helper1" 38
  56 "ValveBiped.Bip01_R_wrist_helper2" 38
  57 "ValveBiped.hlp_wrist01_R" 38
  58 "ValveBiped.Bip01_R_Driven_ulna" 37
  59 "ValveBiped.Bip01_R_Forearm_driven" 37
  60 "ValveBiped.hlp_ulna01_R" 37
  61 "ValveBiped.weapon_bone" 1
  62 "ValveBiped.attach_shell_eject" 61
  63 "ValveBiped.attach_muzzle" 61
  64 "ValveBiped.Camera" 0
  65 "ValveBiped.attach_camera" 64
end
skeleton
time 0
    0 0.000000 0.000000 0.000000 1.570792 0.000003 -0.000003
    1 0.000000 38.317692 -0.516773 1.570796 0.004437 1.570796
    2 4.044014 0.000011 0.000000 0.000000 -0.000001 -0.078753
    3 3.995842 -0.000003 -0.000002 0.000000 0.000000 -0.171976
    4 3.698235 0.000027 -0.000004 0.000000 0.000000 -0.015832
    5 5.700886 0.000050 -0.000004 0.000000 0.000003 0.495181
    6 4.065372 1.458972 1.500008 0.877488 -1.114833 -2.566233
    7 5.507339 0.000038 0.000022 -1.384891 -0.344368 -0.770843
    8 10.907394 0.000059 0.000004 0.000007 0.000001 -0.125704
    9 10.424324 0.000023 -0.000031 1.373048 0.113566 0.124323
    10 2.997284 0.005386 -1.477459 0.204946 0.143337 -0.226740
    11 1.510389 0.000015 -0.000015 0.011396 0.016678 -0.599944
    12 0.808655 0.000004 -0.000002 -0.054474 -0.175378 -0.302886
    13 3.305799 0.203087 -0.546715 0.197886 0.103921 -0.292836
    14 1.807178 -0.000006 0.000012 -0.051966 -0.088373 -0.532553
    15 0.966145 -0.000006 0.000005 0.002416 0.009746 -0.242691
    16 3.571510 0.109276 0.409595 0.187279 0.067949 -0.258166
    17 2.150658 0.000013 -0.000010 -0.042080 -0.053985 -0.662659
    18 1.152752 0.000011 -0.000014 0.001897 0.012038 -0.156541
    19 3.684095 -0.158730 1.419199 0.180689 0.034216 -0.204111
    20 1.701015 0.000017 -0.000016 0.051321 0.064033 -0.676429
    21 0.994701 0.000014 -0.000014 0.001277 0.038567 -0.033096
    22 1.068058 -1.287212 0.981909 1.693869 -0.344557 -0.124123
    23 1.836306 0.000015 -0.000002 0.000001 -0.188102 -0.185274
    24 1.223946 -0.000006 0.000023 -0.000003 -0.040654 0.196337
    25 -0.776926 -0.827263 -0.331177 0.055840 -0.207283 1.659047
    26 0.084955 -0.692274 1.011116 -1.549321 0.370156 3.049625
    27 -0.709017 0.056328 -1.034471 -1.549324 0.370136 3.049634
    28 0.000000 0.000000 -0.000001 0.000001 0.000002 -0.000002
    29 0.000000 0.000000 -0.000001 0.000001 0.000002 -0.000002
    30 6.868290 0.000021 -0.000004 1.376990 0.104726 0.122170
    31 -1.049229 -23.346693 7.357173 2.228755 1.194533 -0.998897
    32 3.358414 -0.030830 0.000031 1.370403 0.104727 0.122168
    33 9.179501 0.000054 -0.000008 -0.000010 0.000000 0.000000
    34 6.694328 0.000039 -0.000004 -0.000010 0.000000 0.000008
    35 4.065372 1.458974 -1.499992 -0.952633 1.114836 -2.566228
    36 5.507360 -0.000061 -0.000051 1.443278 0.396162 -0.749693
    37 10.907402 -0.000063 -0.000008 0.000017 0.000001 -0.125709
    38 10.424301 -0.000052 0.000015 -1.376665 -0.113571 0.124322
    39 2.997309 0.000042 1.477449 -0.201329 -0.143344 -0.226722
    40 1.510384 -0.000004 -0.000003 -0.011407 -0.016668 -0.599956
    41 0.808659 0.000003 0.000003 0.054475 0.175371 -0.302880
    42 3.305822 0.201109 0.547426 -0.194269 -0.103913 -0.292836
    43 1.807182 -0.000008 -0.000002 0.051967 0.088382 -0.532561
    44 0.966141 0.000008 0.000008 -0.002413 -0.009757 -0.242678
    45 3.571524 0.110760 -0.409216 -0.183667 -0.067949 -0.258155
    46 2.150652 0.000002 -0.000002 0.042077 0.053989 -0.662664
    47 1.152748 0.000011 0.000014 -0.001895 -0.012021 -0.156560
    48 3.684095 -0.153595 -1.419784 -0.177074 -0.034228 -0.204088
    49 1.701015 -0.000013 -0.000016 -0.051334 -0.064028 -0.676436
    50 0.994713 0.000008 0.000004 -0.001279 -0.038565 -0.033096
    51 1.068077 -1.283657 -0.986562 -1.690056 0.345009 -0.122824
    52 1.836306 0.000010 -0.000010 -0.000002 0.188097 -0.185275
    53 1.223936 -0.000003 -0.000031 0.000005 0.040659 0.196337
    54 0.109854 -0.821459 -0.906650 -1.824303 0.360813 -0.306005
    55 -0.722092 0.182123 1.010617 -1.692971 0.345012 -0.122813
    56 -0.765160 -0.790054 0.433564 -3.088795 -0.344124 -1.462210
    57 0.000006 0.000000 0.000000 -0.000002 0.000001 0.000004
    58 6.694321 -0.000032 0.000000 -1.380768 -0.104977 0.122274
    59 3.201687 -0.000014 0.000008 -1.371891 -0.104720 0.122170
    60 6.694324 -0.000032 0.000000 0.000004 0.000000 -0.000002
    61 8.329014 7.655543 -0.000002 0.000000 -1.570796 -1.566360
    62 0.000000 3.003868 1.610713 -1.570796 0.000000 1.570795
    63 -0.000001 0.099724 8.360897 0.000000 -1.570796 0.000000
    64 0.000000 56.084805 0.000000 0.000000 0.000000 0.000000
    65 0.000000 0.000000 0.000000 0.000000 -1.570796 0.000000
end
