version 1
nodes
  0 "ValveBiped.Bip01_Pelvis" -1
  1 "ValveBiped.Bip01_Spine" 0
  2 "ValveBiped.Bip01_Spine1" 1
  3 "ValveBiped.Bip01_Spine2" 2
  4 "ValveBiped.Bip01_Spine4" 3
  5 "ValveBiped.Bip01_R_Clavicle" 4
  6 "ValveBiped.Bip01_R_UpperArm" 5
  7 "ValveBiped.Bip01_R_Forearm" 6
  8 "ValveBiped.Bip01_L_Clavicle" 4
  9 "ValveBiped.Bip01_L_UpperArm" 8
  10 "ValveBiped.Bip01_L_Forearm" 9
  11 "ValveBiped.Bip01_L_Hand" 10
  12 "ValveBiped.Bip01_R_Thigh" 0
  13 "ValveBiped.Bip01_R_Hand" 7
  14 "ValveBiped.Bip01_R_Knee" 12
  15 "ValveBiped.Bip01_Neck1" 4
  16 "ValveBiped.Bip01_Head1" 15
  17 "ValveBiped.Bip01_R_Calf" 12
  18 "ValveBiped.Bip01_R_Foot" 17
  19 "ValveBiped.Bip01_R_Toe0" 18
  20 "ValveBiped.Bip01_L_Thigh" 0
  21 "ValveBiped.Bip01_L_Knee" 20
  22 "ValveBiped.Bip01_L_Calf" 20
  23 "ValveBiped.Bip01_L_Foot" 22
  24 "ValveBiped.Bip01_L_Toe0" 23
  25 "ValveBiped.Bip01_L_Finger4" 11
  26 "ValveBiped.Bip01_L_Finger41" 25
  27 "ValveBiped.Bip01_L_Finger42" 26
  28 "ValveBiped.Bip01_L_Finger3" 11
  29 "ValveBiped.Bip01_L_Finger31" 28
  30 "ValveBiped.Bip01_L_Finger32" 29
  31 "ValveBiped.Bip01_L_Finger2" 11
  32 "ValveBiped.Bip01_L_Finger21" 31
  33 "ValveBiped.Bip01_L_Finger22" 32
  34 "ValveBiped.Bip01_L_Finger1" 11
  35 "ValveBiped.Bip01_L_Finger11" 34
  36 "ValveBiped.Bip01_L_Finger12" 35
  37 "ValveBiped.Bip01_L_Finger0" 11
  38 "ValveBiped.Bip01_L_Finger01" 37
  39 "ValveBiped.Bip01_L_Finger02" 38
  40 "ValveBiped.Bip01_L_Ulna" 10
  41 "ValveBiped.Bip01_L_Wrist" 10
  42 "ValveBiped.Bip01_L_Elbow" 9
  43 "ValveBiped.Bip01_R_Finger4" 13
  44 "ValveBiped.Bip01_R_Finger41" 43
  45 "ValveBiped.Bip01_R_Finger42" 44
  46 "ValveBiped.Bip01_R_Finger3" 13
  47 "ValveBiped.Bip01_R_Finger31" 46
  48 "ValveBiped.Bip01_R_Finger32" 47
  49 "ValveBiped.Bip01_R_Finger2" 13
  50 "ValveBiped.Bip01_R_Finger21" 49
  51 "ValveBiped.Bip01_R_Finger22" 50
  52 "ValveBiped.Bip01_R_Finger1" 13
  53 "ValveBiped.Bip01_R_Finger11" 52
  54 "ValveBiped.Bip01_R_Finger12" 53
  55 "ValveBiped.Bip01_R_Finger0" 13
  56 "ValveBiped.Bip01_R_Finger01" 55
  57 "ValveBiped.Bip01_R_Finger02" 56
  58 "ValveBiped.Bip01_R_Wrist" 7
  59 "ValveBiped.Bip01_R_Ulna" 7
  60 "ValveBiped.Bip01_R_Elbow" 6
  61 "ValveBiped.attachment_bandage_legL" 22
  62 "ValveBiped.attachment_bandage_armL" 10
  63 "ValveBiped.attachment_armL_T" 10
  64 "ValveBiped.attachment_armR_T" 7
  65 "ValveBiped.L_weapon_bone" 11
  66 "ValveBiped.weapon_bone" 13
  67 "ValveBiped.weapon_bone_Clip" 66
  68 "ValveBiped.weapon_bone_extra" 66
  69 "ValveBiped.forward" 16
  70 "ValveBiped.weapon_bone_Clip2" 11
  71 "ValveBiped.weapon_bone_Clip2_Bullets" 70
  72 "ValveBiped.weapon_bolt_l" 11
  73 "ValveBiped.weapon_bone_Clip_Bullets" 67
  74 "ValveBiped.weapon_bolt" 66
  75 "ValveBiped.weapon_bolt_opposite" 66
  76 "ValveBiped.weapon_charger" 66
  77 "jiggle_earring_r" 16
  78 "jiggle_earring_l" 16
end
skeleton
time 0
    0 0.000000 0.458740 34.000000 1.570792 0.000003 -0.000003
    1 0.000000 3.591042 -0.015921 1.570796 0.083193 1.570796
    2 3.548302 0.000000 0.000000 0.000000 0.000000 -0.171967
    3 3.284046 0.000001 0.000000 0.000000 0.000000 -0.015830
    4 5.062389 -0.000001 0.000000 0.000000 0.000000 0.495179
    5 3.610073 1.295546 -1.332000 -0.952658 1.114834 -2.566258
    6 4.890536 0.000004 0.000000 1.443297 0.396161 -0.749683
    7 9.685764 0.000000 -0.000004 0.000000 0.000000 -0.125707
    8 3.610065 1.295545 1.332000 0.877508 -1.114834 -2.566259
    9 4.890535 0.000000 -0.000001 -1.384887 -0.344359 -0.770832
    10 9.685764 0.000000 0.000000 0.000000 0.000000 -0.125707
    11 9.256790 -0.000007 -0.000023 1.373047 0.113574 0.124314
    12 -3.219585 0.000000 0.000000 -1.471122 0.058055 -1.622309
    13 9.256779 -0.000004 0.000011 -1.376663 -0.113578 0.124313
    14 16.283249 0.000000 0.000000 0.000000 0.000000 0.025250
    15 4.753334 0.000000 0.000000 3.141590 -0.000001 0.250594
    16 3.962090 0.000000 0.000000 0.000000 -0.000001 0.463831
    17 16.291077 0.000000 0.000000 0.000000 0.000000 0.000000
    18 14.875347 0.000000 0.000000 0.088733 0.068757 -1.299215
    19 5.277816 0.000000 0.000001 -0.111841 0.023845 -0.336656
    20 3.219585 0.000000 0.000000 -1.670471 0.058055 -1.519283
    21 16.283253 0.000000 0.000000 0.000000 0.000000 0.025253
    22 16.291080 0.000000 0.000001 0.000000 0.000000 0.000000
    23 14.875350 0.000000 0.000000 -0.077030 -0.068757 -1.299215
    24 5.277817 0.000000 0.000000 0.020295 -0.027709 -0.336371
    25 2.660156 0.004803 -1.311523 0.204943 0.143348 -0.226720
    26 1.340820 0.000002 0.000000 0.011404 0.016672 -0.599950
    27 0.717773 -0.000003 0.000000 -0.054473 -0.175380 -0.302889
    28 2.933594 0.180298 -0.485352 0.197882 0.103918 -0.292835
    29 1.604492 0.000002 0.000000 -0.051969 -0.088374 -0.532552
    30 0.857929 0.000002 0.000000 0.002415 0.009757 -0.242679
    31 3.169922 0.097046 0.363525 0.187279 0.067955 -0.258153
    32 1.909180 0.000002 0.000000 -0.042077 -0.053977 -0.662652
    33 1.023438 0.000001 0.000000 0.001897 0.012019 -0.156562
    34 3.269531 -0.140869 1.259766 0.180687 0.034227 -0.204093
    35 1.509766 0.000000 0.000000 0.051327 0.064037 -0.676424
    36 0.883299 -0.000002 0.000000 0.001277 0.038560 -0.033101
    37 0.948242 -1.142578 0.871582 1.693865 -0.344560 -0.124114
    38 1.629883 -0.000002 0.000000 0.000001 -0.188117 -0.185283
    39 1.085938 0.000001 -0.000002 0.000000 -0.040646 0.196333
    40 4.976479 0.000000 0.000004 -0.126310 0.000000 0.000000
    41 9.952959 0.000000 0.000006 -0.238428 0.000000 0.000000
    42 9.877266 0.000000 0.000002 0.000000 0.000000 -0.161658
    43 2.660156 0.000055 1.311523 -0.201327 -0.143350 -0.226717
    44 1.340820 0.000002 0.000000 -0.011404 -0.016672 -0.599950
    45 0.717773 0.000000 0.000000 0.054473 0.175380 -0.302889
    46 2.935547 0.178589 0.486084 -0.194265 -0.103920 -0.292830
    47 1.604492 0.000000 0.000000 0.051969 0.088374 -0.532552
    48 0.857933 -0.000001 0.000000 -0.002415 -0.009757 -0.242679
    49 3.169922 0.098328 -0.363281 -0.183663 -0.067957 -0.258149
    50 1.909180 0.000000 0.000000 0.042077 0.053977 -0.662652
    51 1.023438 -0.000001 0.000000 -0.001897 -0.012019 -0.156562
    52 3.271484 -0.136353 -1.259766 -0.177071 -0.034228 -0.204088
    53 1.509766 0.000002 0.000000 -0.051327 -0.064037 -0.676425
    54 0.883297 0.000000 0.000000 -0.001277 -0.038560 -0.033101
    55 0.948242 -1.139648 -0.875977 -1.690050 0.345003 -0.122821
    56 1.629883 0.000000 -0.000002 -0.000001 0.188117 -0.185283
    57 1.085938 0.000001 0.000002 0.000000 0.040646 0.196333
    58 9.952957 -0.000001 -0.000004 0.242666 0.000000 0.000000
    59 4.976482 0.000000 -0.000002 0.128617 0.000000 0.000000
    60 9.877266 0.000000 0.000000 0.000000 0.000000 -0.161657
    61 7.023271 -6.880002 4.339546 2.620672 -1.456011 -1.105365
    62 3.813801 -3.870655 0.998562 1.570796 -1.069638 0.199892
    63 0.000000 -0.000007 -0.000031 1.373047 0.113574 0.124314
    64 0.000000 -0.000007 -0.000031 1.373047 0.113574 0.124314
    65 3.348999 -1.370998 0.725000 1.977842 -0.088017 1.557793
    66 2.856897 -1.536200 -0.973800 -1.501147 -0.272558 -1.578261
    67 0.000000 0.000000 10.000000 0.000000 0.000000 0.000000
    68 0.018898 0.665159 9.395884 0.000000 0.000000 0.000000
    69 2.000000 -3.000000 0.000000 -1.570796 0.000000 -1.326450
    70 3.028210 -0.923409 -2.009451 1.574082 -0.012974 1.587243
    71 0.116953 4.311606 0.061859 0.000010 -0.000001 0.000000
    72 0.000000 -0.000002 0.000000 0.000000 0.000000 0.000000
    73 -0.000002 1.000000 0.000009 0.000000 0.000000 0.000000
    74 0.000000 0.000000 0.000000 0.000000 0.000000 0.000000
    75 0.000000 0.000000 0.000000 0.000000 0.000000 0.000000
    76 0.000000 0.000000 0.000000 0.000000 0.000000 0.000000
    77 1.264267 1.414777 2.826357 1.558935 0.902738 -1.509383
    78 1.268272 1.371145 -2.803593 -1.550240 1.026317 1.665946
time 1
    0 0.000000 0.458740 34.000000 1.570792 0.000003 -0.000003
    1 0.000000 3.591042 -0.015921 1.570796 0.083193 1.570796
    2 3.548302 0.000000 0.000000 0.000000 0.000000 -0.171967
    3 3.284046 0.000001 0.000000 0.000000 0.000000 -0.015830
    4 5.062389 -0.000001 0.000000 0.000000 0.000000 0.495179
    5 3.610073 1.295546 -1.332000 -0.952658 1.114834 -2.566258
    6 4.890536 0.000004 0.000000 1.443297 0.396161 -0.749683
    7 9.685764 0.000000 -0.000004 0.000000 0.000000 -0.125707
    8 3.610065 1.295545 1.332000 0.877508 -1.114834 -2.566259
    9 4.890535 0.000000 -0.000001 -1.384887 -0.344359 -0.770832
    10 9.685764 0.000000 0.000000 0.000000 0.000000 -0.125707
    11 9.256790 -0.000007 -0.000023 1.373047 0.113574 0.124314
    12 -3.219585 0.000000 0.000000 -1.471122 0.058055 -1.622309
    13 9.256779 -0.000004 0.000011 -1.376663 -0.113578 0.124313
    14 16.283249 0.000000 0.000000 0.000000 0.000000 0.025250
    15 4.753334 0.000000 0.000000 3.141590 -0.000001 0.250594
    16 3.962090 0.000000 0.000000 0.000000 -0.000001 0.463831
    17 16.291077 0.000000 0.000000 0.000000 0.000000 0.000000
    18 14.875347 0.000000 0.000000 0.088733 0.068757 -1.299215
    19 5.277816 0.000000 0.000001 -0.111841 0.023845 -0.336656
    20 3.219585 0.000000 0.000000 -1.670471 0.058055 -1.519283
    21 16.283253 0.000000 0.000000 0.000000 0.000000 0.025253
    22 16.291080 0.000000 0.000001 0.000000 0.000000 0.000000
    23 14.875350 0.000000 0.000000 -0.077030 -0.068757 -1.299215
    24 5.277817 0.000000 0.000000 0.020295 -0.027709 -0.336371
    25 2.660156 0.004803 -1.311523 0.204943 0.143348 -0.226720
    26 1.340820 0.000002 0.000000 0.011404 0.016672 -0.599950
    27 0.717773 -0.000003 0.000000 -0.054473 -0.175380 -0.302889
    28 2.933594 0.180298 -0.485352 0.197882 0.103918 -0.292835
    29 1.604492 0.000002 0.000000 -0.051969 -0.088374 -0.532552
    30 0.857929 0.000002 0.000000 0.002415 0.009757 -0.242679
    31 3.169922 0.097046 0.363525 0.187279 0.067955 -0.258153
    32 1.909180 0.000002 0.000000 -0.042077 -0.053977 -0.662652
    33 1.023438 0.000001 0.000000 0.001897 0.012019 -0.156562
    34 3.269531 -0.140869 1.259766 0.180687 0.034227 -0.204093
    35 1.509766 0.000000 0.000000 0.051327 0.064037 -0.676424
    36 0.883299 -0.000002 0.000000 0.001277 0.038560 -0.033101
    37 0.948242 -1.142578 0.871582 1.693865 -0.344560 -0.124114
    38 1.629883 -0.000002 0.000000 0.000001 -0.188117 -0.185283
    39 1.085938 0.000001 -0.000002 0.000000 -0.040646 0.196333
    40 4.976479 0.000000 0.000004 -0.126310 0.000000 0.000000
    41 9.952959 0.000000 0.000006 -0.238428 0.000000 0.000000
    42 9.877266 0.000000 0.000002 0.000000 0.000000 -0.161658
    43 2.660156 0.000055 1.311523 -0.201327 -0.143350 -0.226717
    44 1.340820 0.000002 0.000000 -0.011404 -0.016672 -0.599950
    45 0.717773 0.000000 0.000000 0.054473 0.175380 -0.302889
    46 2.935547 0.178589 0.486084 -0.194265 -0.103920 -0.292830
    47 1.604492 0.000000 0.000000 0.051969 0.088374 -0.532552
    48 0.857933 -0.000001 0.000000 -0.002415 -0.009757 -0.242679
    49 3.169922 0.098328 -0.363281 -0.183663 -0.067957 -0.258149
    50 1.909180 0.000000 0.000000 0.042077 0.053977 -0.662652
    51 1.023438 -0.000001 0.000000 -0.001897 -0.012019 -0.156562
    52 3.271484 -0.136353 -1.259766 -0.177071 -0.034228 -0.204088
    53 1.509766 0.000002 0.000000 -0.051327 -0.064037 -0.676425
    54 0.883297 0.000000 0.000000 -0.001277 -0.038560 -0.033101
    55 0.948242 -1.139648 -0.875977 -1.690050 0.345003 -0.122821
    56 1.629883 0.000000 -0.000002 -0.000001 0.188117 -0.185283
    57 1.085938 0.000001 0.000002 0.000000 0.040646 0.196333
    58 9.952957 -0.000001 -0.000004 0.242666 0.000000 0.000000
    59 4.976482 0.000000 -0.000002 0.128617 0.000000 0.000000
    60 9.877266 0.000000 0.000000 0.000000 0.000000 -0.161657
    61 7.023271 -6.880002 4.339546 2.620672 -1.456011 -1.105365
    62 3.813801 -3.870655 0.998562 1.570796 -1.069638 0.199892
    63 0.000000 -0.000007 -0.000031 1.373047 0.113574 0.124314
    64 0.000000 -0.000007 -0.000031 1.373047 0.113574 0.124314
    65 3.348999 -1.370998 0.725000 1.977842 -0.088017 1.557793
    66 2.856897 -1.536200 -0.973800 -1.501147 -0.272558 -1.578261
    67 0.000000 0.000000 10.000000 0.000000 0.000000 0.000000
    68 0.018898 0.665159 9.395884 0.000000 0.000000 0.000000
    69 2.000000 -3.000000 0.000000 -1.570796 0.000000 -1.326450
    70 3.028210 -0.923409 -2.009451 1.574082 -0.012974 1.587243
    71 0.116953 4.311606 0.061859 0.000010 -0.000001 0.000000
    72 0.000000 -0.000002 0.000000 0.000000 0.000000 0.000000
    73 -0.000002 1.000000 0.000009 0.000000 0.000000 0.000000
    74 0.000000 0.000000 0.000000 0.000000 0.000000 0.000000
    75 0.000000 0.000000 0.000000 0.000000 0.000000 0.000000
    76 0.000000 0.000000 0.000000 0.000000 0.000000 0.000000
    77 1.264267 1.414777 2.826357 1.558935 0.902738 -1.509383
    78 1.268272 1.371145 -2.803593 -1.550240 1.026317 1.665946
end
