version 1
nodes
  0 "ValveBiped.Bip01_Pelvis" -1
  1 "ValveBiped.Bip01_L_Thigh" 0
  2 "ValveBiped.Bip01_L_Calf" 1
  3 "ValveBiped.Bip01_L_Foot" 2
  4 "ValveBiped.Bip01_L_Toe0" 3
  5 "ValveBiped.Bip01_R_Thigh" 0
  6 "ValveBiped.Bip01_R_Calf" 5
  7 "ValveBiped.Bip01_R_Foot" 6
  8 "ValveBiped.Bip01_R_Toe0" 7
  9 "ValveBiped.Bip01_Spine" 0
  10 "ValveBiped.Bip01_Spine1" 9
  11 "ValveBiped.Bip01_Spine2" 10
  12 "ValveBiped.Bip01_Spine4" 11
  13 "ValveBiped.Bip01_Neck1" 12
  14 "ValveBiped.Bip01_Head1" 13
  15 "ValveBiped.Bip01_L_Clavicle" 12
  16 "ValveBiped.Bip01_L_UpperArm" 15
  17 "ValveBiped.Bip01_L_Forearm" 16
  18 "ValveBiped.Bip01_L_Hand" 17
  19 "ValveBiped.Bip01_L_Finger4" 18
  20 "ValveBiped.Bip01_L_Finger41" 19
  21 "ValveBiped.Bip01_L_Finger42" 20
  22 "ValveBiped.Bip01_L_Finger3" 18
  23 "ValveBiped.Bip01_L_Finger31" 22
  24 "ValveBiped.Bip01_L_Finger32" 23
  25 "ValveBiped.Bip01_L_Finger2" 18
  26 "ValveBiped.Bip01_L_Finger21" 25
  27 "ValveBiped.Bip01_L_Finger22" 26
  28 "ValveBiped.Bip01_L_Finger1" 18
  29 "ValveBiped.Bip01_L_Finger11" 28
  30 "ValveBiped.Bip01_L_Finger12" 29
  31 "ValveBiped.Bip01_L_Finger0" 18
  32 "ValveBiped.Bip01_L_Finger01" 31
  33 "ValveBiped.Bip01_L_Finger02" 32
  34 "ValveBiped.Bip01_R_Clavicle" 12
  35 "ValveBiped.Bip01_R_UpperArm" 34
  36 "ValveBiped.Bip01_R_Forearm" 35
  37 "ValveBiped.Bip01_R_Hand" 36
  38 "ValveBiped.Bip01_R_Finger4" 37
  39 "ValveBiped.Bip01_R_Finger41" 38
  40 "ValveBiped.Bip01_R_Finger42" 39
  41 "ValveBiped.Bip01_R_Finger3" 37
  42 "ValveBiped.Bip01_R_Finger31" 41
  43 "ValveBiped.Bip01_R_Finger32" 42
  44 "ValveBiped.Bip01_R_Finger2" 37
  45 "ValveBiped.Bip01_R_Finger21" 44
  46 "ValveBiped.Bip01_R_Finger22" 45
  47 "ValveBiped.Bip01_R_Finger1" 37
  48 "ValveBiped.Bip01_R_Finger11" 47
  49 "ValveBiped.Bip01_R_Finger12" 48
  50 "ValveBiped.Bip01_R_Finger0" 37
  51 "ValveBiped.Bip01_R_Finger01" 50
  52 "ValveBiped.Bip01_R_Finger02" 51
  53 "ValveBiped.attachment_bandage_armL" 17
  54 "ValveBiped.attachment_bandage_legL" 2
  55 "ValveBiped.attachment_armL_T" 17
  56 "ValveBiped.attachment_armR_T" 36
  57 "ValveBiped.L_weapon_bone" 18
  58 "ValveBiped.weapon_bone" 37
  59 "ValveBiped.weapon_bone_Clip" 58
  60 "ValveBiped.weapon_bone_extra" 58
  61 "ValveBiped.forward" 14
  62 "ValveBiped.weapon_bone_Clip2" 18
  63 "ValveBiped.weapon_bone_Clip2_Bullets" 62
  64 "ValveBiped.weapon_bolt_l" 18
  65 "ValveBiped.weapon_bone_Clip_Bullets" 59
  66 "ValveBiped.weapon_bolt" 58
  67 "ValveBiped.weapon_bolt_opposite" 58
  68 "ValveBiped.weapon_charger" 58
end
skeleton
time 0
    0 -2.798828 10.679688 8.250000 0.193890 1.184807 0.511195
    1 3.625659 0.000000 0.000000 -2.116647 -0.982091 -1.114019
    2 18.345819 0.000000 0.000000 0.000000 0.000000 1.606284
    3 16.751528 0.000000 0.000000 -0.453824 0.179152 -1.041213
    4 5.943489 0.000000 0.000000 0.020412 -0.027730 -0.427005
    5 -3.625659 0.000000 0.000000 -1.372375 -0.564925 -1.644988
    6 18.345812 0.000000 0.000000 0.000000 0.000000 1.648449
    7 16.751524 0.000000 0.000000 0.630024 -0.183577 -1.031621
    8 5.943490 0.000000 0.000000 -0.112051 0.023861 -0.331149
    9 0.000000 4.043964 -0.017929 1.584197 -0.306958 1.487103
    10 3.995838 0.000000 0.000000 -0.038313 -0.032089 0.103074
    11 3.698242 -0.000001 0.000000 -0.117504 -0.063516 0.219674
    12 5.700890 0.000000 0.000000 -0.128875 0.104762 0.545973
    13 5.352852 -0.000001 0.000000 -3.126786 0.005953 0.691504
    14 4.461819 0.000000 0.000000 0.032501 -0.066760 0.259150
    15 4.065388 1.458945 1.500000 0.582489 -1.505514 -2.184709
    16 5.507357 0.000004 -0.000001 -2.260071 -0.021771 -1.355219
    17 10.907398 0.000000 0.000000 0.000000 0.000000 -2.063052
    18 10.424324 -0.000008 -0.000027 2.732556 -0.079117 -0.075107
    19 2.997274 0.005409 -1.477472 0.007878 -0.080695 -0.862968
    20 1.510382 0.000000 0.000000 -0.125842 -0.198682 -0.570130
    21 0.808655 0.000002 0.000000 -0.054473 -0.175380 -0.302889
    22 3.305792 0.203112 -0.546730 0.121103 0.012041 -0.821261
    23 1.807182 0.000002 0.000000 -0.097757 -0.175234 -0.512469
    24 0.966137 0.000001 0.000000 0.002415 0.009757 -0.242679
    25 3.571512 0.109303 0.409580 0.171708 0.049096 -0.587763
    26 2.150654 -0.000002 0.000000 -0.118966 -0.076516 -1.001797
    27 1.152748 0.000000 0.000000 0.001897 0.012019 -0.156562
    28 3.684092 -0.158705 1.419183 0.169212 0.046758 -0.609994
    29 1.701014 -0.000002 0.000000 0.057264 0.071571 -0.675739
    30 0.994705 0.000002 0.000000 0.001236 0.038489 -0.401834
    31 1.068069 -1.287201 0.981905 1.847521 -0.683203 -0.463005
    32 1.836304 -0.000002 -0.000004 0.000013 -0.037568 -0.055870
    33 1.223948 -0.000001 0.000000 0.000000 0.000000 -0.125082
    34 4.065392 1.458946 -1.500000 1.811527 1.381858 0.107320
    35 5.507360 0.000008 -0.000001 1.115721 0.288366 -1.234165
    36 10.907398 0.000000 0.000004 0.000000 0.000000 -1.673938
    37 10.424301 -0.000005 0.000019 -1.160441 -0.024413 0.383581
    38 2.997293 0.000065 1.477481 -0.217008 -0.163702 -0.341356
    39 1.510378 -0.000004 0.000000 -0.022933 0.007613 -1.890993
    40 0.808655 0.000000 0.000000 0.054474 0.175340 -0.910365
    41 3.305817 0.201134 0.547461 -0.301746 -0.245900 -0.601601
    42 1.807175 0.000000 0.000000 0.115619 -0.003419 -1.600477
    43 0.966141 -0.000001 0.000000 -0.002403 -0.009699 -0.901508
    44 3.571524 0.110786 -0.409182 -0.302761 -0.227478 -0.659650
    45 2.150656 0.000000 0.000000 0.004951 -0.001033 -1.772344
    46 1.152752 0.000000 0.000000 -0.001870 -0.011971 -0.834431
    47 3.684113 -0.153563 -1.419748 -0.188140 -0.087648 -0.204768
    48 1.701017 0.000002 0.000000 -0.051327 -0.064037 -0.676424
    49 0.994705 0.000001 0.000000 -0.001277 -0.038560 -0.033101
    50 1.068094 -1.283653 -0.986553 -1.802022 0.200170 -0.546418
    51 1.836306 -0.000002 0.000000 -0.000004 -0.225005 -0.494029
    52 1.223946 0.000000 0.000002 -0.000040 0.040618 -0.404246
    53 0.000004 -0.000007 -0.000031 1.373047 0.113574 0.124314
    54 0.000000 0.000000 0.000000 -0.077030 -0.068757 -1.299215
    55 0.000004 -0.000007 -0.000031 1.373047 0.113574 0.124314
    56 0.000000 -0.000007 -0.000031 1.373047 0.113574 0.124314
    57 2.856897 -1.536201 -0.973800 -1.501147 -0.272558 -1.578261
    58 2.856895 -1.536198 -0.973800 -1.501147 -0.272558 -1.578261
    59 0.000000 0.000000 10.000000 0.000000 0.000000 0.000000
    60 0.018898 0.665159 9.395884 0.000000 0.000000 0.000000
    61 2.000008 -3.000000 0.000000 -1.570796 0.000000 -1.326450
    62 3.028210 -0.923409 -2.009452 1.574082 -0.012974 1.587244
    63 0.116955 4.311607 0.061861 0.000010 0.000000 0.000000
    64 0.000000 0.000000 0.000001 0.000000 0.000000 0.000000
    65 0.000000 1.000000 0.000008 0.000000 0.000000 0.000000
    66 0.000000 0.000000 0.000002 0.000000 0.000000 0.000000
    67 0.000000 0.000000 0.000002 0.000000 0.000000 0.000000
    68 0.000000 0.000000 0.000002 0.000000 0.000000 0.000000
time 1
    0 -2.798828 9.584595 8.312500 0.189753 1.189469 0.507713
    1 3.625659 0.000000 0.000000 -2.139501 -1.034701 -1.066291
    2 18.345819 0.000000 0.000000 0.000000 0.000000 1.675216
    3 16.751528 0.000000 0.000000 -0.467195 0.183811 -1.054158
    4 5.943489 0.000000 0.000000 0.020412 -0.027730 -0.427005
    5 -3.625659 0.000000 0.000000 -1.341370 -0.598207 -1.654753
    6 18.345812 0.000000 0.000000 0.000000 0.000000 1.727355
    7 16.751524 0.000000 0.000000 0.612858 -0.171218 -1.072034
    8 5.943490 0.000000 0.000000 -0.112051 0.023861 -0.331149
    9 0.000000 4.043964 -0.017929 1.583655 -0.306961 1.488780
    10 3.995838 0.000000 0.000000 -0.029224 -0.026939 0.102841
    11 3.698242 -0.000001 0.000000 -0.118540 -0.058216 0.219034
    12 5.700890 0.000000 0.000000 -0.128875 0.104762 0.545973
    13 5.352852 -0.000001 0.000000 -3.126786 0.005953 0.691504
    14 4.461819 0.000000 0.000000 0.032501 -0.066760 0.259150
    15 4.065388 1.458945 1.500000 -0.820370 -1.487023 -0.772260
    16 5.507357 0.000004 -0.000001 -2.258153 0.046685 -1.421173
    17 10.907398 0.000000 0.000000 0.000000 0.000000 -2.118435
    18 10.424324 -0.000008 -0.000027 2.732556 -0.079117 -0.075107
    19 2.997274 0.005409 -1.477472 0.007878 -0.080695 -0.862968
    20 1.510382 0.000000 0.000000 -0.125842 -0.198682 -0.570130
    21 0.808655 0.000002 0.000000 -0.054473 -0.175380 -0.302889
    22 3.305792 0.203112 -0.546730 0.121103 0.012041 -0.821261
    23 1.807182 0.000002 0.000000 -0.097757 -0.175234 -0.512469
    24 0.966137 0.000001 0.000000 0.002415 0.009757 -0.242679
    25 3.571512 0.109303 0.409580 0.171708 0.049096 -0.587763
    26 2.150654 -0.000002 0.000000 -0.118966 -0.076516 -1.001797
    27 1.152748 0.000000 0.000000 0.001897 0.012019 -0.156562
    28 3.684092 -0.158705 1.419183 0.169212 0.046758 -0.609994
    29 1.701014 -0.000002 0.000000 0.057264 0.071571 -0.675739
    30 0.994705 0.000002 0.000000 0.001236 0.038489 -0.401834
    31 1.068069 -1.287201 0.981905 1.847521 -0.683203 -0.463005
    32 1.836304 -0.000002 -0.000004 0.000013 -0.037568 -0.055870
    33 1.223948 -0.000001 0.000000 0.000000 0.000000 -0.125082
    34 4.065392 1.458946 -1.500000 1.811527 1.381858 0.107320
    35 5.507360 0.000008 -0.000001 1.129948 0.271726 -1.239710
    36 10.907398 0.000000 0.000004 0.000000 0.000000 -1.687728
    37 10.424301 -0.000005 0.000019 -1.160441 -0.024413 0.383581
    38 2.997293 0.000065 1.477481 -0.217008 -0.163702 -0.341356
    39 1.510378 -0.000004 0.000000 -0.022933 0.007613 -1.890993
    40 0.808655 0.000000 0.000000 0.054474 0.175340 -0.910365
    41 3.305817 0.201134 0.547461 -0.301746 -0.245900 -0.601601
    42 1.807175 0.000000 0.000000 0.115619 -0.003419 -1.600477
    43 0.966141 -0.000001 0.000000 -0.002403 -0.009699 -0.901508
    44 3.571524 0.110786 -0.409182 -0.302761 -0.227478 -0.659650
    45 2.150656 0.000000 0.000000 0.004951 -0.001033 -1.772344
    46 1.152752 0.000000 0.000000 -0.001870 -0.011971 -0.834431
    47 3.684113 -0.153563 -1.419748 -0.188140 -0.087648 -0.204768
    48 1.701017 0.000002 0.000000 -0.051327 -0.064037 -0.676424
    49 0.994705 0.000001 0.000000 -0.001277 -0.038560 -0.033101
    50 1.068094 -1.283653 -0.986553 -1.802022 0.200170 -0.546418
    51 1.836306 -0.000002 0.000000 -0.000004 -0.225005 -0.494029
    52 1.223946 0.000000 0.000002 -0.000040 0.040618 -0.404246
    53 0.000004 -0.000007 -0.000031 1.373047 0.113574 0.124314
    54 0.000000 0.000000 0.000000 -0.077030 -0.068757 -1.299215
    55 0.000004 -0.000007 -0.000031 1.373047 0.113574 0.124314
    56 0.000000 -0.000007 -0.000031 1.373047 0.113574 0.124314
    57 2.856897 -1.536201 -0.973800 -1.501147 -0.272558 -1.578261
    58 2.856895 -1.536198 -0.973800 -1.501147 -0.272558 -1.578261
    59 0.000000 0.000000 10.000000 0.000000 0.000000 0.000000
    60 0.018898 0.665159 9.395884 0.000000 0.000000 0.000000
    61 2.000008 -3.000000 0.000000 -1.570796 0.000000 -1.326450
    62 3.028210 -0.923409 -2.009452 1.574082 -0.012974 1.587244
    63 0.116955 4.311607 0.061861 0.000010 0.000000 0.000000
    64 0.000000 0.000000 0.000001 0.000000 0.000000 0.000000
    65 0.000000 1.000000 0.000008 0.000000 0.000000 0.000000
    66 0.000000 0.000000 0.000002 0.000000 0.000000 0.000000
    67 0.000000 0.000000 0.000002 0.000000 0.000000 0.000000
    68 0.000000 0.000000 0.000002 0.000000 0.000000 0.000000
time 2
    0 -2.798828 8.313310 8.523438 0.179235 1.201556 0.499008
    1 3.625659 0.000000 0.000000 -2.127297 -1.103048 -1.030171
    2 18.345819 0.000000 0.000000 0.000000 0.000000 1.750294
    3 16.751528 0.000000 0.000000 -0.503134 0.193224 -1.068125
    4 5.943489 0.000000 0.000000 0.020412 -0.027730 -0.427005
    5 -3.625659 0.000000 0.000000 -1.252161 -0.619687 -1.695851
    6 18.345812 0.000000 0.000000 0.000000 0.000000 1.811705
    7 16.751524 0.000000 0.000000 0.555247 -0.156349 -1.114239
    8 5.943490 0.000000 0.000000 -0.112051 0.023861 -0.331149
    9 0.000000 4.043964 -0.017929 1.582362 -0.306998 1.493101
    10 3.995838 0.000000 0.000000 -0.005634 -0.013801 0.102383
    11 3.698242 -0.000001 0.000000 -0.121345 -0.043995 0.217360
    12 5.700890 0.000000 0.000000 -0.128875 0.104762 0.545973
    13 5.352852 -0.000001 0.000000 -3.126786 0.005953 0.691504
    14 4.461819 0.000000 0.000000 0.032501 -0.066760 0.259150
    15 4.065388 1.458945 1.500000 -1.343298 -1.279248 -0.225817
    16 5.507357 0.000004 -0.000001 -2.238031 0.129433 -1.611705
    17 10.907398 0.000000 0.000000 0.000000 0.000000 -2.116058
    18 10.424324 -0.000008 -0.000027 2.732556 -0.079117 -0.075107
    19 2.997274 0.005409 -1.477472 0.007878 -0.080695 -0.862968
    20 1.510382 0.000000 0.000000 -0.125842 -0.198682 -0.570130
    21 0.808655 0.000002 0.000000 -0.054473 -0.175380 -0.302889
    22 3.305792 0.203112 -0.546730 0.121103 0.012041 -0.821261
    23 1.807182 0.000002 0.000000 -0.097757 -0.175234 -0.512469
    24 0.966137 0.000001 0.000000 0.002415 0.009757 -0.242679
    25 3.571512 0.109303 0.409580 0.171708 0.049096 -0.587763
    26 2.150654 -0.000002 0.000000 -0.118966 -0.076516 -1.001797
    27 1.152748 0.000000 0.000000 0.001897 0.012019 -0.156562
    28 3.684092 -0.158705 1.419183 0.169212 0.046758 -0.609994
    29 1.701014 -0.000002 0.000000 0.057264 0.071571 -0.675739
    30 0.994705 0.000002 0.000000 0.001236 0.038489 -0.401834
    31 1.068069 -1.287201 0.981905 1.847521 -0.683203 -0.463005
    32 1.836304 -0.000002 -0.000004 0.000013 -0.037568 -0.055870
    33 1.223948 -0.000001 0.000000 0.000000 0.000000 -0.125082
    34 4.065392 1.458946 -1.500000 1.811527 1.381858 0.107320
    35 5.507360 0.000008 -0.000001 1.168431 0.228333 -1.257871
    36 10.907398 0.000000 0.000004 0.000000 0.000000 -1.723832
    37 10.424301 -0.000005 0.000019 -1.160441 -0.024413 0.383581
    38 2.997293 0.000065 1.477481 -0.217008 -0.163702 -0.341356
    39 1.510378 -0.000004 0.000000 -0.022933 0.007613 -1.890993
    40 0.808655 0.000000 0.000000 0.054474 0.175340 -0.910365
    41 3.305817 0.201134 0.547461 -0.301746 -0.245900 -0.601601
    42 1.807175 0.000000 0.000000 0.115619 -0.003419 -1.600477
    43 0.966141 -0.000001 0.000000 -0.002403 -0.009699 -0.901508
    44 3.571524 0.110786 -0.409182 -0.302761 -0.227478 -0.659650
    45 2.150656 0.000000 0.000000 0.004951 -0.001033 -1.772344
    46 1.152752 0.000000 0.000000 -0.001870 -0.011971 -0.834431
    47 3.684113 -0.153563 -1.419748 -0.188140 -0.087648 -0.204768
    48 1.701017 0.000002 0.000000 -0.051327 -0.064037 -0.676424
    49 0.994705 0.000001 0.000000 -0.001277 -0.038560 -0.033101
    50 1.068094 -1.283653 -0.986553 -1.802022 0.200170 -0.546418
    51 1.836306 -0.000002 0.000000 -0.000004 -0.225005 -0.494029
    52 1.223946 0.000000 0.000002 -0.000040 0.040618 -0.404246
    53 0.000004 -0.000007 -0.000031 1.373047 0.113574 0.124314
    54 0.000000 0.000000 0.000000 -0.077030 -0.068757 -1.299215
    55 0.000004 -0.000007 -0.000031 1.373047 0.113574 0.124314
    56 0.000000 -0.000007 -0.000031 1.373047 0.113574 0.124314
    57 2.856897 -1.536201 -0.973800 -1.501147 -0.272558 -1.578261
    58 2.856895 -1.536198 -0.973800 -1.501147 -0.272558 -1.578261
    59 0.000000 0.000000 10.000000 0.000000 0.000000 0.000000
    60 0.018898 0.665159 9.395884 0.000000 0.000000 0.000000
    61 2.000008 -3.000000 0.000000 -1.570796 0.000000 -1.326450
    62 3.028210 -0.923409 -2.009452 1.574082 -0.012974 1.587244
    63 0.116955 4.311607 0.061861 0.000010 0.000000 0.000000
    64 0.000000 0.000000 0.000001 0.000000 0.000000 0.000000
    65 0.000000 1.000000 0.000008 0.000000 0.000000 0.000000
    66 0.000000 0.000000 0.000002 0.000000 0.000000 0.000000
    67 0.000000 0.000000 0.000002 0.000000 0.000000 0.000000
    68 0.000000 0.000000 0.000002 0.000000 0.000000 0.000000
time 3
    0 -2.798828 7.014271 8.859375 0.164244 1.217884 0.486702
    1 3.625659 0.000000 0.000000 -2.096373 -1.174748 -1.000390
    2 18.345819 0.000000 0.000000 0.000000 0.000000 1.821559
    3 16.751528 0.000000 0.000000 -0.547796 0.211809 -1.079476
    4 5.943489 0.000000 0.000000 0.020412 -0.027730 -0.427005
    5 -3.625659 0.000000 0.000000 -1.134422 -0.623099 -1.749689
    6 18.345812 0.000000 0.000000 0.000000 0.000000 1.891117
    7 16.751524 0.000000 0.000000 0.478595 -0.136505 -1.158752
    8 5.943490 0.000000 0.000000 -0.112051 0.023861 -0.331149
    9 0.000000 4.043964 -0.017929 1.580611 -0.307085 1.498941
    10 3.995838 0.000000 0.000000 0.026414 0.004357 0.101975
    11 3.698242 -0.000001 0.000000 -0.125424 -0.023004 0.214729
    12 5.700890 0.000000 0.000000 -0.128875 0.104762 0.545973
    13 5.352852 -0.000001 0.000000 -3.126786 0.005953 0.691504
    14 4.461819 0.000000 0.000000 0.032501 -0.066760 0.259150
    15 4.065388 1.458945 1.500000 -1.412240 -1.033538 -0.128862
    16 5.507357 0.000004 -0.000001 -2.201702 0.202300 -1.785132
    17 10.907398 0.000000 0.000000 0.000000 0.000000 -2.062951
    18 10.424324 -0.000008 -0.000027 2.732556 -0.079117 -0.075107
    19 2.997274 0.005409 -1.477472 0.007878 -0.080695 -0.862968
    20 1.510382 0.000000 0.000000 -0.125842 -0.198682 -0.570130
    21 0.808655 0.000002 0.000000 -0.054473 -0.175380 -0.302889
    22 3.305792 0.203112 -0.546730 0.121103 0.012041 -0.821261
    23 1.807182 0.000002 0.000000 -0.097757 -0.175234 -0.512469
    24 0.966137 0.000001 0.000000 0.002415 0.009757 -0.242679
    25 3.571512 0.109303 0.409580 0.171708 0.049096 -0.587763
    26 2.150654 -0.000002 0.000000 -0.118966 -0.076516 -1.001797
    27 1.152748 0.000000 0.000000 0.001897 0.012019 -0.156562
    28 3.684092 -0.158705 1.419183 0.169212 0.046758 -0.609994
    29 1.701014 -0.000002 0.000000 0.057264 0.071571 -0.675739
    30 0.994705 0.000002 0.000000 0.001236 0.038489 -0.401834
    31 1.068069 -1.287201 0.981905 1.847521 -0.683203 -0.463005
    32 1.836304 -0.000002 -0.000004 0.000013 -0.037568 -0.055870
    33 1.223948 -0.000001 0.000000 0.000000 0.000000 -0.125082
    34 4.065392 1.458946 -1.500000 1.811527 1.381858 0.107320
    35 5.507360 0.000008 -0.000001 1.226146 0.168257 -1.292670
    36 10.907398 0.000000 0.000004 0.000000 0.000000 -1.774686
    37 10.424301 -0.000005 0.000019 -1.160441 -0.024413 0.383581
    38 2.997293 0.000065 1.477481 -0.217008 -0.163702 -0.341356
    39 1.510378 -0.000004 0.000000 -0.022933 0.007613 -1.890993
    40 0.808655 0.000000 0.000000 0.054474 0.175340 -0.910365
    41 3.305817 0.201134 0.547461 -0.301746 -0.245900 -0.601601
    42 1.807175 0.000000 0.000000 0.115619 -0.003419 -1.600477
    43 0.966141 -0.000001 0.000000 -0.002403 -0.009699 -0.901508
    44 3.571524 0.110786 -0.409182 -0.302761 -0.227478 -0.659650
    45 2.150656 0.000000 0.000000 0.004951 -0.001033 -1.772344
    46 1.152752 0.000000 0.000000 -0.001870 -0.011971 -0.834431
    47 3.684113 -0.153563 -1.419748 -0.188140 -0.087648 -0.204768
    48 1.701017 0.000002 0.000000 -0.051327 -0.064037 -0.676424
    49 0.994705 0.000001 0.000000 -0.001277 -0.038560 -0.033101
    50 1.068094 -1.283653 -0.986553 -1.802022 0.200170 -0.546418
    51 1.836306 -0.000002 0.000000 -0.000004 -0.225005 -0.494029
    52 1.223946 0.000000 0.000002 -0.000040 0.040618 -0.404246
    53 0.000004 -0.000007 -0.000031 1.373047 0.113574 0.124314
    54 0.000000 0.000000 0.000000 -0.077030 -0.068757 -1.299215
    55 0.000004 -0.000007 -0.000031 1.373047 0.113574 0.124314
    56 0.000000 -0.000007 -0.000031 1.373047 0.113574 0.124314
    57 2.856897 -1.536201 -0.973800 -1.501147 -0.272558 -1.578261
    58 2.856895 -1.536198 -0.973800 -1.501147 -0.272558 -1.578261
    59 0.000000 0.000000 10.000000 0.000000 0.000000 0.000000
    60 0.018898 0.665159 9.395884 0.000000 0.000000 0.000000
    61 2.000008 -3.000000 0.000000 -1.570796 0.000000 -1.326450
    62 3.028210 -0.923409 -2.009452 1.574082 -0.012974 1.587244
    63 0.116955 4.311607 0.061861 0.000010 0.000000 0.000000
    64 0.000000 0.000000 0.000001 0.000000 0.000000 0.000000
    65 0.000000 1.000000 0.000008 0.000000 0.000000 0.000000
    66 0.000000 0.000000 0.000002 0.000000 0.000000 0.000000
    67 0.000000 0.000000 0.000002 0.000000 0.000000 0.000000
    68 0.000000 0.000000 0.000002 0.000000 0.000000 0.000000
time 4
    0 -2.798828 5.718727 9.343750 0.147167 1.235698 0.472766
    1 3.625659 0.000000 0.000000 -2.074421 -1.242216 -0.957103
    2 18.345819 0.000000 0.000000 0.000000 0.000000 1.886855
    3 16.751528 0.000000 0.000000 -0.588711 0.242242 -1.086838
    4 5.943489 0.000000 0.000000 0.020412 -0.027730 -0.427005
    5 -3.625659 0.000000 0.000000 -1.017400 -0.611464 -1.794215
    6 18.345812 0.000000 0.000000 0.000000 0.000000 1.963750
    7 16.751524 0.000000 0.000000 0.402355 -0.109366 -1.210223
    8 5.943490 0.000000 0.000000 -0.112051 0.023861 -0.331149
    9 0.000000 4.043964 -0.017929 1.578699 -0.307167 1.505244
    10 3.995838 0.000000 0.000000 0.061422 0.024550 0.101594
    11 3.698242 -0.000001 0.000000 -0.130395 0.002458 0.211404
    12 5.700890 0.000000 0.000000 -0.128875 0.104762 0.545973
    13 5.352852 -0.000001 0.000000 -3.126786 0.005953 0.691504
    14 4.461819 0.000000 0.000000 0.032501 -0.066760 0.259150
    15 4.065388 1.458945 1.500000 -1.396893 -0.860066 -0.126268
    16 5.507357 0.000004 -0.000001 -2.136063 0.250795 -1.840283
    17 10.907398 0.000000 0.000000 0.000000 0.000000 -2.000997
    18 10.424324 -0.000008 -0.000027 2.732556 -0.079117 -0.075107
    19 2.997274 0.005409 -1.477472 0.007878 -0.080695 -0.862968
    20 1.510382 0.000000 0.000000 -0.125842 -0.198682 -0.570130
    21 0.808655 0.000002 0.000000 -0.054473 -0.175380 -0.302889
    22 3.305792 0.203112 -0.546730 0.121103 0.012041 -0.821261
    23 1.807182 0.000002 0.000000 -0.097757 -0.175234 -0.512469
    24 0.966137 0.000001 0.000000 0.002415 0.009757 -0.242679
    25 3.571512 0.109303 0.409580 0.171708 0.049096 -0.587763
    26 2.150654 -0.000002 0.000000 -0.118966 -0.076516 -1.001797
    27 1.152748 0.000000 0.000000 0.001897 0.012019 -0.156562
    28 3.684092 -0.158705 1.419183 0.169212 0.046758 -0.609994
    29 1.701014 -0.000002 0.000000 0.057264 0.071571 -0.675739
    30 0.994705 0.000002 0.000000 0.001236 0.038489 -0.401834
    31 1.068069 -1.287201 0.981905 1.847521 -0.683203 -0.463005
    32 1.836304 -0.000002 -0.000004 0.000013 -0.037568 -0.055870
    33 1.223948 -0.000001 0.000000 0.000000 0.000000 -0.125082
    34 4.065392 1.458946 -1.500000 1.811527 1.381858 0.107320
    35 5.507360 0.000008 -0.000001 1.298999 0.102506 -1.347840
    36 10.907398 0.000000 0.000004 0.000000 0.000000 -1.832681
    37 10.424301 -0.000005 0.000019 -1.160441 -0.024413 0.383581
    38 2.997293 0.000065 1.477481 -0.217008 -0.163702 -0.341356
    39 1.510378 -0.000004 0.000000 -0.022933 0.007613 -1.890993
    40 0.808655 0.000000 0.000000 0.054474 0.175340 -0.910365
    41 3.305817 0.201134 0.547461 -0.301746 -0.245900 -0.601601
    42 1.807175 0.000000 0.000000 0.115619 -0.003419 -1.600477
    43 0.966141 -0.000001 0.000000 -0.002403 -0.009699 -0.901508
    44 3.571524 0.110786 -0.409182 -0.302761 -0.227478 -0.659650
    45 2.150656 0.000000 0.000000 0.004951 -0.001033 -1.772344
    46 1.152752 0.000000 0.000000 -0.001870 -0.011971 -0.834431
    47 3.684113 -0.153563 -1.419748 -0.188140 -0.087648 -0.204768
    48 1.701017 0.000002 0.000000 -0.051327 -0.064037 -0.676424
    49 0.994705 0.000001 0.000000 -0.001277 -0.038560 -0.033101
    50 1.068094 -1.283653 -0.986553 -1.802022 0.200170 -0.546418
    51 1.836306 -0.000002 0.000000 -0.000004 -0.225005 -0.494029
    52 1.223946 0.000000 0.000002 -0.000040 0.040618 -0.404246
    53 0.000004 -0.000007 -0.000031 1.373047 0.113574 0.124314
    54 0.000000 0.000000 0.000000 -0.077030 -0.068757 -1.299215
    55 0.000004 -0.000007 -0.000031 1.373047 0.113574 0.124314
    56 0.000000 -0.000007 -0.000031 1.373047 0.113574 0.124314
    57 2.856897 -1.536201 -0.973800 -1.501147 -0.272558 -1.578261
    58 2.856895 -1.536198 -0.973800 -1.501147 -0.272558 -1.578261
    59 0.000000 0.000000 10.000000 0.000000 0.000000 0.000000
    60 0.018898 0.665159 9.395884 0.000000 0.000000 0.000000
    61 2.000008 -3.000000 0.000000 -1.570796 0.000000 -1.326450
    62 3.028210 -0.923409 -2.009452 1.574082 -0.012974 1.587244
    63 0.116955 4.311607 0.061861 0.000010 0.000000 0.000000
    64 0.000000 0.000000 0.000001 0.000000 0.000000 0.000000
    65 0.000000 1.000000 0.000008 0.000000 0.000000 0.000000
    66 0.000000 0.000000 0.000002 0.000000 0.000000 0.000000
    67 0.000000 0.000000 0.000002 0.000000 0.000000 0.000000
    68 0.000000 0.000000 0.000002 0.000000 0.000000 0.000000
time 5
    0 -2.798828 4.403241 10.296875 0.131970 1.251916 0.460628
    1 3.625659 0.000000 0.000000 -1.829022 -1.233083 -1.166614
    2 18.345819 0.000000 0.000000 0.000000 0.000000 1.853274
    3 16.751528 0.000000 0.000000 -0.532487 0.207796 -1.075815
    4 5.943489 0.000000 0.000000 0.020412 -0.027730 -0.427005
    5 -3.625659 0.000000 0.000000 -0.934027 -0.592110 -1.785835
    6 18.345812 0.000000 0.000000 0.000000 0.000000 2.021748
    7 16.751524 0.000000 0.000000 0.349588 -0.058882 -1.279459
    8 5.943490 0.000000 0.000000 -0.112051 0.023861 -0.331149
    9 0.000000 4.043964 -0.017929 1.576914 -0.307210 1.511117
    10 3.995838 0.000000 0.000000 0.093545 0.043625 0.101404
    11 3.698242 -0.000001 0.000000 -0.135860 0.030099 0.207665
    12 5.700890 0.000000 0.000000 -0.128875 0.104762 0.545973
    13 5.352852 -0.000001 0.000000 -3.126786 0.005953 0.691504
    14 4.461819 0.000000 0.000000 0.032501 -0.066760 0.259150
    15 4.065388 1.458945 1.500000 -1.308645 -0.799190 -0.206630
    16 5.507357 0.000004 -0.000001 -2.026023 0.263854 -1.736091
    17 10.907398 0.000000 0.000000 0.000000 0.000000 -1.925823
    18 10.424324 -0.000008 -0.000027 2.732556 -0.079117 -0.075107
    19 2.997274 0.005409 -1.477472 0.007878 -0.080695 -0.862968
    20 1.510382 0.000000 0.000000 -0.125842 -0.198682 -0.570130
    21 0.808655 0.000002 0.000000 -0.054473 -0.175380 -0.302889
    22 3.305792 0.203112 -0.546730 0.121103 0.012041 -0.821261
    23 1.807182 0.000002 0.000000 -0.097757 -0.175234 -0.512469
    24 0.966137 0.000001 0.000000 0.002415 0.009757 -0.242679
    25 3.571512 0.109303 0.409580 0.171708 0.049096 -0.587763
    26 2.150654 -0.000002 0.000000 -0.118966 -0.076516 -1.001797
    27 1.152748 0.000000 0.000000 0.001897 0.012019 -0.156562
    28 3.684092 -0.158705 1.419183 0.169212 0.046758 -0.609994
    29 1.701014 -0.000002 0.000000 0.057264 0.071571 -0.675739
    30 0.994705 0.000002 0.000000 0.001236 0.038489 -0.401834
    31 1.068069 -1.287201 0.981905 1.847521 -0.683203 -0.463005
    32 1.836304 -0.000002 -0.000004 0.000013 -0.037568 -0.055870
    33 1.223948 -0.000001 0.000000 0.000000 0.000000 -0.125082
    34 4.065392 1.458946 -1.500000 1.811527 1.381858 0.107320
    35 5.507360 0.000008 -0.000001 1.381127 0.042012 -1.422671
    36 10.907398 0.000000 0.000004 0.000000 0.000000 -1.891330
    37 10.424301 -0.000005 0.000019 -1.160441 -0.024413 0.383581
    38 2.997293 0.000065 1.477481 -0.217008 -0.163702 -0.341356
    39 1.510378 -0.000004 0.000000 -0.022933 0.007613 -1.890993
    40 0.808655 0.000000 0.000000 0.054474 0.175340 -0.910365
    41 3.305817 0.201134 0.547461 -0.301746 -0.245900 -0.601601
    42 1.807175 0.000000 0.000000 0.115619 -0.003419 -1.600477
    43 0.966141 -0.000001 0.000000 -0.002403 -0.009699 -0.901508
    44 3.571524 0.110786 -0.409182 -0.302761 -0.227478 -0.659650
    45 2.150656 0.000000 0.000000 0.004951 -0.001033 -1.772344
    46 1.152752 0.000000 0.000000 -0.001870 -0.011971 -0.834431
    47 3.684113 -0.153563 -1.419748 -0.188140 -0.087648 -0.204768
    48 1.701017 0.000002 0.000000 -0.051327 -0.064037 -0.676424
    49 0.994705 0.000001 0.000000 -0.001277 -0.038560 -0.033101
    50 1.068094 -1.283653 -0.986553 -1.802022 0.200170 -0.546418
    51 1.836306 -0.000002 0.000000 -0.000004 -0.225005 -0.494029
    52 1.223946 0.000000 0.000002 -0.000040 0.040618 -0.404246
    53 0.000004 -0.000007 -0.000031 1.373047 0.113574 0.124314
    54 0.000000 0.000000 0.000000 -0.077030 -0.068757 -1.299215
    55 0.000004 -0.000007 -0.000031 1.373047 0.113574 0.124314
    56 0.000000 -0.000007 -0.000031 1.373047 0.113574 0.124314
    57 2.856897 -1.536201 -0.973800 -1.501147 -0.272558 -1.578261
    58 2.856895 -1.536198 -0.973800 -1.501147 -0.272558 -1.578261
    59 0.000000 0.000000 10.000000 0.000000 0.000000 0.000000
    60 0.018898 0.665159 9.395884 0.000000 0.000000 0.000000
    61 2.000008 -3.000000 0.000000 -1.570796 0.000000 -1.326450
    62 3.028210 -0.923409 -2.009452 1.574082 -0.012974 1.587244
    63 0.116955 4.311607 0.061861 0.000010 0.000000 0.000000
    64 0.000000 0.000000 0.000001 0.000000 0.000000 0.000000
    65 0.000000 1.000000 0.000008 0.000000 0.000000 0.000000
    66 0.000000 0.000000 0.000002 0.000000 0.000000 0.000000
    67 0.000000 0.000000 0.000002 0.000000 0.000000 0.000000
    68 0.000000 0.000000 0.000002 0.000000 0.000000 0.000000
time 6
    0 -2.798828 3.036563 11.500000 0.122827 1.263698 0.454105
    1 3.625659 0.000000 0.000000 -1.586930 -1.105400 -1.392635
    2 18.345819 0.000000 0.000000 0.000000 0.000000 1.707169
    3 16.751528 0.000000 0.000000 -0.417470 0.127472 -1.049657
    4 5.943489 0.000000 0.000000 0.020412 -0.027730 -0.427005
    5 -3.625659 0.000000 0.000000 -0.885673 -0.579470 -1.732862
    6 18.345812 0.000000 0.000000 0.000000 0.000000 2.067877
    7 16.751524 0.000000 0.000000 0.321098 0.009736 -1.359845
    8 5.943490 0.000000 0.000000 -0.112051 0.023861 -0.331149
    9 0.000000 4.043964 -0.017929 1.575676 -0.307186 1.515381
    10 3.995838 0.000000 0.000000 0.116827 0.058500 0.101304
    11 3.698242 -0.000001 0.000000 -0.141272 0.057882 0.203805
    12 5.700890 0.000000 0.000000 -0.128875 0.104762 0.545973
    13 5.352852 -0.000001 0.000000 -3.126786 0.005953 0.691504
    14 4.461819 0.000000 0.000000 0.032501 -0.066760 0.259150
    15 4.065388 1.458945 1.500000 -1.159254 -0.794062 -0.354279
    16 5.507357 0.000004 -0.000001 -1.892689 0.223650 -1.548531
    17 10.907398 0.000000 0.000000 0.000000 0.000000 -1.827453
    18 10.424324 -0.000008 -0.000027 2.732556 -0.079117 -0.075107
    19 2.997274 0.005409 -1.477472 0.007878 -0.080695 -0.862968
    20 1.510382 0.000000 0.000000 -0.125842 -0.198682 -0.570130
    21 0.808655 0.000002 0.000000 -0.054473 -0.175380 -0.302889
    22 3.305792 0.203112 -0.546730 0.121103 0.012041 -0.821261
    23 1.807182 0.000002 0.000000 -0.097757 -0.175234 -0.512469
    24 0.966137 0.000001 0.000000 0.002415 0.009757 -0.242679
    25 3.571512 0.109303 0.409580 0.171708 0.049096 -0.587763
    26 2.150654 -0.000002 0.000000 -0.118966 -0.076516 -1.001797
    27 1.152748 0.000000 0.000000 0.001897 0.012019 -0.156562
    28 3.684092 -0.158705 1.419183 0.169212 0.046758 -0.609994
    29 1.701014 -0.000002 0.000000 0.057264 0.071571 -0.675739
    30 0.994705 0.000002 0.000000 0.001236 0.038489 -0.401834
    31 1.068069 -1.287201 0.981905 1.847521 -0.683203 -0.463005
    32 1.836304 -0.000002 -0.000004 0.000013 -0.037568 -0.055870
    33 1.223948 -0.000001 0.000000 0.000000 0.000000 -0.125082
    34 4.065392 1.458946 -1.500000 1.811527 1.381858 0.107320
    35 5.507360 0.000008 -0.000001 1.462097 -0.004303 -1.507842
    36 10.907398 0.000000 0.000004 0.000000 0.000000 -1.944586
    37 10.424301 -0.000005 0.000019 -1.160441 -0.024413 0.383581
    38 2.997293 0.000065 1.477481 -0.217008 -0.163702 -0.341356
    39 1.510378 -0.000004 0.000000 -0.022933 0.007613 -1.890993
    40 0.808655 0.000000 0.000000 0.054474 0.175340 -0.910365
    41 3.305817 0.201134 0.547461 -0.301746 -0.245900 -0.601601
    42 1.807175 0.000000 0.000000 0.115619 -0.003419 -1.600477
    43 0.966141 -0.000001 0.000000 -0.002403 -0.009699 -0.901508
    44 3.571524 0.110786 -0.409182 -0.302761 -0.227478 -0.659650
    45 2.150656 0.000000 0.000000 0.004951 -0.001033 -1.772344
    46 1.152752 0.000000 0.000000 -0.001870 -0.011971 -0.834431
    47 3.684113 -0.153563 -1.419748 -0.188140 -0.087648 -0.204768
    48 1.701017 0.000002 0.000000 -0.051327 -0.064037 -0.676424
    49 0.994705 0.000001 0.000000 -0.001277 -0.038560 -0.033101
    50 1.068094 -1.283653 -0.986553 -1.802022 0.200170 -0.546418
    51 1.836306 -0.000002 0.000000 -0.000004 -0.225005 -0.494029
    52 1.223946 0.000000 0.000002 -0.000040 0.040618 -0.404246
    53 0.000004 -0.000007 -0.000031 1.373047 0.113574 0.124314
    54 0.000000 0.000000 0.000000 -0.077030 -0.068757 -1.299215
    55 0.000004 -0.000007 -0.000031 1.373047 0.113574 0.124314
    56 0.000000 -0.000007 -0.000031 1.373047 0.113574 0.124314
    57 2.856897 -1.536201 -0.973800 -1.501147 -0.272558 -1.578261
    58 2.856895 -1.536198 -0.973800 -1.501147 -0.272558 -1.578261
    59 0.000000 0.000000 10.000000 0.000000 0.000000 0.000000
    60 0.018898 0.665159 9.395884 0.000000 0.000000 0.000000
    61 2.000008 -3.000000 0.000000 -1.570796 0.000000 -1.326450
    62 3.028210 -0.923409 -2.009452 1.574082 -0.012974 1.587244
    63 0.116955 4.311607 0.061861 0.000010 0.000000 0.000000
    64 0.000000 0.000000 0.000001 0.000000 0.000000 0.000000
    65 0.000000 1.000000 0.000008 0.000000 0.000000 0.000000
    66 0.000000 0.000000 0.000002 0.000000 0.000000 0.000000
    67 0.000000 0.000000 0.000002 0.000000 0.000000 0.000000
    68 0.000000 0.000000 0.000002 0.000000 0.000000 0.000000
time 7
    0 -2.798828 1.642130 12.101563 0.124506 1.267957 0.457085
    1 3.625659 0.000000 0.000000 -1.498484 -0.993950 -1.476542
    2 18.345819 0.000000 0.000000 0.000000 0.000000 1.573755
    3 16.751528 0.000000 0.000000 -0.362172 0.072288 -1.022277
    4 5.943489 0.000000 0.000000 0.020412 -0.027730 -0.427005
    5 -3.625659 0.000000 0.000000 -0.846250 -0.585521 -1.701083
    6 18.345812 0.000000 0.000000 0.000000 0.000000 2.126247
    7 16.751524 0.000000 0.000000 0.297669 0.065256 -1.432086
    8 5.943490 0.000000 0.000000 -0.112051 0.023861 -0.331149
    9 0.000000 4.043964 -0.017929 1.575111 -0.307159 1.517080
    10 3.995838 0.000000 0.000000 0.125542 0.066139 0.101212
    11 3.698242 -0.000001 0.000000 -0.146343 0.083371 0.200176
    12 5.700890 0.000000 0.000000 -0.128875 0.104762 0.545973
    13 5.352852 -0.000001 0.000000 -3.126786 0.005953 0.691504
    14 4.461819 0.000000 0.000000 0.032501 -0.066760 0.259150
    15 4.065388 1.458945 1.500000 -0.958196 -0.817609 -0.576949
    16 5.507357 0.000004 -0.000001 -1.763475 0.149286 -1.319538
    17 10.907398 0.000000 0.000000 0.000000 0.000000 -1.779246
    18 10.424324 -0.000008 -0.000027 2.732556 -0.079117 -0.075107
    19 2.997274 0.005409 -1.477472 0.007878 -0.080695 -0.862968
    20 1.510382 0.000000 0.000000 -0.125842 -0.198682 -0.570130
    21 0.808655 0.000002 0.000000 -0.054473 -0.175380 -0.302889
    22 3.305792 0.203112 -0.546730 0.121103 0.012041 -0.821261
    23 1.807182 0.000002 0.000000 -0.097757 -0.175234 -0.512469
    24 0.966137 0.000001 0.000000 0.002415 0.009757 -0.242679
    25 3.571512 0.109303 0.409580 0.171708 0.049096 -0.587763
    26 2.150654 -0.000002 0.000000 -0.118966 -0.076516 -1.001797
    27 1.152748 0.000000 0.000000 0.001897 0.012019 -0.156562
    28 3.684092 -0.158705 1.419183 0.169212 0.046758 -0.609994
    29 1.701014 -0.000002 0.000000 0.057264 0.071571 -0.675739
    30 0.994705 0.000002 0.000000 0.001236 0.038489 -0.401834
    31 1.068069 -1.287201 0.981905 1.847521 -0.683203 -0.463005
    32 1.836304 -0.000002 -0.000004 0.000013 -0.037568 -0.055870
    33 1.223948 -0.000001 0.000000 0.000000 0.000000 -0.125082
    34 4.065392 1.458946 -1.500000 1.811527 1.381858 0.107320
    35 5.507360 0.000008 -0.000001 1.525328 -0.033482 -1.584269
    36 10.907398 0.000000 0.000004 0.000000 0.000000 -1.987842
    37 10.424301 -0.000005 0.000019 -1.160441 -0.024413 0.383581
    38 2.997293 0.000065 1.477481 -0.217008 -0.163702 -0.341356
    39 1.510378 -0.000004 0.000000 -0.022933 0.007613 -1.890993
    40 0.808655 0.000000 0.000000 0.054474 0.175340 -0.910365
    41 3.305817 0.201134 0.547461 -0.301746 -0.245900 -0.601601
    42 1.807175 0.000000 0.000000 0.115619 -0.003419 -1.600477
    43 0.966141 -0.000001 0.000000 -0.002403 -0.009699 -0.901508
    44 3.571524 0.110786 -0.409182 -0.302761 -0.227478 -0.659650
    45 2.150656 0.000000 0.000000 0.004951 -0.001033 -1.772344
    46 1.152752 0.000000 0.000000 -0.001870 -0.011971 -0.834431
    47 3.684113 -0.153563 -1.419748 -0.188140 -0.087648 -0.204768
    48 1.701017 0.000002 0.000000 -0.051327 -0.064037 -0.676424
    49 0.994705 0.000001 0.000000 -0.001277 -0.038560 -0.033101
    50 1.068094 -1.283653 -0.986553 -1.802022 0.200170 -0.546418
    51 1.836306 -0.000002 0.000000 -0.000004 -0.225005 -0.494029
    52 1.223946 0.000000 0.000002 -0.000040 0.040618 -0.404246
    53 0.000004 -0.000007 -0.000031 1.373047 0.113574 0.124314
    54 0.000000 0.000000 0.000000 -0.077030 -0.068757 -1.299215
    55 0.000004 -0.000007 -0.000031 1.373047 0.113574 0.124314
    56 0.000000 -0.000007 -0.000031 1.373047 0.113574 0.124314
    57 2.856897 -1.536201 -0.973800 -1.501147 -0.272558 -1.578261
    58 2.856895 -1.536198 -0.973800 -1.501147 -0.272558 -1.578261
    59 0.000000 0.000000 10.000000 0.000000 0.000000 0.000000
    60 0.018898 0.665159 9.395884 0.000000 0.000000 0.000000
    61 2.000008 -3.000000 0.000000 -1.570796 0.000000 -1.326450
    62 3.028210 -0.923409 -2.009452 1.574082 -0.012974 1.587244
    63 0.116955 4.311607 0.061861 0.000010 0.000000 0.000000
    64 0.000000 0.000000 0.000001 0.000000 0.000000 0.000000
    65 0.000000 1.000000 0.000008 0.000000 0.000000 0.000000
    66 0.000000 0.000000 0.000002 0.000000 0.000000 0.000000
    67 0.000000 0.000000 0.000002 0.000000 0.000000 0.000000
    68 0.000000 0.000000 0.000002 0.000000 0.000000 0.000000
time 8
    0 -2.798828 0.141817 11.554688 0.170278 1.244923 0.500024
    1 3.625659 0.000000 0.000000 -1.619357 -0.946414 -1.425086
    2 18.345819 0.000000 0.000000 0.000000 0.000000 1.507185
    3 16.751528 0.000000 0.000000 -0.317171 0.066620 -1.002293
    4 5.943489 0.000000 0.000000 0.020412 -0.027730 -0.427005
    5 -3.625659 0.000000 0.000000 -0.812941 -0.629947 -1.738165
    6 18.345812 0.000000 0.000000 0.000000 0.000000 2.229234
    7 16.751524 0.000000 0.000000 0.271571 0.092934 -1.491199
    8 5.943490 0.000000 0.000000 -0.112051 0.023861 -0.331149
    9 0.000000 4.043964 -0.017929 1.575259 -0.307221 1.516556
    10 3.995838 0.000000 0.000000 0.107444 0.061493 0.100909
    11 3.698242 -0.000001 0.000000 -0.150459 0.104357 0.197070
    12 5.700890 0.000000 0.000000 -0.128875 0.104762 0.545973
    13 5.352852 -0.000001 0.000000 -3.126786 0.005953 0.691504
    14 4.461819 0.000000 0.000000 0.032501 -0.066760 0.259150
    15 4.065388 1.458945 1.500000 -0.698306 -0.846996 -0.870064
    16 5.507357 0.000004 -0.000001 -1.672108 0.081484 -1.049658
    17 10.907398 0.000000 0.000000 0.000000 0.000000 -1.798397
    18 10.424324 -0.000008 -0.000027 2.732556 -0.079117 -0.075107
    19 2.997274 0.005409 -1.477472 0.007878 -0.080695 -0.862968
    20 1.510382 0.000000 0.000000 -0.125842 -0.198682 -0.570130
    21 0.808655 0.000002 0.000000 -0.054473 -0.175380 -0.302889
    22 3.305792 0.203112 -0.546730 0.121103 0.012041 -0.821261
    23 1.807182 0.000002 0.000000 -0.097757 -0.175234 -0.512469
    24 0.966137 0.000001 0.000000 0.002415 0.009757 -0.242679
    25 3.571512 0.109303 0.409580 0.171708 0.049096 -0.587763
    26 2.150654 -0.000002 0.000000 -0.118966 -0.076516 -1.001797
    27 1.152748 0.000000 0.000000 0.001897 0.012019 -0.156562
    28 3.684092 -0.158705 1.419183 0.169212 0.046758 -0.609994
    29 1.701014 -0.000002 0.000000 0.057264 0.071571 -0.675739
    30 0.994705 0.000002 0.000000 0.001236 0.038489 -0.401834
    31 1.068069 -1.287201 0.981905 1.847521 -0.683203 -0.463005
    32 1.836304 -0.000002 -0.000004 0.000013 -0.037568 -0.055870
    33 1.223948 -0.000001 0.000000 0.000000 0.000000 -0.125082
    34 4.065392 1.458946 -1.500000 1.811527 1.381858 0.107320
    35 5.507360 0.000008 -0.000001 1.548282 -0.041996 -1.605797
    36 10.907398 0.000000 0.000004 0.000000 0.000000 -2.016854
    37 10.424301 -0.000005 0.000019 -1.160441 -0.024413 0.383581
    38 2.997293 0.000065 1.477481 -0.217008 -0.163702 -0.341356
    39 1.510378 -0.000004 0.000000 -0.022933 0.007613 -1.890993
    40 0.808655 0.000000 0.000000 0.054474 0.175340 -0.910365
    41 3.305817 0.201134 0.547461 -0.301746 -0.245900 -0.601601
    42 1.807175 0.000000 0.000000 0.115619 -0.003419 -1.600477
    43 0.966141 -0.000001 0.000000 -0.002403 -0.009699 -0.901508
    44 3.571524 0.110786 -0.409182 -0.302761 -0.227478 -0.659650
    45 2.150656 0.000000 0.000000 0.004951 -0.001033 -1.772344
    46 1.152752 0.000000 0.000000 -0.001870 -0.011971 -0.834431
    47 3.684113 -0.153563 -1.419748 -0.188140 -0.087648 -0.204768
    48 1.701017 0.000002 0.000000 -0.051327 -0.064037 -0.676424
    49 0.994705 0.000001 0.000000 -0.001277 -0.038560 -0.033101
    50 1.068094 -1.283653 -0.986553 -1.802022 0.200170 -0.546418
    51 1.836306 -0.000002 0.000000 -0.000004 -0.225005 -0.494029
    52 1.223946 0.000000 0.000002 -0.000040 0.040618 -0.404246
    53 0.000004 -0.000007 -0.000031 1.373047 0.113574 0.124314
    54 0.000000 0.000000 0.000000 -0.077030 -0.068757 -1.299215
    55 0.000004 -0.000007 -0.000031 1.373047 0.113574 0.124314
    56 0.000000 -0.000007 -0.000031 1.373047 0.113574 0.124314
    57 2.856897 -1.536201 -0.973800 -1.501147 -0.272558 -1.578261
    58 2.856895 -1.536198 -0.973800 -1.501147 -0.272558 -1.578261
    59 0.000000 0.000000 10.000000 0.000000 0.000000 0.000000
    60 0.018898 0.665159 9.395884 0.000000 0.000000 0.000000
    61 2.000008 -3.000000 0.000000 -1.570796 0.000000 -1.326450
    62 3.028210 -0.923409 -2.009452 1.574082 -0.012974 1.587244
    63 0.116955 4.311607 0.061861 0.000010 0.000000 0.000000
    64 0.000000 0.000000 0.000001 0.000000 0.000000 0.000000
    65 0.000000 1.000000 0.000008 0.000000 0.000000 0.000000
    66 0.000000 0.000000 0.000002 0.000000 0.000000 0.000000
    67 0.000000 0.000000 0.000002 0.000000 0.000000 0.000000
    68 0.000000 0.000000 0.000002 0.000000 0.000000 0.000000
time 9
    0 -2.798828 -1.480000 10.406250 0.233198 1.201793 0.558053
    1 3.625659 0.000000 0.000000 -1.871729 -0.896701 -1.306863
    2 18.345819 0.000000 0.000000 0.000000 0.000000 1.455482
    3 16.751528 0.000000 0.000000 -0.216593 0.080551 -0.980213
    4 5.943489 0.000000 0.000000 0.020412 -0.027730 -0.427005
    5 -3.625659 0.000000 0.000000 -0.792871 -0.711677 -1.802613
    6 18.345812 0.000000 0.000000 0.000000 0.000000 2.357223
    7 16.751524 0.000000 0.000000 0.259881 0.117407 -1.537677
    8 5.943490 0.000000 0.000000 -0.112051 0.023861 -0.331149
    9 0.000000 4.043964 -0.017929 1.575845 -0.307168 1.514757
    10 3.995838 0.000000 0.000000 0.065279 0.046183 0.100644
    11 3.698242 -0.000001 0.000000 -0.153236 0.118573 0.194886
    12 5.700890 0.000000 0.000000 -0.128875 0.104762 0.545973
    13 5.352852 -0.000001 0.000000 -3.126786 0.005953 0.691504
    14 4.461819 0.000000 0.000000 0.032501 -0.066760 0.259150
    15 4.065388 1.458945 1.500000 -0.430765 -0.843906 -1.152018
    16 5.507357 0.000004 -0.000001 -1.646179 0.046136 -0.766535
    17 10.907398 0.000000 0.000000 0.000000 0.000000 -1.826144
    18 10.424324 -0.000008 -0.000027 2.732556 -0.079117 -0.075107
    19 2.997274 0.005409 -1.477472 0.007878 -0.080695 -0.862968
    20 1.510382 0.000000 0.000000 -0.125842 -0.198682 -0.570130
    21 0.808655 0.000002 0.000000 -0.054473 -0.175380 -0.302889
    22 3.305792 0.203112 -0.546730 0.121103 0.012041 -0.821261
    23 1.807182 0.000002 0.000000 -0.097757 -0.175234 -0.512469
    24 0.966137 0.000001 0.000000 0.002415 0.009757 -0.242679
    25 3.571512 0.109303 0.409580 0.171708 0.049096 -0.587763
    26 2.150654 -0.000002 0.000000 -0.118966 -0.076516 -1.001797
    27 1.152748 0.000000 0.000000 0.001897 0.012019 -0.156562
    28 3.684092 -0.158705 1.419183 0.169212 0.046758 -0.609994
    29 1.701014 -0.000002 0.000000 0.057264 0.071571 -0.675739
    30 0.994705 0.000002 0.000000 0.001236 0.038489 -0.401834
    31 1.068069 -1.287201 0.981905 1.847521 -0.683203 -0.463005
    32 1.836304 -0.000002 -0.000004 0.000013 -0.037568 -0.055870
    33 1.223948 -0.000001 0.000000 0.000000 0.000000 -0.125082
    34 4.065392 1.458946 -1.500000 1.811527 1.381858 0.107320
    35 5.507360 0.000008 -0.000001 1.524336 -0.033741 -1.561442
    36 10.907398 0.000000 0.000004 0.000000 0.000000 -2.027448
    37 10.424301 -0.000005 0.000019 -1.160441 -0.024413 0.383581
    38 2.997293 0.000065 1.477481 -0.217008 -0.163702 -0.341356
    39 1.510378 -0.000004 0.000000 -0.022933 0.007613 -1.890993
    40 0.808655 0.000000 0.000000 0.054474 0.175340 -0.910365
    41 3.305817 0.201134 0.547461 -0.301746 -0.245900 -0.601601
    42 1.807175 0.000000 0.000000 0.115619 -0.003419 -1.600477
    43 0.966141 -0.000001 0.000000 -0.002403 -0.009699 -0.901508
    44 3.571524 0.110786 -0.409182 -0.302761 -0.227478 -0.659650
    45 2.150656 0.000000 0.000000 0.004951 -0.001033 -1.772344
    46 1.152752 0.000000 0.000000 -0.001870 -0.011971 -0.834431
    47 3.684113 -0.153563 -1.419748 -0.188140 -0.087648 -0.204768
    48 1.701017 0.000002 0.000000 -0.051327 -0.064037 -0.676424
    49 0.994705 0.000001 0.000000 -0.001277 -0.038560 -0.033101
    50 1.068094 -1.283653 -0.986553 -1.802022 0.200170 -0.546418
    51 1.836306 -0.000002 0.000000 -0.000004 -0.225005 -0.494029
    52 1.223946 0.000000 0.000002 -0.000040 0.040618 -0.404246
    53 0.000004 -0.000007 -0.000031 1.373047 0.113574 0.124314
    54 0.000000 0.000000 0.000000 -0.077030 -0.068757 -1.299215
    55 0.000004 -0.000007 -0.000031 1.373047 0.113574 0.124314
    56 0.000000 -0.000007 -0.000031 1.373047 0.113574 0.124314
    57 2.856897 -1.536201 -0.973800 -1.501147 -0.272558 -1.578261
    58 2.856895 -1.536198 -0.973800 -1.501147 -0.272558 -1.578261
    59 0.000000 0.000000 10.000000 0.000000 0.000000 0.000000
    60 0.018898 0.665159 9.395884 0.000000 0.000000 0.000000
    61 2.000008 -3.000000 0.000000 -1.570796 0.000000 -1.326450
    62 3.028210 -0.923409 -2.009452 1.574082 -0.012974 1.587244
    63 0.116955 4.311607 0.061861 0.000010 0.000000 0.000000
    64 0.000000 0.000000 0.000001 0.000000 0.000000 0.000000
    65 0.000000 1.000000 0.000008 0.000000 0.000000 0.000000
    66 0.000000 0.000000 0.000002 0.000000 0.000000 0.000000
    67 0.000000 0.000000 0.000002 0.000000 0.000000 0.000000
    68 0.000000 0.000000 0.000002 0.000000 0.000000 0.000000
time 10
    0 -2.798828 -3.129572 9.500000 0.261193 1.178459 0.583811
    1 3.625659 0.000000 0.000000 -2.016203 -0.864007 -1.237681
    2 18.345819 0.000000 0.000000 0.000000 0.000000 1.437748
    3 16.751528 0.000000 0.000000 -0.178727 0.104952 -0.969387
    4 5.943489 0.000000 0.000000 0.020412 -0.027730 -0.427005
    5 -3.625659 0.000000 0.000000 -0.783468 -0.802845 -1.818052
    6 18.345812 0.000000 0.000000 0.000000 0.000000 2.470580
    7 16.751524 0.000000 0.000000 0.281864 0.166570 -1.580212
    8 5.943490 0.000000 0.000000 -0.112051 0.023861 -0.331149
    9 0.000000 4.043964 -0.017929 1.576790 -0.307146 1.511466
    10 3.995838 0.000000 0.000000 0.015016 0.026903 0.100826
    11 3.698242 -0.000001 0.000000 -0.154357 0.123849 0.194102
    12 5.700890 0.000000 0.000000 -0.128875 0.104762 0.545973
    13 5.352852 -0.000001 0.000000 -3.126786 0.005953 0.691504
    14 4.461819 0.000000 0.000000 0.032501 -0.066760 0.259150
    15 4.065388 1.458945 1.500000 -0.229942 -0.814542 -1.353214
    16 5.507357 0.000004 -0.000001 -1.674233 0.066276 -0.489508
    17 10.907398 0.000000 0.000000 0.000000 0.000000 -1.858343
    18 10.424324 -0.000008 -0.000027 2.732556 -0.079117 -0.075107
    19 2.997274 0.005409 -1.477472 0.007878 -0.080695 -0.862968
    20 1.510382 0.000000 0.000000 -0.125842 -0.198682 -0.570130
    21 0.808655 0.000002 0.000000 -0.054473 -0.175380 -0.302889
    22 3.305792 0.203112 -0.546730 0.121103 0.012041 -0.821261
    23 1.807182 0.000002 0.000000 -0.097757 -0.175234 -0.512469
    24 0.966137 0.000001 0.000000 0.002415 0.009757 -0.242679
    25 3.571512 0.109303 0.409580 0.171708 0.049096 -0.587763
    26 2.150654 -0.000002 0.000000 -0.118966 -0.076516 -1.001797
    27 1.152748 0.000000 0.000000 0.001897 0.012019 -0.156562
    28 3.684092 -0.158705 1.419183 0.169212 0.046758 -0.609994
    29 1.701014 -0.000002 0.000000 0.057264 0.071571 -0.675739
    30 0.994705 0.000002 0.000000 0.001236 0.038489 -0.401834
    31 1.068069 -1.287201 0.981905 1.847521 -0.683203 -0.463005
    32 1.836304 -0.000002 -0.000004 0.000013 -0.037568 -0.055870
    33 1.223948 -0.000001 0.000000 0.000000 0.000000 -0.125082
    34 4.065392 1.458946 -1.500000 1.811527 1.381858 0.107320
    35 5.507360 0.000008 -0.000001 1.467777 -0.018746 -1.500792
    36 10.907398 0.000000 0.000004 0.000000 0.000000 -2.020933
    37 10.424301 -0.000005 0.000019 -1.160441 -0.024413 0.383581
    38 2.997293 0.000065 1.477481 -0.217008 -0.163702 -0.341356
    39 1.510378 -0.000004 0.000000 -0.022933 0.007613 -1.890993
    40 0.808655 0.000000 0.000000 0.054474 0.175340 -0.910365
    41 3.305817 0.201134 0.547461 -0.301746 -0.245900 -0.601601
    42 1.807175 0.000000 0.000000 0.115619 -0.003419 -1.600477
    43 0.966141 -0.000001 0.000000 -0.002403 -0.009699 -0.901508
    44 3.571524 0.110786 -0.409182 -0.302761 -0.227478 -0.659650
    45 2.150656 0.000000 0.000000 0.004951 -0.001033 -1.772344
    46 1.152752 0.000000 0.000000 -0.001870 -0.011971 -0.834431
    47 3.684113 -0.153563 -1.419748 -0.188140 -0.087648 -0.204768
    48 1.701017 0.000002 0.000000 -0.051327 -0.064037 -0.676424
    49 0.994705 0.000001 0.000000 -0.001277 -0.038560 -0.033101
    50 1.068094 -1.283653 -0.986553 -1.802022 0.200170 -0.546418
    51 1.836306 -0.000002 0.000000 -0.000004 -0.225005 -0.494029
    52 1.223946 0.000000 0.000002 -0.000040 0.040618 -0.404246
    53 0.000004 -0.000007 -0.000031 1.373047 0.113574 0.124314
    54 0.000000 0.000000 0.000000 -0.077030 -0.068757 -1.299215
    55 0.000004 -0.000007 -0.000031 1.373047 0.113574 0.124314
    56 0.000000 -0.000007 -0.000031 1.373047 0.113574 0.124314
    57 2.856897 -1.536201 -0.973800 -1.501147 -0.272558 -1.578261
    58 2.856895 -1.536198 -0.973800 -1.501147 -0.272558 -1.578261
    59 0.000000 0.000000 10.000000 0.000000 0.000000 0.000000
    60 0.018898 0.665159 9.395884 0.000000 0.000000 0.000000
    61 2.000008 -3.000000 0.000000 -1.570796 0.000000 -1.326450
    62 3.028210 -0.923409 -2.009452 1.574082 -0.012974 1.587244
    63 0.116955 4.311607 0.061861 0.000010 0.000000 0.000000
    64 0.000000 0.000000 0.000001 0.000000 0.000000 0.000000
    65 0.000000 1.000000 0.000008 0.000000 0.000000 0.000000
    66 0.000000 0.000000 0.000002 0.000000 0.000000 0.000000
    67 0.000000 0.000000 0.000002 0.000000 0.000000 0.000000
    68 0.000000 0.000000 0.000002 0.000000 0.000000 0.000000
time 11
    0 -2.798828 -4.713148 9.195313 0.259806 1.178505 0.582431
    1 3.625659 0.000000 0.000000 -2.049924 -0.879234 -1.197735
    2 18.345819 0.000000 0.000000 0.000000 0.000000 1.471960
    3 16.751528 0.000000 0.000000 -0.219026 0.133596 -0.978247
    4 5.943489 0.000000 0.000000 0.020412 -0.027730 -0.427005
    5 -3.625659 0.000000 0.000000 -0.738181 -0.796612 -1.922391
    6 18.345812 0.000000 0.000000 0.000000 0.000000 2.475880
    7 16.751524 0.000000 0.000000 0.256520 0.109320 -1.540254
    8 5.943490 0.000000 0.000000 -0.112051 0.023861 -0.331149
    9 0.000000 4.043964 -0.017929 1.578243 -0.307145 1.506835
    10 3.995838 0.000000 0.000000 -0.026873 0.010439 0.101260
    11 3.698242 -0.000001 0.000000 -0.145165 0.119865 0.195220
    12 5.700890 0.000000 0.000000 -0.128875 0.104762 0.545973
    13 5.352852 -0.000001 0.000000 -3.126786 0.005953 0.691504
    14 4.461819 0.000000 0.000000 0.032501 -0.066760 0.259150
    15 4.065388 1.458945 1.500000 -0.150578 -0.796059 -1.430089
    16 5.507357 0.000004 -0.000001 -1.713121 0.151872 -0.295222
    17 10.907398 0.000000 0.000000 0.000000 0.000000 -1.867916
    18 10.424324 -0.000008 -0.000027 2.732556 -0.079117 -0.075107
    19 2.997274 0.005409 -1.477472 0.007878 -0.080695 -0.862968
    20 1.510382 0.000000 0.000000 -0.125842 -0.198682 -0.570130
    21 0.808655 0.000002 0.000000 -0.054473 -0.175380 -0.302889
    22 3.305792 0.203112 -0.546730 0.121103 0.012041 -0.821261
    23 1.807182 0.000002 0.000000 -0.097757 -0.175234 -0.512469
    24 0.966137 0.000001 0.000000 0.002415 0.009757 -0.242679
    25 3.571512 0.109303 0.409580 0.171708 0.049096 -0.587763
    26 2.150654 -0.000002 0.000000 -0.118966 -0.076516 -1.001797
    27 1.152748 0.000000 0.000000 0.001897 0.012019 -0.156562
    28 3.684092 -0.158705 1.419183 0.169212 0.046758 -0.609994
    29 1.701014 -0.000002 0.000000 0.057264 0.071571 -0.675739
    30 0.994705 0.000002 0.000000 0.001236 0.038489 -0.401834
    31 1.068069 -1.287201 0.981905 1.847521 -0.683203 -0.463005
    32 1.836304 -0.000002 -0.000004 0.000013 -0.037568 -0.055870
    33 1.223948 -0.000001 0.000000 0.000000 0.000000 -0.125082
    34 4.065392 1.458946 -1.500000 1.811527 1.381858 0.107320
    35 5.507360 0.000008 -0.000001 1.407593 0.000167 -1.448950
    36 10.907398 0.000000 0.000004 0.000000 0.000000 -2.001408
    37 10.424301 -0.000005 0.000019 -1.160441 -0.024413 0.383581
    38 2.997293 0.000065 1.477481 -0.217008 -0.163702 -0.341356
    39 1.510378 -0.000004 0.000000 -0.022933 0.007613 -1.890993
    40 0.808655 0.000000 0.000000 0.054474 0.175340 -0.910365
    41 3.305817 0.201134 0.547461 -0.301746 -0.245900 -0.601601
    42 1.807175 0.000000 0.000000 0.115619 -0.003419 -1.600477
    43 0.966141 -0.000001 0.000000 -0.002403 -0.009699 -0.901508
    44 3.571524 0.110786 -0.409182 -0.302761 -0.227478 -0.659650
    45 2.150656 0.000000 0.000000 0.004951 -0.001033 -1.772344
    46 1.152752 0.000000 0.000000 -0.001870 -0.011971 -0.834431
    47 3.684113 -0.153563 -1.419748 -0.188140 -0.087648 -0.204768
    48 1.701017 0.000002 0.000000 -0.051327 -0.064037 -0.676424
    49 0.994705 0.000001 0.000000 -0.001277 -0.038560 -0.033101
    50 1.068094 -1.283653 -0.986553 -1.802022 0.200170 -0.546418
    51 1.836306 -0.000002 0.000000 -0.000004 -0.225005 -0.494029
    52 1.223946 0.000000 0.000002 -0.000040 0.040618 -0.404246
    53 0.000004 -0.000007 -0.000031 1.373047 0.113574 0.124314
    54 0.000000 0.000000 0.000000 -0.077030 -0.068757 -1.299215
    55 0.000004 -0.000007 -0.000031 1.373047 0.113574 0.124314
    56 0.000000 -0.000007 -0.000031 1.373047 0.113574 0.124314
    57 2.856897 -1.536201 -0.973800 -1.501147 -0.272558 -1.578261
    58 2.856895 -1.536198 -0.973800 -1.501147 -0.272558 -1.578261
    59 0.000000 0.000000 10.000000 0.000000 0.000000 0.000000
    60 0.018898 0.665159 9.395884 0.000000 0.000000 0.000000
    61 2.000008 -3.000000 0.000000 -1.570796 0.000000 -1.326450
    62 3.028210 -0.923409 -2.009452 1.574082 -0.012974 1.587244
    63 0.116955 4.311607 0.061861 0.000010 0.000000 0.000000
    64 0.000000 0.000000 0.000001 0.000000 0.000000 0.000000
    65 0.000000 1.000000 0.000008 0.000000 0.000000 0.000000
    66 0.000000 0.000000 0.000002 0.000000 0.000000 0.000000
    67 0.000000 0.000000 0.000002 0.000000 0.000000 0.000000
    68 0.000000 0.000000 0.000002 0.000000 0.000000 0.000000
time 12
    0 -2.798828 -6.105729 9.140625 0.255065 1.179088 0.577313
    1 3.625659 0.000000 0.000000 -2.100349 -0.912281 -1.138752
    2 18.345819 0.000000 0.000000 0.000000 0.000000 1.532671
    3 16.751528 0.000000 0.000000 -0.260604 0.161173 -0.993892
    4 5.943489 0.000000 0.000000 0.020412 -0.027730 -0.427005
    5 -3.625659 0.000000 0.000000 -0.758767 -0.808478 -1.974781
    6 18.345812 0.000000 0.000000 0.000000 0.000000 2.454834
    7 16.751524 0.000000 0.000000 0.277197 0.050757 -1.481766
    8 5.943490 0.000000 0.000000 -0.112051 0.023861 -0.331149
    9 0.000000 4.043964 -0.017929 1.579708 -0.307126 1.502040
    10 3.995838 0.000000 0.000000 -0.044520 0.003388 0.101599
    11 3.698242 -0.000001 0.000000 -0.121966 0.109426 0.198083
    12 5.700890 0.000000 0.000000 -0.128875 0.104762 0.545973
    13 5.352852 -0.000001 0.000000 -3.126786 0.005953 0.691504
    14 4.461819 0.000000 0.000000 0.032501 -0.066760 0.259150
    15 4.065388 1.458945 1.500000 -0.238703 -0.835960 -1.351360
    16 5.507357 0.000004 -0.000001 -1.719482 0.284363 -0.237721
    17 10.907398 0.000000 0.000000 0.000000 0.000000 -1.838224
    18 10.424324 -0.000008 -0.000027 2.732556 -0.079117 -0.075107
    19 2.997274 0.005409 -1.477472 0.007878 -0.080695 -0.862968
    20 1.510382 0.000000 0.000000 -0.125842 -0.198682 -0.570130
    21 0.808655 0.000002 0.000000 -0.054473 -0.175380 -0.302889
    22 3.305792 0.203112 -0.546730 0.121103 0.012041 -0.821261
    23 1.807182 0.000002 0.000000 -0.097757 -0.175234 -0.512469
    24 0.966137 0.000001 0.000000 0.002415 0.009757 -0.242679
    25 3.571512 0.109303 0.409580 0.171708 0.049096 -0.587763
    26 2.150654 -0.000002 0.000000 -0.118966 -0.076516 -1.001797
    27 1.152748 0.000000 0.000000 0.001897 0.012019 -0.156562
    28 3.684092 -0.158705 1.419183 0.169212 0.046758 -0.609994
    29 1.701014 -0.000002 0.000000 0.057264 0.071571 -0.675739
    30 0.994705 0.000002 0.000000 0.001236 0.038489 -0.401834
    31 1.068069 -1.287201 0.981905 1.847521 -0.683203 -0.463005
    32 1.836304 -0.000002 -0.000004 0.000013 -0.037568 -0.055870
    33 1.223948 -0.000001 0.000000 0.000000 0.000000 -0.125082
    34 4.065392 1.458946 -1.500000 1.811527 1.381858 0.107320
    35 5.507360 0.000008 -0.000001 1.370921 0.027884 -1.392460
    36 10.907398 0.000000 0.000004 0.000000 0.000000 -1.969558
    37 10.424301 -0.000005 0.000019 -1.160441 -0.024413 0.383581
    38 2.997293 0.000065 1.477481 -0.217008 -0.163702 -0.341356
    39 1.510378 -0.000004 0.000000 -0.022933 0.007613 -1.890993
    40 0.808655 0.000000 0.000000 0.054474 0.175340 -0.910365
    41 3.305817 0.201134 0.547461 -0.301746 -0.245900 -0.601601
    42 1.807175 0.000000 0.000000 0.115619 -0.003419 -1.600477
    43 0.966141 -0.000001 0.000000 -0.002403 -0.009699 -0.901508
    44 3.571524 0.110786 -0.409182 -0.302761 -0.227478 -0.659650
    45 2.150656 0.000000 0.000000 0.004951 -0.001033 -1.772344
    46 1.152752 0.000000 0.000000 -0.001870 -0.011971 -0.834431
    47 3.684113 -0.153563 -1.419748 -0.188140 -0.087648 -0.204768
    48 1.701017 0.000002 0.000000 -0.051327 -0.064037 -0.676424
    49 0.994705 0.000001 0.000000 -0.001277 -0.038560 -0.033101
    50 1.068094 -1.283653 -0.986553 -1.802022 0.200170 -0.546418
    51 1.836306 -0.000002 0.000000 -0.000004 -0.225005 -0.494029
    52 1.223946 0.000000 0.000002 -0.000040 0.040618 -0.404246
    53 0.000004 -0.000007 -0.000031 1.373047 0.113574 0.124314
    54 0.000000 0.000000 0.000000 -0.077030 -0.068757 -1.299215
    55 0.000004 -0.000007 -0.000031 1.373047 0.113574 0.124314
    56 0.000000 -0.000007 -0.000031 1.373047 0.113574 0.124314
    57 2.856897 -1.536201 -0.973800 -1.501147 -0.272558 -1.578261
    58 2.856895 -1.536198 -0.973800 -1.501147 -0.272558 -1.578261
    59 0.000000 0.000000 10.000000 0.000000 0.000000 0.000000
    60 0.018898 0.665159 9.395884 0.000000 0.000000 0.000000
    61 2.000008 -3.000000 0.000000 -1.570796 0.000000 -1.326450
    62 3.028210 -0.923409 -2.009452 1.574082 -0.012974 1.587244
    63 0.116955 4.311607 0.061861 0.000010 0.000000 0.000000
    64 0.000000 0.000000 0.000001 0.000000 0.000000 0.000000
    65 0.000000 1.000000 0.000008 0.000000 0.000000 0.000000
    66 0.000000 0.000000 0.000002 0.000000 0.000000 0.000000
    67 0.000000 0.000000 0.000002 0.000000 0.000000 0.000000
    68 0.000000 0.000000 0.000002 0.000000 0.000000 0.000000
time 13
    0 -2.798828 -6.893252 9.054688 0.246286 1.179971 0.567816
    1 3.625659 0.000000 0.000000 -2.128886 -0.931438 -1.108356
    2 18.345819 0.000000 0.000000 0.000000 0.000000 1.564063
    3 16.751528 0.000000 0.000000 -0.305022 0.177353 -1.004294
    4 5.943489 0.000000 0.000000 0.020412 -0.027730 -0.427005
    5 -3.625659 0.000000 0.000000 -0.875363 -0.837573 -1.956167
    6 18.345812 0.000000 0.000000 0.000000 0.000000 2.389904
    7 16.751524 0.000000 0.000000 0.358732 -0.021954 -1.401351
    8 5.943490 0.000000 0.000000 -0.112051 0.023861 -0.331149
    9 0.000000 4.043964 -0.017929 1.580897 -0.307049 1.498049
    10 3.995838 0.000000 0.000000 -0.035815 0.013509 0.097795
    11 3.698242 -0.000001 0.000000 -0.091583 0.094271 0.202203
    12 5.700890 0.000000 0.000000 -0.128875 0.104762 0.545973
    13 5.352852 -0.000001 0.000000 -3.126786 0.005953 0.691504
    14 4.461819 0.000000 0.000000 0.032501 -0.066760 0.259150
    15 4.065388 1.458945 1.500000 -0.477626 -0.914779 -1.124344
    16 5.507357 0.000004 -0.000001 -1.707038 0.387495 -0.341286
    17 10.907398 0.000000 0.000000 0.000000 0.000000 -1.874779
    18 10.424324 -0.000008 -0.000027 2.732556 -0.079117 -0.075107
    19 2.997274 0.005409 -1.477472 0.007878 -0.080695 -0.862968
    20 1.510382 0.000000 0.000000 -0.125842 -0.198682 -0.570130
    21 0.808655 0.000002 0.000000 -0.054473 -0.175380 -0.302889
    22 3.305792 0.203112 -0.546730 0.121103 0.012041 -0.821261
    23 1.807182 0.000002 0.000000 -0.097757 -0.175234 -0.512469
    24 0.966137 0.000001 0.000000 0.002415 0.009757 -0.242679
    25 3.571512 0.109303 0.409580 0.171708 0.049096 -0.587763
    26 2.150654 -0.000002 0.000000 -0.118966 -0.076516 -1.001797
    27 1.152748 0.000000 0.000000 0.001897 0.012019 -0.156562
    28 3.684092 -0.158705 1.419183 0.169212 0.046758 -0.609994
    29 1.701014 -0.000002 0.000000 0.057264 0.071571 -0.675739
    30 0.994705 0.000002 0.000000 0.001236 0.038489 -0.401834
    31 1.068069 -1.287201 0.981905 1.847521 -0.683203 -0.463005
    32 1.836304 -0.000002 -0.000004 0.000013 -0.037568 -0.055870
    33 1.223948 -0.000001 0.000000 0.000000 0.000000 -0.125082
    34 4.065392 1.458946 -1.500000 1.811527 1.381858 0.107320
    35 5.507360 0.000008 -0.000001 1.364027 0.053775 -1.331723
    36 10.907398 0.000000 0.000004 0.000000 0.000000 -1.927715
    37 10.424301 -0.000005 0.000019 -1.160441 -0.024413 0.383581
    38 2.997293 0.000065 1.477481 -0.217008 -0.163702 -0.341356
    39 1.510378 -0.000004 0.000000 -0.022933 0.007613 -1.890993
    40 0.808655 0.000000 0.000000 0.054474 0.175340 -0.910365
    41 3.305817 0.201134 0.547461 -0.301746 -0.245900 -0.601601
    42 1.807175 0.000000 0.000000 0.115619 -0.003419 -1.600477
    43 0.966141 -0.000001 0.000000 -0.002403 -0.009699 -0.901508
    44 3.571524 0.110786 -0.409182 -0.302761 -0.227478 -0.659650
    45 2.150656 0.000000 0.000000 0.004951 -0.001033 -1.772344
    46 1.152752 0.000000 0.000000 -0.001870 -0.011971 -0.834431
    47 3.684113 -0.153563 -1.419748 -0.188140 -0.087648 -0.204768
    48 1.701017 0.000002 0.000000 -0.051327 -0.064037 -0.676424
    49 0.994705 0.000001 0.000000 -0.001277 -0.038560 -0.033101
    50 1.068094 -1.283653 -0.986553 -1.802022 0.200170 -0.546418
    51 1.836306 -0.000002 0.000000 -0.000004 -0.225005 -0.494029
    52 1.223946 0.000000 0.000002 -0.000040 0.040618 -0.404246
    53 0.000004 -0.000007 -0.000031 1.373047 0.113574 0.124314
    54 0.000000 0.000000 0.000000 -0.077030 -0.068757 -1.299215
    55 0.000004 -0.000007 -0.000031 1.373047 0.113574 0.124314
    56 0.000000 -0.000007 -0.000031 1.373047 0.113574 0.124314
    57 2.856897 -1.536201 -0.973800 -1.501147 -0.272558 -1.578261
    58 2.856895 -1.536198 -0.973800 -1.501147 -0.272558 -1.578261
    59 0.000000 0.000000 10.000000 0.000000 0.000000 0.000000
    60 0.018898 0.665159 9.395884 0.000000 0.000000 0.000000
    61 2.000008 -3.000000 0.000000 -1.570796 0.000000 -1.326450
    62 3.028210 -0.923409 -2.009452 1.574082 -0.012974 1.587244
    63 0.116955 4.311607 0.061861 0.000010 0.000000 0.000000
    64 0.000000 0.000000 0.000001 0.000000 0.000000 0.000000
    65 0.000000 1.000000 0.000008 0.000000 0.000000 0.000000
    66 0.000000 0.000000 0.000002 0.000000 0.000000 0.000000
    67 0.000000 0.000000 0.000002 0.000000 0.000000 0.000000
    68 0.000000 0.000000 0.000002 0.000000 0.000000 0.000000
time 14
    0 -2.798827 -6.911655 8.851563 0.233056 1.181319 0.553473
    1 3.625659 0.000000 0.000000 -2.112018 -0.932350 -1.128492
    2 18.345819 0.000000 0.000000 0.000000 0.000000 1.554836
    3 16.751528 0.000000 0.000000 -0.355314 0.178304 -1.009344
    4 5.943489 0.000000 0.000000 0.020412 -0.027730 -0.427005
    5 -3.625659 0.000000 0.000000 -1.000699 -0.821360 -1.918666
    6 18.345812 0.000000 0.000000 0.000000 0.000000 2.268377
    7 16.751524 0.000000 0.000000 0.422502 -0.101726 -1.309498
    8 5.943490 0.000000 0.000000 -0.112051 0.023861 -0.331149
    9 0.000000 4.043964 -0.017929 1.581895 -0.307068 1.494781
    10 3.995838 0.000000 0.000000 -0.016565 0.035396 0.089447
    11 3.698242 -0.000001 0.000000 -0.060619 0.076291 0.206791
    12 5.700890 0.000000 0.000000 -0.128875 0.104762 0.545973
    13 5.352852 -0.000001 0.000000 -3.126786 0.005953 0.691504
    14 4.461819 0.000000 0.000000 0.032501 -0.066760 0.259150
    15 4.065388 1.458945 1.500000 -0.811603 -0.967713 -0.784061
    16 5.507357 0.000004 -0.000001 -1.739080 0.490707 -0.525748
    17 10.907398 0.000000 0.000000 0.000000 0.000000 -1.964476
    18 10.424324 -0.000008 -0.000027 2.732556 -0.079117 -0.075107
    19 2.997274 0.005409 -1.477472 0.007878 -0.080695 -0.862968
    20 1.510382 0.000000 0.000000 -0.125842 -0.198682 -0.570130
    21 0.808655 0.000002 0.000000 -0.054473 -0.175380 -0.302889
    22 3.305792 0.203112 -0.546730 0.121103 0.012041 -0.821261
    23 1.807182 0.000002 0.000000 -0.097757 -0.175234 -0.512469
    24 0.966137 0.000001 0.000000 0.002415 0.009757 -0.242679
    25 3.571512 0.109303 0.409580 0.171708 0.049096 -0.587763
    26 2.150654 -0.000002 0.000000 -0.118966 -0.076516 -1.001797
    27 1.152748 0.000000 0.000000 0.001897 0.012019 -0.156562
    28 3.684092 -0.158705 1.419183 0.169212 0.046758 -0.609994
    29 1.701014 -0.000002 0.000000 0.057264 0.071571 -0.675739
    30 0.994705 0.000002 0.000000 0.001236 0.038489 -0.401834
    31 1.068069 -1.287201 0.981905 1.847521 -0.683203 -0.463005
    32 1.836304 -0.000002 -0.000004 0.000013 -0.037568 -0.055870
    33 1.223948 -0.000001 0.000000 0.000000 0.000000 -0.125082
    34 4.065392 1.458946 -1.500000 1.811527 1.381858 0.107320
    35 5.507360 0.000008 -0.000001 1.370104 0.071182 -1.270371
    36 10.907398 0.000000 0.000004 0.000000 0.000000 -1.879915
    37 10.424301 -0.000005 0.000019 -1.160441 -0.024413 0.383581
    38 2.997293 0.000065 1.477481 -0.217008 -0.163702 -0.341356
    39 1.510378 -0.000004 0.000000 -0.022933 0.007613 -1.890993
    40 0.808655 0.000000 0.000000 0.054474 0.175340 -0.910365
    41 3.305817 0.201134 0.547461 -0.301746 -0.245900 -0.601601
    42 1.807175 0.000000 0.000000 0.115619 -0.003419 -1.600477
    43 0.966141 -0.000001 0.000000 -0.002403 -0.009699 -0.901508
    44 3.571524 0.110786 -0.409182 -0.302761 -0.227478 -0.659650
    45 2.150656 0.000000 0.000000 0.004951 -0.001033 -1.772344
    46 1.152752 0.000000 0.000000 -0.001870 -0.011971 -0.834431
    47 3.684113 -0.153563 -1.419748 -0.188140 -0.087648 -0.204768
    48 1.701017 0.000002 0.000000 -0.051327 -0.064037 -0.676424
    49 0.994705 0.000001 0.000000 -0.001277 -0.038560 -0.033101
    50 1.068094 -1.283653 -0.986553 -1.802022 0.200170 -0.546418
    51 1.836306 -0.000002 0.000000 -0.000004 -0.225005 -0.494029
    52 1.223946 0.000000 0.000002 -0.000040 0.040618 -0.404246
    53 0.000004 -0.000007 -0.000031 1.373047 0.113574 0.124314
    54 0.000000 0.000000 0.000000 -0.077030 -0.068757 -1.299215
    55 0.000004 -0.000007 -0.000031 1.373047 0.113574 0.124314
    56 0.000000 -0.000007 -0.000031 1.373047 0.113574 0.124314
    57 2.856897 -1.536201 -0.973800 -1.501147 -0.272558 -1.578261
    58 2.856895 -1.536198 -0.973800 -1.501147 -0.272558 -1.578261
    59 0.000000 0.000000 10.000000 0.000000 0.000000 0.000000
    60 0.018898 0.665159 9.395884 0.000000 0.000000 0.000000
    61 2.000008 -3.000000 0.000000 -1.570796 0.000000 -1.326450
    62 3.028210 -0.923409 -2.009452 1.574082 -0.012974 1.587244
    63 0.116955 4.311607 0.061861 0.000010 0.000000 0.000000
    64 0.000000 0.000000 0.000001 0.000000 0.000000 0.000000
    65 0.000000 1.000000 0.000008 0.000000 0.000000 0.000000
    66 0.000000 0.000000 0.000002 0.000000 0.000000 0.000000
    67 0.000000 0.000000 0.000002 0.000000 0.000000 0.000000
    68 0.000000 0.000000 0.000002 0.000000 0.000000 0.000000
time 15
    0 -2.798827 -7.004687 8.617188 0.217346 1.182820 0.536443
    1 3.625659 0.000000 0.000000 -2.099280 -0.941598 -1.139795
    2 18.345819 0.000000 0.000000 0.000000 0.000000 1.557745
    3 16.751528 0.000000 0.000000 -0.395680 0.176102 -1.016790
    4 5.943489 0.000000 0.000000 0.020412 -0.027730 -0.427005
    5 -3.625659 0.000000 0.000000 -1.110852 -0.783086 -1.855476
    6 18.345812 0.000000 0.000000 0.000000 0.000000 2.137196
    7 16.751524 0.000000 0.000000 0.476801 -0.148215 -1.237828
    8 5.943490 0.000000 0.000000 -0.112051 0.023861 -0.331149
    9 0.000000 4.043964 -0.017929 1.582625 -0.307040 1.492310
    10 3.995838 0.000000 0.000000 0.002714 0.056228 0.081104
    11 3.698242 -0.000001 0.000000 -0.035704 0.057274 0.211167
    12 5.700890 0.000000 0.000000 -0.128875 0.104762 0.545973
    13 5.352852 -0.000001 0.000000 -3.126786 0.005953 0.691504
    14 4.461819 0.000000 0.000000 0.032501 -0.066760 0.259150
    15 4.065388 1.458945 1.500000 -1.119417 -0.975759 -0.450914
    16 5.507357 0.000004 -0.000001 -1.839889 0.535019 -0.767123
    17 10.907398 0.000000 0.000000 0.000000 0.000000 -2.071693
    18 10.424324 -0.000008 -0.000027 2.732556 -0.079117 -0.075107
    19 2.997274 0.005409 -1.477472 0.007878 -0.080695 -0.862968
    20 1.510382 0.000000 0.000000 -0.125842 -0.198682 -0.570130
    21 0.808655 0.000002 0.000000 -0.054473 -0.175380 -0.302889
    22 3.305792 0.203112 -0.546730 0.121103 0.012041 -0.821261
    23 1.807182 0.000002 0.000000 -0.097757 -0.175234 -0.512469
    24 0.966137 0.000001 0.000000 0.002415 0.009757 -0.242679
    25 3.571512 0.109303 0.409580 0.171708 0.049096 -0.587763
    26 2.150654 -0.000002 0.000000 -0.118966 -0.076516 -1.001797
    27 1.152748 0.000000 0.000000 0.001897 0.012019 -0.156562
    28 3.684092 -0.158705 1.419183 0.169212 0.046758 -0.609994
    29 1.701014 -0.000002 0.000000 0.057264 0.071571 -0.675739
    30 0.994705 0.000002 0.000000 0.001236 0.038489 -0.401834
    31 1.068069 -1.287201 0.981905 1.847521 -0.683203 -0.463005
    32 1.836304 -0.000002 -0.000004 0.000013 -0.037568 -0.055870
    33 1.223948 -0.000001 0.000000 0.000000 0.000000 -0.125082
    34 4.065392 1.458946 -1.500000 1.811527 1.381858 0.107320
    35 5.507360 0.000008 -0.000001 1.372873 0.084768 -1.219874
    36 10.907398 0.000000 0.000004 0.000000 0.000000 -1.830831
    37 10.424301 -0.000005 0.000019 -1.160441 -0.024413 0.383581
    38 2.997293 0.000065 1.477481 -0.217008 -0.163702 -0.341356
    39 1.510378 -0.000004 0.000000 -0.022933 0.007613 -1.890993
    40 0.808655 0.000000 0.000000 0.054474 0.175340 -0.910365
    41 3.305817 0.201134 0.547461 -0.301746 -0.245900 -0.601601
    42 1.807175 0.000000 0.000000 0.115619 -0.003419 -1.600477
    43 0.966141 -0.000001 0.000000 -0.002403 -0.009699 -0.901508
    44 3.571524 0.110786 -0.409182 -0.302761 -0.227478 -0.659650
    45 2.150656 0.000000 0.000000 0.004951 -0.001033 -1.772344
    46 1.152752 0.000000 0.000000 -0.001870 -0.011971 -0.834431
    47 3.684113 -0.153563 -1.419748 -0.188140 -0.087648 -0.204768
    48 1.701017 0.000002 0.000000 -0.051327 -0.064037 -0.676424
    49 0.994705 0.000001 0.000000 -0.001277 -0.038560 -0.033101
    50 1.068094 -1.283653 -0.986553 -1.802022 0.200170 -0.546418
    51 1.836306 -0.000002 0.000000 -0.000004 -0.225005 -0.494029
    52 1.223946 0.000000 0.000002 -0.000040 0.040618 -0.404246
    53 0.000004 -0.000007 -0.000031 1.373047 0.113574 0.124314
    54 0.000000 0.000000 0.000000 -0.077030 -0.068757 -1.299215
    55 0.000004 -0.000007 -0.000031 1.373047 0.113574 0.124314
    56 0.000000 -0.000007 -0.000031 1.373047 0.113574 0.124314
    57 2.856897 -1.536201 -0.973800 -1.501147 -0.272558 -1.578261
    58 2.856895 -1.536198 -0.973800 -1.501147 -0.272558 -1.578261
    59 0.000000 0.000000 10.000000 0.000000 0.000000 0.000000
    60 0.018898 0.665159 9.395884 0.000000 0.000000 0.000000
    61 2.000008 -3.000000 0.000000 -1.570796 0.000000 -1.326450
    62 3.028210 -0.923409 -2.009452 1.574082 -0.012974 1.587244
    63 0.116955 4.311607 0.061861 0.000010 0.000000 0.000000
    64 0.000000 0.000000 0.000001 0.000000 0.000000 0.000000
    65 0.000000 1.000000 0.000008 0.000000 0.000000 0.000000
    66 0.000000 0.000000 0.000002 0.000000 0.000000 0.000000
    67 0.000000 0.000000 0.000002 0.000000 0.000000 0.000000
    68 0.000000 0.000000 0.000002 0.000000 0.000000 0.000000
time 16
    0 -2.798827 -7.187974 8.398438 0.203185 1.184045 0.521150
    1 3.625659 0.000000 0.000000 -2.097158 -0.956822 -1.137961
    2 18.345819 0.000000 0.000000 0.000000 0.000000 1.572535
    3 16.751528 0.000000 0.000000 -0.420535 0.173441 -1.024636
    4 5.943489 0.000000 0.000000 0.020412 -0.027730 -0.427005
    5 -3.625659 0.000000 0.000000 -1.198951 -0.732404 -1.792003
    6 18.345812 0.000000 0.000000 0.000000 0.000000 2.005609
    7 16.751524 0.000000 0.000000 0.522386 -0.173578 -1.176834
    8 5.943490 0.000000 0.000000 -0.112051 0.023861 -0.331149
    9 0.000000 4.043964 -0.017929 1.583191 -0.307034 1.490457
    10 3.995838 0.000000 0.000000 0.011967 0.063391 0.077528
    11 3.698242 -0.000001 0.000000 -0.023660 0.039190 0.214353
    12 5.700890 0.000000 0.000000 -0.128875 0.104762 0.545973
    13 5.352852 -0.000001 0.000000 -3.126786 0.005953 0.691504
    14 4.461819 0.000000 0.000000 0.032501 -0.066760 0.259150
    15 4.065388 1.458945 1.500000 -1.298385 -0.989110 -0.248673
    16 5.507357 0.000004 -0.000001 -1.965312 0.473156 -1.011696
    17 10.907398 0.000000 0.000000 0.000000 0.000000 -2.160561
    18 10.424324 -0.000008 -0.000027 2.732556 -0.079117 -0.075107
    19 2.997274 0.005409 -1.477472 0.007878 -0.080695 -0.862968
    20 1.510382 0.000000 0.000000 -0.125842 -0.198682 -0.570130
    21 0.808655 0.000002 0.000000 -0.054473 -0.175380 -0.302889
    22 3.305792 0.203112 -0.546730 0.121103 0.012041 -0.821261
    23 1.807182 0.000002 0.000000 -0.097757 -0.175234 -0.512469
    24 0.966137 0.000001 0.000000 0.002415 0.009757 -0.242679
    25 3.571512 0.109303 0.409580 0.171708 0.049096 -0.587763
    26 2.150654 -0.000002 0.000000 -0.118966 -0.076516 -1.001797
    27 1.152748 0.000000 0.000000 0.001897 0.012019 -0.156562
    28 3.684092 -0.158705 1.419183 0.169212 0.046758 -0.609994
    29 1.701014 -0.000002 0.000000 0.057264 0.071571 -0.675739
    30 0.994705 0.000002 0.000000 0.001236 0.038489 -0.401834
    31 1.068069 -1.287201 0.981905 1.847521 -0.683203 -0.463005
    32 1.836304 -0.000002 -0.000004 0.000013 -0.037568 -0.055870
    33 1.223948 -0.000001 0.000000 0.000000 0.000000 -0.125082
    34 4.065392 1.458946 -1.500000 1.811527 1.381858 0.107320
    35 5.507360 0.000008 -0.000001 1.357638 0.106462 -1.185482
    36 10.907398 0.000000 0.000004 0.000000 0.000000 -1.784796
    37 10.424301 -0.000005 0.000019 -1.160441 -0.024413 0.383581
    38 2.997293 0.000065 1.477481 -0.217008 -0.163702 -0.341356
    39 1.510378 -0.000004 0.000000 -0.022933 0.007613 -1.890993
    40 0.808655 0.000000 0.000000 0.054474 0.175340 -0.910365
    41 3.305817 0.201134 0.547461 -0.301746 -0.245900 -0.601601
    42 1.807175 0.000000 0.000000 0.115619 -0.003419 -1.600477
    43 0.966141 -0.000001 0.000000 -0.002403 -0.009699 -0.901508
    44 3.571524 0.110786 -0.409182 -0.302761 -0.227478 -0.659650
    45 2.150656 0.000000 0.000000 0.004951 -0.001033 -1.772344
    46 1.152752 0.000000 0.000000 -0.001870 -0.011971 -0.834431
    47 3.684113 -0.153563 -1.419748 -0.188140 -0.087648 -0.204768
    48 1.701017 0.000002 0.000000 -0.051327 -0.064037 -0.676424
    49 0.994705 0.000001 0.000000 -0.001277 -0.038560 -0.033101
    50 1.068094 -1.283653 -0.986553 -1.802022 0.200170 -0.546418
    51 1.836306 -0.000002 0.000000 -0.000004 -0.225005 -0.494029
    52 1.223946 0.000000 0.000002 -0.000040 0.040618 -0.404246
    53 0.000004 -0.000007 -0.000031 1.373047 0.113574 0.124314
    54 0.000000 0.000000 0.000000 -0.077030 -0.068757 -1.299215
    55 0.000004 -0.000007 -0.000031 1.373047 0.113574 0.124314
    56 0.000000 -0.000007 -0.000031 1.373047 0.113574 0.124314
    57 2.856897 -1.536201 -0.973800 -1.501147 -0.272558 -1.578261
    58 2.856895 -1.536198 -0.973800 -1.501147 -0.272558 -1.578261
    59 0.000000 0.000000 10.000000 0.000000 0.000000 0.000000
    60 0.018898 0.665159 9.395884 0.000000 0.000000 0.000000
    61 2.000008 -3.000000 0.000000 -1.570796 0.000000 -1.326450
    62 3.028210 -0.923409 -2.009452 1.574082 -0.012974 1.587244
    63 0.116955 4.311607 0.061861 0.000010 0.000000 0.000000
    64 0.000000 0.000000 0.000001 0.000000 0.000000 0.000000
    65 0.000000 1.000000 0.000008 0.000000 0.000000 0.000000
    66 0.000000 0.000000 0.000002 0.000000 0.000000 0.000000
    67 0.000000 0.000000 0.000002 0.000000 0.000000 0.000000
    68 0.000000 0.000000 0.000002 0.000000 0.000000 0.000000
time 17
    0 -2.798827 -7.320891 8.250000 0.193890 1.184807 0.511195
    1 3.625659 0.000000 0.000000 -2.098173 -0.969996 -1.133937
    2 18.345819 0.000000 0.000000 0.000000 0.000000 1.586514
    3 16.751528 0.000000 0.000000 -0.436554 0.171354 -1.030929
    4 5.943489 0.000000 0.000000 0.020412 -0.027730 -0.427005
    5 -3.625659 0.000000 0.000000 -1.266581 -0.671189 -1.737233
    6 18.345812 0.000000 0.000000 0.000000 0.000000 1.869634
    7 16.751524 0.000000 0.000000 0.559031 -0.186600 -1.118020
    8 5.943490 0.000000 0.000000 -0.112051 0.023861 -0.331149
    9 0.000000 4.043964 -0.017929 1.583614 -0.306974 1.489124
    10 3.995838 0.000000 0.000000 0.007147 0.050951 0.080341
    11 3.698242 -0.000001 0.000000 -0.031258 0.017637 0.216343
    12 5.700890 0.000000 0.000000 -0.128875 0.104762 0.545973
    13 5.352852 -0.000001 0.000000 -3.126786 0.005953 0.691504
    14 4.461819 0.000000 0.000000 0.032501 -0.066760 0.259150
    15 4.065388 1.458945 1.500000 -1.357945 -1.076213 -0.186650
    16 5.507357 0.000004 -0.000001 -2.072858 0.332434 -1.208208
    17 10.907398 0.000000 0.000000 0.000000 0.000000 -2.202800
    18 10.424324 -0.000008 -0.000027 2.732556 -0.079117 -0.075107
    19 2.997274 0.005409 -1.477472 0.007878 -0.080695 -0.862968
    20 1.510382 0.000000 0.000000 -0.125842 -0.198682 -0.570130
    21 0.808655 0.000002 0.000000 -0.054473 -0.175380 -0.302889
    22 3.305792 0.203112 -0.546730 0.121103 0.012041 -0.821261
    23 1.807182 0.000002 0.000000 -0.097757 -0.175234 -0.512469
    24 0.966137 0.000001 0.000000 0.002415 0.009757 -0.242679
    25 3.571512 0.109303 0.409580 0.171708 0.049096 -0.587763
    26 2.150654 -0.000002 0.000000 -0.118966 -0.076516 -1.001797
    27 1.152748 0.000000 0.000000 0.001897 0.012019 -0.156562
    28 3.684092 -0.158705 1.419183 0.169212 0.046758 -0.609994
    29 1.701014 -0.000002 0.000000 0.057264 0.071571 -0.675739
    30 0.994705 0.000002 0.000000 0.001236 0.038489 -0.401834
    31 1.068069 -1.287201 0.981905 1.847521 -0.683203 -0.463005
    32 1.836304 -0.000002 -0.000004 0.000013 -0.037568 -0.055870
    33 1.223948 -0.000001 0.000000 0.000000 0.000000 -0.125082
    34 4.065392 1.458946 -1.500000 1.811527 1.381858 0.107320
    35 5.507360 0.000008 -0.000001 1.314707 0.146163 -1.172441
    36 10.907398 0.000000 0.000004 0.000000 0.000000 -1.745116
    37 10.424301 -0.000005 0.000019 -1.160441 -0.024413 0.383581
    38 2.997293 0.000065 1.477481 -0.217008 -0.163702 -0.341356
    39 1.510378 -0.000004 0.000000 -0.022933 0.007613 -1.890993
    40 0.808655 0.000000 0.000000 0.054474 0.175340 -0.910365
    41 3.305817 0.201134 0.547461 -0.301746 -0.245900 -0.601601
    42 1.807175 0.000000 0.000000 0.115619 -0.003419 -1.600477
    43 0.966141 -0.000001 0.000000 -0.002403 -0.009699 -0.901508
    44 3.571524 0.110786 -0.409182 -0.302761 -0.227478 -0.659650
    45 2.150656 0.000000 0.000000 0.004951 -0.001033 -1.772344
    46 1.152752 0.000000 0.000000 -0.001870 -0.011971 -0.834431
    47 3.684113 -0.153563 -1.419748 -0.188140 -0.087648 -0.204768
    48 1.701017 0.000002 0.000000 -0.051327 -0.064037 -0.676424
    49 0.994705 0.000001 0.000000 -0.001277 -0.038560 -0.033101
    50 1.068094 -1.283653 -0.986553 -1.802022 0.200170 -0.546418
    51 1.836306 -0.000002 0.000000 -0.000004 -0.225005 -0.494029
    52 1.223946 0.000000 0.000002 -0.000040 0.040618 -0.404246
    53 0.000004 -0.000007 -0.000031 1.373047 0.113574 0.124314
    54 0.000000 0.000000 0.000000 -0.077030 -0.068757 -1.299215
    55 0.000004 -0.000007 -0.000031 1.373047 0.113574 0.124314
    56 0.000000 -0.000007 -0.000031 1.373047 0.113574 0.124314
    57 2.856897 -1.536201 -0.973800 -1.501147 -0.272558 -1.578261
    58 2.856895 -1.536198 -0.973800 -1.501147 -0.272558 -1.578261
    59 0.000000 0.000000 10.000000 0.000000 0.000000 0.000000
    60 0.018898 0.665159 9.395884 0.000000 0.000000 0.000000
    61 2.000008 -3.000000 0.000000 -1.570796 0.000000 -1.326450
    62 3.028210 -0.923409 -2.009452 1.574082 -0.012974 1.587244
    63 0.116955 4.311607 0.061861 0.000010 0.000000 0.000000
    64 0.000000 0.000000 0.000001 0.000000 0.000000 0.000000
    65 0.000000 1.000000 0.000008 0.000000 0.000000 0.000000
    66 0.000000 0.000000 0.000002 0.000000 0.000000 0.000000
    67 0.000000 0.000000 0.000002 0.000000 0.000000 0.000000
    68 0.000000 0.000000 0.000002 0.000000 0.000000 0.000000
time 18
    0 -2.798827 -7.348750 8.187500 0.190468 1.185029 0.507420
    1 3.625659 0.000000 0.000000 -2.101783 -0.977058 -1.129015
    2 18.345819 0.000000 0.000000 0.000000 0.000000 1.594976
    3 16.751528 0.000000 0.000000 -0.445979 0.172009 -1.035015
    4 5.943489 0.000000 0.000000 0.020412 -0.027730 -0.427005
    5 -3.625659 0.000000 0.000000 -1.317112 -0.606151 -1.692161
    6 18.345812 0.000000 0.000000 0.000000 0.000000 1.735743
    7 16.751524 0.000000 0.000000 0.588439 -0.190631 -1.061824
    8 5.943490 0.000000 0.000000 -0.112051 0.023861 -0.331149
    9 0.000000 4.043964 -0.017929 1.583895 -0.307006 1.488162
    10 3.995838 0.000000 0.000000 -0.005226 0.026927 0.086723
    11 3.698242 -0.000001 0.000000 -0.054244 -0.009184 0.217783
    12 5.700890 0.000000 0.000000 -0.128875 0.104762 0.545973
    13 5.352852 -0.000001 0.000000 -3.126786 0.005953 0.691504
    14 4.461819 0.000000 0.000000 0.032501 -0.066760 0.259150
    15 4.065388 1.458945 1.500000 -1.352341 -1.228588 -0.206168
    16 5.507357 0.000004 -0.000001 -2.158741 0.177756 -1.344957
    17 10.907398 0.000000 0.000000 0.000000 0.000000 -2.190196
    18 10.424324 -0.000008 -0.000027 2.732556 -0.079117 -0.075107
    19 2.997274 0.005409 -1.477472 0.007878 -0.080695 -0.862968
    20 1.510382 0.000000 0.000000 -0.125842 -0.198682 -0.570130
    21 0.808655 0.000002 0.000000 -0.054473 -0.175380 -0.302889
    22 3.305792 0.203112 -0.546730 0.121103 0.012041 -0.821261
    23 1.807182 0.000002 0.000000 -0.097757 -0.175234 -0.512469
    24 0.966137 0.000001 0.000000 0.002415 0.009757 -0.242679
    25 3.571512 0.109303 0.409580 0.171708 0.049096 -0.587763
    26 2.150654 -0.000002 0.000000 -0.118966 -0.076516 -1.001797
    27 1.152748 0.000000 0.000000 0.001897 0.012019 -0.156562
    28 3.684092 -0.158705 1.419183 0.169212 0.046758 -0.609994
    29 1.701014 -0.000002 0.000000 0.057264 0.071571 -0.675739
    30 0.994705 0.000002 0.000000 0.001236 0.038489 -0.401834
    31 1.068069 -1.287201 0.981905 1.847521 -0.683203 -0.463005
    32 1.836304 -0.000002 -0.000004 0.000013 -0.037568 -0.055870
    33 1.223948 -0.000001 0.000000 0.000000 0.000000 -0.125082
    34 4.065392 1.458946 -1.500000 1.811527 1.381858 0.107320
    35 5.507360 0.000008 -0.000001 1.253762 0.195569 -1.180460
    36 10.907398 0.000000 0.000004 0.000000 0.000000 -1.713575
    37 10.424301 -0.000005 0.000019 -1.160441 -0.024413 0.383581
    38 2.997293 0.000065 1.477481 -0.217008 -0.163702 -0.341356
    39 1.510378 -0.000004 0.000000 -0.022933 0.007613 -1.890993
    40 0.808655 0.000000 0.000000 0.054474 0.175340 -0.910365
    41 3.305817 0.201134 0.547461 -0.301746 -0.245900 -0.601601
    42 1.807175 0.000000 0.000000 0.115619 -0.003419 -1.600477
    43 0.966141 -0.000001 0.000000 -0.002403 -0.009699 -0.901508
    44 3.571524 0.110786 -0.409182 -0.302761 -0.227478 -0.659650
    45 2.150656 0.000000 0.000000 0.004951 -0.001033 -1.772344
    46 1.152752 0.000000 0.000000 -0.001870 -0.011971 -0.834431
    47 3.684113 -0.153563 -1.419748 -0.188140 -0.087648 -0.204768
    48 1.701017 0.000002 0.000000 -0.051327 -0.064037 -0.676424
    49 0.994705 0.000001 0.000000 -0.001277 -0.038560 -0.033101
    50 1.068094 -1.283653 -0.986553 -1.802022 0.200170 -0.546418
    51 1.836306 -0.000002 0.000000 -0.000004 -0.225005 -0.494029
    52 1.223946 0.000000 0.000002 -0.000040 0.040618 -0.404246
    53 0.000004 -0.000007 -0.000031 1.373047 0.113574 0.124314
    54 0.000000 0.000000 0.000000 -0.077030 -0.068757 -1.299215
    55 0.000004 -0.000007 -0.000031 1.373047 0.113574 0.124314
    56 0.000000 -0.000007 -0.000031 1.373047 0.113574 0.124314
    57 2.856897 -1.536201 -0.973800 -1.501147 -0.272558 -1.578261
    58 2.856895 -1.536198 -0.973800 -1.501147 -0.272558 -1.578261
    59 0.000000 0.000000 10.000000 0.000000 0.000000 0.000000
    60 0.018898 0.665159 9.395884 0.000000 0.000000 0.000000
    61 2.000008 -3.000000 0.000000 -1.570796 0.000000 -1.326450
    62 3.028210 -0.923409 -2.009452 1.574082 -0.012974 1.587244
    63 0.116955 4.311607 0.061861 0.000010 0.000000 0.000000
    64 0.000000 0.000000 0.000001 0.000000 0.000000 0.000000
    65 0.000000 1.000000 0.000008 0.000000 0.000000 0.000000
    66 0.000000 0.000000 0.000002 0.000000 0.000000 0.000000
    67 0.000000 0.000000 0.000002 0.000000 0.000000 0.000000
    68 0.000000 0.000000 0.000002 0.000000 0.000000 0.000000
time 19
    0 -2.798827 -7.341863 8.195313 0.190764 1.185072 0.507723
    1 3.625659 0.000000 0.000000 -2.108031 -0.980680 -1.122399
    2 18.345819 0.000000 0.000000 0.000000 0.000000 1.601239
    3 16.751528 0.000000 0.000000 -0.450808 0.174681 -1.037998
    4 5.943489 0.000000 0.000000 0.020412 -0.027730 -0.427005
    5 -3.625659 0.000000 0.000000 -1.351169 -0.564146 -1.660512
    6 18.345812 0.000000 0.000000 0.000000 0.000000 1.650917
    7 16.751524 0.000000 0.000000 0.611537 -0.187954 -1.028338
    8 5.943490 0.000000 0.000000 -0.112051 0.023861 -0.331149
    9 0.000000 4.043964 -0.017929 1.584056 -0.306979 1.487546
    10 3.995838 0.000000 0.000000 -0.020239 -0.000342 0.094225
    11 3.698242 -0.000001 0.000000 -0.082787 -0.035495 0.218796
    12 5.700890 0.000000 0.000000 -0.128875 0.104762 0.545973
    13 5.352852 -0.000001 0.000000 -3.126786 0.005953 0.691504
    14 4.461819 0.000000 0.000000 0.032501 -0.066760 0.259150
    15 4.065388 1.458945 1.500000 -1.221425 -1.396844 -0.357149
    16 5.507357 0.000004 -0.000001 -2.214194 0.062372 -1.393762
    17 10.907398 0.000000 0.000000 0.000000 0.000000 -2.140445
    18 10.424324 -0.000008 -0.000027 2.732556 -0.079117 -0.075107
    19 2.997274 0.005409 -1.477472 0.007878 -0.080695 -0.862968
    20 1.510382 0.000000 0.000000 -0.125842 -0.198682 -0.570130
    21 0.808655 0.000002 0.000000 -0.054473 -0.175380 -0.302889
    22 3.305792 0.203112 -0.546730 0.121103 0.012041 -0.821261
    23 1.807182 0.000002 0.000000 -0.097757 -0.175234 -0.512469
    24 0.966137 0.000001 0.000000 0.002415 0.009757 -0.242679
    25 3.571512 0.109303 0.409580 0.171708 0.049096 -0.587763
    26 2.150654 -0.000002 0.000000 -0.118966 -0.076516 -1.001797
    27 1.152748 0.000000 0.000000 0.001897 0.012019 -0.156562
    28 3.684092 -0.158705 1.419183 0.169212 0.046758 -0.609994
    29 1.701014 -0.000002 0.000000 0.057264 0.071571 -0.675739
    30 0.994705 0.000002 0.000000 0.001236 0.038489 -0.401834
    31 1.068069 -1.287201 0.981905 1.847521 -0.683203 -0.463005
    32 1.836304 -0.000002 -0.000004 0.000013 -0.037568 -0.055870
    33 1.223948 -0.000001 0.000000 0.000000 0.000000 -0.125082
    34 4.065392 1.458946 -1.500000 1.811527 1.381858 0.107320
    35 5.507360 0.000008 -0.000001 1.189402 0.242243 -1.201383
    36 10.907398 0.000000 0.000004 0.000000 0.000000 -1.691307
    37 10.424301 -0.000005 0.000019 -1.160441 -0.024413 0.383581
    38 2.997293 0.000065 1.477481 -0.217008 -0.163702 -0.341356
    39 1.510378 -0.000004 0.000000 -0.022933 0.007613 -1.890993
    40 0.808655 0.000000 0.000000 0.054474 0.175340 -0.910365
    41 3.305817 0.201134 0.547461 -0.301746 -0.245900 -0.601601
    42 1.807175 0.000000 0.000000 0.115619 -0.003419 -1.600477
    43 0.966141 -0.000001 0.000000 -0.002403 -0.009699 -0.901508
    44 3.571524 0.110786 -0.409182 -0.302761 -0.227478 -0.659650
    45 2.150656 0.000000 0.000000 0.004951 -0.001033 -1.772344
    46 1.152752 0.000000 0.000000 -0.001870 -0.011971 -0.834431
    47 3.684113 -0.153563 -1.419748 -0.188140 -0.087648 -0.204768
    48 1.701017 0.000002 0.000000 -0.051327 -0.064037 -0.676424
    49 0.994705 0.000001 0.000000 -0.001277 -0.038560 -0.033101
    50 1.068094 -1.283653 -0.986553 -1.802022 0.200170 -0.546418
    51 1.836306 -0.000002 0.000000 -0.000004 -0.225005 -0.494029
    52 1.223946 0.000000 0.000002 -0.000040 0.040618 -0.404246
    53 0.000004 -0.000007 -0.000031 1.373047 0.113574 0.124314
    54 0.000000 0.000000 0.000000 -0.077030 -0.068757 -1.299215
    55 0.000004 -0.000007 -0.000031 1.373047 0.113574 0.124314
    56 0.000000 -0.000007 -0.000031 1.373047 0.113574 0.124314
    57 2.856897 -1.536201 -0.973800 -1.501147 -0.272558 -1.578261
    58 2.856895 -1.536198 -0.973800 -1.501147 -0.272558 -1.578261
    59 0.000000 0.000000 10.000000 0.000000 0.000000 0.000000
    60 0.018898 0.665159 9.395884 0.000000 0.000000 0.000000
    61 2.000008 -3.000000 0.000000 -1.570796 0.000000 -1.326450
    62 3.028210 -0.923409 -2.009452 1.574082 -0.012974 1.587244
    63 0.116955 4.311607 0.061861 0.000010 0.000000 0.000000
    64 0.000000 0.000000 0.000001 0.000000 0.000000 0.000000
    65 0.000000 1.000000 0.000008 0.000000 0.000000 0.000000
    66 0.000000 0.000000 0.000002 0.000000 0.000000 0.000000
    67 0.000000 0.000000 0.000002 0.000000 0.000000 0.000000
    68 0.000000 0.000000 0.000002 0.000000 0.000000 0.000000
time 20
    0 -2.798827 -7.331481 8.226563 0.192759 1.184931 0.509928
    1 3.625659 0.000000 0.000000 -2.113973 -0.981938 -1.116567
    2 18.345819 0.000000 0.000000 0.000000 0.000000 1.604964
    3 16.751528 0.000000 0.000000 -0.452988 0.177660 -1.040006
    4 5.943489 0.000000 0.000000 0.020412 -0.027730 -0.427005
    5 -3.625659 0.000000 0.000000 -1.367140 -0.564997 -1.648899
    6 18.345812 0.000000 0.000000 0.000000 0.000000 1.649390
    7 16.751524 0.000000 0.000000 0.625524 -0.184856 -1.030873
    8 5.943490 0.000000 0.000000 -0.112051 0.023861 -0.331149
    9 0.000000 4.043964 -0.017929 1.584176 -0.306965 1.487275
    10 3.995838 0.000000 0.000000 -0.032954 -0.022721 0.100488
    11 3.698242 -0.000001 0.000000 -0.107202 -0.055508 0.219437
    12 5.700890 0.000000 0.000000 -0.128875 0.104762 0.545973
    13 5.352852 -0.000001 0.000000 -3.126786 0.005953 0.691504
    14 4.461819 0.000000 0.000000 0.032501 -0.066760 0.259150
    15 4.065388 1.458945 1.500000 -0.392018 -1.511394 -1.203480
    16 5.507357 0.000004 -0.000001 -2.247466 -0.001218 -1.375508
    17 10.907398 0.000000 0.000000 0.000000 0.000000 -2.086811
    18 10.424324 -0.000008 -0.000027 2.732556 -0.079117 -0.075107
    19 2.997274 0.005409 -1.477472 0.007878 -0.080695 -0.862968
    20 1.510382 0.000000 0.000000 -0.125842 -0.198682 -0.570130
    21 0.808655 0.000002 0.000000 -0.054473 -0.175380 -0.302889
    22 3.305792 0.203112 -0.546730 0.121103 0.012041 -0.821261
    23 1.807182 0.000002 0.000000 -0.097757 -0.175234 -0.512469
    24 0.966137 0.000001 0.000000 0.002415 0.009757 -0.242679
    25 3.571512 0.109303 0.409580 0.171708 0.049096 -0.587763
    26 2.150654 -0.000002 0.000000 -0.118966 -0.076516 -1.001797
    27 1.152748 0.000000 0.000000 0.001897 0.012019 -0.156562
    28 3.684092 -0.158705 1.419183 0.169212 0.046758 -0.609994
    29 1.701014 -0.000002 0.000000 0.057264 0.071571 -0.675739
    30 0.994705 0.000002 0.000000 0.001236 0.038489 -0.401834
    31 1.068069 -1.287201 0.981905 1.847521 -0.683203 -0.463005
    32 1.836304 -0.000002 -0.000004 0.000013 -0.037568 -0.055870
    33 1.223948 -0.000001 0.000000 0.000000 0.000000 -0.125082
    34 4.065392 1.458946 -1.500000 1.811527 1.381858 0.107320
    35 5.507360 0.000008 -0.000001 1.137336 0.275786 -1.223785
    36 10.907398 0.000000 0.000004 0.000000 0.000000 -1.678119
    37 10.424301 -0.000005 0.000019 -1.160441 -0.024413 0.383581
    38 2.997293 0.000065 1.477481 -0.217008 -0.163702 -0.341356
    39 1.510378 -0.000004 0.000000 -0.022933 0.007613 -1.890993
    40 0.808655 0.000000 0.000000 0.054474 0.175340 -0.910365
    41 3.305817 0.201134 0.547461 -0.301746 -0.245900 -0.601601
    42 1.807175 0.000000 0.000000 0.115619 -0.003419 -1.600477
    43 0.966141 -0.000001 0.000000 -0.002403 -0.009699 -0.901508
    44 3.571524 0.110786 -0.409182 -0.302761 -0.227478 -0.659650
    45 2.150656 0.000000 0.000000 0.004951 -0.001033 -1.772344
    46 1.152752 0.000000 0.000000 -0.001870 -0.011971 -0.834431
    47 3.684113 -0.153563 -1.419748 -0.188140 -0.087648 -0.204768
    48 1.701017 0.000002 0.000000 -0.051327 -0.064037 -0.676424
    49 0.994705 0.000001 0.000000 -0.001277 -0.038560 -0.033101
    50 1.068094 -1.283653 -0.986553 -1.802022 0.200170 -0.546418
    51 1.836306 -0.000002 0.000000 -0.000004 -0.225005 -0.494029
    52 1.223946 0.000000 0.000002 -0.000040 0.040618 -0.404246
    53 0.000004 -0.000007 -0.000031 1.373047 0.113574 0.124314
    54 0.000000 0.000000 0.000000 -0.077030 -0.068757 -1.299215
    55 0.000004 -0.000007 -0.000031 1.373047 0.113574 0.124314
    56 0.000000 -0.000007 -0.000031 1.373047 0.113574 0.124314
    57 2.856897 -1.536201 -0.973800 -1.501147 -0.272558 -1.578261
    58 2.856895 -1.536198 -0.973800 -1.501147 -0.272558 -1.578261
    59 0.000000 0.000000 10.000000 0.000000 0.000000 0.000000
    60 0.018898 0.665159 9.395884 0.000000 0.000000 0.000000
    61 2.000008 -3.000000 0.000000 -1.570796 0.000000 -1.326450
    62 3.028210 -0.923409 -2.009452 1.574082 -0.012974 1.587244
    63 0.116955 4.311607 0.061861 0.000010 0.000000 0.000000
    64 0.000000 0.000000 0.000001 0.000000 0.000000 0.000000
    65 0.000000 1.000000 0.000008 0.000000 0.000000 0.000000
    66 0.000000 0.000000 0.000002 0.000000 0.000000 0.000000
    67 0.000000 0.000000 0.000002 0.000000 0.000000 0.000000
    68 0.000000 0.000000 0.000002 0.000000 0.000000 0.000000
time 21
    0 -2.798827 -7.317604 8.250000 0.193890 1.184807 0.511195
    1 3.625659 0.000000 0.000000 -2.116647 -0.982091 -1.114019
    2 18.345819 0.000000 0.000000 0.000000 0.000000 1.606284
    3 16.751528 0.000000 0.000000 -0.453824 0.179152 -1.041213
    4 5.943489 0.000000 0.000000 0.020412 -0.027730 -0.427005
    5 -3.625659 0.000000 0.000000 -1.372375 -0.564925 -1.644988
    6 18.345812 0.000000 0.000000 0.000000 0.000000 1.648449
    7 16.751524 0.000000 0.000000 0.630024 -0.183577 -1.031621
    8 5.943490 0.000000 0.000000 -0.112051 0.023861 -0.331149
    9 0.000000 4.043964 -0.017929 1.584197 -0.306958 1.487103
    10 3.995838 0.000000 0.000000 -0.038313 -0.032089 0.103074
    11 3.698242 -0.000001 0.000000 -0.117504 -0.063516 0.219674
    12 5.700890 0.000000 0.000000 -0.128875 0.104762 0.545973
    13 5.352852 -0.000001 0.000000 -3.126786 0.005953 0.691504
    14 4.461819 0.000000 0.000000 0.032501 -0.066760 0.259150
    15 4.065388 1.458945 1.500000 0.582489 -1.505514 -2.184709
    16 5.507357 0.000004 -0.000001 -2.260071 -0.021771 -1.355219
    17 10.907398 0.000000 0.000000 0.000000 0.000000 -2.063052
    18 10.424324 -0.000008 -0.000027 2.732556 -0.079117 -0.075107
    19 2.997274 0.005409 -1.477472 0.007878 -0.080695 -0.862968
    20 1.510382 0.000000 0.000000 -0.125842 -0.198682 -0.570130
    21 0.808655 0.000002 0.000000 -0.054473 -0.175380 -0.302889
    22 3.305792 0.203112 -0.546730 0.121103 0.012041 -0.821261
    23 1.807182 0.000002 0.000000 -0.097757 -0.175234 -0.512469
    24 0.966137 0.000001 0.000000 0.002415 0.009757 -0.242679
    25 3.571512 0.109303 0.409580 0.171708 0.049096 -0.587763
    26 2.150654 -0.000002 0.000000 -0.118966 -0.076516 -1.001797
    27 1.152748 0.000000 0.000000 0.001897 0.012019 -0.156562
    28 3.684092 -0.158705 1.419183 0.169212 0.046758 -0.609994
    29 1.701014 -0.000002 0.000000 0.057264 0.071571 -0.675739
    30 0.994705 0.000002 0.000000 0.001236 0.038489 -0.401834
    31 1.068069 -1.287201 0.981905 1.847521 -0.683203 -0.463005
    32 1.836304 -0.000002 -0.000004 0.000013 -0.037568 -0.055870
    33 1.223948 -0.000001 0.000000 0.000000 0.000000 -0.125082
    34 4.065392 1.458946 -1.500000 1.811527 1.381858 0.107320
    35 5.507360 0.000008 -0.000001 1.115721 0.288366 -1.234165
    36 10.907398 0.000000 0.000004 0.000000 0.000000 -1.673938
    37 10.424301 -0.000005 0.000019 -1.160441 -0.024413 0.383581
    38 2.997293 0.000065 1.477481 -0.217008 -0.163702 -0.341356
    39 1.510378 -0.000004 0.000000 -0.022933 0.007613 -1.890993
    40 0.808655 0.000000 0.000000 0.054474 0.175340 -0.910365
    41 3.305817 0.201134 0.547461 -0.301746 -0.245900 -0.601601
    42 1.807175 0.000000 0.000000 0.115619 -0.003419 -1.600477
    43 0.966141 -0.000001 0.000000 -0.002403 -0.009699 -0.901508
    44 3.571524 0.110786 -0.409182 -0.302761 -0.227478 -0.659650
    45 2.150656 0.000000 0.000000 0.004951 -0.001033 -1.772344
    46 1.152752 0.000000 0.000000 -0.001870 -0.011971 -0.834431
    47 3.684113 -0.153563 -1.419748 -0.188140 -0.087648 -0.204768
    48 1.701017 0.000002 0.000000 -0.051327 -0.064037 -0.676424
    49 0.994705 0.000001 0.000000 -0.001277 -0.038560 -0.033101
    50 1.068094 -1.283653 -0.986553 -1.802022 0.200170 -0.546418
    51 1.836306 -0.000002 0.000000 -0.000004 -0.225005 -0.494029
    52 1.223946 0.000000 0.000002 -0.000040 0.040618 -0.404246
    53 0.000004 -0.000007 -0.000031 1.373047 0.113574 0.124314
    54 0.000000 0.000000 0.000000 -0.077030 -0.068757 -1.299215
    55 0.000004 -0.000007 -0.000031 1.373047 0.113574 0.124314
    56 0.000000 -0.000007 -0.000031 1.373047 0.113574 0.124314
    57 2.856897 -1.536201 -0.973800 -1.501147 -0.272558 -1.578261
    58 2.856895 -1.536198 -0.973800 -1.501147 -0.272558 -1.578261
    59 0.000000 0.000000 10.000000 0.000000 0.000000 0.000000
    60 0.018898 0.665159 9.395884 0.000000 0.000000 0.000000
    61 2.000008 -3.000000 0.000000 -1.570796 0.000000 -1.326450
    62 3.028210 -0.923409 -2.009452 1.574082 -0.012974 1.587244
    63 0.116955 4.311607 0.061861 0.000010 0.000000 0.000000
    64 0.000000 0.000000 0.000001 0.000000 0.000000 0.000000
    65 0.000000 1.000000 0.000008 0.000000 0.000000 0.000000
    66 0.000000 0.000000 0.000002 0.000000 0.000000 0.000000
    67 0.000000 0.000000 0.000002 0.000000 0.000000 0.000000
    68 0.000000 0.000000 0.000002 0.000000 0.000000 0.000000
end
