version 1
nodes
  0 "ValveBiped.Bip01_Pelvis" -1
  1 "ValveBiped.Bip01_L_Thigh" 0
  2 "ValveBiped.Bip01_L_Calf" 1
  3 "ValveBiped.Bip01_L_Foot" 2
  4 "ValveBiped.Bip01_L_Toe0" 3
  5 "ValveBiped.Bip01_R_Thigh" 0
  6 "ValveBiped.Bip01_R_Calf" 5
  7 "ValveBiped.Bip01_R_Foot" 6
  8 "ValveBiped.Bip01_R_Toe0" 7
  9 "ValveBiped.Bip01_Spine" 0
  10 "ValveBiped.Bip01_Spine1" 9
  11 "ValveBiped.Bip01_Spine2" 10
  12 "ValveBiped.Bip01_Spine4" 11
  13 "ValveBiped.Bip01_Neck1" 12
  14 "ValveBiped.Bip01_Head1" 13
  15 "ValveBiped.Bip01_L_Clavicle" 12
  16 "ValveBiped.Bip01_L_UpperArm" 15
  17 "ValveBiped.Bip01_L_Forearm" 16
  18 "ValveBiped.Bip01_L_Hand" 17
  19 "ValveBiped.Bip01_L_Finger4" 18
  20 "ValveBiped.Bip01_L_Finger41" 19
  21 "ValveBiped.Bip01_L_Finger42" 20
  22 "ValveBiped.Bip01_L_Finger3" 18
  23 "ValveBiped.Bip01_L_Finger31" 22
  24 "ValveBiped.Bip01_L_Finger32" 23
  25 "ValveBiped.Bip01_L_Finger2" 18
  26 "ValveBiped.Bip01_L_Finger21" 25
  27 "ValveBiped.Bip01_L_Finger22" 26
  28 "ValveBiped.Bip01_L_Finger1" 18
  29 "ValveBiped.Bip01_L_Finger11" 28
  30 "ValveBiped.Bip01_L_Finger12" 29
  31 "ValveBiped.Bip01_L_Finger0" 18
  32 "ValveBiped.Bip01_L_Finger01" 31
  33 "ValveBiped.Bip01_L_Finger02" 32
  34 "ValveBiped.Bip01_R_Clavicle" 12
  35 "ValveBiped.Bip01_R_UpperArm" 34
  36 "ValveBiped.Bip01_R_Forearm" 35
  37 "ValveBiped.Bip01_R_Hand" 36
  38 "ValveBiped.Bip01_R_Finger4" 37
  39 "ValveBiped.Bip01_R_Finger41" 38
  40 "ValveBiped.Bip01_R_Finger42" 39
  41 "ValveBiped.Bip01_R_Finger3" 37
  42 "ValveBiped.Bip01_R_Finger31" 41
  43 "ValveBiped.Bip01_R_Finger32" 42
  44 "ValveBiped.Bip01_R_Finger2" 37
  45 "ValveBiped.Bip01_R_Finger21" 44
  46 "ValveBiped.Bip01_R_Finger22" 45
  47 "ValveBiped.Bip01_R_Finger1" 37
  48 "ValveBiped.Bip01_R_Finger11" 47
  49 "ValveBiped.Bip01_R_Finger12" 48
  50 "ValveBiped.Bip01_R_Finger0" 37
  51 "ValveBiped.Bip01_R_Finger01" 50
  52 "ValveBiped.Bip01_R_Finger02" 51
  53 "ValveBiped.attachment_bandage_legL" 2
  54 "ValveBiped.attachment_bandage_armL" 17
  55 "ValveBiped.attachment_armL_T" 17
  56 "ValveBiped.attachment_armR_T" 36
  57 "ValveBiped.weapon_bone" 37
  58 "ValveBiped.weapon_bone_Clip" 57
  59 "ValveBiped.forward" 14
  60 "ValveBiped.L_weapon_bone" 18
  61 "ValveBiped.Jiggle_tie1" 12
  62 "ValveBiped.Jiggle_tie2" 61
  63 "ValveBiped.Jiggle_tie3" 62
  64 "ValveBiped.Jiggle_tie4" 63
  65 "ValveBiped.weapon_bone_Clip2" 18
  66 "ValveBiped.weapon_bone_Clip2_Bullets" 65
  67 "ValveBiped.weapon_bolt_l" 18
  68 "ValveBiped.weapon_bone_Clip_Bullets" 58
  69 "ValveBiped.weapon_bolt" 57
  70 "ValveBiped.weapon_bolt_opposite" 57
  71 "ValveBiped.weapon_charger" 57
  72 "ValveBiped.weapon_bone_extra" 57
end
skeleton
time 0
    0 0.000000 0.542480 40.218750 1.570792 0.000003 -0.000003
    1 3.806942 0.000000 0.000000 -1.670471 0.058055 -1.519283
    2 19.263102 0.000000 0.000000 0.000000 0.000000 0.000000
    3 17.589098 0.000000 0.000000 -0.077030 -0.068757 -1.299215
    4 6.240661 0.000000 0.000000 0.020295 -0.027709 -0.336371
    5 -3.806942 0.000000 0.000000 -1.471122 0.058055 -1.622309
    6 19.263102 0.000000 0.000000 0.000000 0.000000 0.000000
    7 17.589098 0.000000 0.000000 0.088733 0.068757 -1.299215
    8 6.240660 0.000000 0.000000 -0.111841 0.023845 -0.336656
    9 0.000000 4.246162 -0.018825 1.570796 0.083193 1.570796
    10 4.195629 0.000000 0.000000 0.000000 0.000000 -0.171967
    11 3.883152 0.000000 0.000000 0.000000 0.000000 -0.015830
    12 5.985935 0.000001 0.000000 0.000000 0.000000 0.495179
    13 5.620495 -0.000002 0.000000 3.141590 0.000000 0.250601
    14 4.684906 -0.000002 0.000000 0.000000 -0.000001 0.463832
    15 4.268654 1.531893 1.575000 0.877508 -1.114834 -2.566259
    16 5.782731 0.000004 0.000000 -1.384889 -0.344361 -0.770833
    17 11.452770 0.000000 0.000000 0.000000 0.000000 -0.125707
    18 10.945538 -0.000009 -0.000034 1.373047 0.113574 0.124314
    19 3.147137 0.005678 -1.551345 0.204943 0.143348 -0.226720
    20 1.585899 0.000000 0.000000 0.011403 0.016670 -0.599949
    21 0.849091 0.000002 0.000000 -0.054472 -0.175379 -0.302888
    22 3.471081 0.213266 -0.574066 0.197882 0.103918 -0.292835
    23 1.897533 0.000000 0.000000 -0.051968 -0.088372 -0.532551
    24 1.014450 0.000002 0.000000 0.002415 0.009756 -0.242678
    25 3.750084 0.114767 0.430059 0.187279 0.067955 -0.258153
    26 2.258194 0.000000 0.000000 -0.042077 -0.053977 -0.662652
    27 1.210384 0.000001 0.000000 0.001897 0.012018 -0.156562
    28 3.868298 -0.166639 1.490142 0.180687 0.034227 -0.204093
    29 1.786068 0.000000 0.000000 0.051327 0.064035 -0.676423
    30 1.044441 -0.000001 0.000000 0.001275 0.038559 -0.033100
    31 1.121475 -1.351564 1.030999 1.693865 -0.344560 -0.124114
    32 1.928118 0.000000 0.000004 0.000001 -0.188117 -0.185283
    33 1.285141 0.000000 0.000000 -0.000001 -0.040646 0.196332
    34 4.268654 1.531894 -1.575000 -0.952658 1.114834 -2.566259
    35 5.782726 0.000000 0.000001 1.443300 0.396163 -0.749684
    36 11.452770 0.000001 0.000000 0.000000 0.000000 -0.125707
    37 10.945513 -0.000004 0.000015 -1.376663 -0.113578 0.124313
    38 3.147154 0.000071 1.551354 -0.201327 -0.143350 -0.226717
    39 1.585907 0.000002 0.000000 -0.011403 -0.016670 -0.599949
    40 0.849087 -0.000001 0.000000 0.054472 0.175379 -0.302888
    41 3.471100 0.211191 0.574833 -0.194265 -0.103920 -0.292830
    42 1.897533 -0.000002 0.000000 0.051968 0.088372 -0.532551
    43 1.014446 -0.000002 0.000000 -0.002415 -0.009756 -0.242678
    44 3.750103 0.116323 -0.429640 -0.183663 -0.067957 -0.258149
    45 2.258190 0.000000 0.000000 0.042077 0.053977 -0.662652
    46 1.210388 -0.000002 0.000000 -0.001897 -0.012018 -0.156562
    47 3.868322 -0.161243 -1.490733 -0.177071 -0.034228 -0.204088
    48 1.786064 0.000000 0.000000 -0.051327 -0.064035 -0.676423
    49 1.044445 -0.000001 0.000000 -0.001275 -0.038559 -0.033100
    50 1.121500 -1.347836 -1.035881 -1.690050 0.345003 -0.122821
    51 1.928120 0.000000 -0.000002 -0.000001 0.188117 -0.185283
    52 1.285141 0.000000 0.000000 0.000001 0.040646 0.196332
    53 11.345838 -3.026195 0.311951 2.620672 -1.456011 -1.105364
    54 3.813801 -3.870656 0.998558 1.570796 -1.069638 0.199892
    55 0.000000 -0.000008 -0.000031 1.373047 0.113574 0.124314
    56 0.000000 -0.000008 -0.000031 1.373047 0.113574 0.124314
    57 2.856899 -1.536200 -0.973800 -1.501147 -0.272558 -1.578261
    58 0.000000 0.000001 0.000000 0.000000 0.000000 -0.000001
    59 2.000000 -3.000000 0.000000 -1.570796 0.000000 -1.326450
    60 3.349001 -1.370996 0.724999 1.977842 -0.088017 1.557794
    61 3.108662 4.921190 -1.149827 2.034897 -1.367815 -2.475612
    62 -0.000001 0.000000 4.954498 0.027191 0.033236 0.070847
    63 -0.045793 -0.009843 4.253613 0.064695 -0.120820 0.063242
    64 0.184012 0.107328 3.577530 0.000000 0.000000 0.000000
    65 3.028210 -0.923407 -2.009451 1.574082 -0.012974 1.587244
    66 0.116953 4.311607 0.061865 0.000010 0.000000 0.000000
    67 0.000000 0.000000 0.000001 0.000000 0.000000 0.000000
    68 0.000000 1.000000 0.000008 0.000000 0.000000 0.000000
    69 0.000000 0.000000 0.000000 0.000000 0.000000 0.000000
    70 0.000000 0.000000 0.000000 0.000000 0.000000 0.000000
    71 0.000000 0.000000 0.000000 0.000000 0.000000 0.000000
    72 0.018898 0.665159 9.395884 0.000000 0.000000 0.000000
end
