version 1
nodes
  0 "ValveBiped.ValveBiped" -1
  1 "ValveBiped.Bip01" 0
  2 "ValveBiped.Bip01_Spine" 1
  3 "ValveBiped.Bip01_Spine1" 2
  4 "ValveBiped.Bip01_Spine2" 3
  5 "ValveBiped.Bip01_Spine4" 4
  6 "ValveBiped.Bip01_L_Clavicle" 5
  7 "ValveBiped.Bip01_L_UpperArm" 6
  8 "ValveBiped.Bip01_L_Forearm" 7
  9 "ValveBiped.Bip01_L_Hand" 8
  10 "ValveBiped.Bip01_L_Finger4" 9
  11 "ValveBiped.Bip01_L_Finger41" 10
  12 "ValveBiped.Bip01_L_Finger42" 11
  13 "ValveBiped.Bip01_L_Finger3" 9
  14 "ValveBiped.Bip01_L_Finger31" 13
  15 "ValveBiped.Bip01_L_Finger32" 14
  16 "ValveBiped.Bip01_L_Finger2" 9
  17 "ValveBiped.Bip01_L_Finger21" 16
  18 "ValveBiped.Bip01_L_Finger22" 17
  19 "ValveBiped.Bip01_L_Finger1" 9
  20 "ValveBiped.Bip01_L_Finger11" 19
  21 "ValveBiped.Bip01_L_Finger12" 20
  22 "ValveBiped.Bip01_L_Finger0" 9
  23 "ValveBiped.Bip01_L_Finger01" 22
  24 "ValveBiped.Bip01_L_Finger02" 23
  25 "ValveBiped.Bip01_L_wrist_helper2" 9
  26 "ValveBiped.Bip01_L_thumbroot" 9
  27 "ValveBiped.Bip01_L_wrist_helper1" 9
  28 "ValveBiped.Bip01_L_Driven_ulna" 8
  29 "ValveBiped.Bip01_L_Forearm_driven" 8
  30 "ValveBiped.Bip01_R_Clavicle" 5
  31 "ValveBiped.Bip01_R_UpperArm" 30
  32 "ValveBiped.Bip01_R_Forearm" 31
  33 "ValveBiped.Bip01_R_Hand" 32
  34 "ValveBiped.Bip01_R_Finger4" 33
  35 "ValveBiped.Bip01_R_Finger41" 34
  36 "ValveBiped.Bip01_R_Finger42" 35
  37 "ValveBiped.Bip01_R_Finger3" 33
  38 "ValveBiped.Bip01_R_Finger31" 37
  39 "ValveBiped.Bip01_R_Finger32" 38
  40 "ValveBiped.Bip01_R_Finger2" 33
  41 "ValveBiped.Bip01_R_Finger21" 40
  42 "ValveBiped.Bip01_R_Finger22" 41
  43 "ValveBiped.Bip01_R_Finger1" 33
  44 "ValveBiped.Bip01_R_Finger11" 43
  45 "ValveBiped.Bip01_R_Finger12" 44
  46 "ValveBiped.Bip01_R_Finger0" 33
  47 "ValveBiped.Bip01_R_Finger01" 46
  48 "ValveBiped.Bip01_R_Finger02" 47
  49 "ValveBiped.Bip01_R_thumbroot" 33
  50 "ValveBiped.Bip01_R_wrist_helper1" 33
  51 "ValveBiped.Bip01_R_wrist_helper2" 33
  52 "ValveBiped.Bip01_R_Driven_ulna" 32
  53 "ValveBiped.Bip01_R_Forearm_driven" 32
  54 "ValveBiped.weapon_bone" 1
  55 "ValveBiped.Camera" 0
end
skeleton
time 0
    0 0.000000 0.000000 0.000000 1.570792 0.000003 -0.000003
    1 0.000000 38.317688 -0.516773 1.570796 0.004431 1.570796
    2 4.044010 -0.000009 0.000000 0.000000 -0.000001 -0.078770
    3 3.995838 0.000032 -0.000002 0.000000 0.000000 -0.171956
    4 3.698242 -0.000013 0.000000 0.000000 0.000000 -0.015835
    5 5.700890 0.000010 -0.000001 0.000000 -0.000004 0.495182
    6 4.065407 1.458944 1.499986 0.877502 -1.114837 -2.566253
    7 5.507368 -0.000011 0.000005 -1.384890 -0.344368 -0.770835
    8 10.907410 0.000070 0.000000 0.000005 0.000001 -0.125687
    9 10.424324 -0.000143 -0.000031 1.373042 0.113577 0.124294
    10 2.997269 0.005419 -1.477490 0.204942 0.143350 -0.226726
    11 1.510378 0.000010 -0.000011 0.011400 0.016675 -0.599945
    12 0.808651 0.000004 -0.000002 -0.054474 -0.175378 -0.302887
    13 3.305794 0.203121 -0.546749 0.197883 0.103926 -0.292828
    14 1.807182 -0.000006 0.000004 -0.051968 -0.088372 -0.532551
    15 0.966152 -0.000002 0.000004 0.002416 0.009759 -0.242677
    16 3.571514 0.109314 0.409559 0.187280 0.067970 -0.258135
    17 2.150658 -0.000025 0.000023 -0.042070 -0.053980 -0.662658
    18 1.152748 -0.000004 0.000007 0.001898 0.012019 -0.156563
    19 3.684105 -0.158688 1.419162 0.180690 0.034236 -0.204087
    20 1.701008 -0.000006 0.000004 0.051327 0.064033 -0.676429
    21 0.994709 0.000003 -0.000002 0.001278 0.038569 -0.033093
    22 1.068085 -1.287201 0.981896 1.693866 -0.344556 -0.124099
    23 1.836306 -0.000002 0.000021 0.000002 -0.188131 -0.185295
    24 1.223946 0.000013 -0.000002 -0.000001 -0.040649 0.196345
    25 -0.776922 -0.827271 -0.331168 0.055851 -0.207284 1.659055
    26 0.084980 -0.692276 1.011115 -1.549320 0.370133 3.049641
    27 -0.709019 0.056322 -1.034467 -1.549319 0.370133 3.049641
    28 6.868280 -0.000090 0.000000 1.376988 0.104719 0.122159
    29 3.358410 -0.030883 0.000027 1.370400 0.104720 0.122161
    30 4.065392 1.458944 -1.500016 -0.952676 1.114830 -2.566276
    31 5.507360 0.000034 0.000023 1.443307 0.396166 -0.749679
    32 10.907413 0.000047 0.000004 -0.000003 -0.000001 -0.125693
    33 10.424305 -0.000108 0.000015 -1.376660 -0.113588 0.124294
    34 2.997290 0.000103 1.477502 -0.201327 -0.143354 -0.226711
    35 1.510384 0.000006 0.000007 -0.011400 -0.016678 -0.599943
    36 0.808651 0.000000 -0.000002 0.054471 0.175388 -0.302896
    37 3.305805 0.201176 0.547482 -0.194266 -0.103930 -0.292815
    38 1.807167 -0.000004 -0.000006 0.051968 0.088380 -0.532559
    39 0.966145 0.000002 0.000003 -0.002415 -0.009765 -0.242671
    40 3.571531 0.110826 -0.409158 -0.183663 -0.067962 -0.258143
    41 2.150660 0.000010 0.000007 0.042079 0.053984 -0.662657
    42 1.152752 0.000009 0.000010 -0.001896 -0.012025 -0.156555
    43 3.684135 -0.153522 -1.419722 -0.177072 -0.034235 -0.204081
    44 1.701015 0.000002 0.000002 -0.051326 -0.064039 -0.676420
    45 0.994709 0.000000 -0.000002 -0.001277 -0.038549 -0.033111
    46 1.068129 -1.283642 -0.986544 -1.690055 0.344997 -0.122818
    47 1.836306 0.000000 0.000019 -0.000004 0.188103 -0.185293
    48 1.223946 0.000010 -0.000011 0.000003 0.040651 0.196345
    49 0.109880 -0.821457 -0.906647 -1.824298 0.360795 -0.305993
    50 -0.722092 0.182117 1.010614 -1.692969 0.345005 -0.122812
    51 -0.765158 -0.790062 0.433558 -3.088785 -0.344128 -1.462214
    52 6.694326 -0.000067 0.000000 -1.380765 -0.104981 0.122265
    53 3.201691 -0.000031 0.000000 -1.371888 -0.104722 0.122160
    54 8.329056 7.655498 0.000000 0.000000 -1.570796 -1.566366
    55 0.000000 56.084801 0.000000 0.000000 0.000000 0.000000
end
