version 1
nodes
  0 "ValveBiped.ValveBiped" -1
  1 "ValveBiped.Bip01" 0
  2 "ValveBiped.Bip01_Spine" 1
  3 "ValveBiped.Bip01_Spine1" 2
  4 "ValveBiped.Bip01_Spine2" 3
  5 "ValveBiped.Bip01_Spine4" 4
  6 "ValveBiped.Bip01_L_Clavicle" 5
  7 "ValveBiped.Bip01_L_UpperArm" 6
  8 "ValveBiped.Bip01_L_Forearm" 7
  9 "ValveBiped.Bip01_L_Hand" 8
  10 "ValveBiped.Bip01_L_Finger4" 9
  11 "ValveBiped.Bip01_L_Finger41" 10
  12 "ValveBiped.Bip01_L_Finger42" 11
  13 "ValveBiped.Bip01_L_Finger3" 9
  14 "ValveBiped.Bip01_L_Finger31" 13
  15 "ValveBiped.Bip01_L_Finger32" 14
  16 "ValveBiped.Bip01_L_Finger2" 9
  17 "ValveBiped.Bip01_L_Finger21" 16
  18 "ValveBiped.Bip01_L_Finger22" 17
  19 "ValveBiped.Bip01_L_Finger1" 9
  20 "ValveBiped.Bip01_L_Finger11" 19
  21 "ValveBiped.Bip01_L_Finger12" 20
  22 "ValveBiped.Bip01_L_Finger0" 9
  23 "ValveBiped.Bip01_L_Finger01" 22
  24 "ValveBiped.Bip01_L_Finger02" 23
  25 "ValveBiped.Bip01_L_wrist_helper2" 9
  26 "ValveBiped.Bip01_L_thumbroot" 9
  27 "ValveBiped.Bip01_L_wrist_helper1" 9
  28 "ValveBiped.hlp_wrist01_L" 9
  29 "ValveBiped.hlp_thumb_fix_L" 9
  30 "ValveBiped.Bip01_L_Driven_ulna" 8
  31 "ValveBiped.Bip01_L_Forearm_driven" 8
  32 "ValveBiped.hlp_ulna02_L" 8
  33 "ValveBiped.hlp_ulna01_L" 8
  34 "ValveBiped.Bip01_R_Clavicle" 5
  35 "ValveBiped.Bip01_R_UpperArm" 34
  36 "ValveBiped.Bip01_R_Forearm" 35
  37 "ValveBiped.Bip01_R_Hand" 36
  38 "ValveBiped.Bip01_R_Finger4" 37
  39 "ValveBiped.Bip01_R_Finger41" 38
  40 "ValveBiped.Bip01_R_Finger42" 39
  41 "ValveBiped.Bip01_R_Finger3" 37
  42 "ValveBiped.Bip01_R_Finger31" 41
  43 "ValveBiped.Bip01_R_Finger32" 42
  44 "ValveBiped.Bip01_R_Finger2" 37
  45 "ValveBiped.Bip01_R_Finger21" 44
  46 "ValveBiped.Bip01_R_Finger22" 45
  47 "ValveBiped.Bip01_R_Finger1" 37
  48 "ValveBiped.Bip01_R_Finger11" 47
  49 "ValveBiped.Bip01_R_Finger12" 48
  50 "ValveBiped.Bip01_R_Finger0" 37
  51 "ValveBiped.Bip01_R_Finger01" 50
  52 "ValveBiped.Bip01_R_Finger02" 51
  53 "ValveBiped.Bip01_R_thumbroot" 37
  54 "ValveBiped.Bip01_R_wrist_helper1" 37
  55 "ValveBiped.Bip01_R_wrist_helper2" 37
  56 "ValveBiped.hlp_wrist01_R" 37
  57 "ValveBiped.Bip01_R_Driven_ulna" 36
  58 "ValveBiped.Bip01_R_Forearm_driven" 36
  59 "ValveBiped.hlp_ulna01_R" 36
  60 "ValveBiped.weapon_bone" 1
  61 "ValveBiped.attach_shell_eject" 60
  62 "ValveBiped.attach_muzzle" 60
  63 "ValveBiped.Camera" 0
  64 "ValveBiped.attach_camera" 63
end
skeleton
time 0
    0 0.000000 0.000000 0.000000 1.570792 0.000003 -0.000003
    1 0.000000 38.317692 -0.516773 1.570796 0.004437 1.570796
    2 4.044014 0.000011 0.000000 0.000000 0.000000 -0.078753
    3 3.995838 -0.000003 -0.000001 0.000000 0.000000 -0.171975
    4 3.698231 0.000027 -0.000001 0.000000 0.000000 -0.015832
    5 5.700890 0.000051 -0.000001 0.000000 0.000001 0.495178
    6 4.065369 1.458983 1.500005 0.877493 -1.114833 -2.566235
    7 5.507344 0.000046 0.000014 -1.384885 -0.344372 -0.770841
    8 10.907417 0.000121 -0.000004 -0.000002 0.000000 -0.125694
    9 10.424328 -0.000026 -0.000038 1.373053 0.113564 0.124321
    10 2.997286 0.005388 -1.477453 0.204944 0.143336 -0.226743
    11 1.510389 0.000025 -0.000016 0.011397 0.016679 -0.599942
    12 0.808655 0.000004 -0.000002 -0.054474 -0.175378 -0.302887
    13 3.305815 0.203089 -0.546710 0.197885 0.103918 -0.292838
    14 1.807159 -0.000006 0.000012 -0.051966 -0.088373 -0.532553
    15 0.966141 -0.000005 0.000006 0.002416 0.009746 -0.242692
    16 3.571512 0.109276 0.409602 0.187278 0.067948 -0.258168
    17 2.150665 0.000015 -0.000007 -0.042079 -0.053988 -0.662659
    18 1.152748 0.000008 -0.000016 0.001897 0.012039 -0.156542
    19 3.684099 -0.158726 1.419208 0.180687 0.034212 -0.204114
    20 1.701008 0.000011 -0.000020 0.051320 0.064035 -0.676429
    21 0.994705 0.000011 -0.000013 0.001277 0.038568 -0.033096
    22 1.068060 -1.287209 0.981915 1.693870 -0.344559 -0.124128
    23 1.836298 0.000011 -0.000010 0.000000 -0.188105 -0.185274
    24 1.223953 -0.000007 0.000013 -0.000002 -0.040651 0.196337
    25 -0.776924 -0.827257 -0.331177 0.055838 -0.207281 1.659047
    26 0.084955 -0.692268 1.011118 -1.549320 0.370158 3.049623
    27 -0.709007 0.056332 -1.034474 -1.549324 0.370137 3.049632
    28 0.000000 0.000006 0.000000 0.000000 0.000001 -0.000003
    29 0.000000 0.000006 0.000000 0.000000 0.000001 -0.000003
    30 6.868294 -0.000012 -0.000008 1.376994 0.104725 0.122167
    31 3.358418 -0.030845 0.000027 1.370406 0.104726 0.122164
    32 9.179504 0.000011 -0.000008 0.000004 0.000001 -0.000010
    33 6.694326 0.000008 -0.000011 -0.000001 0.000000 0.000000
    34 4.065369 1.458987 -1.499998 -0.952642 1.114836 -2.566234
    35 5.507373 -0.000057 -0.000038 1.443284 0.396160 -0.749690
    36 10.907394 -0.000066 -0.000004 0.000015 0.000001 -0.125714
    37 10.424301 -0.000006 0.000008 -1.376666 -0.113567 0.124328
    38 2.997311 0.000031 1.477450 -0.201331 -0.143344 -0.226726
    39 1.510376 0.000000 -0.000003 -0.011406 -0.016669 -0.599956
    40 0.808647 0.000002 0.000003 0.054475 0.175372 -0.302880
    41 3.305828 0.201099 0.547425 -0.194271 -0.103913 -0.292840
    42 1.807182 -0.000006 -0.000002 0.051968 0.088382 -0.532560
    43 0.966145 0.000007 0.000008 -0.002413 -0.009757 -0.242678
    44 3.571526 0.110743 -0.409219 -0.183668 -0.067950 -0.258157
    45 2.150661 0.000002 -0.000004 0.042077 0.053989 -0.662664
    46 1.152752 0.000012 0.000014 -0.001895 -0.012020 -0.156560
    47 3.684101 -0.153612 -1.419787 -0.177076 -0.034228 -0.204091
    48 1.701017 -0.000017 -0.000017 -0.051333 -0.064028 -0.676437
    49 0.994713 0.000012 0.000004 -0.001278 -0.038565 -0.033095
    50 1.068068 -1.283667 -0.986562 -1.690058 0.345008 -0.122830
    51 1.836304 0.000010 -0.000006 0.000000 0.188096 -0.185274
    52 1.223938 -0.000003 -0.000034 0.000005 0.040657 0.196336
    53 0.109844 -0.821465 -0.906650 -1.824303 0.360812 -0.306009
    54 -0.722092 0.182123 1.010618 -1.692972 0.345013 -0.122819
    55 -0.765167 -0.790052 0.433567 -3.088796 -0.344125 -1.462214
    56 0.000004 -0.000002 0.000000 -0.000002 0.000001 0.000001
    57 6.694324 -0.000001 -0.000004 -1.380768 -0.104975 0.122279
    58 3.201687 0.000001 0.000004 -1.371892 -0.104720 0.122174
    59 6.694328 -0.000002 -0.000004 0.000003 0.000000 0.000005
    60 8.329014 7.655545 -0.000002 0.000000 -1.570796 -1.566360
    61 -0.000001 3.003880 1.610713 -1.570797 -0.000001 1.570795
    62 -0.000006 0.099705 8.360902 0.000000 -1.570796 0.000000
    63 0.000000 56.084805 0.000000 0.000000 0.000000 0.000000
    64 0.000000 0.000000 0.000000 0.000000 -1.570796 0.000000
end
