version 1
nodes
  0 "ValveBiped.ValveBiped" -1
  1 "ValveBiped.Bip01" 0
  2 "ValveBiped.Bip01_Spine" 1
  3 "ValveBiped.Bip01_Spine1" 2
  4 "ValveBiped.Bip01_Spine2" 3
  5 "ValveBiped.Bip01_Spine4" 4
  6 "ValveBiped.Bip01_L_Clavicle" 5
  7 "ValveBiped.Bip01_L_UpperArm" 6
  8 "ValveBiped.Bip01_L_Forearm" 7
  9 "ValveBiped.Bip01_L_Hand" 8
  10 "ValveBiped.Bip01_L_Finger4" 9
  11 "ValveBiped.Bip01_L_Finger41" 10
  12 "ValveBiped.Bip01_L_Finger42" 11
  13 "ValveBiped.Bip01_L_Finger3" 9
  14 "ValveBiped.Bip01_L_Finger31" 13
  15 "ValveBiped.Bip01_L_Finger32" 14
  16 "ValveBiped.Bip01_L_Finger2" 9
  17 "ValveBiped.Bip01_L_Finger21" 16
  18 "ValveBiped.Bip01_L_Finger22" 17
  19 "ValveBiped.Bip01_L_Finger1" 9
  20 "ValveBiped.Bip01_L_Finger11" 19
  21 "ValveBiped.Bip01_L_Finger12" 20
  22 "ValveBiped.Bip01_L_Finger0" 9
  23 "ValveBiped.Bip01_L_Finger01" 22
  24 "ValveBiped.Bip01_L_Finger02" 23
  25 "ValveBiped.Bip01_L_wrist_helper2" 9
  26 "ValveBiped.Bip01_L_thumbroot" 9
  27 "ValveBiped.Bip01_L_wrist_helper1" 9
  28 "ValveBiped.hlp_wrist01_L" 9
  29 "ValveBiped.hlp_thumb_fix_L" 9
  30 "ValveBiped.Bip01_L_Driven_ulna" 8
  31 "ValveBiped.Bip01_L_Forearm_driven" 8
  32 "ValveBiped.Bip01_R_Clavicle" 5
  33 "ValveBiped.Bip01_R_UpperArm" 32
  34 "ValveBiped.Bip01_R_Forearm" 33
  35 "ValveBiped.Bip01_R_Hand" 34
  36 "ValveBiped.Bip01_R_Finger4" 35
  37 "ValveBiped.Bip01_R_Finger41" 36
  38 "ValveBiped.Bip01_R_Finger42" 37
  39 "ValveBiped.Bip01_R_Finger3" 35
  40 "ValveBiped.Bip01_R_Finger31" 39
  41 "ValveBiped.Bip01_R_Finger32" 40
  42 "ValveBiped.Bip01_R_Finger2" 35
  43 "ValveBiped.Bip01_R_Finger21" 42
  44 "ValveBiped.Bip01_R_Finger22" 43
  45 "ValveBiped.Bip01_R_Finger1" 35
  46 "ValveBiped.Bip01_R_Finger11" 45
  47 "ValveBiped.Bip01_R_Finger12" 46
  48 "ValveBiped.Bip01_R_Finger0" 35
  49 "ValveBiped.Bip01_R_Finger01" 48
  50 "ValveBiped.Bip01_R_Finger02" 49
  51 "ValveBiped.Bip01_R_thumbroot" 35
  52 "ValveBiped.Bip01_R_wrist_helper1" 35
  53 "ValveBiped.Bip01_R_wrist_helper2" 35
  54 "ValveBiped.hlp_wrist01_R" 35
  55 "ValveBiped.Bip01_R_Driven_ulna" 34
  56 "ValveBiped.Bip01_R_Forearm_driven" 34
  57 "ValveBiped.weapon_bone" 1
  58 "ValveBiped.attach_shell_eject" 57
  59 "ValveBiped.attach_muzzle" 57
  60 "ValveBiped.Camera" 0
  61 "ValveBiped.attach_camera" 60
  62 "ValveBiped.hlp_ulna02_L" 8
  63 "ValveBiped.hlp_ulna01_L" 8
  64 "ValveBiped.hlp_ulna01_R" 34
end
skeleton
time 0
    0 0.000000 0.000000 0.000000 1.570792 0.000003 -0.000003
    1 0.000000 38.317692 -0.516773 1.570796 0.004437 1.570796
    2 4.044014 0.000012 0.000000 0.000000 -0.000001 -0.078753
    3 3.995842 -0.000002 -0.000005 0.000000 0.000000 -0.171973
    4 3.698235 0.000018 -0.000004 0.000000 0.000000 -0.015836
    5 5.700890 0.000057 -0.000004 0.000000 0.000003 0.495181
    6 4.065384 1.458975 1.500009 0.877487 -1.114832 -2.566230
    7 5.507336 0.000057 0.000024 -1.384892 -0.344369 -0.770843
    8 10.907394 0.000059 0.000004 0.000010 0.000001 -0.125709
    9 10.424326 0.000075 -0.000034 1.373047 0.113571 0.124325
    10 2.997278 0.005405 -1.477463 0.204944 0.143338 -0.226736
    11 1.510389 0.000021 -0.000016 0.011395 0.016679 -0.599943
    12 0.808655 0.000007 -0.000003 -0.054473 -0.175378 -0.302885
    13 3.305803 0.203106 -0.546721 0.197884 0.103922 -0.292831
    14 1.807175 -0.000008 0.000012 -0.051966 -0.088374 -0.532554
    15 0.966145 -0.000003 0.000004 0.002416 0.009746 -0.242691
    16 3.571510 0.109299 0.409590 0.187277 0.067950 -0.258161
    17 2.150658 0.000013 -0.000010 -0.042080 -0.053985 -0.662658
    18 1.152748 0.000012 -0.000014 0.001897 0.012036 -0.156543
    19 3.684099 -0.158707 1.419193 0.180686 0.034217 -0.204106
    20 1.701015 0.000019 -0.000017 0.051320 0.064033 -0.676429
    21 0.994701 0.000013 -0.000014 0.001278 0.038568 -0.033096
    22 1.068066 -1.287205 0.981909 1.693867 -0.344557 -0.124114
    23 1.836306 0.000013 0.000000 0.000001 -0.188100 -0.185274
    24 1.223949 -0.000008 0.000027 -0.000005 -0.040658 0.196336
    25 -0.776928 -0.827267 -0.331174 0.055841 -0.207281 1.659052
    26 0.084957 -0.692268 1.011118 -1.549321 0.370154 3.049629
    27 -0.709023 0.056324 -1.034470 -1.549324 0.370133 3.049640
    28 -0.000002 0.000000 0.000000 0.000000 0.000003 0.000004
    29 -0.000002 0.000000 0.000000 0.000000 0.000003 0.000004
    30 6.868292 0.000054 -0.000004 1.376988 0.104725 0.122175
    31 3.358418 -0.030813 0.000031 1.370401 0.104728 0.122172
    32 4.065384 1.458977 -1.499993 -0.952630 1.114836 -2.566224
    33 5.507363 -0.000057 -0.000058 1.443275 0.396163 -0.749695
    34 10.907410 -0.000050 -0.000004 0.000015 0.000001 -0.125719
    35 10.424313 0.000063 0.000019 -1.376664 -0.113572 0.124320
    36 2.997320 0.000019 1.477438 -0.201330 -0.143341 -0.226728
    37 1.510382 -0.000002 -0.000004 -0.011408 -0.016664 -0.599960
    38 0.808651 0.000005 0.000006 0.054476 0.175367 -0.302876
    39 3.305828 0.201082 0.547413 -0.194270 -0.103910 -0.292842
    40 1.807175 -0.000011 -0.000004 0.051966 0.088382 -0.532562
    41 0.966141 0.000010 0.000008 -0.002412 -0.009757 -0.242678
    42 3.571529 0.110727 -0.409230 -0.183667 -0.067945 -0.258162
    43 2.150658 -0.000004 -0.000002 0.042076 0.053988 -0.662664
    44 1.152752 0.000010 0.000013 -0.001895 -0.012021 -0.156560
    45 3.684097 -0.153625 -1.419800 -0.177074 -0.034225 -0.204095
    46 1.701021 -0.000015 -0.000018 -0.051335 -0.064029 -0.676436
    47 0.994713 0.000008 0.000004 -0.001279 -0.038566 -0.033096
    48 1.068068 -1.283669 -0.986567 -1.690056 0.345012 -0.122834
    49 1.836309 0.000010 -0.000008 -0.000001 0.188101 -0.185273
    50 1.223940 -0.000003 -0.000027 0.000004 0.040656 0.196336
    51 0.109848 -0.821463 -0.906651 -1.824300 0.360813 -0.306004
    52 -0.722080 0.182127 1.010621 -1.692971 0.345017 -0.122824
    53 -0.765158 -0.790051 0.433568 -3.088798 -0.344121 -1.462216
    54 0.000004 0.000002 0.000000 -0.000001 0.000004 -0.000003
    55 6.694328 0.000042 0.000000 -1.380765 -0.104978 0.122286
    56 3.201687 0.000021 0.000008 -1.371889 -0.104721 0.122169
    57 8.329014 7.655548 -0.000003 0.000000 -1.570796 -1.566360
    58 -0.000001 3.003876 1.610714 -1.570797 -0.000001 1.570795
    59 -0.000004 0.099716 8.360903 0.000000 -1.570796 0.000000
    60 0.000000 56.084805 0.000000 0.000000 0.000000 0.000000
    61 0.000000 0.000000 0.000000 0.000000 -1.570796 0.000000
    62 9.179501 0.000053 -0.000004 -0.000010 0.000000 0.000000
    63 6.694328 0.000038 -0.000004 -0.000010 0.000000 0.000007
    64 6.694328 -0.000032 0.000004 0.000004 0.000000 -0.000002
end
